M48
; DRILL file {KiCad 9.0.7} date 2026-02-25T22:10:40+0300
; FORMAT={-:-/ absolute / metric / decimal}
; #@! TF.CreationDate,2026-02-25T22:10:40+03:00
; #@! TF.GenerationSoftware,Kicad,Pcbnew,9.0.7
; #@! TF.FileFunction,Plated,1,2,PTH
FMAT,2
METRIC
; #@! TA.AperFunction,Plated,PTH,ViaDrill
T1C0.400
; #@! TA.AperFunction,Plated,PTH,ComponentDrill
T2C0.800
; #@! TA.AperFunction,Plated,PTH,ViaDrill
T3C1.000
; #@! TA.AperFunction,Plated,PTH,ComponentDrill
T4C1.000
; #@! TA.AperFunction,Plated,PTH,ComponentDrill
T5C1.016
; #@! TA.AperFunction,Plated,PTH,ComponentDrill
T6C2.800
%
G90
G05
T1
X100.212Y-47.402
X100.229Y-49.925
X100.483Y-62.425
X100.483Y-64.925
X107.214Y-41.179
X109.754Y-130.714
X131.979Y-78.675
X133.325Y-76.155
X135.027Y-58.705
X139.345Y-131.095
X142.774Y-40.671
X142.774Y-58.705
X146.746Y-106.822
X153.798Y-54.92
X153.798Y-75.139
X155.816Y-27.844
X158.141Y-78.517
X158.268Y-27.971
X158.678Y-98.42
X159.411Y-108.743
X160.097Y-121.062
X160.656Y-73.615
X160.656Y-76.206
X160.91Y-58.68
X160.96Y-55.124
X164.11Y-55.149
X164.212Y-58.629
X164.72Y-73.666
X164.72Y-76.104
X165.253Y-40.544
X166.633Y-57.347
X167.158Y-121.011
X169.19Y-26.32
X169.952Y-67.305
X169.97Y-34.122
X170.714Y-55.022
X170.841Y-32.03
X171.73Y-26.32
X171.984Y-86.391
X172.111Y-91.09
X172.746Y-27.463
X173.0Y-66.198
X174.143Y-68.738
X174.251Y-104.144
X174.397Y-26.447
X178.08Y-35.718
X181.89Y-29.114
X183.668Y-40.925
X183.795Y-35.718
X184.176Y-107.473
X184.557Y-76.231
X184.938Y-86.764
X184.938Y-91.09
X185.192Y-119.792
X185.446Y-66.175
X185.446Y-100.361
X186.208Y-120.935
X186.335Y-67.341
X187.097Y-97.059
X187.115Y-25.286
X187.351Y-68.675
X187.427Y-124.669
X187.732Y-76.231
X188.113Y-71.175
X188.875Y-27.59
X189.154Y-79.66
X189.154Y-94.544
X189.192Y-30.575
X189.205Y-84.181
X189.205Y-89.261
X189.51Y-74.961
X189.891Y-69.754
X190.496Y-26.164
X190.78Y-28.225
X190.78Y-72.421
X191.161Y-32.67
X191.796Y-81.184
X191.796Y-111.196
X192.431Y-131.603
X193.066Y-122.992
X193.701Y-77.501
X194.209Y-102.009
X194.463Y-83.089
X194.59Y-26.828
X195.669Y-29.559
X196.978Y-124.567
X197.13Y-25.05
X197.257Y-34.448
X197.257Y-40.671
X197.828Y-29.813
X199.797Y-89.82
X199.924Y-122.992
X200.026Y-62.134
X200.051Y-94.646
X200.229Y-79.762
X201.321Y-27.717
X204.953Y-122.992
X205.385Y-103.409
X205.639Y-26.193
X205.639Y-116.05
X206.909Y-95.281
X206.909Y-98.015
X207.671Y-29.622
X207.93Y-76.882
X208.052Y-37.623
X208.687Y-97.29
X210.345Y-26.161
X211.352Y-27.717
X211.735Y-84.74
X211.735Y-89.058
X211.735Y-94.392
X211.735Y-96.425
X211.735Y-98.032
X213.259Y-99.726
X214.021Y-119.792
X214.148Y-58.705
X214.148Y-61.753
X214.402Y-25.558
X214.402Y-79.279
X215.164Y-107.219
X215.672Y-101.496
X219.99Y-36.353
X224.435Y-52.355
X224.562Y-58.578
X224.562Y-77.374
X225.514Y-103.092
X225.578Y-105.441
X225.638Y-108.041
X226.594Y-111.283
T2
X122.875Y-20.097
X122.922Y-26.574
X127.875Y-20.097
X127.922Y-26.574
T3
X161.697Y-44.034
X215.251Y-51.339
X216.053Y-41.814
T4
X118.009Y-21.621
X118.009Y-24.161
X118.009Y-26.701
X118.009Y-29.241
X123.304Y-46.175
X123.304Y-48.675
X123.304Y-51.175
X123.304Y-53.675
X123.304Y-56.175
X123.304Y-58.675
X123.304Y-61.175
X123.304Y-63.675
X123.304Y-66.175
X123.304Y-68.675
X123.304Y-71.175
X123.304Y-73.675
X123.304Y-76.175
X123.304Y-78.675
X123.304Y-81.175
X123.304Y-83.675
X123.304Y-86.175
X123.304Y-88.675
X123.304Y-91.175
X123.304Y-93.675
X123.304Y-96.175
X123.304Y-98.675
X123.304Y-101.175
X123.304Y-103.675
X123.304Y-106.175
X123.304Y-108.675
X123.304Y-111.175
X123.304Y-113.675
X123.304Y-116.175
X123.304Y-118.675
X123.304Y-121.175
X123.304Y-123.675
X125.804Y-46.175
X125.804Y-48.675
X125.804Y-51.175
X125.804Y-53.675
X125.804Y-56.175
X125.804Y-58.675
X125.804Y-61.175
X125.804Y-63.675
X125.804Y-66.175
X125.804Y-68.675
X125.804Y-71.175
X125.804Y-73.675
X125.804Y-76.175
X125.804Y-78.675
X125.804Y-81.175
X125.804Y-83.675
X125.804Y-86.175
X125.804Y-88.675
X125.804Y-91.175
X125.804Y-93.675
X125.804Y-96.175
X125.804Y-98.675
X125.804Y-101.175
X125.804Y-103.675
X125.804Y-106.175
X125.804Y-108.675
X125.804Y-111.175
X125.804Y-113.675
X125.804Y-116.175
X125.804Y-118.675
X125.804Y-121.175
X125.804Y-123.675
X128.304Y-46.175
X128.304Y-48.675
X128.304Y-51.175
X128.304Y-53.675
X128.304Y-56.175
X128.304Y-58.675
X128.304Y-61.175
X128.304Y-63.675
X128.304Y-66.175
X128.304Y-68.675
X128.304Y-71.175
X128.304Y-73.675
X128.304Y-76.175
X128.304Y-78.675
X128.304Y-81.175
X128.304Y-83.675
X128.304Y-86.175
X128.304Y-88.675
X128.304Y-91.175
X128.304Y-93.675
X128.304Y-96.175
X128.304Y-98.675
X128.304Y-101.175
X128.304Y-103.675
X128.304Y-106.175
X128.304Y-108.675
X128.304Y-111.175
X128.304Y-113.675
X128.304Y-116.175
X128.304Y-118.675
X128.304Y-121.175
X128.304Y-123.675
X133.503Y-31.781
X136.043Y-31.781
X138.583Y-31.781
X150.004Y-46.175
X150.004Y-48.675
X150.004Y-51.175
X150.004Y-53.675
X150.004Y-56.175
X150.004Y-58.675
X150.004Y-61.175
X150.004Y-63.675
X150.004Y-66.175
X150.004Y-68.675
X150.004Y-71.175
X150.004Y-73.675
X150.004Y-76.175
X150.004Y-78.675
X150.004Y-81.175
X150.004Y-83.675
X150.004Y-86.175
X150.004Y-88.675
X150.004Y-91.175
X150.004Y-93.675
X150.004Y-96.175
X150.004Y-98.675
X150.004Y-101.175
X150.004Y-103.675
X150.004Y-106.175
X150.004Y-108.675
X150.004Y-111.175
X150.004Y-113.675
X150.004Y-116.175
X150.004Y-118.675
X150.004Y-121.175
X150.004Y-123.675
X152.504Y-46.175
X152.504Y-48.675
X152.504Y-51.175
X152.504Y-53.675
X152.504Y-56.175
X152.504Y-58.675
X152.504Y-61.175
X152.504Y-63.675
X152.504Y-66.175
X152.504Y-68.675
X152.504Y-71.175
X152.504Y-73.675
X152.504Y-76.175
X152.504Y-78.675
X152.504Y-81.175
X152.504Y-83.675
X152.504Y-86.175
X152.504Y-88.675
X152.504Y-91.175
X152.504Y-93.675
X152.504Y-96.175
X152.504Y-98.675
X152.504Y-101.175
X152.504Y-103.675
X152.504Y-106.175
X152.504Y-108.675
X152.504Y-111.175
X152.504Y-113.675
X152.504Y-116.175
X152.504Y-118.675
X152.504Y-121.175
X152.504Y-123.675
X155.004Y-46.175
X155.004Y-48.675
X155.004Y-51.175
X155.004Y-53.675
X155.004Y-56.175
X155.004Y-58.675
X155.004Y-61.175
X155.004Y-63.675
X155.004Y-66.175
X155.004Y-68.675
X155.004Y-71.175
X155.004Y-73.675
X155.004Y-76.175
X155.004Y-78.675
X155.004Y-81.175
X155.004Y-83.675
X155.004Y-86.175
X155.004Y-88.675
X155.004Y-91.175
X155.004Y-93.675
X155.004Y-96.175
X155.004Y-98.675
X155.004Y-101.175
X155.004Y-103.675
X155.004Y-106.175
X155.004Y-108.675
X155.004Y-111.175
X155.004Y-113.675
X155.004Y-116.175
X155.004Y-118.675
X155.004Y-121.175
X155.004Y-123.675
X176.704Y-46.175
X176.704Y-48.675
X176.704Y-51.175
X176.704Y-53.675
X176.704Y-56.175
X176.704Y-58.675
X176.704Y-61.175
X176.704Y-63.675
X176.704Y-66.175
X176.704Y-68.675
X176.704Y-71.175
X176.704Y-73.675
X176.704Y-76.175
X176.704Y-78.675
X176.704Y-81.175
X176.704Y-83.675
X176.704Y-86.175
X176.704Y-88.675
X176.704Y-91.175
X176.704Y-93.675
X176.704Y-96.175
X176.704Y-98.675
X176.704Y-101.175
X176.704Y-103.675
X176.704Y-106.175
X176.704Y-108.675
X176.704Y-111.175
X176.704Y-113.675
X176.704Y-116.175
X176.704Y-118.675
X176.704Y-121.175
X176.704Y-123.675
X179.204Y-46.175
X179.204Y-48.675
X179.204Y-51.175
X179.204Y-53.675
X179.204Y-56.175
X179.204Y-58.675
X179.204Y-61.175
X179.204Y-63.675
X179.204Y-66.175
X179.204Y-68.675
X179.204Y-71.175
X179.204Y-73.675
X179.204Y-76.175
X179.204Y-78.675
X179.204Y-81.175
X179.204Y-83.675
X179.204Y-86.175
X179.204Y-88.675
X179.204Y-91.175
X179.204Y-93.675
X179.204Y-96.175
X179.204Y-98.675
X179.204Y-101.175
X179.204Y-103.675
X179.204Y-106.175
X179.204Y-108.675
X179.204Y-111.175
X179.204Y-113.675
X179.204Y-116.175
X179.204Y-118.675
X179.204Y-121.175
X179.204Y-123.675
X181.704Y-46.175
X181.704Y-48.675
X181.704Y-51.175
X181.704Y-53.675
X181.704Y-56.175
X181.704Y-58.675
X181.704Y-61.175
X181.704Y-63.675
X181.704Y-66.175
X181.704Y-68.675
X181.704Y-71.175
X181.704Y-73.675
X181.704Y-76.175
X181.704Y-78.675
X181.704Y-81.175
X181.704Y-83.675
X181.704Y-86.175
X181.704Y-88.675
X181.704Y-91.175
X181.704Y-93.675
X181.704Y-96.175
X181.704Y-98.675
X181.704Y-101.175
X181.704Y-103.675
X181.704Y-106.175
X181.704Y-108.675
X181.704Y-111.175
X181.704Y-113.675
X181.704Y-116.175
X181.704Y-118.675
X181.704Y-121.175
X181.704Y-123.675
X217.704Y-45.975
X217.704Y-48.475
X217.704Y-50.975
X217.704Y-53.475
X217.704Y-55.975
X217.704Y-58.475
X217.704Y-60.975
X217.704Y-63.475
X217.704Y-65.975
X217.704Y-68.475
X217.704Y-70.975
X217.704Y-73.475
X217.704Y-75.975
X217.704Y-78.475
X217.704Y-80.975
X217.704Y-83.475
X217.704Y-85.975
X217.704Y-88.475
X217.704Y-90.975
X217.704Y-93.475
X217.704Y-95.975
X217.704Y-98.475
X217.704Y-100.975
X217.704Y-103.475
X217.704Y-105.975
X217.704Y-108.475
X217.704Y-110.975
X217.704Y-113.475
X217.704Y-115.975
X217.704Y-118.475
X217.704Y-120.975
X217.704Y-123.475
X220.204Y-45.975
X220.204Y-48.475
X220.204Y-50.975
X220.204Y-53.475
X220.204Y-55.975
X220.204Y-58.475
X220.204Y-60.975
X220.204Y-63.475
X220.204Y-65.975
X220.204Y-68.475
X220.204Y-70.975
X220.204Y-73.475
X220.204Y-75.975
X220.204Y-78.475
X220.204Y-80.975
X220.204Y-83.475
X220.204Y-85.975
X220.204Y-88.475
X220.204Y-90.975
X220.204Y-93.475
X220.204Y-95.975
X220.204Y-98.475
X220.204Y-100.975
X220.204Y-103.475
X220.204Y-105.975
X220.204Y-108.475
X220.204Y-110.975
X220.204Y-113.475
X220.204Y-115.975
X220.204Y-118.475
X220.204Y-120.975
X220.204Y-123.475
X222.704Y-45.975
X222.704Y-48.475
X222.704Y-50.975
X222.704Y-53.475
X222.704Y-55.975
X222.704Y-58.475
X222.704Y-60.975
X222.704Y-63.475
X222.704Y-65.975
X222.704Y-68.475
X222.704Y-70.975
X222.704Y-73.475
X222.704Y-75.975
X222.704Y-78.475
X222.704Y-80.975
X222.704Y-83.475
X222.704Y-85.975
X222.704Y-88.475
X222.704Y-90.975
X222.704Y-93.475
X222.704Y-95.975
X222.704Y-98.475
X222.704Y-100.975
X222.704Y-103.475
X222.704Y-105.975
X222.704Y-108.475
X222.704Y-110.975
X222.704Y-113.475
X222.704Y-115.975
X222.704Y-118.475
X222.704Y-120.975
X222.704Y-123.475
T5
X197.511Y-46.259
X197.511Y-48.799
X197.511Y-51.339
X197.511Y-53.879
X197.511Y-58.959
X197.511Y-61.499
X197.511Y-64.039
X197.511Y-66.579
X197.511Y-69.119
X197.511Y-71.659
X197.511Y-74.199
X197.511Y-76.739
X197.511Y-79.279
X197.511Y-81.819
X197.511Y-84.359
X197.511Y-86.899
X197.511Y-89.439
X197.511Y-91.979
X197.511Y-94.519
X197.511Y-97.059
X197.511Y-99.599
X197.511Y-102.139
X197.511Y-104.679
X197.511Y-107.219
X197.511Y-109.759
X197.511Y-112.299
X197.511Y-114.839
X202.591Y-46.259
X202.591Y-48.799
X202.591Y-51.339
X202.591Y-53.879
X202.591Y-58.959
X202.591Y-61.499
X202.591Y-64.039
X202.591Y-66.579
X202.591Y-69.119
X202.591Y-71.659
X202.591Y-74.199
X202.591Y-76.739
X202.591Y-79.279
X202.591Y-81.819
X202.591Y-84.359
X202.591Y-86.899
X202.591Y-89.439
X202.591Y-91.979
X202.591Y-94.519
X202.591Y-97.059
X202.591Y-99.599
X202.591Y-102.139
X202.591Y-104.679
X202.591Y-107.219
X202.591Y-109.759
X202.591Y-112.299
X202.591Y-114.839
T6
X125.804Y-41.175
X125.804Y-131.175
X152.504Y-41.175
X152.504Y-131.175
X179.204Y-41.175
X179.204Y-131.175
X225.204Y-40.975
X225.204Y-128.475
T4
G00X131.766Y-23.639
M15
G01X131.766Y-21.439
M16
G05
G00X137.666Y-19.139
M15
G01X135.466Y-19.139
M16
G05
G00X137.866Y-25.439
M15
G01X135.266Y-25.439
M16
G05
M30
