%TF.GenerationSoftware,KiCad,Pcbnew,9.0.7*%
%TF.CreationDate,2026-02-25T22:10:38+03:00*%
%TF.ProjectId,deltas_backplane,64656c74-6173-45f6-9261-636b706c616e,rev?*%
%TF.SameCoordinates,Original*%
%TF.FileFunction,Soldermask,Top*%
%TF.FilePolarity,Negative*%
%FSLAX46Y46*%
G04 Gerber Fmt 4.6, Leading zero omitted, Abs format (unit mm)*
G04 Created by KiCad (PCBNEW 9.0.7) date 2026-02-25 22:10:38*
%MOMM*%
%LPD*%
G01*
G04 APERTURE LIST*
%ADD10C,0.120000*%
%ADD11C,3.800000*%
%ADD12C,1.600000*%
%ADD13C,3.200000*%
%ADD14R,1.700000X1.700000*%
%ADD15O,1.700000X1.700000*%
%ADD16R,4.600000X2.000000*%
%ADD17O,4.200000X2.000000*%
%ADD18O,2.000000X4.200000*%
%ADD19O,3.000000X1.600000*%
%ADD20R,1.600000X1.600000*%
G04 APERTURE END LIST*
%TO.C,J1*%
D10*
X88493980Y-46815010D02*
X98493980Y-46815010D01*
X98493980Y-45515010D01*
X88493980Y-45515010D01*
X88493980Y-46815010D01*
G36*
X88493980Y-46815010D02*
G01*
X98493980Y-46815010D01*
X98493980Y-45515010D01*
X88493980Y-45515010D01*
X88493980Y-46815010D01*
G37*
X88493980Y-49315010D02*
X98493980Y-49315010D01*
X98493980Y-48015010D01*
X88493980Y-48015010D01*
X88493980Y-49315010D01*
G36*
X88493980Y-49315010D02*
G01*
X98493980Y-49315010D01*
X98493980Y-48015010D01*
X88493980Y-48015010D01*
X88493980Y-49315010D01*
G37*
X88493980Y-51815010D02*
X98493980Y-51815010D01*
X98493980Y-50515010D01*
X88493980Y-50515010D01*
X88493980Y-51815010D01*
G36*
X88493980Y-51815010D02*
G01*
X98493980Y-51815010D01*
X98493980Y-50515010D01*
X88493980Y-50515010D01*
X88493980Y-51815010D01*
G37*
X88493980Y-54315010D02*
X98493980Y-54315010D01*
X98493980Y-53015010D01*
X88493980Y-53015010D01*
X88493980Y-54315010D01*
G36*
X88493980Y-54315010D02*
G01*
X98493980Y-54315010D01*
X98493980Y-53015010D01*
X88493980Y-53015010D01*
X88493980Y-54315010D01*
G37*
X88493980Y-56815010D02*
X98493980Y-56815010D01*
X98493980Y-55515010D01*
X88493980Y-55515010D01*
X88493980Y-56815010D01*
G36*
X88493980Y-56815010D02*
G01*
X98493980Y-56815010D01*
X98493980Y-55515010D01*
X88493980Y-55515010D01*
X88493980Y-56815010D01*
G37*
X88493980Y-59315010D02*
X98493980Y-59315010D01*
X98493980Y-58015010D01*
X88493980Y-58015010D01*
X88493980Y-59315010D01*
G36*
X88493980Y-59315010D02*
G01*
X98493980Y-59315010D01*
X98493980Y-58015010D01*
X88493980Y-58015010D01*
X88493980Y-59315010D01*
G37*
X88493980Y-61815010D02*
X98493980Y-61815010D01*
X98493980Y-60515010D01*
X88493980Y-60515010D01*
X88493980Y-61815010D01*
G36*
X88493980Y-61815010D02*
G01*
X98493980Y-61815010D01*
X98493980Y-60515010D01*
X88493980Y-60515010D01*
X88493980Y-61815010D01*
G37*
X88493980Y-64315010D02*
X98493980Y-64315010D01*
X98493980Y-63015010D01*
X88493980Y-63015010D01*
X88493980Y-64315010D01*
G36*
X88493980Y-64315010D02*
G01*
X98493980Y-64315010D01*
X98493980Y-63015010D01*
X88493980Y-63015010D01*
X88493980Y-64315010D01*
G37*
X88493980Y-66815010D02*
X98493980Y-66815010D01*
X98493980Y-65515010D01*
X88493980Y-65515010D01*
X88493980Y-66815010D01*
G36*
X88493980Y-66815010D02*
G01*
X98493980Y-66815010D01*
X98493980Y-65515010D01*
X88493980Y-65515010D01*
X88493980Y-66815010D01*
G37*
X88493980Y-69315010D02*
X98493980Y-69315010D01*
X98493980Y-68015010D01*
X88493980Y-68015010D01*
X88493980Y-69315010D01*
G36*
X88493980Y-69315010D02*
G01*
X98493980Y-69315010D01*
X98493980Y-68015010D01*
X88493980Y-68015010D01*
X88493980Y-69315010D01*
G37*
X88493980Y-71815010D02*
X98493980Y-71815010D01*
X98493980Y-70515010D01*
X88493980Y-70515010D01*
X88493980Y-71815010D01*
G36*
X88493980Y-71815010D02*
G01*
X98493980Y-71815010D01*
X98493980Y-70515010D01*
X88493980Y-70515010D01*
X88493980Y-71815010D01*
G37*
X88493980Y-74315010D02*
X98493980Y-74315010D01*
X98493980Y-73015010D01*
X88493980Y-73015010D01*
X88493980Y-74315010D01*
G36*
X88493980Y-74315010D02*
G01*
X98493980Y-74315010D01*
X98493980Y-73015010D01*
X88493980Y-73015010D01*
X88493980Y-74315010D01*
G37*
X88493980Y-76815010D02*
X98493980Y-76815010D01*
X98493980Y-75515010D01*
X88493980Y-75515010D01*
X88493980Y-76815010D01*
G36*
X88493980Y-76815010D02*
G01*
X98493980Y-76815010D01*
X98493980Y-75515010D01*
X88493980Y-75515010D01*
X88493980Y-76815010D01*
G37*
X88493980Y-79315010D02*
X98493980Y-79315010D01*
X98493980Y-78015010D01*
X88493980Y-78015010D01*
X88493980Y-79315010D01*
G36*
X88493980Y-79315010D02*
G01*
X98493980Y-79315010D01*
X98493980Y-78015010D01*
X88493980Y-78015010D01*
X88493980Y-79315010D01*
G37*
X88493980Y-81815010D02*
X98493980Y-81815010D01*
X98493980Y-80515010D01*
X88493980Y-80515010D01*
X88493980Y-81815010D01*
G36*
X88493980Y-81815010D02*
G01*
X98493980Y-81815010D01*
X98493980Y-80515010D01*
X88493980Y-80515010D01*
X88493980Y-81815010D01*
G37*
X88493980Y-84315010D02*
X98493980Y-84315010D01*
X98493980Y-83015010D01*
X88493980Y-83015010D01*
X88493980Y-84315010D01*
G36*
X88493980Y-84315010D02*
G01*
X98493980Y-84315010D01*
X98493980Y-83015010D01*
X88493980Y-83015010D01*
X88493980Y-84315010D01*
G37*
X88493980Y-86815010D02*
X98493980Y-86815010D01*
X98493980Y-85515010D01*
X88493980Y-85515010D01*
X88493980Y-86815010D01*
G36*
X88493980Y-86815010D02*
G01*
X98493980Y-86815010D01*
X98493980Y-85515010D01*
X88493980Y-85515010D01*
X88493980Y-86815010D01*
G37*
X88493980Y-89315010D02*
X98493980Y-89315010D01*
X98493980Y-88015010D01*
X88493980Y-88015010D01*
X88493980Y-89315010D01*
G36*
X88493980Y-89315010D02*
G01*
X98493980Y-89315010D01*
X98493980Y-88015010D01*
X88493980Y-88015010D01*
X88493980Y-89315010D01*
G37*
X88493980Y-91815010D02*
X98493980Y-91815010D01*
X98493980Y-90515010D01*
X88493980Y-90515010D01*
X88493980Y-91815010D01*
G36*
X88493980Y-91815010D02*
G01*
X98493980Y-91815010D01*
X98493980Y-90515010D01*
X88493980Y-90515010D01*
X88493980Y-91815010D01*
G37*
X88493980Y-94315010D02*
X98493980Y-94315010D01*
X98493980Y-93015010D01*
X88493980Y-93015010D01*
X88493980Y-94315010D01*
G36*
X88493980Y-94315010D02*
G01*
X98493980Y-94315010D01*
X98493980Y-93015010D01*
X88493980Y-93015010D01*
X88493980Y-94315010D01*
G37*
X88493980Y-96815010D02*
X98493980Y-96815010D01*
X98493980Y-95515010D01*
X88493980Y-95515010D01*
X88493980Y-96815010D01*
G36*
X88493980Y-96815010D02*
G01*
X98493980Y-96815010D01*
X98493980Y-95515010D01*
X88493980Y-95515010D01*
X88493980Y-96815010D01*
G37*
X88493980Y-99315010D02*
X98493980Y-99315010D01*
X98493980Y-98015010D01*
X88493980Y-98015010D01*
X88493980Y-99315010D01*
G36*
X88493980Y-99315010D02*
G01*
X98493980Y-99315010D01*
X98493980Y-98015010D01*
X88493980Y-98015010D01*
X88493980Y-99315010D01*
G37*
X88493980Y-101815010D02*
X98493980Y-101815010D01*
X98493980Y-100515010D01*
X88493980Y-100515010D01*
X88493980Y-101815010D01*
G36*
X88493980Y-101815010D02*
G01*
X98493980Y-101815010D01*
X98493980Y-100515010D01*
X88493980Y-100515010D01*
X88493980Y-101815010D01*
G37*
X88493980Y-104315010D02*
X98493980Y-104315010D01*
X98493980Y-103015010D01*
X88493980Y-103015010D01*
X88493980Y-104315010D01*
G36*
X88493980Y-104315010D02*
G01*
X98493980Y-104315010D01*
X98493980Y-103015010D01*
X88493980Y-103015010D01*
X88493980Y-104315010D01*
G37*
X88493980Y-106815010D02*
X98493980Y-106815010D01*
X98493980Y-105515010D01*
X88493980Y-105515010D01*
X88493980Y-106815010D01*
G36*
X88493980Y-106815010D02*
G01*
X98493980Y-106815010D01*
X98493980Y-105515010D01*
X88493980Y-105515010D01*
X88493980Y-106815010D01*
G37*
X88493980Y-109315010D02*
X98493980Y-109315010D01*
X98493980Y-108015010D01*
X88493980Y-108015010D01*
X88493980Y-109315010D01*
G36*
X88493980Y-109315010D02*
G01*
X98493980Y-109315010D01*
X98493980Y-108015010D01*
X88493980Y-108015010D01*
X88493980Y-109315010D01*
G37*
X88493980Y-111815010D02*
X98493980Y-111815010D01*
X98493980Y-110515010D01*
X88493980Y-110515010D01*
X88493980Y-111815010D01*
G36*
X88493980Y-111815010D02*
G01*
X98493980Y-111815010D01*
X98493980Y-110515010D01*
X88493980Y-110515010D01*
X88493980Y-111815010D01*
G37*
X88493980Y-114315010D02*
X98493980Y-114315010D01*
X98493980Y-113015010D01*
X88493980Y-113015010D01*
X88493980Y-114315010D01*
G36*
X88493980Y-114315010D02*
G01*
X98493980Y-114315010D01*
X98493980Y-113015010D01*
X88493980Y-113015010D01*
X88493980Y-114315010D01*
G37*
X88493980Y-116815010D02*
X98493980Y-116815010D01*
X98493980Y-115515010D01*
X88493980Y-115515010D01*
X88493980Y-116815010D01*
G36*
X88493980Y-116815010D02*
G01*
X98493980Y-116815010D01*
X98493980Y-115515010D01*
X88493980Y-115515010D01*
X88493980Y-116815010D01*
G37*
X88493980Y-119315010D02*
X98493980Y-119315010D01*
X98493980Y-118015010D01*
X88493980Y-118015010D01*
X88493980Y-119315010D01*
G36*
X88493980Y-119315010D02*
G01*
X98493980Y-119315010D01*
X98493980Y-118015010D01*
X88493980Y-118015010D01*
X88493980Y-119315010D01*
G37*
X88493980Y-121815010D02*
X98493980Y-121815010D01*
X98493980Y-120515010D01*
X88493980Y-120515010D01*
X88493980Y-121815010D01*
G36*
X88493980Y-121815010D02*
G01*
X98493980Y-121815010D01*
X98493980Y-120515010D01*
X88493980Y-120515010D01*
X88493980Y-121815010D01*
G37*
X88493980Y-124315010D02*
X98493980Y-124315010D01*
X98493980Y-123015010D01*
X88493980Y-123015010D01*
X88493980Y-124315010D01*
G36*
X88493980Y-124315010D02*
G01*
X98493980Y-124315010D01*
X98493980Y-123015010D01*
X88493980Y-123015010D01*
X88493980Y-124315010D01*
G37*
%TO.C,J6*%
X157176000Y-16665000D02*
X155906000Y-16665000D01*
X155906000Y-24285000D01*
X157176000Y-24285000D01*
X157176000Y-16665000D01*
G36*
X157176000Y-16665000D02*
G01*
X155906000Y-16665000D01*
X155906000Y-24285000D01*
X157176000Y-24285000D01*
X157176000Y-16665000D01*
G37*
X159716000Y-16665000D02*
X158446000Y-16665000D01*
X158446000Y-24285000D01*
X159716000Y-24285000D01*
X159716000Y-16665000D01*
G36*
X159716000Y-16665000D02*
G01*
X158446000Y-16665000D01*
X158446000Y-24285000D01*
X159716000Y-24285000D01*
X159716000Y-16665000D01*
G37*
X162256000Y-16665000D02*
X160986000Y-16665000D01*
X160986000Y-24285000D01*
X162256000Y-24285000D01*
X162256000Y-16665000D01*
G36*
X162256000Y-16665000D02*
G01*
X160986000Y-16665000D01*
X160986000Y-24285000D01*
X162256000Y-24285000D01*
X162256000Y-16665000D01*
G37*
X164796000Y-16665000D02*
X163526000Y-16665000D01*
X163526000Y-24285000D01*
X164796000Y-24285000D01*
X164796000Y-16665000D01*
G36*
X164796000Y-16665000D02*
G01*
X163526000Y-16665000D01*
X163526000Y-24285000D01*
X164796000Y-24285000D01*
X164796000Y-16665000D01*
G37*
X169876000Y-16665000D02*
X168606000Y-16665000D01*
X168606000Y-24285000D01*
X169876000Y-24285000D01*
X169876000Y-16665000D01*
G36*
X169876000Y-16665000D02*
G01*
X168606000Y-16665000D01*
X168606000Y-24285000D01*
X169876000Y-24285000D01*
X169876000Y-16665000D01*
G37*
X172416000Y-16665000D02*
X171146000Y-16665000D01*
X171146000Y-24285000D01*
X172416000Y-24285000D01*
X172416000Y-16665000D01*
G36*
X172416000Y-16665000D02*
G01*
X171146000Y-16665000D01*
X171146000Y-24285000D01*
X172416000Y-24285000D01*
X172416000Y-16665000D01*
G37*
X174956000Y-16665000D02*
X173686000Y-16665000D01*
X173686000Y-24285000D01*
X174956000Y-24285000D01*
X174956000Y-16665000D01*
G36*
X174956000Y-16665000D02*
G01*
X173686000Y-16665000D01*
X173686000Y-24285000D01*
X174956000Y-24285000D01*
X174956000Y-16665000D01*
G37*
X177496000Y-16665000D02*
X176226000Y-16665000D01*
X176226000Y-24285000D01*
X177496000Y-24285000D01*
X177496000Y-16665000D01*
G36*
X177496000Y-16665000D02*
G01*
X176226000Y-16665000D01*
X176226000Y-24285000D01*
X177496000Y-24285000D01*
X177496000Y-16665000D01*
G37*
X180036000Y-16665000D02*
X178766000Y-16665000D01*
X178766000Y-24285000D01*
X180036000Y-24285000D01*
X180036000Y-16665000D01*
G36*
X180036000Y-16665000D02*
G01*
X178766000Y-16665000D01*
X178766000Y-24285000D01*
X180036000Y-24285000D01*
X180036000Y-16665000D01*
G37*
X182576000Y-16665000D02*
X181306000Y-16665000D01*
X181306000Y-24285000D01*
X182576000Y-24285000D01*
X182576000Y-16665000D01*
G36*
X182576000Y-16665000D02*
G01*
X181306000Y-16665000D01*
X181306000Y-24285000D01*
X182576000Y-24285000D01*
X182576000Y-16665000D01*
G37*
X185116000Y-16665000D02*
X183846000Y-16665000D01*
X183846000Y-24285000D01*
X185116000Y-24285000D01*
X185116000Y-16665000D01*
G36*
X185116000Y-16665000D02*
G01*
X183846000Y-16665000D01*
X183846000Y-24285000D01*
X185116000Y-24285000D01*
X185116000Y-16665000D01*
G37*
X187656000Y-16665000D02*
X186386000Y-16665000D01*
X186386000Y-24285000D01*
X187656000Y-24285000D01*
X187656000Y-16665000D01*
G36*
X187656000Y-16665000D02*
G01*
X186386000Y-16665000D01*
X186386000Y-24285000D01*
X187656000Y-24285000D01*
X187656000Y-16665000D01*
G37*
X190196000Y-16665000D02*
X188926000Y-16665000D01*
X188926000Y-24285000D01*
X190196000Y-24285000D01*
X190196000Y-16665000D01*
G36*
X190196000Y-16665000D02*
G01*
X188926000Y-16665000D01*
X188926000Y-24285000D01*
X190196000Y-24285000D01*
X190196000Y-16665000D01*
G37*
X192736000Y-16665000D02*
X191466000Y-16665000D01*
X191466000Y-24285000D01*
X192736000Y-24285000D01*
X192736000Y-16665000D01*
G36*
X192736000Y-16665000D02*
G01*
X191466000Y-16665000D01*
X191466000Y-24285000D01*
X192736000Y-24285000D01*
X192736000Y-16665000D01*
G37*
X195276000Y-16665000D02*
X194006000Y-16665000D01*
X194006000Y-24285000D01*
X195276000Y-24285000D01*
X195276000Y-16665000D01*
G36*
X195276000Y-16665000D02*
G01*
X194006000Y-16665000D01*
X194006000Y-24285000D01*
X195276000Y-24285000D01*
X195276000Y-16665000D01*
G37*
X197816000Y-16665000D02*
X196546000Y-16665000D01*
X196546000Y-24285000D01*
X197816000Y-24285000D01*
X197816000Y-16665000D01*
G36*
X197816000Y-16665000D02*
G01*
X196546000Y-16665000D01*
X196546000Y-24285000D01*
X197816000Y-24285000D01*
X197816000Y-16665000D01*
G37*
X200356000Y-16665000D02*
X199086000Y-16665000D01*
X199086000Y-24285000D01*
X200356000Y-24285000D01*
X200356000Y-16665000D01*
G36*
X200356000Y-16665000D02*
G01*
X199086000Y-16665000D01*
X199086000Y-24285000D01*
X200356000Y-24285000D01*
X200356000Y-16665000D01*
G37*
X202896000Y-16665000D02*
X201626000Y-16665000D01*
X201626000Y-24285000D01*
X202896000Y-24285000D01*
X202896000Y-16665000D01*
G36*
X202896000Y-16665000D02*
G01*
X201626000Y-16665000D01*
X201626000Y-24285000D01*
X202896000Y-24285000D01*
X202896000Y-16665000D01*
G37*
X205436000Y-16665000D02*
X204166000Y-16665000D01*
X204166000Y-24285000D01*
X205436000Y-24285000D01*
X205436000Y-16665000D01*
G36*
X205436000Y-16665000D02*
G01*
X204166000Y-16665000D01*
X204166000Y-24285000D01*
X205436000Y-24285000D01*
X205436000Y-16665000D01*
G37*
X207976000Y-16665000D02*
X206706000Y-16665000D01*
X206706000Y-24285000D01*
X207976000Y-24285000D01*
X207976000Y-16665000D01*
G36*
X207976000Y-16665000D02*
G01*
X206706000Y-16665000D01*
X206706000Y-24285000D01*
X207976000Y-24285000D01*
X207976000Y-16665000D01*
G37*
X210516000Y-16665000D02*
X209246000Y-16665000D01*
X209246000Y-24285000D01*
X210516000Y-24285000D01*
X210516000Y-16665000D01*
G36*
X210516000Y-16665000D02*
G01*
X209246000Y-16665000D01*
X209246000Y-24285000D01*
X210516000Y-24285000D01*
X210516000Y-16665000D01*
G37*
X213056000Y-16665000D02*
X211786000Y-16665000D01*
X211786000Y-24285000D01*
X213056000Y-24285000D01*
X213056000Y-16665000D01*
G36*
X213056000Y-16665000D02*
G01*
X211786000Y-16665000D01*
X211786000Y-24285000D01*
X213056000Y-24285000D01*
X213056000Y-16665000D01*
G37*
X215596000Y-16665000D02*
X214326000Y-16665000D01*
X214326000Y-24285000D01*
X215596000Y-24285000D01*
X215596000Y-16665000D01*
G36*
X215596000Y-16665000D02*
G01*
X214326000Y-16665000D01*
X214326000Y-24285000D01*
X215596000Y-24285000D01*
X215596000Y-16665000D01*
G37*
X218136000Y-16665000D02*
X216866000Y-16665000D01*
X216866000Y-24285000D01*
X218136000Y-24285000D01*
X218136000Y-16665000D01*
G36*
X218136000Y-16665000D02*
G01*
X216866000Y-16665000D01*
X216866000Y-24285000D01*
X218136000Y-24285000D01*
X218136000Y-16665000D01*
G37*
X220676000Y-16665000D02*
X219406000Y-16665000D01*
X219406000Y-24285000D01*
X220676000Y-24285000D01*
X220676000Y-16665000D01*
G36*
X220676000Y-16665000D02*
G01*
X219406000Y-16665000D01*
X219406000Y-24285000D01*
X220676000Y-24285000D01*
X220676000Y-16665000D01*
G37*
X223216000Y-16665000D02*
X221946000Y-16665000D01*
X221946000Y-24285000D01*
X223216000Y-24285000D01*
X223216000Y-16665000D01*
G36*
X223216000Y-16665000D02*
G01*
X221946000Y-16665000D01*
X221946000Y-24285000D01*
X223216000Y-24285000D01*
X223216000Y-16665000D01*
G37*
X225756000Y-16665000D02*
X224486000Y-16665000D01*
X224486000Y-24285000D01*
X225756000Y-24285000D01*
X225756000Y-16665000D01*
G36*
X225756000Y-16665000D02*
G01*
X224486000Y-16665000D01*
X224486000Y-24285000D01*
X225756000Y-24285000D01*
X225756000Y-16665000D01*
G37*
%TD*%
D11*
%TO.C,J3*%
X152504000Y-131175000D03*
X152504000Y-41175000D03*
D12*
X150004000Y-46175000D03*
X152504000Y-46175000D03*
X150004000Y-48675000D03*
X152504000Y-48675000D03*
X150004000Y-51175000D03*
X152504000Y-51175000D03*
X150004000Y-53675000D03*
X152504000Y-53675000D03*
X150004000Y-56175000D03*
X152504000Y-56175000D03*
X150004000Y-58675000D03*
X152504000Y-58675000D03*
X150004000Y-61175000D03*
X152504000Y-61175000D03*
X150004000Y-63675000D03*
X152504000Y-63675000D03*
X150004000Y-66175000D03*
X152504000Y-66175000D03*
X150004000Y-68675000D03*
X152504000Y-68675000D03*
X150004000Y-71175000D03*
X152504000Y-71175000D03*
X150004000Y-73675000D03*
X152504000Y-73675000D03*
X150004000Y-76175000D03*
X152504000Y-76175000D03*
X150004000Y-78675000D03*
X152504000Y-78675000D03*
X150004000Y-81175000D03*
X152504000Y-81175000D03*
X150004000Y-83675000D03*
X152504000Y-83675000D03*
X150004000Y-86175000D03*
X152504000Y-86175000D03*
X150004000Y-88675000D03*
X152504000Y-88675000D03*
X150004000Y-91175000D03*
X152504000Y-91175000D03*
X150004000Y-93675000D03*
X152504000Y-93675000D03*
X150004000Y-96175000D03*
X152504000Y-96175000D03*
X150004000Y-98675000D03*
X152504000Y-98675000D03*
X150004000Y-101175000D03*
X152504000Y-101175000D03*
X150004000Y-103675000D03*
X152504000Y-103675000D03*
X150004000Y-106175000D03*
X152504000Y-106175000D03*
X150004000Y-108675000D03*
X152504000Y-108675000D03*
X150004000Y-111175000D03*
X152504000Y-111175000D03*
X150004000Y-113675000D03*
X152504000Y-113675000D03*
X150004000Y-116175000D03*
X152504000Y-116175000D03*
X150004000Y-118675000D03*
X152504000Y-118675000D03*
X150004000Y-121175000D03*
X152504000Y-121175000D03*
X150004000Y-123675000D03*
X152504000Y-123675000D03*
X155004000Y-46175000D03*
X155004000Y-48675000D03*
X155004000Y-51175000D03*
X155004000Y-53675000D03*
X155004000Y-56175000D03*
X155004000Y-58675000D03*
X155004000Y-61175000D03*
X155004000Y-63675000D03*
X155004000Y-66175000D03*
X155004000Y-68675000D03*
X155004000Y-71175000D03*
X155004000Y-73675000D03*
X155004000Y-76175000D03*
X155004000Y-78675000D03*
X155004000Y-81175000D03*
X155004000Y-83675000D03*
X155004000Y-86175000D03*
X155004000Y-88675000D03*
X155004000Y-91175000D03*
X155004000Y-93675000D03*
X155004000Y-96175000D03*
X155004000Y-98675000D03*
X155004000Y-101175000D03*
X155004000Y-103675000D03*
X155004000Y-106175000D03*
X155004000Y-108675000D03*
X155004000Y-111175000D03*
X155004000Y-113675000D03*
X155004000Y-116175000D03*
X155004000Y-118675000D03*
X155004000Y-121175000D03*
X155004000Y-123675000D03*
%TD*%
D11*
%TO.C,J2*%
X125804000Y-131175000D03*
X125804000Y-41175000D03*
D12*
X123304000Y-46175000D03*
X125804000Y-46175000D03*
X123304000Y-48675000D03*
X125804000Y-48675000D03*
X123304000Y-51175000D03*
X125804000Y-51175000D03*
X123304000Y-53675000D03*
X125804000Y-53675000D03*
X123304000Y-56175000D03*
X125804000Y-56175000D03*
X123304000Y-58675000D03*
X125804000Y-58675000D03*
X123304000Y-61175000D03*
X125804000Y-61175000D03*
X123304000Y-63675000D03*
X125804000Y-63675000D03*
X123304000Y-66175000D03*
X125804000Y-66175000D03*
X123304000Y-68675000D03*
X125804000Y-68675000D03*
X123304000Y-71175000D03*
X125804000Y-71175000D03*
X123304000Y-73675000D03*
X125804000Y-73675000D03*
X123304000Y-76175000D03*
X125804000Y-76175000D03*
X123304000Y-78675000D03*
X125804000Y-78675000D03*
X123304000Y-81175000D03*
X125804000Y-81175000D03*
X123304000Y-83675000D03*
X125804000Y-83675000D03*
X123304000Y-86175000D03*
X125804000Y-86175000D03*
X123304000Y-88675000D03*
X125804000Y-88675000D03*
X123304000Y-91175000D03*
X125804000Y-91175000D03*
X123304000Y-93675000D03*
X125804000Y-93675000D03*
X123304000Y-96175000D03*
X125804000Y-96175000D03*
X123304000Y-98675000D03*
X125804000Y-98675000D03*
X123304000Y-101175000D03*
X125804000Y-101175000D03*
X123304000Y-103675000D03*
X125804000Y-103675000D03*
X123304000Y-106175000D03*
X125804000Y-106175000D03*
X123304000Y-108675000D03*
X125804000Y-108675000D03*
X123304000Y-111175000D03*
X125804000Y-111175000D03*
X123304000Y-113675000D03*
X125804000Y-113675000D03*
X123304000Y-116175000D03*
X125804000Y-116175000D03*
X123304000Y-118675000D03*
X125804000Y-118675000D03*
X123304000Y-121175000D03*
X125804000Y-121175000D03*
X123304000Y-123675000D03*
X125804000Y-123675000D03*
X128304000Y-46175000D03*
X128304000Y-48675000D03*
X128304000Y-51175000D03*
X128304000Y-53675000D03*
X128304000Y-56175000D03*
X128304000Y-58675000D03*
X128304000Y-61175000D03*
X128304000Y-63675000D03*
X128304000Y-66175000D03*
X128304000Y-68675000D03*
X128304000Y-71175000D03*
X128304000Y-73675000D03*
X128304000Y-76175000D03*
X128304000Y-78675000D03*
X128304000Y-81175000D03*
X128304000Y-83675000D03*
X128304000Y-86175000D03*
X128304000Y-88675000D03*
X128304000Y-91175000D03*
X128304000Y-93675000D03*
X128304000Y-96175000D03*
X128304000Y-98675000D03*
X128304000Y-101175000D03*
X128304000Y-103675000D03*
X128304000Y-106175000D03*
X128304000Y-108675000D03*
X128304000Y-111175000D03*
X128304000Y-113675000D03*
X128304000Y-116175000D03*
X128304000Y-118675000D03*
X128304000Y-121175000D03*
X128304000Y-123675000D03*
%TD*%
D11*
%TO.C,J5*%
X225204000Y-128475000D03*
X225204000Y-40975000D03*
D12*
X217704000Y-45975000D03*
X220204000Y-45975000D03*
X217704000Y-48475000D03*
X220204000Y-48475000D03*
X217704000Y-50975000D03*
X220204000Y-50975000D03*
X217704000Y-53475000D03*
X220204000Y-53475000D03*
X217704000Y-55975000D03*
X220204000Y-55975000D03*
X217704000Y-58475000D03*
X220204000Y-58475000D03*
X217704000Y-60975000D03*
X220204000Y-60975000D03*
X217704000Y-63475000D03*
X220204000Y-63475000D03*
X217704000Y-65975000D03*
X220204000Y-65975000D03*
X217704000Y-68475000D03*
X220204000Y-68475000D03*
X217704000Y-70975000D03*
X220204000Y-70975000D03*
X217704000Y-73475000D03*
X220204000Y-73475000D03*
X217704000Y-75975000D03*
X220204000Y-75975000D03*
X217704000Y-78475000D03*
X220204000Y-78475000D03*
X217704000Y-80975000D03*
X220204000Y-80975000D03*
X217704000Y-83475000D03*
X220204000Y-83475000D03*
X217704000Y-85975000D03*
X220204000Y-85975000D03*
X217704000Y-88475000D03*
X220204000Y-88475000D03*
X217704000Y-90975000D03*
X220204000Y-90975000D03*
X217704000Y-93475000D03*
X220204000Y-93475000D03*
X217704000Y-95975000D03*
X220204000Y-95975000D03*
X217704000Y-98475000D03*
X220204000Y-98475000D03*
X217704000Y-100975000D03*
X220204000Y-100975000D03*
X217704000Y-103475000D03*
X220204000Y-103475000D03*
X217704000Y-105975000D03*
X220204000Y-105975000D03*
X217704000Y-108475000D03*
X220204000Y-108475000D03*
X217704000Y-110975000D03*
X220204000Y-110975000D03*
X217704000Y-113475000D03*
X220204000Y-113475000D03*
X217704000Y-115975000D03*
X220204000Y-115975000D03*
X217704000Y-118475000D03*
X220204000Y-118475000D03*
X217704000Y-120975000D03*
X220204000Y-120975000D03*
X217704000Y-123475000D03*
X220204000Y-123475000D03*
X222704000Y-45975000D03*
X222704000Y-48475000D03*
X222704000Y-50975000D03*
X222704000Y-53475000D03*
X222704000Y-55975000D03*
X222704000Y-58475000D03*
X222704000Y-60975000D03*
X222704000Y-63475000D03*
X222704000Y-65975000D03*
X222704000Y-68475000D03*
X222704000Y-70975000D03*
X222704000Y-73475000D03*
X222704000Y-75975000D03*
X222704000Y-78475000D03*
X222704000Y-80975000D03*
X222704000Y-83475000D03*
X222704000Y-85975000D03*
X222704000Y-88475000D03*
X222704000Y-90975000D03*
X222704000Y-93475000D03*
X222704000Y-95975000D03*
X222704000Y-98475000D03*
X222704000Y-100975000D03*
X222704000Y-103475000D03*
X222704000Y-105975000D03*
X222704000Y-108475000D03*
X222704000Y-110975000D03*
X222704000Y-113475000D03*
X222704000Y-115975000D03*
X222704000Y-118475000D03*
X222704000Y-120975000D03*
X222704000Y-123475000D03*
%TD*%
D13*
%TO.C,M31*%
X211480990Y-129317010D03*
%TD*%
D12*
%TO.C,C2*%
X127875000Y-20097000D03*
X122875000Y-20097000D03*
%TD*%
D14*
%TO.C,J9*%
X118009000Y-29241000D03*
D15*
X118009000Y-26701000D03*
X118009000Y-24161000D03*
X118009000Y-21621000D03*
%TD*%
D16*
%TO.C,J8*%
X136566000Y-25439000D03*
D17*
X136566000Y-19139000D03*
D18*
X131766000Y-22539000D03*
%TD*%
D13*
%TO.C,M31*%
X165506990Y-129317010D03*
%TD*%
D14*
%TO.C,JP1*%
X133503000Y-31781000D03*
D15*
X136043000Y-31781000D03*
X138583000Y-31781000D03*
%TD*%
D13*
%TO.C,M31*%
X211480990Y-32797010D03*
%TD*%
%TO.C,M31*%
X165506990Y-32797010D03*
%TD*%
D19*
%TO.C,J7*%
X197511000Y-46259000D03*
X197511000Y-48799000D03*
X197511000Y-51339000D03*
X197511000Y-53879000D03*
X197511000Y-58959000D03*
X197511000Y-61499000D03*
X197511000Y-64039000D03*
X197511000Y-66579000D03*
X197511000Y-69119000D03*
X197511000Y-71659000D03*
X197511000Y-74199000D03*
X197511000Y-76739000D03*
X197511000Y-79279000D03*
X197511000Y-81819000D03*
X197511000Y-84359000D03*
X197511000Y-86899000D03*
X197511000Y-89439000D03*
X197511000Y-91979000D03*
X197511000Y-94519000D03*
X197511000Y-97059000D03*
X197511000Y-99599000D03*
X197511000Y-102139000D03*
X197511000Y-104679000D03*
X197511000Y-107219000D03*
X197511000Y-109759000D03*
X197511000Y-112299000D03*
X197511000Y-114839000D03*
X202591000Y-46259000D03*
X202591000Y-48799000D03*
X202591000Y-51339000D03*
X202591000Y-53879000D03*
X202591000Y-58959000D03*
X202591000Y-61499000D03*
X202591000Y-64039000D03*
X202591000Y-66579000D03*
X202591000Y-69119000D03*
X202591000Y-71659000D03*
X202591000Y-74199000D03*
X202591000Y-76739000D03*
X202591000Y-79279000D03*
X202591000Y-81819000D03*
X202591000Y-84359000D03*
X202591000Y-86899000D03*
X202591000Y-89439000D03*
X202591000Y-91979000D03*
X202591000Y-94519000D03*
X202591000Y-97059000D03*
X202591000Y-99599000D03*
X202591000Y-102139000D03*
X202591000Y-104679000D03*
X202591000Y-107219000D03*
X202591000Y-109759000D03*
X202591000Y-112299000D03*
X202591000Y-114839000D03*
%TD*%
D20*
%TO.C,C1*%
X127922100Y-26574000D03*
D12*
X122922100Y-26574000D03*
%TD*%
D11*
%TO.C,J4*%
X179204000Y-131175000D03*
X179204000Y-41175000D03*
D12*
X176704000Y-46175000D03*
X179204000Y-46175000D03*
X176704000Y-48675000D03*
X179204000Y-48675000D03*
X176704000Y-51175000D03*
X179204000Y-51175000D03*
X176704000Y-53675000D03*
X179204000Y-53675000D03*
X176704000Y-56175000D03*
X179204000Y-56175000D03*
X176704000Y-58675000D03*
X179204000Y-58675000D03*
X176704000Y-61175000D03*
X179204000Y-61175000D03*
X176704000Y-63675000D03*
X179204000Y-63675000D03*
X176704000Y-66175000D03*
X179204000Y-66175000D03*
X176704000Y-68675000D03*
X179204000Y-68675000D03*
X176704000Y-71175000D03*
X179204000Y-71175000D03*
X176704000Y-73675000D03*
X179204000Y-73675000D03*
X176704000Y-76175000D03*
X179204000Y-76175000D03*
X176704000Y-78675000D03*
X179204000Y-78675000D03*
X176704000Y-81175000D03*
X179204000Y-81175000D03*
X176704000Y-83675000D03*
X179204000Y-83675000D03*
X176704000Y-86175000D03*
X179204000Y-86175000D03*
X176704000Y-88675000D03*
X179204000Y-88675000D03*
X176704000Y-91175000D03*
X179204000Y-91175000D03*
X176704000Y-93675000D03*
X179204000Y-93675000D03*
X176704000Y-96175000D03*
X179204000Y-96175000D03*
X176704000Y-98675000D03*
X179204000Y-98675000D03*
X176704000Y-101175000D03*
X179204000Y-101175000D03*
X176704000Y-103675000D03*
X179204000Y-103675000D03*
X176704000Y-106175000D03*
X179204000Y-106175000D03*
X176704000Y-108675000D03*
X179204000Y-108675000D03*
X176704000Y-111175000D03*
X179204000Y-111175000D03*
X176704000Y-113675000D03*
X179204000Y-113675000D03*
X176704000Y-116175000D03*
X179204000Y-116175000D03*
X176704000Y-118675000D03*
X179204000Y-118675000D03*
X176704000Y-121175000D03*
X179204000Y-121175000D03*
X176704000Y-123675000D03*
X179204000Y-123675000D03*
X181704000Y-46175000D03*
X181704000Y-48675000D03*
X181704000Y-51175000D03*
X181704000Y-53675000D03*
X181704000Y-56175000D03*
X181704000Y-58675000D03*
X181704000Y-61175000D03*
X181704000Y-63675000D03*
X181704000Y-66175000D03*
X181704000Y-68675000D03*
X181704000Y-71175000D03*
X181704000Y-73675000D03*
X181704000Y-76175000D03*
X181704000Y-78675000D03*
X181704000Y-81175000D03*
X181704000Y-83675000D03*
X181704000Y-86175000D03*
X181704000Y-88675000D03*
X181704000Y-91175000D03*
X181704000Y-93675000D03*
X181704000Y-96175000D03*
X181704000Y-98675000D03*
X181704000Y-101175000D03*
X181704000Y-103675000D03*
X181704000Y-106175000D03*
X181704000Y-108675000D03*
X181704000Y-111175000D03*
X181704000Y-113675000D03*
X181704000Y-116175000D03*
X181704000Y-118675000D03*
X181704000Y-121175000D03*
X181704000Y-123675000D03*
%TD*%
M02*
