%TF.GenerationSoftware,KiCad,Pcbnew,9.0.7*%
%TF.CreationDate,2026-02-25T22:10:38+03:00*%
%TF.ProjectId,deltas_backplane,64656c74-6173-45f6-9261-636b706c616e,rev?*%
%TF.SameCoordinates,Original*%
%TF.FileFunction,Legend,Top*%
%TF.FilePolarity,Positive*%
%FSLAX46Y46*%
G04 Gerber Fmt 4.6, Leading zero omitted, Abs format (unit mm)*
G04 Created by KiCad (PCBNEW 9.0.7) date 2026-02-25 22:10:38*
%MOMM*%
%LPD*%
G01*
G04 APERTURE LIST*
%ADD10C,0.150000*%
%ADD11C,0.200000*%
%ADD12C,0.300000*%
%ADD13C,0.100000*%
%ADD14C,0.120000*%
%ADD15C,0.668276*%
%ADD16C,0.254000*%
G04 APERTURE END LIST*
D10*
X137490790Y-35413210D02*
X132156790Y-35413210D01*
X139929190Y-28504410D02*
X139913000Y-30257010D01*
X132156790Y-35413210D02*
X132156790Y-33305010D01*
X137490790Y-33305010D02*
X137490790Y-35413210D01*
X134645990Y-30257010D02*
X134645990Y-28504410D01*
X134645990Y-28504410D02*
X139929190Y-28504410D01*
G36*
X135346448Y-29960010D02*
G01*
X135346448Y-28959591D01*
X135940080Y-28959591D01*
X135940080Y-29076827D01*
X135455075Y-29076827D01*
X135455075Y-29385550D01*
X135909305Y-29385550D01*
X135909305Y-29502787D01*
X135455075Y-29502787D01*
X135455075Y-29842773D01*
X135959192Y-29842773D01*
X135959192Y-29960010D01*
X135346448Y-29960010D01*
G37*
G36*
X136028740Y-29960010D02*
G01*
X136245994Y-29583631D01*
X136045166Y-29233143D01*
X136170829Y-29233143D01*
X136262359Y-29403869D01*
X136304063Y-29484102D01*
X136349126Y-29406189D01*
X136449571Y-29233143D01*
X136569799Y-29233143D01*
X136364147Y-29575449D01*
X136585492Y-29960010D01*
X136461844Y-29960010D01*
X136339600Y-29735611D01*
X136307482Y-29675467D01*
X136151045Y-29960010D01*
X136028740Y-29960010D01*
G37*
G36*
X136892566Y-29854497D02*
G01*
X136906244Y-29960010D01*
X136831078Y-29967825D01*
X136781838Y-29962166D01*
X136746326Y-29946943D01*
X136719286Y-29922207D01*
X136702301Y-29889790D01*
X136694150Y-29844564D01*
X136690333Y-29745320D01*
X136690333Y-29326932D01*
X136616572Y-29326932D01*
X136616572Y-29233143D01*
X136690333Y-29233143D01*
X136690333Y-29053380D01*
X136790778Y-28979130D01*
X136790778Y-29233143D01*
X136892566Y-29233143D01*
X136892566Y-29326932D01*
X136790778Y-29326932D01*
X136790778Y-29753502D01*
X136793670Y-29807360D01*
X136799632Y-29829767D01*
X136810359Y-29843141D01*
X136825944Y-29851431D01*
X136848175Y-29854497D01*
X136892566Y-29854497D01*
G37*
G36*
X137018412Y-29960010D02*
G01*
X137018412Y-29819326D01*
X137133206Y-29819326D01*
X137133206Y-29960010D01*
X137018412Y-29960010D01*
G37*
G36*
X137731284Y-28965259D02*
G01*
X137790464Y-28978703D01*
X137834263Y-29000679D01*
X137871825Y-29032369D01*
X137903854Y-29074996D01*
X137926736Y-29123555D01*
X137941134Y-29180546D01*
X137946230Y-29247736D01*
X137941500Y-29315108D01*
X137928045Y-29373408D01*
X137906571Y-29424081D01*
X137877231Y-29468288D01*
X137839923Y-29503198D01*
X137790072Y-29529677D01*
X137724466Y-29547131D01*
X137638850Y-29553589D01*
X137428435Y-29553589D01*
X137428435Y-29960010D01*
X137319808Y-29960010D01*
X137319808Y-29436353D01*
X137428435Y-29436353D01*
X137640926Y-29436353D01*
X137706363Y-29430411D01*
X137753825Y-29414618D01*
X137787777Y-29390740D01*
X137812447Y-29357394D01*
X137828367Y-29312718D01*
X137834244Y-29253171D01*
X137828208Y-29196386D01*
X137811347Y-29150955D01*
X137785005Y-29114007D01*
X137755965Y-29092642D01*
X137716850Y-29081713D01*
X137638850Y-29076827D01*
X137428435Y-29076827D01*
X137428435Y-29436353D01*
X137319808Y-29436353D01*
X137319808Y-28959591D01*
X137629264Y-28959591D01*
X137731284Y-28965259D01*
G37*
G36*
X138179054Y-29960010D02*
G01*
X137997338Y-29233143D01*
X138101874Y-29233143D01*
X138196151Y-29651836D01*
X138231017Y-29807602D01*
X138262463Y-29658003D01*
X138356680Y-29233143D01*
X138460544Y-29233143D01*
X138549326Y-29650493D01*
X138579368Y-29788063D01*
X138613501Y-29649149D01*
X138715289Y-29233143D01*
X138813658Y-29233143D01*
X138627179Y-29960010D01*
X138522704Y-29960010D01*
X138427693Y-29525013D01*
X138405162Y-29401182D01*
X138284934Y-29960010D01*
X138179054Y-29960010D01*
G37*
G36*
X138898227Y-29960010D02*
G01*
X138898227Y-29233143D01*
X138989086Y-29233143D01*
X138989086Y-29345800D01*
X139025796Y-29276009D01*
X139052955Y-29242851D01*
X139084068Y-29223745D01*
X139118229Y-29217511D01*
X139150777Y-29221509D01*
X139184866Y-29234051D01*
X139221361Y-29256590D01*
X139187228Y-29369919D01*
X139149159Y-29352011D01*
X139114138Y-29346471D01*
X139083692Y-29351985D01*
X139055337Y-29369003D01*
X139033067Y-29395204D01*
X139017784Y-29431712D01*
X139003549Y-29503344D01*
X138998672Y-29581006D01*
X138998672Y-29960010D01*
X138898227Y-29960010D01*
G37*
D11*
X222657947Y-43568152D02*
X222657947Y-42853867D01*
X223086518Y-43711009D02*
X221586518Y-43211009D01*
X221586518Y-43211009D02*
X223086518Y-42711009D01*
D12*
X135212540Y-93425001D02*
X136641111Y-93425001D01*
X136641111Y-93425001D02*
X136926825Y-93520240D01*
X136926825Y-93520240D02*
X137117302Y-93710716D01*
X137117302Y-93710716D02*
X137212540Y-93996430D01*
X137212540Y-93996430D02*
X137212540Y-94186906D01*
X137212540Y-92472620D02*
X135212540Y-92472620D01*
X135212540Y-92472620D02*
X135212540Y-91710715D01*
X135212540Y-91710715D02*
X135307778Y-91520239D01*
X135307778Y-91520239D02*
X135403016Y-91425001D01*
X135403016Y-91425001D02*
X135593492Y-91329763D01*
X135593492Y-91329763D02*
X135879206Y-91329763D01*
X135879206Y-91329763D02*
X136069682Y-91425001D01*
X136069682Y-91425001D02*
X136164921Y-91520239D01*
X136164921Y-91520239D02*
X136260159Y-91710715D01*
X136260159Y-91710715D02*
X136260159Y-92472620D01*
X137212540Y-89425001D02*
X137212540Y-90567858D01*
X137212540Y-89996430D02*
X135212540Y-89996430D01*
X135212540Y-89996430D02*
X135498254Y-90186906D01*
X135498254Y-90186906D02*
X135688730Y-90377382D01*
X135688730Y-90377382D02*
X135783968Y-90567858D01*
X135879206Y-87044048D02*
X137593492Y-87044048D01*
X137593492Y-87044048D02*
X137783968Y-87139286D01*
X137783968Y-87139286D02*
X137879206Y-87329762D01*
X137879206Y-87329762D02*
X137879206Y-87425000D01*
X135212540Y-87044048D02*
X135307778Y-87139286D01*
X135307778Y-87139286D02*
X135403016Y-87044048D01*
X135403016Y-87044048D02*
X135307778Y-86948810D01*
X135307778Y-86948810D02*
X135212540Y-87044048D01*
X135212540Y-87044048D02*
X135403016Y-87044048D01*
X135879206Y-85234524D02*
X137212540Y-85234524D01*
X135879206Y-86091667D02*
X136926825Y-86091667D01*
X136926825Y-86091667D02*
X137117302Y-85996429D01*
X137117302Y-85996429D02*
X137212540Y-85805953D01*
X137212540Y-85805953D02*
X137212540Y-85520238D01*
X137212540Y-85520238D02*
X137117302Y-85329762D01*
X137117302Y-85329762D02*
X137022063Y-85234524D01*
X137212540Y-84282143D02*
X135879206Y-84282143D01*
X136069682Y-84282143D02*
X135974444Y-84186905D01*
X135974444Y-84186905D02*
X135879206Y-83996429D01*
X135879206Y-83996429D02*
X135879206Y-83710714D01*
X135879206Y-83710714D02*
X135974444Y-83520238D01*
X135974444Y-83520238D02*
X136164921Y-83425000D01*
X136164921Y-83425000D02*
X137212540Y-83425000D01*
X136164921Y-83425000D02*
X135974444Y-83329762D01*
X135974444Y-83329762D02*
X135879206Y-83139286D01*
X135879206Y-83139286D02*
X135879206Y-82853572D01*
X135879206Y-82853572D02*
X135974444Y-82663095D01*
X135974444Y-82663095D02*
X136164921Y-82567857D01*
X136164921Y-82567857D02*
X137212540Y-82567857D01*
X135879206Y-81615476D02*
X137879206Y-81615476D01*
X135974444Y-81615476D02*
X135879206Y-81425000D01*
X135879206Y-81425000D02*
X135879206Y-81044047D01*
X135879206Y-81044047D02*
X135974444Y-80853571D01*
X135974444Y-80853571D02*
X136069682Y-80758333D01*
X136069682Y-80758333D02*
X136260159Y-80663095D01*
X136260159Y-80663095D02*
X136831587Y-80663095D01*
X136831587Y-80663095D02*
X137022063Y-80758333D01*
X137022063Y-80758333D02*
X137117302Y-80853571D01*
X137117302Y-80853571D02*
X137212540Y-81044047D01*
X137212540Y-81044047D02*
X137212540Y-81425000D01*
X137212540Y-81425000D02*
X137117302Y-81615476D01*
X137117302Y-79044047D02*
X137212540Y-79234523D01*
X137212540Y-79234523D02*
X137212540Y-79615476D01*
X137212540Y-79615476D02*
X137117302Y-79805952D01*
X137117302Y-79805952D02*
X136926825Y-79901190D01*
X136926825Y-79901190D02*
X136164921Y-79901190D01*
X136164921Y-79901190D02*
X135974444Y-79805952D01*
X135974444Y-79805952D02*
X135879206Y-79615476D01*
X135879206Y-79615476D02*
X135879206Y-79234523D01*
X135879206Y-79234523D02*
X135974444Y-79044047D01*
X135974444Y-79044047D02*
X136164921Y-78948809D01*
X136164921Y-78948809D02*
X136355397Y-78948809D01*
X136355397Y-78948809D02*
X136545873Y-79901190D01*
X137212540Y-78091666D02*
X135879206Y-78091666D01*
X136260159Y-78091666D02*
X136069682Y-77996428D01*
X136069682Y-77996428D02*
X135974444Y-77901190D01*
X135974444Y-77901190D02*
X135879206Y-77710714D01*
X135879206Y-77710714D02*
X135879206Y-77520237D01*
X137022063Y-76853571D02*
X137117302Y-76758333D01*
X137117302Y-76758333D02*
X137212540Y-76853571D01*
X137212540Y-76853571D02*
X137117302Y-76948809D01*
X137117302Y-76948809D02*
X137022063Y-76853571D01*
X137022063Y-76853571D02*
X137212540Y-76853571D01*
X135974444Y-76853571D02*
X136069682Y-76758333D01*
X136069682Y-76758333D02*
X136164921Y-76853571D01*
X136164921Y-76853571D02*
X136069682Y-76948809D01*
X136069682Y-76948809D02*
X135974444Y-76853571D01*
X135974444Y-76853571D02*
X136164921Y-76853571D01*
X140432428Y-104472620D02*
X140432428Y-105615477D01*
X140432428Y-105044049D02*
X138432428Y-105044049D01*
X138432428Y-105044049D02*
X138718142Y-105234525D01*
X138718142Y-105234525D02*
X138908618Y-105425001D01*
X138908618Y-105425001D02*
X139003856Y-105615477D01*
X139670523Y-103615477D02*
X139670523Y-102091668D01*
X138622904Y-101234525D02*
X138527666Y-101139287D01*
X138527666Y-101139287D02*
X138432428Y-100948811D01*
X138432428Y-100948811D02*
X138432428Y-100472620D01*
X138432428Y-100472620D02*
X138527666Y-100282144D01*
X138527666Y-100282144D02*
X138622904Y-100186906D01*
X138622904Y-100186906D02*
X138813380Y-100091668D01*
X138813380Y-100091668D02*
X139003856Y-100091668D01*
X139003856Y-100091668D02*
X139289570Y-100186906D01*
X139289570Y-100186906D02*
X140432428Y-101329763D01*
X140432428Y-101329763D02*
X140432428Y-100091668D01*
X139670523Y-97710715D02*
X139670523Y-96186906D01*
X140432428Y-93710715D02*
X139099094Y-93710715D01*
X138432428Y-93710715D02*
X138527666Y-93805953D01*
X138527666Y-93805953D02*
X138622904Y-93710715D01*
X138622904Y-93710715D02*
X138527666Y-93615477D01*
X138527666Y-93615477D02*
X138432428Y-93710715D01*
X138432428Y-93710715D02*
X138622904Y-93710715D01*
X139099094Y-92758334D02*
X140432428Y-92758334D01*
X139289570Y-92758334D02*
X139194332Y-92663096D01*
X139194332Y-92663096D02*
X139099094Y-92472620D01*
X139099094Y-92472620D02*
X139099094Y-92186905D01*
X139099094Y-92186905D02*
X139194332Y-91996429D01*
X139194332Y-91996429D02*
X139384809Y-91901191D01*
X139384809Y-91901191D02*
X140432428Y-91901191D01*
X139099094Y-91234524D02*
X139099094Y-90472620D01*
X138432428Y-90948810D02*
X140146713Y-90948810D01*
X140146713Y-90948810D02*
X140337190Y-90853572D01*
X140337190Y-90853572D02*
X140432428Y-90663096D01*
X140432428Y-90663096D02*
X140432428Y-90472620D01*
X140337190Y-89044048D02*
X140432428Y-89234524D01*
X140432428Y-89234524D02*
X140432428Y-89615477D01*
X140432428Y-89615477D02*
X140337190Y-89805953D01*
X140337190Y-89805953D02*
X140146713Y-89901191D01*
X140146713Y-89901191D02*
X139384809Y-89901191D01*
X139384809Y-89901191D02*
X139194332Y-89805953D01*
X139194332Y-89805953D02*
X139099094Y-89615477D01*
X139099094Y-89615477D02*
X139099094Y-89234524D01*
X139099094Y-89234524D02*
X139194332Y-89044048D01*
X139194332Y-89044048D02*
X139384809Y-88948810D01*
X139384809Y-88948810D02*
X139575285Y-88948810D01*
X139575285Y-88948810D02*
X139765761Y-89901191D01*
X140432428Y-88091667D02*
X139099094Y-88091667D01*
X139480047Y-88091667D02*
X139289570Y-87996429D01*
X139289570Y-87996429D02*
X139194332Y-87901191D01*
X139194332Y-87901191D02*
X139099094Y-87710715D01*
X139099094Y-87710715D02*
X139099094Y-87520238D01*
X139099094Y-86853572D02*
X140432428Y-86853572D01*
X139289570Y-86853572D02*
X139194332Y-86758334D01*
X139194332Y-86758334D02*
X139099094Y-86567858D01*
X139099094Y-86567858D02*
X139099094Y-86282143D01*
X139099094Y-86282143D02*
X139194332Y-86091667D01*
X139194332Y-86091667D02*
X139384809Y-85996429D01*
X139384809Y-85996429D02*
X140432428Y-85996429D01*
X140432428Y-84186905D02*
X139384809Y-84186905D01*
X139384809Y-84186905D02*
X139194332Y-84282143D01*
X139194332Y-84282143D02*
X139099094Y-84472619D01*
X139099094Y-84472619D02*
X139099094Y-84853572D01*
X139099094Y-84853572D02*
X139194332Y-85044048D01*
X140337190Y-84186905D02*
X140432428Y-84377381D01*
X140432428Y-84377381D02*
X140432428Y-84853572D01*
X140432428Y-84853572D02*
X140337190Y-85044048D01*
X140337190Y-85044048D02*
X140146713Y-85139286D01*
X140146713Y-85139286D02*
X139956237Y-85139286D01*
X139956237Y-85139286D02*
X139765761Y-85044048D01*
X139765761Y-85044048D02*
X139670523Y-84853572D01*
X139670523Y-84853572D02*
X139670523Y-84377381D01*
X139670523Y-84377381D02*
X139575285Y-84186905D01*
X140432428Y-82948810D02*
X140337190Y-83139286D01*
X140337190Y-83139286D02*
X140146713Y-83234524D01*
X140146713Y-83234524D02*
X138432428Y-83234524D01*
X139670523Y-80663095D02*
X139670523Y-79139286D01*
X140432428Y-79901190D02*
X138908618Y-79901190D01*
X138432428Y-77234524D02*
X138432428Y-78186905D01*
X138432428Y-78186905D02*
X139384809Y-78282143D01*
X139384809Y-78282143D02*
X139289570Y-78186905D01*
X139289570Y-78186905D02*
X139194332Y-77996429D01*
X139194332Y-77996429D02*
X139194332Y-77520238D01*
X139194332Y-77520238D02*
X139289570Y-77329762D01*
X139289570Y-77329762D02*
X139384809Y-77234524D01*
X139384809Y-77234524D02*
X139575285Y-77139286D01*
X139575285Y-77139286D02*
X140051475Y-77139286D01*
X140051475Y-77139286D02*
X140241951Y-77234524D01*
X140241951Y-77234524D02*
X140337190Y-77329762D01*
X140337190Y-77329762D02*
X140432428Y-77520238D01*
X140432428Y-77520238D02*
X140432428Y-77996429D01*
X140432428Y-77996429D02*
X140337190Y-78186905D01*
X140337190Y-78186905D02*
X140241951Y-78282143D01*
X138432428Y-76567857D02*
X140432428Y-75901191D01*
X140432428Y-75901191D02*
X138432428Y-75234524D01*
X139099094Y-73044047D02*
X141099094Y-73044047D01*
X139194332Y-73044047D02*
X139099094Y-72853571D01*
X139099094Y-72853571D02*
X139099094Y-72472618D01*
X139099094Y-72472618D02*
X139194332Y-72282142D01*
X139194332Y-72282142D02*
X139289570Y-72186904D01*
X139289570Y-72186904D02*
X139480047Y-72091666D01*
X139480047Y-72091666D02*
X140051475Y-72091666D01*
X140051475Y-72091666D02*
X140241951Y-72186904D01*
X140241951Y-72186904D02*
X140337190Y-72282142D01*
X140337190Y-72282142D02*
X140432428Y-72472618D01*
X140432428Y-72472618D02*
X140432428Y-72853571D01*
X140432428Y-72853571D02*
X140337190Y-73044047D01*
X140432428Y-70948809D02*
X140337190Y-71139285D01*
X140337190Y-71139285D02*
X140241951Y-71234523D01*
X140241951Y-71234523D02*
X140051475Y-71329761D01*
X140051475Y-71329761D02*
X139480047Y-71329761D01*
X139480047Y-71329761D02*
X139289570Y-71234523D01*
X139289570Y-71234523D02*
X139194332Y-71139285D01*
X139194332Y-71139285D02*
X139099094Y-70948809D01*
X139099094Y-70948809D02*
X139099094Y-70663094D01*
X139099094Y-70663094D02*
X139194332Y-70472618D01*
X139194332Y-70472618D02*
X139289570Y-70377380D01*
X139289570Y-70377380D02*
X139480047Y-70282142D01*
X139480047Y-70282142D02*
X140051475Y-70282142D01*
X140051475Y-70282142D02*
X140241951Y-70377380D01*
X140241951Y-70377380D02*
X140337190Y-70472618D01*
X140337190Y-70472618D02*
X140432428Y-70663094D01*
X140432428Y-70663094D02*
X140432428Y-70948809D01*
X139099094Y-69615475D02*
X140432428Y-69234523D01*
X140432428Y-69234523D02*
X139480047Y-68853570D01*
X139480047Y-68853570D02*
X140432428Y-68472618D01*
X140432428Y-68472618D02*
X139099094Y-68091666D01*
X140337190Y-66567856D02*
X140432428Y-66758332D01*
X140432428Y-66758332D02*
X140432428Y-67139285D01*
X140432428Y-67139285D02*
X140337190Y-67329761D01*
X140337190Y-67329761D02*
X140146713Y-67424999D01*
X140146713Y-67424999D02*
X139384809Y-67424999D01*
X139384809Y-67424999D02*
X139194332Y-67329761D01*
X139194332Y-67329761D02*
X139099094Y-67139285D01*
X139099094Y-67139285D02*
X139099094Y-66758332D01*
X139099094Y-66758332D02*
X139194332Y-66567856D01*
X139194332Y-66567856D02*
X139384809Y-66472618D01*
X139384809Y-66472618D02*
X139575285Y-66472618D01*
X139575285Y-66472618D02*
X139765761Y-67424999D01*
X140432428Y-65615475D02*
X139099094Y-65615475D01*
X139480047Y-65615475D02*
X139289570Y-65520237D01*
X139289570Y-65520237D02*
X139194332Y-65424999D01*
X139194332Y-65424999D02*
X139099094Y-65234523D01*
X139099094Y-65234523D02*
X139099094Y-65044046D01*
X141842792Y-102091668D02*
X141747554Y-101996430D01*
X141747554Y-101996430D02*
X141652316Y-101805954D01*
X141652316Y-101805954D02*
X141652316Y-101329763D01*
X141652316Y-101329763D02*
X141747554Y-101139287D01*
X141747554Y-101139287D02*
X141842792Y-101044049D01*
X141842792Y-101044049D02*
X142033268Y-100948811D01*
X142033268Y-100948811D02*
X142223744Y-100948811D01*
X142223744Y-100948811D02*
X142509458Y-101044049D01*
X142509458Y-101044049D02*
X143652316Y-102186906D01*
X143652316Y-102186906D02*
X143652316Y-100948811D01*
X142890411Y-100091668D02*
X142890411Y-98567859D01*
X141652316Y-97805954D02*
X141652316Y-96567859D01*
X141652316Y-96567859D02*
X142414220Y-97234526D01*
X142414220Y-97234526D02*
X142414220Y-96948811D01*
X142414220Y-96948811D02*
X142509458Y-96758335D01*
X142509458Y-96758335D02*
X142604697Y-96663097D01*
X142604697Y-96663097D02*
X142795173Y-96567859D01*
X142795173Y-96567859D02*
X143271363Y-96567859D01*
X143271363Y-96567859D02*
X143461839Y-96663097D01*
X143461839Y-96663097D02*
X143557078Y-96758335D01*
X143557078Y-96758335D02*
X143652316Y-96948811D01*
X143652316Y-96948811D02*
X143652316Y-97520240D01*
X143652316Y-97520240D02*
X143557078Y-97710716D01*
X143557078Y-97710716D02*
X143461839Y-97805954D01*
X142890411Y-94186906D02*
X142890411Y-92663097D01*
X143557078Y-89425001D02*
X143652316Y-89615477D01*
X143652316Y-89615477D02*
X143652316Y-89996430D01*
X143652316Y-89996430D02*
X143557078Y-90186906D01*
X143557078Y-90186906D02*
X143366601Y-90282144D01*
X143366601Y-90282144D02*
X142604697Y-90282144D01*
X142604697Y-90282144D02*
X142414220Y-90186906D01*
X142414220Y-90186906D02*
X142318982Y-89996430D01*
X142318982Y-89996430D02*
X142318982Y-89615477D01*
X142318982Y-89615477D02*
X142414220Y-89425001D01*
X142414220Y-89425001D02*
X142604697Y-89329763D01*
X142604697Y-89329763D02*
X142795173Y-89329763D01*
X142795173Y-89329763D02*
X142985649Y-90282144D01*
X143652316Y-88663096D02*
X142318982Y-87615477D01*
X142318982Y-88663096D02*
X143652316Y-87615477D01*
X142318982Y-87139286D02*
X142318982Y-86377382D01*
X141652316Y-86853572D02*
X143366601Y-86853572D01*
X143366601Y-86853572D02*
X143557078Y-86758334D01*
X143557078Y-86758334D02*
X143652316Y-86567858D01*
X143652316Y-86567858D02*
X143652316Y-86377382D01*
X143557078Y-84948810D02*
X143652316Y-85139286D01*
X143652316Y-85139286D02*
X143652316Y-85520239D01*
X143652316Y-85520239D02*
X143557078Y-85710715D01*
X143557078Y-85710715D02*
X143366601Y-85805953D01*
X143366601Y-85805953D02*
X142604697Y-85805953D01*
X142604697Y-85805953D02*
X142414220Y-85710715D01*
X142414220Y-85710715D02*
X142318982Y-85520239D01*
X142318982Y-85520239D02*
X142318982Y-85139286D01*
X142318982Y-85139286D02*
X142414220Y-84948810D01*
X142414220Y-84948810D02*
X142604697Y-84853572D01*
X142604697Y-84853572D02*
X142795173Y-84853572D01*
X142795173Y-84853572D02*
X142985649Y-85805953D01*
X143652316Y-83996429D02*
X142318982Y-83996429D01*
X142699935Y-83996429D02*
X142509458Y-83901191D01*
X142509458Y-83901191D02*
X142414220Y-83805953D01*
X142414220Y-83805953D02*
X142318982Y-83615477D01*
X142318982Y-83615477D02*
X142318982Y-83425000D01*
X142318982Y-82758334D02*
X143652316Y-82758334D01*
X142509458Y-82758334D02*
X142414220Y-82663096D01*
X142414220Y-82663096D02*
X142318982Y-82472620D01*
X142318982Y-82472620D02*
X142318982Y-82186905D01*
X142318982Y-82186905D02*
X142414220Y-81996429D01*
X142414220Y-81996429D02*
X142604697Y-81901191D01*
X142604697Y-81901191D02*
X143652316Y-81901191D01*
X143652316Y-80091667D02*
X142604697Y-80091667D01*
X142604697Y-80091667D02*
X142414220Y-80186905D01*
X142414220Y-80186905D02*
X142318982Y-80377381D01*
X142318982Y-80377381D02*
X142318982Y-80758334D01*
X142318982Y-80758334D02*
X142414220Y-80948810D01*
X143557078Y-80091667D02*
X143652316Y-80282143D01*
X143652316Y-80282143D02*
X143652316Y-80758334D01*
X143652316Y-80758334D02*
X143557078Y-80948810D01*
X143557078Y-80948810D02*
X143366601Y-81044048D01*
X143366601Y-81044048D02*
X143176125Y-81044048D01*
X143176125Y-81044048D02*
X142985649Y-80948810D01*
X142985649Y-80948810D02*
X142890411Y-80758334D01*
X142890411Y-80758334D02*
X142890411Y-80282143D01*
X142890411Y-80282143D02*
X142795173Y-80091667D01*
X143652316Y-78853572D02*
X143557078Y-79044048D01*
X143557078Y-79044048D02*
X143366601Y-79139286D01*
X143366601Y-79139286D02*
X141652316Y-79139286D01*
X142318982Y-76567857D02*
X144318982Y-76567857D01*
X142414220Y-76567857D02*
X142318982Y-76377381D01*
X142318982Y-76377381D02*
X142318982Y-75996428D01*
X142318982Y-75996428D02*
X142414220Y-75805952D01*
X142414220Y-75805952D02*
X142509458Y-75710714D01*
X142509458Y-75710714D02*
X142699935Y-75615476D01*
X142699935Y-75615476D02*
X143271363Y-75615476D01*
X143271363Y-75615476D02*
X143461839Y-75710714D01*
X143461839Y-75710714D02*
X143557078Y-75805952D01*
X143557078Y-75805952D02*
X143652316Y-75996428D01*
X143652316Y-75996428D02*
X143652316Y-76377381D01*
X143652316Y-76377381D02*
X143557078Y-76567857D01*
X143652316Y-74472619D02*
X143557078Y-74663095D01*
X143557078Y-74663095D02*
X143461839Y-74758333D01*
X143461839Y-74758333D02*
X143271363Y-74853571D01*
X143271363Y-74853571D02*
X142699935Y-74853571D01*
X142699935Y-74853571D02*
X142509458Y-74758333D01*
X142509458Y-74758333D02*
X142414220Y-74663095D01*
X142414220Y-74663095D02*
X142318982Y-74472619D01*
X142318982Y-74472619D02*
X142318982Y-74186904D01*
X142318982Y-74186904D02*
X142414220Y-73996428D01*
X142414220Y-73996428D02*
X142509458Y-73901190D01*
X142509458Y-73901190D02*
X142699935Y-73805952D01*
X142699935Y-73805952D02*
X143271363Y-73805952D01*
X143271363Y-73805952D02*
X143461839Y-73901190D01*
X143461839Y-73901190D02*
X143557078Y-73996428D01*
X143557078Y-73996428D02*
X143652316Y-74186904D01*
X143652316Y-74186904D02*
X143652316Y-74472619D01*
X142318982Y-73139285D02*
X143652316Y-72758333D01*
X143652316Y-72758333D02*
X142699935Y-72377380D01*
X142699935Y-72377380D02*
X143652316Y-71996428D01*
X143652316Y-71996428D02*
X142318982Y-71615476D01*
X143557078Y-70091666D02*
X143652316Y-70282142D01*
X143652316Y-70282142D02*
X143652316Y-70663095D01*
X143652316Y-70663095D02*
X143557078Y-70853571D01*
X143557078Y-70853571D02*
X143366601Y-70948809D01*
X143366601Y-70948809D02*
X142604697Y-70948809D01*
X142604697Y-70948809D02*
X142414220Y-70853571D01*
X142414220Y-70853571D02*
X142318982Y-70663095D01*
X142318982Y-70663095D02*
X142318982Y-70282142D01*
X142318982Y-70282142D02*
X142414220Y-70091666D01*
X142414220Y-70091666D02*
X142604697Y-69996428D01*
X142604697Y-69996428D02*
X142795173Y-69996428D01*
X142795173Y-69996428D02*
X142985649Y-70948809D01*
X143652316Y-69139285D02*
X142318982Y-69139285D01*
X142699935Y-69139285D02*
X142509458Y-69044047D01*
X142509458Y-69044047D02*
X142414220Y-68948809D01*
X142414220Y-68948809D02*
X142318982Y-68758333D01*
X142318982Y-68758333D02*
X142318982Y-68567856D01*
D10*
G36*
X132675935Y-33841757D02*
G01*
X132736986Y-33854831D01*
X132782187Y-33874868D01*
X132823452Y-33903703D01*
X132861305Y-33942209D01*
X132892835Y-33986571D01*
X132920262Y-34039485D01*
X132943310Y-34102188D01*
X132959013Y-34167181D01*
X132969094Y-34242992D01*
X132972680Y-34331166D01*
X132966573Y-34443733D01*
X132949466Y-34538969D01*
X132922794Y-34619433D01*
X132884029Y-34694516D01*
X132841301Y-34749224D01*
X132794749Y-34787350D01*
X132740415Y-34813702D01*
X132673205Y-34830672D01*
X132590135Y-34836810D01*
X132293685Y-34836810D01*
X132293685Y-34719573D01*
X132402251Y-34719573D01*
X132577129Y-34719573D01*
X132647332Y-34715015D01*
X132699512Y-34702924D01*
X132737658Y-34685074D01*
X132770144Y-34658544D01*
X132798159Y-34622147D01*
X132821677Y-34573882D01*
X132842542Y-34504898D01*
X132855888Y-34424153D01*
X132860634Y-34329761D01*
X132855248Y-34228164D01*
X132840785Y-34149745D01*
X132819296Y-34090037D01*
X132787227Y-34035755D01*
X132751877Y-33997940D01*
X132713050Y-33973472D01*
X132662672Y-33959524D01*
X132574381Y-33953627D01*
X132402251Y-33953627D01*
X132402251Y-34719573D01*
X132293685Y-34719573D01*
X132293685Y-33836391D01*
X132577190Y-33836391D01*
X132675935Y-33841757D01*
G37*
G36*
X133409656Y-34100359D02*
G01*
X133459362Y-34118100D01*
X133504869Y-34147883D01*
X133547017Y-34191276D01*
X133578742Y-34241064D01*
X133602853Y-34302697D01*
X133618522Y-34378639D01*
X133624198Y-34471850D01*
X133623526Y-34504639D01*
X133179493Y-34504639D01*
X133189660Y-34584631D01*
X133209144Y-34644548D01*
X133236218Y-34688798D01*
X133273319Y-34723949D01*
X133313783Y-34744081D01*
X133359195Y-34750836D01*
X133400353Y-34745316D01*
X133435666Y-34729225D01*
X133466661Y-34701876D01*
X133493914Y-34660858D01*
X133516975Y-34602336D01*
X133620840Y-34621876D01*
X133597518Y-34694985D01*
X133566012Y-34751443D01*
X133526867Y-34794311D01*
X133478742Y-34826218D01*
X133423289Y-34845665D01*
X133358523Y-34852441D01*
X133297386Y-34846245D01*
X133243889Y-34828327D01*
X133196408Y-34798784D01*
X133153908Y-34756515D01*
X133121667Y-34707098D01*
X133097246Y-34646141D01*
X133081415Y-34571253D01*
X133075690Y-34479543D01*
X133080351Y-34403034D01*
X133185660Y-34403034D01*
X133517647Y-34403034D01*
X133509147Y-34341129D01*
X133495277Y-34295716D01*
X133477347Y-34263144D01*
X133441065Y-34225024D01*
X133400455Y-34203255D01*
X133353699Y-34195916D01*
X133311157Y-34202044D01*
X133273146Y-34220279D01*
X133238233Y-34251970D01*
X133212041Y-34291810D01*
X133194243Y-34341371D01*
X133185660Y-34403034D01*
X133080351Y-34403034D01*
X133081500Y-34384168D01*
X133097528Y-34306582D01*
X133122173Y-34243725D01*
X133154580Y-34193046D01*
X133197615Y-34149055D01*
X133244559Y-34118706D01*
X133296320Y-34100533D01*
X133354371Y-34094311D01*
X133409656Y-34100359D01*
G37*
G36*
X133745098Y-34836810D02*
G01*
X133745098Y-33836391D01*
X133845482Y-33836391D01*
X133845482Y-34836810D01*
X133745098Y-34836810D01*
G37*
G36*
X134227539Y-34731297D02*
G01*
X134241217Y-34836810D01*
X134166051Y-34844625D01*
X134116810Y-34838966D01*
X134081299Y-34823743D01*
X134054259Y-34799007D01*
X134037274Y-34766590D01*
X134029123Y-34721364D01*
X134025306Y-34622120D01*
X134025306Y-34203732D01*
X133951544Y-34203732D01*
X133951544Y-34109943D01*
X134025306Y-34109943D01*
X134025306Y-33930180D01*
X134125751Y-33855930D01*
X134125751Y-34109943D01*
X134227539Y-34109943D01*
X134227539Y-34203732D01*
X134125751Y-34203732D01*
X134125751Y-34630302D01*
X134128642Y-34684160D01*
X134134605Y-34706567D01*
X134145332Y-34719941D01*
X134160917Y-34728231D01*
X134183148Y-34731297D01*
X134227539Y-34731297D01*
G37*
G36*
X134636331Y-34098793D02*
G01*
X134684337Y-34110975D01*
X134721520Y-34129543D01*
X134753600Y-34155789D01*
X134775555Y-34184655D01*
X134788809Y-34216677D01*
X134798759Y-34274626D01*
X134802853Y-34368474D01*
X134802853Y-34532544D01*
X134805024Y-34689365D01*
X134809325Y-34749676D01*
X134818961Y-34793695D01*
X134834971Y-34836810D01*
X134729763Y-34836810D01*
X134717148Y-34794513D01*
X134709308Y-34741372D01*
X134656405Y-34790802D01*
X134604100Y-34824536D01*
X134548125Y-34845539D01*
X134490711Y-34852441D01*
X134431037Y-34845843D01*
X134382439Y-34827237D01*
X134342455Y-34797059D01*
X134312357Y-34756983D01*
X134293748Y-34708023D01*
X134287134Y-34647643D01*
X134287973Y-34640194D01*
X134394357Y-34640194D01*
X134398139Y-34672388D01*
X134408874Y-34698794D01*
X134426475Y-34720733D01*
X134449589Y-34736936D01*
X134478645Y-34747153D01*
X134515318Y-34750836D01*
X134567010Y-34743932D01*
X134613320Y-34723481D01*
X134651949Y-34691436D01*
X134679266Y-34650452D01*
X134690469Y-34619088D01*
X134698194Y-34575809D01*
X134701126Y-34517401D01*
X134701126Y-34473376D01*
X134638513Y-34497094D01*
X134536445Y-34520271D01*
X134477999Y-34532889D01*
X134447663Y-34544451D01*
X134425181Y-34560842D01*
X134408340Y-34582858D01*
X134397967Y-34609153D01*
X134394357Y-34640194D01*
X134287973Y-34640194D01*
X134293834Y-34588134D01*
X134313085Y-34537490D01*
X134343978Y-34494559D01*
X134384099Y-34462446D01*
X134435776Y-34440465D01*
X134520752Y-34422574D01*
X134635040Y-34398969D01*
X134701126Y-34375679D01*
X134701797Y-34344233D01*
X134698114Y-34294957D01*
X134688684Y-34261535D01*
X134675175Y-34239636D01*
X134647184Y-34216251D01*
X134609714Y-34201378D01*
X134559709Y-34195916D01*
X134513561Y-34199669D01*
X134479431Y-34209680D01*
X134454502Y-34224737D01*
X134435263Y-34246546D01*
X134417921Y-34281048D01*
X134403272Y-34332692D01*
X134304231Y-34313153D01*
X134324708Y-34239828D01*
X134353568Y-34185629D01*
X134389960Y-34146518D01*
X134435863Y-34118932D01*
X134496102Y-34100943D01*
X134574730Y-34094311D01*
X134636331Y-34098793D01*
G37*
G36*
X135704219Y-33842059D02*
G01*
X135763399Y-33855503D01*
X135807198Y-33877479D01*
X135844760Y-33909169D01*
X135876789Y-33951796D01*
X135899672Y-34000355D01*
X135914069Y-34057346D01*
X135919165Y-34124536D01*
X135914435Y-34191908D01*
X135900980Y-34250208D01*
X135879506Y-34300881D01*
X135850166Y-34345088D01*
X135812859Y-34379998D01*
X135763007Y-34406477D01*
X135697401Y-34423931D01*
X135611785Y-34430389D01*
X135401370Y-34430389D01*
X135401370Y-34836810D01*
X135292743Y-34836810D01*
X135292743Y-34313153D01*
X135401370Y-34313153D01*
X135613861Y-34313153D01*
X135679298Y-34307211D01*
X135726760Y-34291418D01*
X135760712Y-34267540D01*
X135785382Y-34234194D01*
X135801302Y-34189518D01*
X135807180Y-34129971D01*
X135801143Y-34073186D01*
X135784282Y-34027755D01*
X135757940Y-33990807D01*
X135728900Y-33969442D01*
X135689785Y-33958513D01*
X135611785Y-33953627D01*
X135401370Y-33953627D01*
X135401370Y-34313153D01*
X135292743Y-34313153D01*
X135292743Y-33836391D01*
X135602199Y-33836391D01*
X135704219Y-33842059D01*
G37*
G36*
X136151989Y-34836810D02*
G01*
X135970273Y-34109943D01*
X136074809Y-34109943D01*
X136169086Y-34528636D01*
X136203952Y-34684402D01*
X136235398Y-34534803D01*
X136329615Y-34109943D01*
X136433479Y-34109943D01*
X136522262Y-34527293D01*
X136552303Y-34664863D01*
X136586436Y-34525949D01*
X136688225Y-34109943D01*
X136786593Y-34109943D01*
X136600114Y-34836810D01*
X136495639Y-34836810D01*
X136400629Y-34401813D01*
X136378097Y-34277982D01*
X136257869Y-34836810D01*
X136151989Y-34836810D01*
G37*
G36*
X136871162Y-34836810D02*
G01*
X136871162Y-34109943D01*
X136962021Y-34109943D01*
X136962021Y-34222600D01*
X136998731Y-34152809D01*
X137025890Y-34119651D01*
X137057003Y-34100545D01*
X137091164Y-34094311D01*
X137123712Y-34098309D01*
X137157801Y-34110851D01*
X137194296Y-34133390D01*
X137160163Y-34246719D01*
X137122095Y-34228811D01*
X137087073Y-34223271D01*
X137056627Y-34228785D01*
X137028272Y-34245803D01*
X137006002Y-34272004D01*
X136990719Y-34308512D01*
X136976485Y-34380144D01*
X136971607Y-34457806D01*
X136971607Y-34836810D01*
X136871162Y-34836810D01*
G37*
G36*
X137253036Y-34836810D02*
G01*
X137253036Y-34696126D01*
X137367830Y-34696126D01*
X137367830Y-34836810D01*
X137253036Y-34836810D01*
G37*
X115377028Y-27389821D02*
X115329409Y-27485059D01*
X115329409Y-27485059D02*
X115329409Y-27627916D01*
X115329409Y-27627916D02*
X115377028Y-27770773D01*
X115377028Y-27770773D02*
X115472266Y-27866011D01*
X115472266Y-27866011D02*
X115567504Y-27913630D01*
X115567504Y-27913630D02*
X115757980Y-27961249D01*
X115757980Y-27961249D02*
X115900837Y-27961249D01*
X115900837Y-27961249D02*
X116091313Y-27913630D01*
X116091313Y-27913630D02*
X116186551Y-27866011D01*
X116186551Y-27866011D02*
X116281790Y-27770773D01*
X116281790Y-27770773D02*
X116329409Y-27627916D01*
X116329409Y-27627916D02*
X116329409Y-27532678D01*
X116329409Y-27532678D02*
X116281790Y-27389821D01*
X116281790Y-27389821D02*
X116234170Y-27342202D01*
X116234170Y-27342202D02*
X115900837Y-27342202D01*
X115900837Y-27342202D02*
X115900837Y-27532678D01*
X116329409Y-26913630D02*
X115329409Y-26913630D01*
X115329409Y-26913630D02*
X116329409Y-26342202D01*
X116329409Y-26342202D02*
X115329409Y-26342202D01*
X116329409Y-25866011D02*
X115329409Y-25866011D01*
X115329409Y-25866011D02*
X115329409Y-25627916D01*
X115329409Y-25627916D02*
X115377028Y-25485059D01*
X115377028Y-25485059D02*
X115472266Y-25389821D01*
X115472266Y-25389821D02*
X115567504Y-25342202D01*
X115567504Y-25342202D02*
X115757980Y-25294583D01*
X115757980Y-25294583D02*
X115900837Y-25294583D01*
X115900837Y-25294583D02*
X116091313Y-25342202D01*
X116091313Y-25342202D02*
X116186551Y-25389821D01*
X116186551Y-25389821D02*
X116281790Y-25485059D01*
X116281790Y-25485059D02*
X116329409Y-25627916D01*
X116329409Y-25627916D02*
X116329409Y-25866011D01*
G36*
X140331257Y-32031073D02*
G01*
X140432373Y-32019350D01*
X140451807Y-32096959D01*
X140478010Y-32149793D01*
X140509546Y-32184104D01*
X140546720Y-32203998D01*
X140591559Y-32210836D01*
X140634948Y-32204532D01*
X140674307Y-32185652D01*
X140711054Y-32152645D01*
X140738543Y-32111220D01*
X140755582Y-32061646D01*
X140761613Y-32001764D01*
X140756016Y-31945345D01*
X140740307Y-31899301D01*
X140715145Y-31861447D01*
X140681307Y-31831596D01*
X140643772Y-31814218D01*
X140601084Y-31808324D01*
X140571025Y-31811356D01*
X140530009Y-31822001D01*
X140541672Y-31714535D01*
X140557365Y-31715939D01*
X140605169Y-31710586D01*
X140644869Y-31695359D01*
X140678265Y-31670449D01*
X140703645Y-31637472D01*
X140719224Y-31597611D01*
X140724732Y-31548877D01*
X140720064Y-31503766D01*
X140706928Y-31466906D01*
X140685775Y-31436525D01*
X140657610Y-31412741D01*
X140626350Y-31398821D01*
X140590826Y-31394088D01*
X140554082Y-31399059D01*
X140521806Y-31413686D01*
X140492762Y-31438723D01*
X140470795Y-31470770D01*
X140453493Y-31514729D01*
X140441899Y-31573851D01*
X140341515Y-31550403D01*
X140355156Y-31486614D01*
X140374411Y-31434375D01*
X140398621Y-31391871D01*
X140427549Y-31357635D01*
X140475455Y-31321358D01*
X140528819Y-31299842D01*
X140589482Y-31292483D01*
X140637797Y-31297149D01*
X140681507Y-31310801D01*
X140721631Y-31333499D01*
X140758865Y-31366061D01*
X140789095Y-31404803D01*
X140810680Y-31447948D01*
X140823937Y-31496359D01*
X140828535Y-31551197D01*
X140825080Y-31595793D01*
X140815084Y-31635705D01*
X140798799Y-31671731D01*
X140776381Y-31704205D01*
X140748881Y-31731527D01*
X140715817Y-31754102D01*
X140761400Y-31772511D01*
X140797089Y-31799043D01*
X140825387Y-31834469D01*
X140848990Y-31882818D01*
X140863694Y-31937242D01*
X140868835Y-31999932D01*
X140863384Y-32067801D01*
X140847772Y-32126978D01*
X140822562Y-32178977D01*
X140787563Y-32224941D01*
X140743995Y-32263899D01*
X140697606Y-32290860D01*
X140647623Y-32306965D01*
X140592902Y-32312441D01*
X140541846Y-32307584D01*
X140495770Y-32293395D01*
X140453604Y-32269856D01*
X140414605Y-32236176D01*
X140382880Y-32196119D01*
X140358307Y-32149371D01*
X140340917Y-32094830D01*
X140331257Y-32031073D01*
G37*
X115897656Y-30352030D02*
X115897656Y-29590126D01*
X116278609Y-29971078D02*
X115516704Y-29971078D01*
X115278609Y-28637745D02*
X115278609Y-29113935D01*
X115278609Y-29113935D02*
X115754799Y-29161554D01*
X115754799Y-29161554D02*
X115707180Y-29113935D01*
X115707180Y-29113935D02*
X115659561Y-29018697D01*
X115659561Y-29018697D02*
X115659561Y-28780602D01*
X115659561Y-28780602D02*
X115707180Y-28685364D01*
X115707180Y-28685364D02*
X115754799Y-28637745D01*
X115754799Y-28637745D02*
X115850037Y-28590126D01*
X115850037Y-28590126D02*
X116088132Y-28590126D01*
X116088132Y-28590126D02*
X116183370Y-28637745D01*
X116183370Y-28637745D02*
X116230990Y-28685364D01*
X116230990Y-28685364D02*
X116278609Y-28780602D01*
X116278609Y-28780602D02*
X116278609Y-29018697D01*
X116278609Y-29018697D02*
X116230990Y-29113935D01*
X116230990Y-29113935D02*
X116183370Y-29161554D01*
G36*
X131718783Y-32296810D02*
G01*
X131617666Y-32296810D01*
X131617666Y-31515232D01*
X131578681Y-31555044D01*
X131524060Y-31599069D01*
X131465577Y-31637882D01*
X131416166Y-31663732D01*
X131416166Y-31546495D01*
X131494808Y-31492707D01*
X131563383Y-31428465D01*
X131603465Y-31380055D01*
X131632910Y-31334890D01*
X131653203Y-31292483D01*
X131718783Y-31292483D01*
X131718783Y-32296810D01*
G37*
D11*
X219800804Y-43103867D02*
X219872232Y-42889581D01*
X219872232Y-42889581D02*
X219943661Y-42818152D01*
X219943661Y-42818152D02*
X220086518Y-42746724D01*
X220086518Y-42746724D02*
X220300804Y-42746724D01*
X220300804Y-42746724D02*
X220443661Y-42818152D01*
X220443661Y-42818152D02*
X220515090Y-42889581D01*
X220515090Y-42889581D02*
X220586518Y-43032438D01*
X220586518Y-43032438D02*
X220586518Y-43603867D01*
X220586518Y-43603867D02*
X219086518Y-43603867D01*
X219086518Y-43603867D02*
X219086518Y-43103867D01*
X219086518Y-43103867D02*
X219157947Y-42961010D01*
X219157947Y-42961010D02*
X219229375Y-42889581D01*
X219229375Y-42889581D02*
X219372232Y-42818152D01*
X219372232Y-42818152D02*
X219515090Y-42818152D01*
X219515090Y-42818152D02*
X219657947Y-42889581D01*
X219657947Y-42889581D02*
X219729375Y-42961010D01*
X219729375Y-42961010D02*
X219800804Y-43103867D01*
X219800804Y-43103867D02*
X219800804Y-43603867D01*
D13*
X214528409Y-44034316D02*
X214528409Y-44605744D01*
X214528409Y-44320030D02*
X213528409Y-44320030D01*
X213528409Y-44320030D02*
X213671266Y-44415268D01*
X213671266Y-44415268D02*
X213766504Y-44510506D01*
X213766504Y-44510506D02*
X213814123Y-44605744D01*
D12*
X103798652Y-103853572D02*
X104179604Y-103853572D01*
X103798652Y-103091667D02*
X104179604Y-103091667D01*
X106274842Y-100710715D02*
X105798652Y-100710715D01*
X105798652Y-100710715D02*
X105798652Y-102425000D01*
X105798652Y-102425000D02*
X106274842Y-102425000D01*
X105798652Y-101091667D02*
X103798652Y-101091667D01*
X103798652Y-101091667D02*
X103798652Y-101567857D01*
X103798652Y-101567857D02*
X103893890Y-101758334D01*
X103893890Y-101758334D02*
X103989128Y-101853572D01*
X103989128Y-101853572D02*
X104179604Y-101948810D01*
X104179604Y-101948810D02*
X105798652Y-102139286D01*
X105703414Y-99186905D02*
X105798652Y-99377381D01*
X105798652Y-99377381D02*
X105798652Y-99758334D01*
X105798652Y-99758334D02*
X105703414Y-99948810D01*
X105703414Y-99948810D02*
X105512937Y-100044048D01*
X105512937Y-100044048D02*
X104751033Y-100044048D01*
X104751033Y-100044048D02*
X104560556Y-99948810D01*
X104560556Y-99948810D02*
X104465318Y-99758334D01*
X104465318Y-99758334D02*
X104465318Y-99377381D01*
X104465318Y-99377381D02*
X104560556Y-99186905D01*
X104560556Y-99186905D02*
X104751033Y-99091667D01*
X104751033Y-99091667D02*
X104941509Y-99091667D01*
X104941509Y-99091667D02*
X105131985Y-100044048D01*
X105798652Y-97472619D02*
X104465318Y-97472619D01*
X104465318Y-97472619D02*
X104465318Y-97758334D01*
X104465318Y-97758334D02*
X104560556Y-97948810D01*
X104560556Y-97948810D02*
X104751033Y-98044048D01*
X104751033Y-98044048D02*
X105512937Y-98139286D01*
X105512937Y-98139286D02*
X105703414Y-98234524D01*
X105703414Y-98234524D02*
X105798652Y-98425000D01*
X104465318Y-96520238D02*
X105798652Y-96520238D01*
X105798652Y-96520238D02*
X105798652Y-96044048D01*
X105798652Y-96044048D02*
X105703414Y-95853571D01*
X105703414Y-95853571D02*
X105512937Y-95758333D01*
X105512937Y-95758333D02*
X105227223Y-95758333D01*
X105227223Y-95758333D02*
X105036747Y-95853571D01*
X105036747Y-95853571D02*
X104941509Y-96044048D01*
X104941509Y-96044048D02*
X104941509Y-96520238D01*
X104465318Y-95186904D02*
X104465318Y-94234523D01*
X104465318Y-94710714D02*
X105798652Y-94710714D01*
X105798652Y-92710714D02*
X104751033Y-92710714D01*
X104751033Y-92710714D02*
X104560556Y-92805952D01*
X104560556Y-92805952D02*
X104465318Y-92996428D01*
X104465318Y-92996428D02*
X104465318Y-93377381D01*
X104465318Y-93377381D02*
X104560556Y-93567857D01*
X105703414Y-92710714D02*
X105798652Y-92901190D01*
X105798652Y-92901190D02*
X105798652Y-93377381D01*
X105798652Y-93377381D02*
X105703414Y-93567857D01*
X105703414Y-93567857D02*
X105512937Y-93663095D01*
X105512937Y-93663095D02*
X105322461Y-93663095D01*
X105322461Y-93663095D02*
X105131985Y-93567857D01*
X105131985Y-93567857D02*
X105036747Y-93377381D01*
X105036747Y-93377381D02*
X105036747Y-92901190D01*
X105036747Y-92901190D02*
X104941509Y-92710714D01*
X105036747Y-91758333D02*
X105036747Y-90234524D01*
X105608175Y-88139286D02*
X105703414Y-88234524D01*
X105703414Y-88234524D02*
X105798652Y-88520238D01*
X105798652Y-88520238D02*
X105798652Y-88710714D01*
X105798652Y-88710714D02*
X105703414Y-88996429D01*
X105703414Y-88996429D02*
X105512937Y-89186905D01*
X105512937Y-89186905D02*
X105322461Y-89282143D01*
X105322461Y-89282143D02*
X104941509Y-89377381D01*
X104941509Y-89377381D02*
X104655794Y-89377381D01*
X104655794Y-89377381D02*
X104274842Y-89282143D01*
X104274842Y-89282143D02*
X104084366Y-89186905D01*
X104084366Y-89186905D02*
X103893890Y-88996429D01*
X103893890Y-88996429D02*
X103798652Y-88710714D01*
X103798652Y-88710714D02*
X103798652Y-88520238D01*
X103798652Y-88520238D02*
X103893890Y-88234524D01*
X103893890Y-88234524D02*
X103989128Y-88139286D01*
X103798652Y-87377381D02*
X104179604Y-87377381D01*
X103798652Y-86615476D02*
X104179604Y-86615476D01*
X105036747Y-84234523D02*
X105036747Y-82710714D01*
X103703414Y-79282142D02*
X103798652Y-79377380D01*
X103798652Y-79377380D02*
X103893890Y-79567856D01*
X103893890Y-79567856D02*
X103893890Y-79948809D01*
X103893890Y-79948809D02*
X103989128Y-80139285D01*
X103989128Y-80139285D02*
X104084366Y-80234523D01*
X104084366Y-80234523D02*
X104274842Y-80329761D01*
X104274842Y-80329761D02*
X105417699Y-80329761D01*
X105417699Y-80329761D02*
X105608175Y-80234523D01*
X105608175Y-80234523D02*
X105703414Y-80139285D01*
X105703414Y-80139285D02*
X105798652Y-79948809D01*
X105798652Y-79948809D02*
X105798652Y-79663094D01*
X105798652Y-79663094D02*
X105703414Y-79472618D01*
X105703414Y-79472618D02*
X105608175Y-79377380D01*
X105608175Y-79377380D02*
X105417699Y-79282142D01*
X105417699Y-79282142D02*
X104846271Y-79282142D01*
X104846271Y-79282142D02*
X104655794Y-79377380D01*
X104655794Y-79377380D02*
X104560556Y-79472618D01*
X104560556Y-79472618D02*
X104465318Y-79663094D01*
X104465318Y-79663094D02*
X104465318Y-80044047D01*
X104465318Y-80044047D02*
X104560556Y-80234523D01*
X104560556Y-80234523D02*
X104655794Y-80329761D01*
X105703414Y-77663094D02*
X105798652Y-77853570D01*
X105798652Y-77853570D02*
X105798652Y-78234523D01*
X105798652Y-78234523D02*
X105703414Y-78424999D01*
X105703414Y-78424999D02*
X105512937Y-78520237D01*
X105512937Y-78520237D02*
X104751033Y-78520237D01*
X104751033Y-78520237D02*
X104560556Y-78424999D01*
X104560556Y-78424999D02*
X104465318Y-78234523D01*
X104465318Y-78234523D02*
X104465318Y-77853570D01*
X104465318Y-77853570D02*
X104560556Y-77663094D01*
X104560556Y-77663094D02*
X104751033Y-77567856D01*
X104751033Y-77567856D02*
X104941509Y-77567856D01*
X104941509Y-77567856D02*
X105131985Y-78520237D01*
X104465318Y-76710713D02*
X105798652Y-76710713D01*
X105036747Y-76520237D02*
X105798652Y-75948808D01*
X104465318Y-75948808D02*
X105227223Y-76710713D01*
X105798652Y-75091665D02*
X104465318Y-75091665D01*
X104465318Y-75091665D02*
X104465318Y-74234522D01*
X104465318Y-74234522D02*
X105798652Y-74234522D01*
X105798652Y-72520236D02*
X104465318Y-72520236D01*
X104465318Y-72520236D02*
X104465318Y-72805951D01*
X104465318Y-72805951D02*
X104560556Y-72996427D01*
X104560556Y-72996427D02*
X104751033Y-73091665D01*
X104751033Y-73091665D02*
X105512937Y-73186903D01*
X105512937Y-73186903D02*
X105703414Y-73282141D01*
X105703414Y-73282141D02*
X105798652Y-73472617D01*
X105703414Y-70805950D02*
X105798652Y-70996426D01*
X105798652Y-70996426D02*
X105798652Y-71377379D01*
X105798652Y-71377379D02*
X105703414Y-71567855D01*
X105703414Y-71567855D02*
X105512937Y-71663093D01*
X105512937Y-71663093D02*
X104751033Y-71663093D01*
X104751033Y-71663093D02*
X104560556Y-71567855D01*
X104560556Y-71567855D02*
X104465318Y-71377379D01*
X104465318Y-71377379D02*
X104465318Y-70996426D01*
X104465318Y-70996426D02*
X104560556Y-70805950D01*
X104560556Y-70805950D02*
X104751033Y-70710712D01*
X104751033Y-70710712D02*
X104941509Y-70710712D01*
X104941509Y-70710712D02*
X105131985Y-71663093D01*
X104465318Y-69853569D02*
X105798652Y-69853569D01*
X105798652Y-69853569D02*
X104465318Y-68901188D01*
X104465318Y-68901188D02*
X105798652Y-68901188D01*
X103703414Y-69758331D02*
X103893890Y-69663093D01*
X103893890Y-69663093D02*
X103989128Y-69472617D01*
X103989128Y-69472617D02*
X103989128Y-69282140D01*
X103989128Y-69282140D02*
X103893890Y-69091664D01*
X103893890Y-69091664D02*
X103703414Y-68996426D01*
X105131985Y-67948807D02*
X105131985Y-67091664D01*
X104465318Y-67948807D02*
X105798652Y-67948807D01*
X104465318Y-67091664D02*
X105798652Y-67091664D01*
X107018540Y-93805952D02*
X109018540Y-93139286D01*
X109018540Y-93139286D02*
X107018540Y-92472619D01*
X108923302Y-91044047D02*
X109018540Y-91234523D01*
X109018540Y-91234523D02*
X109018540Y-91615476D01*
X109018540Y-91615476D02*
X108923302Y-91805952D01*
X108923302Y-91805952D02*
X108732825Y-91901190D01*
X108732825Y-91901190D02*
X107970921Y-91901190D01*
X107970921Y-91901190D02*
X107780444Y-91805952D01*
X107780444Y-91805952D02*
X107685206Y-91615476D01*
X107685206Y-91615476D02*
X107685206Y-91234523D01*
X107685206Y-91234523D02*
X107780444Y-91044047D01*
X107780444Y-91044047D02*
X107970921Y-90948809D01*
X107970921Y-90948809D02*
X108161397Y-90948809D01*
X108161397Y-90948809D02*
X108351873Y-91901190D01*
X109018540Y-90091666D02*
X107685206Y-90091666D01*
X108066159Y-90091666D02*
X107875682Y-89996428D01*
X107875682Y-89996428D02*
X107780444Y-89901190D01*
X107780444Y-89901190D02*
X107685206Y-89710714D01*
X107685206Y-89710714D02*
X107685206Y-89520237D01*
X108923302Y-88948809D02*
X109018540Y-88758333D01*
X109018540Y-88758333D02*
X109018540Y-88377381D01*
X109018540Y-88377381D02*
X108923302Y-88186904D01*
X108923302Y-88186904D02*
X108732825Y-88091666D01*
X108732825Y-88091666D02*
X108637587Y-88091666D01*
X108637587Y-88091666D02*
X108447111Y-88186904D01*
X108447111Y-88186904D02*
X108351873Y-88377381D01*
X108351873Y-88377381D02*
X108351873Y-88663095D01*
X108351873Y-88663095D02*
X108256635Y-88853571D01*
X108256635Y-88853571D02*
X108066159Y-88948809D01*
X108066159Y-88948809D02*
X107970921Y-88948809D01*
X107970921Y-88948809D02*
X107780444Y-88853571D01*
X107780444Y-88853571D02*
X107685206Y-88663095D01*
X107685206Y-88663095D02*
X107685206Y-88377381D01*
X107685206Y-88377381D02*
X107780444Y-88186904D01*
X109018540Y-87234523D02*
X107685206Y-87234523D01*
X107018540Y-87234523D02*
X107113778Y-87329761D01*
X107113778Y-87329761D02*
X107209016Y-87234523D01*
X107209016Y-87234523D02*
X107113778Y-87139285D01*
X107113778Y-87139285D02*
X107018540Y-87234523D01*
X107018540Y-87234523D02*
X107209016Y-87234523D01*
X109018540Y-85996428D02*
X108923302Y-86186904D01*
X108923302Y-86186904D02*
X108828063Y-86282142D01*
X108828063Y-86282142D02*
X108637587Y-86377380D01*
X108637587Y-86377380D02*
X108066159Y-86377380D01*
X108066159Y-86377380D02*
X107875682Y-86282142D01*
X107875682Y-86282142D02*
X107780444Y-86186904D01*
X107780444Y-86186904D02*
X107685206Y-85996428D01*
X107685206Y-85996428D02*
X107685206Y-85710713D01*
X107685206Y-85710713D02*
X107780444Y-85520237D01*
X107780444Y-85520237D02*
X107875682Y-85424999D01*
X107875682Y-85424999D02*
X108066159Y-85329761D01*
X108066159Y-85329761D02*
X108637587Y-85329761D01*
X108637587Y-85329761D02*
X108828063Y-85424999D01*
X108828063Y-85424999D02*
X108923302Y-85520237D01*
X108923302Y-85520237D02*
X109018540Y-85710713D01*
X109018540Y-85710713D02*
X109018540Y-85996428D01*
X107685206Y-84472618D02*
X109018540Y-84472618D01*
X107875682Y-84472618D02*
X107780444Y-84377380D01*
X107780444Y-84377380D02*
X107685206Y-84186904D01*
X107685206Y-84186904D02*
X107685206Y-83901189D01*
X107685206Y-83901189D02*
X107780444Y-83710713D01*
X107780444Y-83710713D02*
X107970921Y-83615475D01*
X107970921Y-83615475D02*
X109018540Y-83615475D01*
X107018540Y-80758332D02*
X107018540Y-80567855D01*
X107018540Y-80567855D02*
X107113778Y-80377379D01*
X107113778Y-80377379D02*
X107209016Y-80282141D01*
X107209016Y-80282141D02*
X107399492Y-80186903D01*
X107399492Y-80186903D02*
X107780444Y-80091665D01*
X107780444Y-80091665D02*
X108256635Y-80091665D01*
X108256635Y-80091665D02*
X108637587Y-80186903D01*
X108637587Y-80186903D02*
X108828063Y-80282141D01*
X108828063Y-80282141D02*
X108923302Y-80377379D01*
X108923302Y-80377379D02*
X109018540Y-80567855D01*
X109018540Y-80567855D02*
X109018540Y-80758332D01*
X109018540Y-80758332D02*
X108923302Y-80948808D01*
X108923302Y-80948808D02*
X108828063Y-81044046D01*
X108828063Y-81044046D02*
X108637587Y-81139284D01*
X108637587Y-81139284D02*
X108256635Y-81234522D01*
X108256635Y-81234522D02*
X107780444Y-81234522D01*
X107780444Y-81234522D02*
X107399492Y-81139284D01*
X107399492Y-81139284D02*
X107209016Y-81044046D01*
X107209016Y-81044046D02*
X107113778Y-80948808D01*
X107113778Y-80948808D02*
X107018540Y-80758332D01*
X108828063Y-79234522D02*
X108923302Y-79139284D01*
X108923302Y-79139284D02*
X109018540Y-79234522D01*
X109018540Y-79234522D02*
X108923302Y-79329760D01*
X108923302Y-79329760D02*
X108828063Y-79234522D01*
X108828063Y-79234522D02*
X109018540Y-79234522D01*
X107209016Y-78377379D02*
X107113778Y-78282141D01*
X107113778Y-78282141D02*
X107018540Y-78091665D01*
X107018540Y-78091665D02*
X107018540Y-77615474D01*
X107018540Y-77615474D02*
X107113778Y-77424998D01*
X107113778Y-77424998D02*
X107209016Y-77329760D01*
X107209016Y-77329760D02*
X107399492Y-77234522D01*
X107399492Y-77234522D02*
X107589968Y-77234522D01*
X107589968Y-77234522D02*
X107875682Y-77329760D01*
X107875682Y-77329760D02*
X109018540Y-78472617D01*
X109018540Y-78472617D02*
X109018540Y-77234522D01*
X111190809Y-107996430D02*
X111286047Y-107710716D01*
X111286047Y-107710716D02*
X111381285Y-107615478D01*
X111381285Y-107615478D02*
X111571761Y-107520240D01*
X111571761Y-107520240D02*
X111857475Y-107520240D01*
X111857475Y-107520240D02*
X112047951Y-107615478D01*
X112047951Y-107615478D02*
X112143190Y-107710716D01*
X112143190Y-107710716D02*
X112238428Y-107901192D01*
X112238428Y-107901192D02*
X112238428Y-108663097D01*
X112238428Y-108663097D02*
X110238428Y-108663097D01*
X110238428Y-108663097D02*
X110238428Y-107996430D01*
X110238428Y-107996430D02*
X110333666Y-107805954D01*
X110333666Y-107805954D02*
X110428904Y-107710716D01*
X110428904Y-107710716D02*
X110619380Y-107615478D01*
X110619380Y-107615478D02*
X110809856Y-107615478D01*
X110809856Y-107615478D02*
X111000332Y-107710716D01*
X111000332Y-107710716D02*
X111095570Y-107805954D01*
X111095570Y-107805954D02*
X111190809Y-107996430D01*
X111190809Y-107996430D02*
X111190809Y-108663097D01*
X112238428Y-106377383D02*
X112143190Y-106567859D01*
X112143190Y-106567859D02*
X112047951Y-106663097D01*
X112047951Y-106663097D02*
X111857475Y-106758335D01*
X111857475Y-106758335D02*
X111286047Y-106758335D01*
X111286047Y-106758335D02*
X111095570Y-106663097D01*
X111095570Y-106663097D02*
X111000332Y-106567859D01*
X111000332Y-106567859D02*
X110905094Y-106377383D01*
X110905094Y-106377383D02*
X110905094Y-106091668D01*
X110905094Y-106091668D02*
X111000332Y-105901192D01*
X111000332Y-105901192D02*
X111095570Y-105805954D01*
X111095570Y-105805954D02*
X111286047Y-105710716D01*
X111286047Y-105710716D02*
X111857475Y-105710716D01*
X111857475Y-105710716D02*
X112047951Y-105805954D01*
X112047951Y-105805954D02*
X112143190Y-105901192D01*
X112143190Y-105901192D02*
X112238428Y-106091668D01*
X112238428Y-106091668D02*
X112238428Y-106377383D01*
X112238428Y-103996430D02*
X111190809Y-103996430D01*
X111190809Y-103996430D02*
X111000332Y-104091668D01*
X111000332Y-104091668D02*
X110905094Y-104282144D01*
X110905094Y-104282144D02*
X110905094Y-104663097D01*
X110905094Y-104663097D02*
X111000332Y-104853573D01*
X112143190Y-103996430D02*
X112238428Y-104186906D01*
X112238428Y-104186906D02*
X112238428Y-104663097D01*
X112238428Y-104663097D02*
X112143190Y-104853573D01*
X112143190Y-104853573D02*
X111952713Y-104948811D01*
X111952713Y-104948811D02*
X111762237Y-104948811D01*
X111762237Y-104948811D02*
X111571761Y-104853573D01*
X111571761Y-104853573D02*
X111476523Y-104663097D01*
X111476523Y-104663097D02*
X111476523Y-104186906D01*
X111476523Y-104186906D02*
X111381285Y-103996430D01*
X112238428Y-103044049D02*
X110905094Y-103044049D01*
X111286047Y-103044049D02*
X111095570Y-102948811D01*
X111095570Y-102948811D02*
X111000332Y-102853573D01*
X111000332Y-102853573D02*
X110905094Y-102663097D01*
X110905094Y-102663097D02*
X110905094Y-102472620D01*
X112238428Y-100948811D02*
X110238428Y-100948811D01*
X112143190Y-100948811D02*
X112238428Y-101139287D01*
X112238428Y-101139287D02*
X112238428Y-101520240D01*
X112238428Y-101520240D02*
X112143190Y-101710716D01*
X112143190Y-101710716D02*
X112047951Y-101805954D01*
X112047951Y-101805954D02*
X111857475Y-101901192D01*
X111857475Y-101901192D02*
X111286047Y-101901192D01*
X111286047Y-101901192D02*
X111095570Y-101805954D01*
X111095570Y-101805954D02*
X111000332Y-101710716D01*
X111000332Y-101710716D02*
X110905094Y-101520240D01*
X110905094Y-101520240D02*
X110905094Y-101139287D01*
X110905094Y-101139287D02*
X111000332Y-100948811D01*
X112238428Y-98472620D02*
X110238428Y-98472620D01*
X110238428Y-98472620D02*
X110238428Y-97996430D01*
X110238428Y-97996430D02*
X110333666Y-97710715D01*
X110333666Y-97710715D02*
X110524142Y-97520239D01*
X110524142Y-97520239D02*
X110714618Y-97425001D01*
X110714618Y-97425001D02*
X111095570Y-97329763D01*
X111095570Y-97329763D02*
X111381285Y-97329763D01*
X111381285Y-97329763D02*
X111762237Y-97425001D01*
X111762237Y-97425001D02*
X111952713Y-97520239D01*
X111952713Y-97520239D02*
X112143190Y-97710715D01*
X112143190Y-97710715D02*
X112238428Y-97996430D01*
X112238428Y-97996430D02*
X112238428Y-98472620D01*
X112143190Y-95710715D02*
X112238428Y-95901191D01*
X112238428Y-95901191D02*
X112238428Y-96282144D01*
X112238428Y-96282144D02*
X112143190Y-96472620D01*
X112143190Y-96472620D02*
X111952713Y-96567858D01*
X111952713Y-96567858D02*
X111190809Y-96567858D01*
X111190809Y-96567858D02*
X111000332Y-96472620D01*
X111000332Y-96472620D02*
X110905094Y-96282144D01*
X110905094Y-96282144D02*
X110905094Y-95901191D01*
X110905094Y-95901191D02*
X111000332Y-95710715D01*
X111000332Y-95710715D02*
X111190809Y-95615477D01*
X111190809Y-95615477D02*
X111381285Y-95615477D01*
X111381285Y-95615477D02*
X111571761Y-96567858D01*
X112143190Y-94853572D02*
X112238428Y-94663096D01*
X112238428Y-94663096D02*
X112238428Y-94282144D01*
X112238428Y-94282144D02*
X112143190Y-94091667D01*
X112143190Y-94091667D02*
X111952713Y-93996429D01*
X111952713Y-93996429D02*
X111857475Y-93996429D01*
X111857475Y-93996429D02*
X111666999Y-94091667D01*
X111666999Y-94091667D02*
X111571761Y-94282144D01*
X111571761Y-94282144D02*
X111571761Y-94567858D01*
X111571761Y-94567858D02*
X111476523Y-94758334D01*
X111476523Y-94758334D02*
X111286047Y-94853572D01*
X111286047Y-94853572D02*
X111190809Y-94853572D01*
X111190809Y-94853572D02*
X111000332Y-94758334D01*
X111000332Y-94758334D02*
X110905094Y-94567858D01*
X110905094Y-94567858D02*
X110905094Y-94282144D01*
X110905094Y-94282144D02*
X111000332Y-94091667D01*
X112238428Y-93139286D02*
X110905094Y-93139286D01*
X110238428Y-93139286D02*
X110333666Y-93234524D01*
X110333666Y-93234524D02*
X110428904Y-93139286D01*
X110428904Y-93139286D02*
X110333666Y-93044048D01*
X110333666Y-93044048D02*
X110238428Y-93139286D01*
X110238428Y-93139286D02*
X110428904Y-93139286D01*
X110905094Y-91329762D02*
X112524142Y-91329762D01*
X112524142Y-91329762D02*
X112714618Y-91425000D01*
X112714618Y-91425000D02*
X112809856Y-91520238D01*
X112809856Y-91520238D02*
X112905094Y-91710715D01*
X112905094Y-91710715D02*
X112905094Y-91996429D01*
X112905094Y-91996429D02*
X112809856Y-92186905D01*
X112143190Y-91329762D02*
X112238428Y-91520238D01*
X112238428Y-91520238D02*
X112238428Y-91901191D01*
X112238428Y-91901191D02*
X112143190Y-92091667D01*
X112143190Y-92091667D02*
X112047951Y-92186905D01*
X112047951Y-92186905D02*
X111857475Y-92282143D01*
X111857475Y-92282143D02*
X111286047Y-92282143D01*
X111286047Y-92282143D02*
X111095570Y-92186905D01*
X111095570Y-92186905D02*
X111000332Y-92091667D01*
X111000332Y-92091667D02*
X110905094Y-91901191D01*
X110905094Y-91901191D02*
X110905094Y-91520238D01*
X110905094Y-91520238D02*
X111000332Y-91329762D01*
X110905094Y-90377381D02*
X112238428Y-90377381D01*
X111095570Y-90377381D02*
X111000332Y-90282143D01*
X111000332Y-90282143D02*
X110905094Y-90091667D01*
X110905094Y-90091667D02*
X110905094Y-89805952D01*
X110905094Y-89805952D02*
X111000332Y-89615476D01*
X111000332Y-89615476D02*
X111190809Y-89520238D01*
X111190809Y-89520238D02*
X112238428Y-89520238D01*
X112238428Y-87044047D02*
X110238428Y-87044047D01*
X111000332Y-87044047D02*
X110905094Y-86853571D01*
X110905094Y-86853571D02*
X110905094Y-86472618D01*
X110905094Y-86472618D02*
X111000332Y-86282142D01*
X111000332Y-86282142D02*
X111095570Y-86186904D01*
X111095570Y-86186904D02*
X111286047Y-86091666D01*
X111286047Y-86091666D02*
X111857475Y-86091666D01*
X111857475Y-86091666D02*
X112047951Y-86186904D01*
X112047951Y-86186904D02*
X112143190Y-86282142D01*
X112143190Y-86282142D02*
X112238428Y-86472618D01*
X112238428Y-86472618D02*
X112238428Y-86853571D01*
X112238428Y-86853571D02*
X112143190Y-87044047D01*
X110905094Y-85424999D02*
X112238428Y-84948809D01*
X110905094Y-84472618D02*
X112238428Y-84948809D01*
X112238428Y-84948809D02*
X112714618Y-85139285D01*
X112714618Y-85139285D02*
X112809856Y-85234523D01*
X112809856Y-85234523D02*
X112905094Y-85424999D01*
X112238428Y-82186903D02*
X110238428Y-82186903D01*
X110238428Y-82186903D02*
X111666999Y-81520236D01*
X111666999Y-81520236D02*
X110238428Y-80853570D01*
X110238428Y-80853570D02*
X112238428Y-80853570D01*
X112238428Y-79044046D02*
X111190809Y-79044046D01*
X111190809Y-79044046D02*
X111000332Y-79139284D01*
X111000332Y-79139284D02*
X110905094Y-79329760D01*
X110905094Y-79329760D02*
X110905094Y-79710713D01*
X110905094Y-79710713D02*
X111000332Y-79901189D01*
X112143190Y-79044046D02*
X112238428Y-79234522D01*
X112238428Y-79234522D02*
X112238428Y-79710713D01*
X112238428Y-79710713D02*
X112143190Y-79901189D01*
X112143190Y-79901189D02*
X111952713Y-79996427D01*
X111952713Y-79996427D02*
X111762237Y-79996427D01*
X111762237Y-79996427D02*
X111571761Y-79901189D01*
X111571761Y-79901189D02*
X111476523Y-79710713D01*
X111476523Y-79710713D02*
X111476523Y-79234522D01*
X111476523Y-79234522D02*
X111381285Y-79044046D01*
X112238428Y-77234522D02*
X110238428Y-77234522D01*
X112143190Y-77234522D02*
X112238428Y-77424998D01*
X112238428Y-77424998D02*
X112238428Y-77805951D01*
X112238428Y-77805951D02*
X112143190Y-77996427D01*
X112143190Y-77996427D02*
X112047951Y-78091665D01*
X112047951Y-78091665D02*
X111857475Y-78186903D01*
X111857475Y-78186903D02*
X111286047Y-78186903D01*
X111286047Y-78186903D02*
X111095570Y-78091665D01*
X111095570Y-78091665D02*
X111000332Y-77996427D01*
X111000332Y-77996427D02*
X110905094Y-77805951D01*
X110905094Y-77805951D02*
X110905094Y-77424998D01*
X110905094Y-77424998D02*
X111000332Y-77234522D01*
X112047951Y-75139284D02*
X112143190Y-75234522D01*
X112143190Y-75234522D02*
X112238428Y-75520236D01*
X112238428Y-75520236D02*
X112238428Y-75710712D01*
X112238428Y-75710712D02*
X112143190Y-75996427D01*
X112143190Y-75996427D02*
X111952713Y-76186903D01*
X111952713Y-76186903D02*
X111762237Y-76282141D01*
X111762237Y-76282141D02*
X111381285Y-76377379D01*
X111381285Y-76377379D02*
X111095570Y-76377379D01*
X111095570Y-76377379D02*
X110714618Y-76282141D01*
X110714618Y-76282141D02*
X110524142Y-76186903D01*
X110524142Y-76186903D02*
X110333666Y-75996427D01*
X110333666Y-75996427D02*
X110238428Y-75710712D01*
X110238428Y-75710712D02*
X110238428Y-75520236D01*
X110238428Y-75520236D02*
X110333666Y-75234522D01*
X110333666Y-75234522D02*
X110428904Y-75139284D01*
X112238428Y-73424998D02*
X111190809Y-73424998D01*
X111190809Y-73424998D02*
X111000332Y-73520236D01*
X111000332Y-73520236D02*
X110905094Y-73710712D01*
X110905094Y-73710712D02*
X110905094Y-74091665D01*
X110905094Y-74091665D02*
X111000332Y-74282141D01*
X112143190Y-73424998D02*
X112238428Y-73615474D01*
X112238428Y-73615474D02*
X112238428Y-74091665D01*
X112238428Y-74091665D02*
X112143190Y-74282141D01*
X112143190Y-74282141D02*
X111952713Y-74377379D01*
X111952713Y-74377379D02*
X111762237Y-74377379D01*
X111762237Y-74377379D02*
X111571761Y-74282141D01*
X111571761Y-74282141D02*
X111476523Y-74091665D01*
X111476523Y-74091665D02*
X111476523Y-73615474D01*
X111476523Y-73615474D02*
X111381285Y-73424998D01*
X110905094Y-72758331D02*
X110905094Y-71996427D01*
X110238428Y-72472617D02*
X111952713Y-72472617D01*
X111952713Y-72472617D02*
X112143190Y-72377379D01*
X112143190Y-72377379D02*
X112238428Y-72186903D01*
X112238428Y-72186903D02*
X112238428Y-71996427D01*
X112143190Y-71234522D02*
X112238428Y-71234522D01*
X112238428Y-71234522D02*
X112428904Y-71329760D01*
X112428904Y-71329760D02*
X112524142Y-71424998D01*
X110428904Y-68948807D02*
X110333666Y-68853569D01*
X110333666Y-68853569D02*
X110238428Y-68663093D01*
X110238428Y-68663093D02*
X110238428Y-68186902D01*
X110238428Y-68186902D02*
X110333666Y-67996426D01*
X110333666Y-67996426D02*
X110428904Y-67901188D01*
X110428904Y-67901188D02*
X110619380Y-67805950D01*
X110619380Y-67805950D02*
X110809856Y-67805950D01*
X110809856Y-67805950D02*
X111095570Y-67901188D01*
X111095570Y-67901188D02*
X112238428Y-69044045D01*
X112238428Y-69044045D02*
X112238428Y-67805950D01*
X110238428Y-66567855D02*
X110238428Y-66377378D01*
X110238428Y-66377378D02*
X110333666Y-66186902D01*
X110333666Y-66186902D02*
X110428904Y-66091664D01*
X110428904Y-66091664D02*
X110619380Y-65996426D01*
X110619380Y-65996426D02*
X111000332Y-65901188D01*
X111000332Y-65901188D02*
X111476523Y-65901188D01*
X111476523Y-65901188D02*
X111857475Y-65996426D01*
X111857475Y-65996426D02*
X112047951Y-66091664D01*
X112047951Y-66091664D02*
X112143190Y-66186902D01*
X112143190Y-66186902D02*
X112238428Y-66377378D01*
X112238428Y-66377378D02*
X112238428Y-66567855D01*
X112238428Y-66567855D02*
X112143190Y-66758331D01*
X112143190Y-66758331D02*
X112047951Y-66853569D01*
X112047951Y-66853569D02*
X111857475Y-66948807D01*
X111857475Y-66948807D02*
X111476523Y-67044045D01*
X111476523Y-67044045D02*
X111000332Y-67044045D01*
X111000332Y-67044045D02*
X110619380Y-66948807D01*
X110619380Y-66948807D02*
X110428904Y-66853569D01*
X110428904Y-66853569D02*
X110333666Y-66758331D01*
X110333666Y-66758331D02*
X110238428Y-66567855D01*
X110428904Y-65139283D02*
X110333666Y-65044045D01*
X110333666Y-65044045D02*
X110238428Y-64853569D01*
X110238428Y-64853569D02*
X110238428Y-64377378D01*
X110238428Y-64377378D02*
X110333666Y-64186902D01*
X110333666Y-64186902D02*
X110428904Y-64091664D01*
X110428904Y-64091664D02*
X110619380Y-63996426D01*
X110619380Y-63996426D02*
X110809856Y-63996426D01*
X110809856Y-63996426D02*
X111095570Y-64091664D01*
X111095570Y-64091664D02*
X112238428Y-65234521D01*
X112238428Y-65234521D02*
X112238428Y-63996426D01*
X110238428Y-62282140D02*
X110238428Y-62663093D01*
X110238428Y-62663093D02*
X110333666Y-62853569D01*
X110333666Y-62853569D02*
X110428904Y-62948807D01*
X110428904Y-62948807D02*
X110714618Y-63139283D01*
X110714618Y-63139283D02*
X111095570Y-63234521D01*
X111095570Y-63234521D02*
X111857475Y-63234521D01*
X111857475Y-63234521D02*
X112047951Y-63139283D01*
X112047951Y-63139283D02*
X112143190Y-63044045D01*
X112143190Y-63044045D02*
X112238428Y-62853569D01*
X112238428Y-62853569D02*
X112238428Y-62472616D01*
X112238428Y-62472616D02*
X112143190Y-62282140D01*
X112143190Y-62282140D02*
X112047951Y-62186902D01*
X112047951Y-62186902D02*
X111857475Y-62091664D01*
X111857475Y-62091664D02*
X111381285Y-62091664D01*
X111381285Y-62091664D02*
X111190809Y-62186902D01*
X111190809Y-62186902D02*
X111095570Y-62282140D01*
X111095570Y-62282140D02*
X111000332Y-62472616D01*
X111000332Y-62472616D02*
X111000332Y-62853569D01*
X111000332Y-62853569D02*
X111095570Y-63044045D01*
X111095570Y-63044045D02*
X111190809Y-63139283D01*
X111190809Y-63139283D02*
X111381285Y-63234521D01*
X115458316Y-123615478D02*
X113458316Y-123615478D01*
X115458316Y-122758335D02*
X114410697Y-122758335D01*
X114410697Y-122758335D02*
X114220220Y-122853573D01*
X114220220Y-122853573D02*
X114124982Y-123044049D01*
X114124982Y-123044049D02*
X114124982Y-123329764D01*
X114124982Y-123329764D02*
X114220220Y-123520240D01*
X114220220Y-123520240D02*
X114315458Y-123615478D01*
X114124982Y-122091668D02*
X114124982Y-121329764D01*
X113458316Y-121805954D02*
X115172601Y-121805954D01*
X115172601Y-121805954D02*
X115363078Y-121710716D01*
X115363078Y-121710716D02*
X115458316Y-121520240D01*
X115458316Y-121520240D02*
X115458316Y-121329764D01*
X114124982Y-120948811D02*
X114124982Y-120186907D01*
X113458316Y-120663097D02*
X115172601Y-120663097D01*
X115172601Y-120663097D02*
X115363078Y-120567859D01*
X115363078Y-120567859D02*
X115458316Y-120377383D01*
X115458316Y-120377383D02*
X115458316Y-120186907D01*
X114124982Y-119520240D02*
X116124982Y-119520240D01*
X114220220Y-119520240D02*
X114124982Y-119329764D01*
X114124982Y-119329764D02*
X114124982Y-118948811D01*
X114124982Y-118948811D02*
X114220220Y-118758335D01*
X114220220Y-118758335D02*
X114315458Y-118663097D01*
X114315458Y-118663097D02*
X114505935Y-118567859D01*
X114505935Y-118567859D02*
X115077363Y-118567859D01*
X115077363Y-118567859D02*
X115267839Y-118663097D01*
X115267839Y-118663097D02*
X115363078Y-118758335D01*
X115363078Y-118758335D02*
X115458316Y-118948811D01*
X115458316Y-118948811D02*
X115458316Y-119329764D01*
X115458316Y-119329764D02*
X115363078Y-119520240D01*
X115363078Y-117805954D02*
X115458316Y-117615478D01*
X115458316Y-117615478D02*
X115458316Y-117234526D01*
X115458316Y-117234526D02*
X115363078Y-117044049D01*
X115363078Y-117044049D02*
X115172601Y-116948811D01*
X115172601Y-116948811D02*
X115077363Y-116948811D01*
X115077363Y-116948811D02*
X114886887Y-117044049D01*
X114886887Y-117044049D02*
X114791649Y-117234526D01*
X114791649Y-117234526D02*
X114791649Y-117520240D01*
X114791649Y-117520240D02*
X114696411Y-117710716D01*
X114696411Y-117710716D02*
X114505935Y-117805954D01*
X114505935Y-117805954D02*
X114410697Y-117805954D01*
X114410697Y-117805954D02*
X114220220Y-117710716D01*
X114220220Y-117710716D02*
X114124982Y-117520240D01*
X114124982Y-117520240D02*
X114124982Y-117234526D01*
X114124982Y-117234526D02*
X114220220Y-117044049D01*
X115267839Y-116091668D02*
X115363078Y-115996430D01*
X115363078Y-115996430D02*
X115458316Y-116091668D01*
X115458316Y-116091668D02*
X115363078Y-116186906D01*
X115363078Y-116186906D02*
X115267839Y-116091668D01*
X115267839Y-116091668D02*
X115458316Y-116091668D01*
X114220220Y-116091668D02*
X114315458Y-115996430D01*
X114315458Y-115996430D02*
X114410697Y-116091668D01*
X114410697Y-116091668D02*
X114315458Y-116186906D01*
X114315458Y-116186906D02*
X114220220Y-116091668D01*
X114220220Y-116091668D02*
X114410697Y-116091668D01*
X113363078Y-113710716D02*
X115934506Y-115425001D01*
X113363078Y-111615478D02*
X115934506Y-113329763D01*
X114124982Y-110091668D02*
X115744030Y-110091668D01*
X115744030Y-110091668D02*
X115934506Y-110186906D01*
X115934506Y-110186906D02*
X116029744Y-110282144D01*
X116029744Y-110282144D02*
X116124982Y-110472621D01*
X116124982Y-110472621D02*
X116124982Y-110758335D01*
X116124982Y-110758335D02*
X116029744Y-110948811D01*
X115363078Y-110091668D02*
X115458316Y-110282144D01*
X115458316Y-110282144D02*
X115458316Y-110663097D01*
X115458316Y-110663097D02*
X115363078Y-110853573D01*
X115363078Y-110853573D02*
X115267839Y-110948811D01*
X115267839Y-110948811D02*
X115077363Y-111044049D01*
X115077363Y-111044049D02*
X114505935Y-111044049D01*
X114505935Y-111044049D02*
X114315458Y-110948811D01*
X114315458Y-110948811D02*
X114220220Y-110853573D01*
X114220220Y-110853573D02*
X114124982Y-110663097D01*
X114124982Y-110663097D02*
X114124982Y-110282144D01*
X114124982Y-110282144D02*
X114220220Y-110091668D01*
X115458316Y-109139287D02*
X114124982Y-109139287D01*
X113458316Y-109139287D02*
X113553554Y-109234525D01*
X113553554Y-109234525D02*
X113648792Y-109139287D01*
X113648792Y-109139287D02*
X113553554Y-109044049D01*
X113553554Y-109044049D02*
X113458316Y-109139287D01*
X113458316Y-109139287D02*
X113648792Y-109139287D01*
X114124982Y-108472620D02*
X114124982Y-107710716D01*
X113458316Y-108186906D02*
X115172601Y-108186906D01*
X115172601Y-108186906D02*
X115363078Y-108091668D01*
X115363078Y-108091668D02*
X115458316Y-107901192D01*
X115458316Y-107901192D02*
X115458316Y-107710716D01*
X115458316Y-107044049D02*
X113458316Y-107044049D01*
X115458316Y-106186906D02*
X114410697Y-106186906D01*
X114410697Y-106186906D02*
X114220220Y-106282144D01*
X114220220Y-106282144D02*
X114124982Y-106472620D01*
X114124982Y-106472620D02*
X114124982Y-106758335D01*
X114124982Y-106758335D02*
X114220220Y-106948811D01*
X114220220Y-106948811D02*
X114315458Y-107044049D01*
X114124982Y-104377382D02*
X115458316Y-104377382D01*
X114124982Y-105234525D02*
X115172601Y-105234525D01*
X115172601Y-105234525D02*
X115363078Y-105139287D01*
X115363078Y-105139287D02*
X115458316Y-104948811D01*
X115458316Y-104948811D02*
X115458316Y-104663096D01*
X115458316Y-104663096D02*
X115363078Y-104472620D01*
X115363078Y-104472620D02*
X115267839Y-104377382D01*
X115458316Y-103425001D02*
X113458316Y-103425001D01*
X114220220Y-103425001D02*
X114124982Y-103234525D01*
X114124982Y-103234525D02*
X114124982Y-102853572D01*
X114124982Y-102853572D02*
X114220220Y-102663096D01*
X114220220Y-102663096D02*
X114315458Y-102567858D01*
X114315458Y-102567858D02*
X114505935Y-102472620D01*
X114505935Y-102472620D02*
X115077363Y-102472620D01*
X115077363Y-102472620D02*
X115267839Y-102567858D01*
X115267839Y-102567858D02*
X115363078Y-102663096D01*
X115363078Y-102663096D02*
X115458316Y-102853572D01*
X115458316Y-102853572D02*
X115458316Y-103234525D01*
X115458316Y-103234525D02*
X115363078Y-103425001D01*
X115267839Y-101615477D02*
X115363078Y-101520239D01*
X115363078Y-101520239D02*
X115458316Y-101615477D01*
X115458316Y-101615477D02*
X115363078Y-101710715D01*
X115363078Y-101710715D02*
X115267839Y-101615477D01*
X115267839Y-101615477D02*
X115458316Y-101615477D01*
X115363078Y-99805953D02*
X115458316Y-99996429D01*
X115458316Y-99996429D02*
X115458316Y-100377382D01*
X115458316Y-100377382D02*
X115363078Y-100567858D01*
X115363078Y-100567858D02*
X115267839Y-100663096D01*
X115267839Y-100663096D02*
X115077363Y-100758334D01*
X115077363Y-100758334D02*
X114505935Y-100758334D01*
X114505935Y-100758334D02*
X114315458Y-100663096D01*
X114315458Y-100663096D02*
X114220220Y-100567858D01*
X114220220Y-100567858D02*
X114124982Y-100377382D01*
X114124982Y-100377382D02*
X114124982Y-99996429D01*
X114124982Y-99996429D02*
X114220220Y-99805953D01*
X115458316Y-98663096D02*
X115363078Y-98853572D01*
X115363078Y-98853572D02*
X115267839Y-98948810D01*
X115267839Y-98948810D02*
X115077363Y-99044048D01*
X115077363Y-99044048D02*
X114505935Y-99044048D01*
X114505935Y-99044048D02*
X114315458Y-98948810D01*
X114315458Y-98948810D02*
X114220220Y-98853572D01*
X114220220Y-98853572D02*
X114124982Y-98663096D01*
X114124982Y-98663096D02*
X114124982Y-98377381D01*
X114124982Y-98377381D02*
X114220220Y-98186905D01*
X114220220Y-98186905D02*
X114315458Y-98091667D01*
X114315458Y-98091667D02*
X114505935Y-97996429D01*
X114505935Y-97996429D02*
X115077363Y-97996429D01*
X115077363Y-97996429D02*
X115267839Y-98091667D01*
X115267839Y-98091667D02*
X115363078Y-98186905D01*
X115363078Y-98186905D02*
X115458316Y-98377381D01*
X115458316Y-98377381D02*
X115458316Y-98663096D01*
X115458316Y-97139286D02*
X114124982Y-97139286D01*
X114315458Y-97139286D02*
X114220220Y-97044048D01*
X114220220Y-97044048D02*
X114124982Y-96853572D01*
X114124982Y-96853572D02*
X114124982Y-96567857D01*
X114124982Y-96567857D02*
X114220220Y-96377381D01*
X114220220Y-96377381D02*
X114410697Y-96282143D01*
X114410697Y-96282143D02*
X115458316Y-96282143D01*
X114410697Y-96282143D02*
X114220220Y-96186905D01*
X114220220Y-96186905D02*
X114124982Y-95996429D01*
X114124982Y-95996429D02*
X114124982Y-95710715D01*
X114124982Y-95710715D02*
X114220220Y-95520238D01*
X114220220Y-95520238D02*
X114410697Y-95425000D01*
X114410697Y-95425000D02*
X115458316Y-95425000D01*
X113363078Y-93044048D02*
X115934506Y-94758333D01*
X115458316Y-92377381D02*
X114124982Y-92377381D01*
X114315458Y-92377381D02*
X114220220Y-92282143D01*
X114220220Y-92282143D02*
X114124982Y-92091667D01*
X114124982Y-92091667D02*
X114124982Y-91805952D01*
X114124982Y-91805952D02*
X114220220Y-91615476D01*
X114220220Y-91615476D02*
X114410697Y-91520238D01*
X114410697Y-91520238D02*
X115458316Y-91520238D01*
X114410697Y-91520238D02*
X114220220Y-91425000D01*
X114220220Y-91425000D02*
X114124982Y-91234524D01*
X114124982Y-91234524D02*
X114124982Y-90948810D01*
X114124982Y-90948810D02*
X114220220Y-90758333D01*
X114220220Y-90758333D02*
X114410697Y-90663095D01*
X114410697Y-90663095D02*
X115458316Y-90663095D01*
X115458316Y-88853571D02*
X114410697Y-88853571D01*
X114410697Y-88853571D02*
X114220220Y-88948809D01*
X114220220Y-88948809D02*
X114124982Y-89139285D01*
X114124982Y-89139285D02*
X114124982Y-89520238D01*
X114124982Y-89520238D02*
X114220220Y-89710714D01*
X115363078Y-88853571D02*
X115458316Y-89044047D01*
X115458316Y-89044047D02*
X115458316Y-89520238D01*
X115458316Y-89520238D02*
X115363078Y-89710714D01*
X115363078Y-89710714D02*
X115172601Y-89805952D01*
X115172601Y-89805952D02*
X114982125Y-89805952D01*
X114982125Y-89805952D02*
X114791649Y-89710714D01*
X114791649Y-89710714D02*
X114696411Y-89520238D01*
X114696411Y-89520238D02*
X114696411Y-89044047D01*
X114696411Y-89044047D02*
X114601173Y-88853571D01*
X115458316Y-87044047D02*
X113458316Y-87044047D01*
X115363078Y-87044047D02*
X115458316Y-87234523D01*
X115458316Y-87234523D02*
X115458316Y-87615476D01*
X115458316Y-87615476D02*
X115363078Y-87805952D01*
X115363078Y-87805952D02*
X115267839Y-87901190D01*
X115267839Y-87901190D02*
X115077363Y-87996428D01*
X115077363Y-87996428D02*
X114505935Y-87996428D01*
X114505935Y-87996428D02*
X114315458Y-87901190D01*
X114315458Y-87901190D02*
X114220220Y-87805952D01*
X114220220Y-87805952D02*
X114124982Y-87615476D01*
X114124982Y-87615476D02*
X114124982Y-87234523D01*
X114124982Y-87234523D02*
X114220220Y-87044047D01*
X115363078Y-85234523D02*
X115458316Y-85424999D01*
X115458316Y-85424999D02*
X115458316Y-85805952D01*
X115458316Y-85805952D02*
X115363078Y-85996428D01*
X115363078Y-85996428D02*
X115267839Y-86091666D01*
X115267839Y-86091666D02*
X115077363Y-86186904D01*
X115077363Y-86186904D02*
X114505935Y-86186904D01*
X114505935Y-86186904D02*
X114315458Y-86091666D01*
X114315458Y-86091666D02*
X114220220Y-85996428D01*
X114220220Y-85996428D02*
X114124982Y-85805952D01*
X114124982Y-85805952D02*
X114124982Y-85424999D01*
X114124982Y-85424999D02*
X114220220Y-85234523D01*
X115458316Y-83520237D02*
X114410697Y-83520237D01*
X114410697Y-83520237D02*
X114220220Y-83615475D01*
X114220220Y-83615475D02*
X114124982Y-83805951D01*
X114124982Y-83805951D02*
X114124982Y-84186904D01*
X114124982Y-84186904D02*
X114220220Y-84377380D01*
X115363078Y-83520237D02*
X115458316Y-83710713D01*
X115458316Y-83710713D02*
X115458316Y-84186904D01*
X115458316Y-84186904D02*
X115363078Y-84377380D01*
X115363078Y-84377380D02*
X115172601Y-84472618D01*
X115172601Y-84472618D02*
X114982125Y-84472618D01*
X114982125Y-84472618D02*
X114791649Y-84377380D01*
X114791649Y-84377380D02*
X114696411Y-84186904D01*
X114696411Y-84186904D02*
X114696411Y-83710713D01*
X114696411Y-83710713D02*
X114601173Y-83520237D01*
X114124982Y-82853570D02*
X114124982Y-82091666D01*
X113458316Y-82567856D02*
X115172601Y-82567856D01*
X115172601Y-82567856D02*
X115363078Y-82472618D01*
X115363078Y-82472618D02*
X115458316Y-82282142D01*
X115458316Y-82282142D02*
X115458316Y-82091666D01*
X115363078Y-81520237D02*
X115458316Y-81329761D01*
X115458316Y-81329761D02*
X115458316Y-80948809D01*
X115458316Y-80948809D02*
X115363078Y-80758332D01*
X115363078Y-80758332D02*
X115172601Y-80663094D01*
X115172601Y-80663094D02*
X115077363Y-80663094D01*
X115077363Y-80663094D02*
X114886887Y-80758332D01*
X114886887Y-80758332D02*
X114791649Y-80948809D01*
X114791649Y-80948809D02*
X114791649Y-81234523D01*
X114791649Y-81234523D02*
X114696411Y-81424999D01*
X114696411Y-81424999D02*
X114505935Y-81520237D01*
X114505935Y-81520237D02*
X114410697Y-81520237D01*
X114410697Y-81520237D02*
X114220220Y-81424999D01*
X114220220Y-81424999D02*
X114124982Y-81234523D01*
X114124982Y-81234523D02*
X114124982Y-80948809D01*
X114124982Y-80948809D02*
X114220220Y-80758332D01*
X115363078Y-79044046D02*
X115458316Y-79234522D01*
X115458316Y-79234522D02*
X115458316Y-79615475D01*
X115458316Y-79615475D02*
X115363078Y-79805951D01*
X115363078Y-79805951D02*
X115172601Y-79901189D01*
X115172601Y-79901189D02*
X114410697Y-79901189D01*
X114410697Y-79901189D02*
X114220220Y-79805951D01*
X114220220Y-79805951D02*
X114124982Y-79615475D01*
X114124982Y-79615475D02*
X114124982Y-79234522D01*
X114124982Y-79234522D02*
X114220220Y-79044046D01*
X114220220Y-79044046D02*
X114410697Y-78948808D01*
X114410697Y-78948808D02*
X114601173Y-78948808D01*
X114601173Y-78948808D02*
X114791649Y-79901189D01*
X113363078Y-76663094D02*
X115934506Y-78377379D01*
X115458316Y-75996427D02*
X113458316Y-75996427D01*
X113458316Y-75996427D02*
X113458316Y-75520237D01*
X113458316Y-75520237D02*
X113553554Y-75234522D01*
X113553554Y-75234522D02*
X113744030Y-75044046D01*
X113744030Y-75044046D02*
X113934506Y-74948808D01*
X113934506Y-74948808D02*
X114315458Y-74853570D01*
X114315458Y-74853570D02*
X114601173Y-74853570D01*
X114601173Y-74853570D02*
X114982125Y-74948808D01*
X114982125Y-74948808D02*
X115172601Y-75044046D01*
X115172601Y-75044046D02*
X115363078Y-75234522D01*
X115363078Y-75234522D02*
X115458316Y-75520237D01*
X115458316Y-75520237D02*
X115458316Y-75996427D01*
X115363078Y-73234522D02*
X115458316Y-73424998D01*
X115458316Y-73424998D02*
X115458316Y-73805951D01*
X115458316Y-73805951D02*
X115363078Y-73996427D01*
X115363078Y-73996427D02*
X115172601Y-74091665D01*
X115172601Y-74091665D02*
X114410697Y-74091665D01*
X114410697Y-74091665D02*
X114220220Y-73996427D01*
X114220220Y-73996427D02*
X114124982Y-73805951D01*
X114124982Y-73805951D02*
X114124982Y-73424998D01*
X114124982Y-73424998D02*
X114220220Y-73234522D01*
X114220220Y-73234522D02*
X114410697Y-73139284D01*
X114410697Y-73139284D02*
X114601173Y-73139284D01*
X114601173Y-73139284D02*
X114791649Y-74091665D01*
X115458316Y-71996427D02*
X115363078Y-72186903D01*
X115363078Y-72186903D02*
X115172601Y-72282141D01*
X115172601Y-72282141D02*
X113458316Y-72282141D01*
X114124982Y-71520236D02*
X114124982Y-70758332D01*
X113458316Y-71234522D02*
X115172601Y-71234522D01*
X115172601Y-71234522D02*
X115363078Y-71139284D01*
X115363078Y-71139284D02*
X115458316Y-70948808D01*
X115458316Y-70948808D02*
X115458316Y-70758332D01*
X115458316Y-69234522D02*
X114410697Y-69234522D01*
X114410697Y-69234522D02*
X114220220Y-69329760D01*
X114220220Y-69329760D02*
X114124982Y-69520236D01*
X114124982Y-69520236D02*
X114124982Y-69901189D01*
X114124982Y-69901189D02*
X114220220Y-70091665D01*
X115363078Y-69234522D02*
X115458316Y-69424998D01*
X115458316Y-69424998D02*
X115458316Y-69901189D01*
X115458316Y-69901189D02*
X115363078Y-70091665D01*
X115363078Y-70091665D02*
X115172601Y-70186903D01*
X115172601Y-70186903D02*
X114982125Y-70186903D01*
X114982125Y-70186903D02*
X114791649Y-70091665D01*
X114791649Y-70091665D02*
X114696411Y-69901189D01*
X114696411Y-69901189D02*
X114696411Y-69424998D01*
X114696411Y-69424998D02*
X114601173Y-69234522D01*
X114696411Y-68282141D02*
X114696411Y-66758332D01*
X115363078Y-65901189D02*
X115458316Y-65615475D01*
X115458316Y-65615475D02*
X115458316Y-65139284D01*
X115458316Y-65139284D02*
X115363078Y-64948808D01*
X115363078Y-64948808D02*
X115267839Y-64853570D01*
X115267839Y-64853570D02*
X115077363Y-64758332D01*
X115077363Y-64758332D02*
X114886887Y-64758332D01*
X114886887Y-64758332D02*
X114696411Y-64853570D01*
X114696411Y-64853570D02*
X114601173Y-64948808D01*
X114601173Y-64948808D02*
X114505935Y-65139284D01*
X114505935Y-65139284D02*
X114410697Y-65520237D01*
X114410697Y-65520237D02*
X114315458Y-65710713D01*
X114315458Y-65710713D02*
X114220220Y-65805951D01*
X114220220Y-65805951D02*
X114029744Y-65901189D01*
X114029744Y-65901189D02*
X113839268Y-65901189D01*
X113839268Y-65901189D02*
X113648792Y-65805951D01*
X113648792Y-65805951D02*
X113553554Y-65710713D01*
X113553554Y-65710713D02*
X113458316Y-65520237D01*
X113458316Y-65520237D02*
X113458316Y-65044046D01*
X113458316Y-65044046D02*
X113553554Y-64758332D01*
X114696411Y-63901189D02*
X114696411Y-62377380D01*
X115458316Y-61424999D02*
X113458316Y-61424999D01*
X114220220Y-61424999D02*
X114124982Y-61234523D01*
X114124982Y-61234523D02*
X114124982Y-60853570D01*
X114124982Y-60853570D02*
X114220220Y-60663094D01*
X114220220Y-60663094D02*
X114315458Y-60567856D01*
X114315458Y-60567856D02*
X114505935Y-60472618D01*
X114505935Y-60472618D02*
X115077363Y-60472618D01*
X115077363Y-60472618D02*
X115267839Y-60567856D01*
X115267839Y-60567856D02*
X115363078Y-60663094D01*
X115363078Y-60663094D02*
X115458316Y-60853570D01*
X115458316Y-60853570D02*
X115458316Y-61234523D01*
X115458316Y-61234523D02*
X115363078Y-61424999D01*
X115458316Y-58758332D02*
X114410697Y-58758332D01*
X114410697Y-58758332D02*
X114220220Y-58853570D01*
X114220220Y-58853570D02*
X114124982Y-59044046D01*
X114124982Y-59044046D02*
X114124982Y-59424999D01*
X114124982Y-59424999D02*
X114220220Y-59615475D01*
X115363078Y-58758332D02*
X115458316Y-58948808D01*
X115458316Y-58948808D02*
X115458316Y-59424999D01*
X115458316Y-59424999D02*
X115363078Y-59615475D01*
X115363078Y-59615475D02*
X115172601Y-59710713D01*
X115172601Y-59710713D02*
X114982125Y-59710713D01*
X114982125Y-59710713D02*
X114791649Y-59615475D01*
X114791649Y-59615475D02*
X114696411Y-59424999D01*
X114696411Y-59424999D02*
X114696411Y-58948808D01*
X114696411Y-58948808D02*
X114601173Y-58758332D01*
X115363078Y-56948808D02*
X115458316Y-57139284D01*
X115458316Y-57139284D02*
X115458316Y-57520237D01*
X115458316Y-57520237D02*
X115363078Y-57710713D01*
X115363078Y-57710713D02*
X115267839Y-57805951D01*
X115267839Y-57805951D02*
X115077363Y-57901189D01*
X115077363Y-57901189D02*
X114505935Y-57901189D01*
X114505935Y-57901189D02*
X114315458Y-57805951D01*
X114315458Y-57805951D02*
X114220220Y-57710713D01*
X114220220Y-57710713D02*
X114124982Y-57520237D01*
X114124982Y-57520237D02*
X114124982Y-57139284D01*
X114124982Y-57139284D02*
X114220220Y-56948808D01*
X115458316Y-56091665D02*
X113458316Y-56091665D01*
X114696411Y-55901189D02*
X115458316Y-55329760D01*
X114124982Y-55329760D02*
X114886887Y-56091665D01*
X114124982Y-54472617D02*
X116124982Y-54472617D01*
X114220220Y-54472617D02*
X114124982Y-54282141D01*
X114124982Y-54282141D02*
X114124982Y-53901188D01*
X114124982Y-53901188D02*
X114220220Y-53710712D01*
X114220220Y-53710712D02*
X114315458Y-53615474D01*
X114315458Y-53615474D02*
X114505935Y-53520236D01*
X114505935Y-53520236D02*
X115077363Y-53520236D01*
X115077363Y-53520236D02*
X115267839Y-53615474D01*
X115267839Y-53615474D02*
X115363078Y-53710712D01*
X115363078Y-53710712D02*
X115458316Y-53901188D01*
X115458316Y-53901188D02*
X115458316Y-54282141D01*
X115458316Y-54282141D02*
X115363078Y-54472617D01*
X115458316Y-52377379D02*
X115363078Y-52567855D01*
X115363078Y-52567855D02*
X115172601Y-52663093D01*
X115172601Y-52663093D02*
X113458316Y-52663093D01*
X115458316Y-50758331D02*
X114410697Y-50758331D01*
X114410697Y-50758331D02*
X114220220Y-50853569D01*
X114220220Y-50853569D02*
X114124982Y-51044045D01*
X114124982Y-51044045D02*
X114124982Y-51424998D01*
X114124982Y-51424998D02*
X114220220Y-51615474D01*
X115363078Y-50758331D02*
X115458316Y-50948807D01*
X115458316Y-50948807D02*
X115458316Y-51424998D01*
X115458316Y-51424998D02*
X115363078Y-51615474D01*
X115363078Y-51615474D02*
X115172601Y-51710712D01*
X115172601Y-51710712D02*
X114982125Y-51710712D01*
X114982125Y-51710712D02*
X114791649Y-51615474D01*
X114791649Y-51615474D02*
X114696411Y-51424998D01*
X114696411Y-51424998D02*
X114696411Y-50948807D01*
X114696411Y-50948807D02*
X114601173Y-50758331D01*
X114124982Y-49805950D02*
X115458316Y-49805950D01*
X114315458Y-49805950D02*
X114220220Y-49710712D01*
X114220220Y-49710712D02*
X114124982Y-49520236D01*
X114124982Y-49520236D02*
X114124982Y-49234521D01*
X114124982Y-49234521D02*
X114220220Y-49044045D01*
X114220220Y-49044045D02*
X114410697Y-48948807D01*
X114410697Y-48948807D02*
X115458316Y-48948807D01*
X115363078Y-47234521D02*
X115458316Y-47424997D01*
X115458316Y-47424997D02*
X115458316Y-47805950D01*
X115458316Y-47805950D02*
X115363078Y-47996426D01*
X115363078Y-47996426D02*
X115172601Y-48091664D01*
X115172601Y-48091664D02*
X114410697Y-48091664D01*
X114410697Y-48091664D02*
X114220220Y-47996426D01*
X114220220Y-47996426D02*
X114124982Y-47805950D01*
X114124982Y-47805950D02*
X114124982Y-47424997D01*
X114124982Y-47424997D02*
X114220220Y-47234521D01*
X114220220Y-47234521D02*
X114410697Y-47139283D01*
X114410697Y-47139283D02*
X114601173Y-47139283D01*
X114601173Y-47139283D02*
X114791649Y-48091664D01*
X117344870Y-97234524D02*
X117344870Y-96472620D01*
X116678204Y-96948810D02*
X118392489Y-96948810D01*
X118392489Y-96948810D02*
X118582966Y-96853572D01*
X118582966Y-96853572D02*
X118678204Y-96663096D01*
X118678204Y-96663096D02*
X118678204Y-96472620D01*
X118487727Y-95805953D02*
X118582966Y-95710715D01*
X118582966Y-95710715D02*
X118678204Y-95805953D01*
X118678204Y-95805953D02*
X118582966Y-95901191D01*
X118582966Y-95901191D02*
X118487727Y-95805953D01*
X118487727Y-95805953D02*
X118678204Y-95805953D01*
X118678204Y-94853572D02*
X117344870Y-94853572D01*
X117535346Y-94853572D02*
X117440108Y-94758334D01*
X117440108Y-94758334D02*
X117344870Y-94567858D01*
X117344870Y-94567858D02*
X117344870Y-94282143D01*
X117344870Y-94282143D02*
X117440108Y-94091667D01*
X117440108Y-94091667D02*
X117630585Y-93996429D01*
X117630585Y-93996429D02*
X118678204Y-93996429D01*
X117630585Y-93996429D02*
X117440108Y-93901191D01*
X117440108Y-93901191D02*
X117344870Y-93710715D01*
X117344870Y-93710715D02*
X117344870Y-93425001D01*
X117344870Y-93425001D02*
X117440108Y-93234524D01*
X117440108Y-93234524D02*
X117630585Y-93139286D01*
X117630585Y-93139286D02*
X118678204Y-93139286D01*
X118582966Y-91425000D02*
X118678204Y-91615476D01*
X118678204Y-91615476D02*
X118678204Y-91996429D01*
X118678204Y-91996429D02*
X118582966Y-92186905D01*
X118582966Y-92186905D02*
X118392489Y-92282143D01*
X118392489Y-92282143D02*
X117630585Y-92282143D01*
X117630585Y-92282143D02*
X117440108Y-92186905D01*
X117440108Y-92186905D02*
X117344870Y-91996429D01*
X117344870Y-91996429D02*
X117344870Y-91615476D01*
X117344870Y-91615476D02*
X117440108Y-91425000D01*
X117440108Y-91425000D02*
X117630585Y-91329762D01*
X117630585Y-91329762D02*
X117821061Y-91329762D01*
X117821061Y-91329762D02*
X118011537Y-92282143D01*
X116582966Y-89044048D02*
X119154394Y-90758333D01*
X117344870Y-88567857D02*
X117344870Y-87520238D01*
X117344870Y-87520238D02*
X118678204Y-88567857D01*
X118678204Y-88567857D02*
X118678204Y-87520238D01*
X118678204Y-86948809D02*
X117344870Y-85901190D01*
X117344870Y-86948809D02*
X118678204Y-85901190D01*
X118868680Y-85615476D02*
X118868680Y-84091666D01*
X118678204Y-82758332D02*
X116678204Y-82758332D01*
X118582966Y-82758332D02*
X118678204Y-82948808D01*
X118678204Y-82948808D02*
X118678204Y-83329761D01*
X118678204Y-83329761D02*
X118582966Y-83520237D01*
X118582966Y-83520237D02*
X118487727Y-83615475D01*
X118487727Y-83615475D02*
X118297251Y-83710713D01*
X118297251Y-83710713D02*
X117725823Y-83710713D01*
X117725823Y-83710713D02*
X117535346Y-83615475D01*
X117535346Y-83615475D02*
X117440108Y-83520237D01*
X117440108Y-83520237D02*
X117344870Y-83329761D01*
X117344870Y-83329761D02*
X117344870Y-82948808D01*
X117344870Y-82948808D02*
X117440108Y-82758332D01*
X118582966Y-81044046D02*
X118678204Y-81234522D01*
X118678204Y-81234522D02*
X118678204Y-81615475D01*
X118678204Y-81615475D02*
X118582966Y-81805951D01*
X118582966Y-81805951D02*
X118392489Y-81901189D01*
X118392489Y-81901189D02*
X117630585Y-81901189D01*
X117630585Y-81901189D02*
X117440108Y-81805951D01*
X117440108Y-81805951D02*
X117344870Y-81615475D01*
X117344870Y-81615475D02*
X117344870Y-81234522D01*
X117344870Y-81234522D02*
X117440108Y-81044046D01*
X117440108Y-81044046D02*
X117630585Y-80948808D01*
X117630585Y-80948808D02*
X117821061Y-80948808D01*
X117821061Y-80948808D02*
X118011537Y-81901189D01*
X118678204Y-79805951D02*
X118582966Y-79996427D01*
X118582966Y-79996427D02*
X118392489Y-80091665D01*
X118392489Y-80091665D02*
X116678204Y-80091665D01*
X117344870Y-79329760D02*
X117344870Y-78567856D01*
X116678204Y-79044046D02*
X118392489Y-79044046D01*
X118392489Y-79044046D02*
X118582966Y-78948808D01*
X118582966Y-78948808D02*
X118678204Y-78758332D01*
X118678204Y-78758332D02*
X118678204Y-78567856D01*
X118678204Y-77044046D02*
X117630585Y-77044046D01*
X117630585Y-77044046D02*
X117440108Y-77139284D01*
X117440108Y-77139284D02*
X117344870Y-77329760D01*
X117344870Y-77329760D02*
X117344870Y-77710713D01*
X117344870Y-77710713D02*
X117440108Y-77901189D01*
X118582966Y-77044046D02*
X118678204Y-77234522D01*
X118678204Y-77234522D02*
X118678204Y-77710713D01*
X118678204Y-77710713D02*
X118582966Y-77901189D01*
X118582966Y-77901189D02*
X118392489Y-77996427D01*
X118392489Y-77996427D02*
X118202013Y-77996427D01*
X118202013Y-77996427D02*
X118011537Y-77901189D01*
X118011537Y-77901189D02*
X117916299Y-77710713D01*
X117916299Y-77710713D02*
X117916299Y-77234522D01*
X117916299Y-77234522D02*
X117821061Y-77044046D01*
X118868680Y-76567856D02*
X118868680Y-75044046D01*
X118582966Y-74663093D02*
X118678204Y-74472617D01*
X118678204Y-74472617D02*
X118678204Y-74091665D01*
X118678204Y-74091665D02*
X118582966Y-73901188D01*
X118582966Y-73901188D02*
X118392489Y-73805950D01*
X118392489Y-73805950D02*
X118297251Y-73805950D01*
X118297251Y-73805950D02*
X118106775Y-73901188D01*
X118106775Y-73901188D02*
X118011537Y-74091665D01*
X118011537Y-74091665D02*
X118011537Y-74377379D01*
X118011537Y-74377379D02*
X117916299Y-74567855D01*
X117916299Y-74567855D02*
X117725823Y-74663093D01*
X117725823Y-74663093D02*
X117630585Y-74663093D01*
X117630585Y-74663093D02*
X117440108Y-74567855D01*
X117440108Y-74567855D02*
X117344870Y-74377379D01*
X117344870Y-74377379D02*
X117344870Y-74091665D01*
X117344870Y-74091665D02*
X117440108Y-73901188D01*
D11*
X217943661Y-42746724D02*
X218015090Y-42818152D01*
X218015090Y-42818152D02*
X218086518Y-43032438D01*
X218086518Y-43032438D02*
X218086518Y-43175295D01*
X218086518Y-43175295D02*
X218015090Y-43389581D01*
X218015090Y-43389581D02*
X217872232Y-43532438D01*
X217872232Y-43532438D02*
X217729375Y-43603867D01*
X217729375Y-43603867D02*
X217443661Y-43675295D01*
X217443661Y-43675295D02*
X217229375Y-43675295D01*
X217229375Y-43675295D02*
X216943661Y-43603867D01*
X216943661Y-43603867D02*
X216800804Y-43532438D01*
X216800804Y-43532438D02*
X216657947Y-43389581D01*
X216657947Y-43389581D02*
X216586518Y-43175295D01*
X216586518Y-43175295D02*
X216586518Y-43032438D01*
X216586518Y-43032438D02*
X216657947Y-42818152D01*
X216657947Y-42818152D02*
X216729375Y-42746724D01*
D10*
X148388219Y-40437733D02*
X149102504Y-40437733D01*
X149102504Y-40437733D02*
X149245361Y-40485352D01*
X149245361Y-40485352D02*
X149340600Y-40580590D01*
X149340600Y-40580590D02*
X149388219Y-40723447D01*
X149388219Y-40723447D02*
X149388219Y-40818685D01*
X148388219Y-40056780D02*
X148388219Y-39437733D01*
X148388219Y-39437733D02*
X148769171Y-39771066D01*
X148769171Y-39771066D02*
X148769171Y-39628209D01*
X148769171Y-39628209D02*
X148816790Y-39532971D01*
X148816790Y-39532971D02*
X148864409Y-39485352D01*
X148864409Y-39485352D02*
X148959647Y-39437733D01*
X148959647Y-39437733D02*
X149197742Y-39437733D01*
X149197742Y-39437733D02*
X149292980Y-39485352D01*
X149292980Y-39485352D02*
X149340600Y-39532971D01*
X149340600Y-39532971D02*
X149388219Y-39628209D01*
X149388219Y-39628209D02*
X149388219Y-39913923D01*
X149388219Y-39913923D02*
X149340600Y-40009161D01*
X149340600Y-40009161D02*
X149292980Y-40056780D01*
X159389570Y-67014295D02*
X159437190Y-67061914D01*
X159437190Y-67061914D02*
X159484809Y-67204771D01*
X159484809Y-67204771D02*
X159484809Y-67300009D01*
X159484809Y-67300009D02*
X159437190Y-67442866D01*
X159437190Y-67442866D02*
X159341951Y-67538104D01*
X159341951Y-67538104D02*
X159246713Y-67585723D01*
X159246713Y-67585723D02*
X159056237Y-67633342D01*
X159056237Y-67633342D02*
X158913380Y-67633342D01*
X158913380Y-67633342D02*
X158722904Y-67585723D01*
X158722904Y-67585723D02*
X158627666Y-67538104D01*
X158627666Y-67538104D02*
X158532428Y-67442866D01*
X158532428Y-67442866D02*
X158484809Y-67300009D01*
X158484809Y-67300009D02*
X158484809Y-67204771D01*
X158484809Y-67204771D02*
X158532428Y-67061914D01*
X158532428Y-67061914D02*
X158580047Y-67014295D01*
X159484809Y-66585723D02*
X158484809Y-66585723D01*
X158960999Y-66585723D02*
X158960999Y-66014295D01*
X159484809Y-66014295D02*
X158484809Y-66014295D01*
X159484809Y-65538104D02*
X158484809Y-65538104D01*
X158484809Y-65538104D02*
X158484809Y-64966676D01*
X158484809Y-64966676D02*
X159484809Y-64966676D01*
X158484809Y-64014295D02*
X158484809Y-64490485D01*
X158484809Y-64490485D02*
X158960999Y-64538104D01*
X158960999Y-64538104D02*
X158913380Y-64490485D01*
X158913380Y-64490485D02*
X158865761Y-64395247D01*
X158865761Y-64395247D02*
X158865761Y-64157152D01*
X158865761Y-64157152D02*
X158913380Y-64061914D01*
X158913380Y-64061914D02*
X158960999Y-64014295D01*
X158960999Y-64014295D02*
X159056237Y-63966676D01*
X159056237Y-63966676D02*
X159294332Y-63966676D01*
X159294332Y-63966676D02*
X159389570Y-64014295D01*
X159389570Y-64014295D02*
X159437190Y-64061914D01*
X159437190Y-64061914D02*
X159484809Y-64157152D01*
X159484809Y-64157152D02*
X159484809Y-64395247D01*
X159484809Y-64395247D02*
X159437190Y-64490485D01*
X159437190Y-64490485D02*
X159389570Y-64538104D01*
X159484809Y-63490485D02*
X159484809Y-63300009D01*
X159484809Y-63300009D02*
X159437190Y-63204771D01*
X159437190Y-63204771D02*
X159389570Y-63157152D01*
X159389570Y-63157152D02*
X159246713Y-63061914D01*
X159246713Y-63061914D02*
X159056237Y-63014295D01*
X159056237Y-63014295D02*
X158675285Y-63014295D01*
X158675285Y-63014295D02*
X158580047Y-63061914D01*
X158580047Y-63061914D02*
X158532428Y-63109533D01*
X158532428Y-63109533D02*
X158484809Y-63204771D01*
X158484809Y-63204771D02*
X158484809Y-63395247D01*
X158484809Y-63395247D02*
X158532428Y-63490485D01*
X158532428Y-63490485D02*
X158580047Y-63538104D01*
X158580047Y-63538104D02*
X158675285Y-63585723D01*
X158675285Y-63585723D02*
X158913380Y-63585723D01*
X158913380Y-63585723D02*
X159008618Y-63538104D01*
X159008618Y-63538104D02*
X159056237Y-63490485D01*
X159056237Y-63490485D02*
X159103856Y-63395247D01*
X159103856Y-63395247D02*
X159103856Y-63204771D01*
X159103856Y-63204771D02*
X159056237Y-63109533D01*
X159056237Y-63109533D02*
X159008618Y-63061914D01*
X159008618Y-63061914D02*
X158913380Y-63014295D01*
X159103856Y-62585723D02*
X159103856Y-61823819D01*
X158484809Y-60919057D02*
X158484809Y-61109533D01*
X158484809Y-61109533D02*
X158532428Y-61204771D01*
X158532428Y-61204771D02*
X158580047Y-61252390D01*
X158580047Y-61252390D02*
X158722904Y-61347628D01*
X158722904Y-61347628D02*
X158913380Y-61395247D01*
X158913380Y-61395247D02*
X159294332Y-61395247D01*
X159294332Y-61395247D02*
X159389570Y-61347628D01*
X159389570Y-61347628D02*
X159437190Y-61300009D01*
X159437190Y-61300009D02*
X159484809Y-61204771D01*
X159484809Y-61204771D02*
X159484809Y-61014295D01*
X159484809Y-61014295D02*
X159437190Y-60919057D01*
X159437190Y-60919057D02*
X159389570Y-60871438D01*
X159389570Y-60871438D02*
X159294332Y-60823819D01*
X159294332Y-60823819D02*
X159056237Y-60823819D01*
X159056237Y-60823819D02*
X158960999Y-60871438D01*
X158960999Y-60871438D02*
X158913380Y-60919057D01*
X158913380Y-60919057D02*
X158865761Y-61014295D01*
X158865761Y-61014295D02*
X158865761Y-61204771D01*
X158865761Y-61204771D02*
X158913380Y-61300009D01*
X158913380Y-61300009D02*
X158960999Y-61347628D01*
X158960999Y-61347628D02*
X159056237Y-61395247D01*
X158818142Y-59966676D02*
X159484809Y-59966676D01*
X158437190Y-60204771D02*
X159151475Y-60442866D01*
X159151475Y-60442866D02*
X159151475Y-59823819D01*
X159484809Y-58633342D02*
X159484809Y-58442866D01*
X159484809Y-58442866D02*
X159437190Y-58347628D01*
X159437190Y-58347628D02*
X159389570Y-58300009D01*
X159389570Y-58300009D02*
X159246713Y-58204771D01*
X159246713Y-58204771D02*
X159056237Y-58157152D01*
X159056237Y-58157152D02*
X158675285Y-58157152D01*
X158675285Y-58157152D02*
X158580047Y-58204771D01*
X158580047Y-58204771D02*
X158532428Y-58252390D01*
X158532428Y-58252390D02*
X158484809Y-58347628D01*
X158484809Y-58347628D02*
X158484809Y-58538104D01*
X158484809Y-58538104D02*
X158532428Y-58633342D01*
X158532428Y-58633342D02*
X158580047Y-58680961D01*
X158580047Y-58680961D02*
X158675285Y-58728580D01*
X158675285Y-58728580D02*
X158913380Y-58728580D01*
X158913380Y-58728580D02*
X159008618Y-58680961D01*
X159008618Y-58680961D02*
X159056237Y-58633342D01*
X159056237Y-58633342D02*
X159103856Y-58538104D01*
X159103856Y-58538104D02*
X159103856Y-58347628D01*
X159103856Y-58347628D02*
X159056237Y-58252390D01*
X159056237Y-58252390D02*
X159008618Y-58204771D01*
X159008618Y-58204771D02*
X158913380Y-58157152D01*
X158818142Y-57300009D02*
X159484809Y-57300009D01*
X158437190Y-57538104D02*
X159151475Y-57776199D01*
X159151475Y-57776199D02*
X159151475Y-57157152D01*
X159484809Y-56871437D02*
X158818142Y-56347628D01*
X158818142Y-56871437D02*
X159484809Y-56347628D01*
X159484809Y-55442866D02*
X159484809Y-56014294D01*
X159484809Y-55728580D02*
X158484809Y-55728580D01*
X158484809Y-55728580D02*
X158627666Y-55823818D01*
X158627666Y-55823818D02*
X158722904Y-55919056D01*
X158722904Y-55919056D02*
X158770523Y-56014294D01*
X159484809Y-54490485D02*
X159484809Y-55061913D01*
X159484809Y-54776199D02*
X158484809Y-54776199D01*
X158484809Y-54776199D02*
X158627666Y-54871437D01*
X158627666Y-54871437D02*
X158722904Y-54966675D01*
X158722904Y-54966675D02*
X158770523Y-55061913D01*
X158913380Y-53919056D02*
X158865761Y-54014294D01*
X158865761Y-54014294D02*
X158818142Y-54061913D01*
X158818142Y-54061913D02*
X158722904Y-54109532D01*
X158722904Y-54109532D02*
X158675285Y-54109532D01*
X158675285Y-54109532D02*
X158580047Y-54061913D01*
X158580047Y-54061913D02*
X158532428Y-54014294D01*
X158532428Y-54014294D02*
X158484809Y-53919056D01*
X158484809Y-53919056D02*
X158484809Y-53728580D01*
X158484809Y-53728580D02*
X158532428Y-53633342D01*
X158532428Y-53633342D02*
X158580047Y-53585723D01*
X158580047Y-53585723D02*
X158675285Y-53538104D01*
X158675285Y-53538104D02*
X158722904Y-53538104D01*
X158722904Y-53538104D02*
X158818142Y-53585723D01*
X158818142Y-53585723D02*
X158865761Y-53633342D01*
X158865761Y-53633342D02*
X158913380Y-53728580D01*
X158913380Y-53728580D02*
X158913380Y-53919056D01*
X158913380Y-53919056D02*
X158960999Y-54014294D01*
X158960999Y-54014294D02*
X159008618Y-54061913D01*
X159008618Y-54061913D02*
X159103856Y-54109532D01*
X159103856Y-54109532D02*
X159294332Y-54109532D01*
X159294332Y-54109532D02*
X159389570Y-54061913D01*
X159389570Y-54061913D02*
X159437190Y-54014294D01*
X159437190Y-54014294D02*
X159484809Y-53919056D01*
X159484809Y-53919056D02*
X159484809Y-53728580D01*
X159484809Y-53728580D02*
X159437190Y-53633342D01*
X159437190Y-53633342D02*
X159389570Y-53585723D01*
X159389570Y-53585723D02*
X159294332Y-53538104D01*
X159294332Y-53538104D02*
X159103856Y-53538104D01*
X159103856Y-53538104D02*
X159008618Y-53585723D01*
X159008618Y-53585723D02*
X158960999Y-53633342D01*
X158960999Y-53633342D02*
X158913380Y-53728580D01*
X159103856Y-53109532D02*
X159103856Y-52347628D01*
X158580047Y-51919056D02*
X158532428Y-51871437D01*
X158532428Y-51871437D02*
X158484809Y-51776199D01*
X158484809Y-51776199D02*
X158484809Y-51538104D01*
X158484809Y-51538104D02*
X158532428Y-51442866D01*
X158532428Y-51442866D02*
X158580047Y-51395247D01*
X158580047Y-51395247D02*
X158675285Y-51347628D01*
X158675285Y-51347628D02*
X158770523Y-51347628D01*
X158770523Y-51347628D02*
X158913380Y-51395247D01*
X158913380Y-51395247D02*
X159484809Y-51966675D01*
X159484809Y-51966675D02*
X159484809Y-51347628D01*
X159484809Y-50395247D02*
X159484809Y-50966675D01*
X159484809Y-50680961D02*
X158484809Y-50680961D01*
X158484809Y-50680961D02*
X158627666Y-50776199D01*
X158627666Y-50776199D02*
X158722904Y-50871437D01*
X158722904Y-50871437D02*
X158770523Y-50966675D01*
X159103856Y-49966675D02*
X159103856Y-49204771D01*
X158580047Y-48776199D02*
X158532428Y-48728580D01*
X158532428Y-48728580D02*
X158484809Y-48633342D01*
X158484809Y-48633342D02*
X158484809Y-48395247D01*
X158484809Y-48395247D02*
X158532428Y-48300009D01*
X158532428Y-48300009D02*
X158580047Y-48252390D01*
X158580047Y-48252390D02*
X158675285Y-48204771D01*
X158675285Y-48204771D02*
X158770523Y-48204771D01*
X158770523Y-48204771D02*
X158913380Y-48252390D01*
X158913380Y-48252390D02*
X159484809Y-48823818D01*
X159484809Y-48823818D02*
X159484809Y-48204771D01*
X159103856Y-47776199D02*
X159103856Y-47014295D01*
X158960999Y-46204771D02*
X159008618Y-46061914D01*
X159008618Y-46061914D02*
X159056237Y-46014295D01*
X159056237Y-46014295D02*
X159151475Y-45966676D01*
X159151475Y-45966676D02*
X159294332Y-45966676D01*
X159294332Y-45966676D02*
X159389570Y-46014295D01*
X159389570Y-46014295D02*
X159437190Y-46061914D01*
X159437190Y-46061914D02*
X159484809Y-46157152D01*
X159484809Y-46157152D02*
X159484809Y-46538104D01*
X159484809Y-46538104D02*
X158484809Y-46538104D01*
X158484809Y-46538104D02*
X158484809Y-46204771D01*
X158484809Y-46204771D02*
X158532428Y-46109533D01*
X158532428Y-46109533D02*
X158580047Y-46061914D01*
X158580047Y-46061914D02*
X158675285Y-46014295D01*
X158675285Y-46014295D02*
X158770523Y-46014295D01*
X158770523Y-46014295D02*
X158865761Y-46061914D01*
X158865761Y-46061914D02*
X158913380Y-46109533D01*
X158913380Y-46109533D02*
X158960999Y-46204771D01*
X158960999Y-46204771D02*
X158960999Y-46538104D01*
D11*
X152503414Y-34485457D02*
X152574842Y-34271171D01*
X152574842Y-34271171D02*
X152646271Y-34199742D01*
X152646271Y-34199742D02*
X152789128Y-34128314D01*
X152789128Y-34128314D02*
X153003414Y-34128314D01*
X153003414Y-34128314D02*
X153146271Y-34199742D01*
X153146271Y-34199742D02*
X153217700Y-34271171D01*
X153217700Y-34271171D02*
X153289128Y-34414028D01*
X153289128Y-34414028D02*
X153289128Y-34985457D01*
X153289128Y-34985457D02*
X151789128Y-34985457D01*
X151789128Y-34985457D02*
X151789128Y-34485457D01*
X151789128Y-34485457D02*
X151860557Y-34342600D01*
X151860557Y-34342600D02*
X151931985Y-34271171D01*
X151931985Y-34271171D02*
X152074842Y-34199742D01*
X152074842Y-34199742D02*
X152217700Y-34199742D01*
X152217700Y-34199742D02*
X152360557Y-34271171D01*
X152360557Y-34271171D02*
X152431985Y-34342600D01*
X152431985Y-34342600D02*
X152503414Y-34485457D01*
X152503414Y-34485457D02*
X152503414Y-34985457D01*
X150646271Y-34128314D02*
X150717700Y-34199742D01*
X150717700Y-34199742D02*
X150789128Y-34414028D01*
X150789128Y-34414028D02*
X150789128Y-34556885D01*
X150789128Y-34556885D02*
X150717700Y-34771171D01*
X150717700Y-34771171D02*
X150574842Y-34914028D01*
X150574842Y-34914028D02*
X150431985Y-34985457D01*
X150431985Y-34985457D02*
X150146271Y-35056885D01*
X150146271Y-35056885D02*
X149931985Y-35056885D01*
X149931985Y-35056885D02*
X149646271Y-34985457D01*
X149646271Y-34985457D02*
X149503414Y-34914028D01*
X149503414Y-34914028D02*
X149360557Y-34771171D01*
X149360557Y-34771171D02*
X149289128Y-34556885D01*
X149289128Y-34556885D02*
X149289128Y-34414028D01*
X149289128Y-34414028D02*
X149360557Y-34199742D01*
X149360557Y-34199742D02*
X149431985Y-34128314D01*
X155360557Y-34949742D02*
X155360557Y-34235457D01*
X155789128Y-35092599D02*
X154289128Y-34592599D01*
X154289128Y-34592599D02*
X155789128Y-34092599D01*
X145500728Y-125138685D02*
X145500728Y-124210113D01*
X145500728Y-124210113D02*
X146072157Y-124710113D01*
X146072157Y-124710113D02*
X146072157Y-124495828D01*
X146072157Y-124495828D02*
X146143585Y-124352971D01*
X146143585Y-124352971D02*
X146215014Y-124281542D01*
X146215014Y-124281542D02*
X146357871Y-124210113D01*
X146357871Y-124210113D02*
X146715014Y-124210113D01*
X146715014Y-124210113D02*
X146857871Y-124281542D01*
X146857871Y-124281542D02*
X146929300Y-124352971D01*
X146929300Y-124352971D02*
X147000728Y-124495828D01*
X147000728Y-124495828D02*
X147000728Y-124924399D01*
X147000728Y-124924399D02*
X146929300Y-125067256D01*
X146929300Y-125067256D02*
X146857871Y-125138685D01*
X145643585Y-123638685D02*
X145572157Y-123567257D01*
X145572157Y-123567257D02*
X145500728Y-123424400D01*
X145500728Y-123424400D02*
X145500728Y-123067257D01*
X145500728Y-123067257D02*
X145572157Y-122924400D01*
X145572157Y-122924400D02*
X145643585Y-122852971D01*
X145643585Y-122852971D02*
X145786442Y-122781542D01*
X145786442Y-122781542D02*
X145929300Y-122781542D01*
X145929300Y-122781542D02*
X146143585Y-122852971D01*
X146143585Y-122852971D02*
X147000728Y-123710114D01*
X147000728Y-123710114D02*
X147000728Y-122781542D01*
D13*
X145707019Y-44813906D02*
X145707019Y-45385334D01*
X145707019Y-45099620D02*
X144707019Y-45099620D01*
X144707019Y-45099620D02*
X144849876Y-45194858D01*
X144849876Y-45194858D02*
X144945114Y-45290096D01*
X144945114Y-45290096D02*
X144992733Y-45385334D01*
D10*
X121688219Y-40437733D02*
X122402504Y-40437733D01*
X122402504Y-40437733D02*
X122545361Y-40485352D01*
X122545361Y-40485352D02*
X122640600Y-40580590D01*
X122640600Y-40580590D02*
X122688219Y-40723447D01*
X122688219Y-40723447D02*
X122688219Y-40818685D01*
X121783457Y-40009161D02*
X121735838Y-39961542D01*
X121735838Y-39961542D02*
X121688219Y-39866304D01*
X121688219Y-39866304D02*
X121688219Y-39628209D01*
X121688219Y-39628209D02*
X121735838Y-39532971D01*
X121735838Y-39532971D02*
X121783457Y-39485352D01*
X121783457Y-39485352D02*
X121878695Y-39437733D01*
X121878695Y-39437733D02*
X121973933Y-39437733D01*
X121973933Y-39437733D02*
X122116790Y-39485352D01*
X122116790Y-39485352D02*
X122688219Y-40056780D01*
X122688219Y-40056780D02*
X122688219Y-39437733D01*
X132592570Y-66887295D02*
X132640190Y-66934914D01*
X132640190Y-66934914D02*
X132687809Y-67077771D01*
X132687809Y-67077771D02*
X132687809Y-67173009D01*
X132687809Y-67173009D02*
X132640190Y-67315866D01*
X132640190Y-67315866D02*
X132544951Y-67411104D01*
X132544951Y-67411104D02*
X132449713Y-67458723D01*
X132449713Y-67458723D02*
X132259237Y-67506342D01*
X132259237Y-67506342D02*
X132116380Y-67506342D01*
X132116380Y-67506342D02*
X131925904Y-67458723D01*
X131925904Y-67458723D02*
X131830666Y-67411104D01*
X131830666Y-67411104D02*
X131735428Y-67315866D01*
X131735428Y-67315866D02*
X131687809Y-67173009D01*
X131687809Y-67173009D02*
X131687809Y-67077771D01*
X131687809Y-67077771D02*
X131735428Y-66934914D01*
X131735428Y-66934914D02*
X131783047Y-66887295D01*
X132687809Y-66458723D02*
X131687809Y-66458723D01*
X132163999Y-66458723D02*
X132163999Y-65887295D01*
X132687809Y-65887295D02*
X131687809Y-65887295D01*
X132687809Y-65411104D02*
X131687809Y-65411104D01*
X131687809Y-65411104D02*
X131687809Y-64839676D01*
X131687809Y-64839676D02*
X132687809Y-64839676D01*
X131687809Y-63887295D02*
X131687809Y-64363485D01*
X131687809Y-64363485D02*
X132163999Y-64411104D01*
X132163999Y-64411104D02*
X132116380Y-64363485D01*
X132116380Y-64363485D02*
X132068761Y-64268247D01*
X132068761Y-64268247D02*
X132068761Y-64030152D01*
X132068761Y-64030152D02*
X132116380Y-63934914D01*
X132116380Y-63934914D02*
X132163999Y-63887295D01*
X132163999Y-63887295D02*
X132259237Y-63839676D01*
X132259237Y-63839676D02*
X132497332Y-63839676D01*
X132497332Y-63839676D02*
X132592570Y-63887295D01*
X132592570Y-63887295D02*
X132640190Y-63934914D01*
X132640190Y-63934914D02*
X132687809Y-64030152D01*
X132687809Y-64030152D02*
X132687809Y-64268247D01*
X132687809Y-64268247D02*
X132640190Y-64363485D01*
X132640190Y-64363485D02*
X132592570Y-64411104D01*
X132687809Y-63363485D02*
X132687809Y-63173009D01*
X132687809Y-63173009D02*
X132640190Y-63077771D01*
X132640190Y-63077771D02*
X132592570Y-63030152D01*
X132592570Y-63030152D02*
X132449713Y-62934914D01*
X132449713Y-62934914D02*
X132259237Y-62887295D01*
X132259237Y-62887295D02*
X131878285Y-62887295D01*
X131878285Y-62887295D02*
X131783047Y-62934914D01*
X131783047Y-62934914D02*
X131735428Y-62982533D01*
X131735428Y-62982533D02*
X131687809Y-63077771D01*
X131687809Y-63077771D02*
X131687809Y-63268247D01*
X131687809Y-63268247D02*
X131735428Y-63363485D01*
X131735428Y-63363485D02*
X131783047Y-63411104D01*
X131783047Y-63411104D02*
X131878285Y-63458723D01*
X131878285Y-63458723D02*
X132116380Y-63458723D01*
X132116380Y-63458723D02*
X132211618Y-63411104D01*
X132211618Y-63411104D02*
X132259237Y-63363485D01*
X132259237Y-63363485D02*
X132306856Y-63268247D01*
X132306856Y-63268247D02*
X132306856Y-63077771D01*
X132306856Y-63077771D02*
X132259237Y-62982533D01*
X132259237Y-62982533D02*
X132211618Y-62934914D01*
X132211618Y-62934914D02*
X132116380Y-62887295D01*
X132306856Y-62458723D02*
X132306856Y-61696819D01*
X131687809Y-60792057D02*
X131687809Y-60982533D01*
X131687809Y-60982533D02*
X131735428Y-61077771D01*
X131735428Y-61077771D02*
X131783047Y-61125390D01*
X131783047Y-61125390D02*
X131925904Y-61220628D01*
X131925904Y-61220628D02*
X132116380Y-61268247D01*
X132116380Y-61268247D02*
X132497332Y-61268247D01*
X132497332Y-61268247D02*
X132592570Y-61220628D01*
X132592570Y-61220628D02*
X132640190Y-61173009D01*
X132640190Y-61173009D02*
X132687809Y-61077771D01*
X132687809Y-61077771D02*
X132687809Y-60887295D01*
X132687809Y-60887295D02*
X132640190Y-60792057D01*
X132640190Y-60792057D02*
X132592570Y-60744438D01*
X132592570Y-60744438D02*
X132497332Y-60696819D01*
X132497332Y-60696819D02*
X132259237Y-60696819D01*
X132259237Y-60696819D02*
X132163999Y-60744438D01*
X132163999Y-60744438D02*
X132116380Y-60792057D01*
X132116380Y-60792057D02*
X132068761Y-60887295D01*
X132068761Y-60887295D02*
X132068761Y-61077771D01*
X132068761Y-61077771D02*
X132116380Y-61173009D01*
X132116380Y-61173009D02*
X132163999Y-61220628D01*
X132163999Y-61220628D02*
X132259237Y-61268247D01*
X132021142Y-59839676D02*
X132687809Y-59839676D01*
X131640190Y-60077771D02*
X132354475Y-60315866D01*
X132354475Y-60315866D02*
X132354475Y-59696819D01*
X132687809Y-58506342D02*
X132687809Y-58315866D01*
X132687809Y-58315866D02*
X132640190Y-58220628D01*
X132640190Y-58220628D02*
X132592570Y-58173009D01*
X132592570Y-58173009D02*
X132449713Y-58077771D01*
X132449713Y-58077771D02*
X132259237Y-58030152D01*
X132259237Y-58030152D02*
X131878285Y-58030152D01*
X131878285Y-58030152D02*
X131783047Y-58077771D01*
X131783047Y-58077771D02*
X131735428Y-58125390D01*
X131735428Y-58125390D02*
X131687809Y-58220628D01*
X131687809Y-58220628D02*
X131687809Y-58411104D01*
X131687809Y-58411104D02*
X131735428Y-58506342D01*
X131735428Y-58506342D02*
X131783047Y-58553961D01*
X131783047Y-58553961D02*
X131878285Y-58601580D01*
X131878285Y-58601580D02*
X132116380Y-58601580D01*
X132116380Y-58601580D02*
X132211618Y-58553961D01*
X132211618Y-58553961D02*
X132259237Y-58506342D01*
X132259237Y-58506342D02*
X132306856Y-58411104D01*
X132306856Y-58411104D02*
X132306856Y-58220628D01*
X132306856Y-58220628D02*
X132259237Y-58125390D01*
X132259237Y-58125390D02*
X132211618Y-58077771D01*
X132211618Y-58077771D02*
X132116380Y-58030152D01*
X132021142Y-57173009D02*
X132687809Y-57173009D01*
X131640190Y-57411104D02*
X132354475Y-57649199D01*
X132354475Y-57649199D02*
X132354475Y-57030152D01*
X132687809Y-56744437D02*
X132021142Y-56220628D01*
X132021142Y-56744437D02*
X132687809Y-56220628D01*
X132687809Y-55315866D02*
X132687809Y-55887294D01*
X132687809Y-55601580D02*
X131687809Y-55601580D01*
X131687809Y-55601580D02*
X131830666Y-55696818D01*
X131830666Y-55696818D02*
X131925904Y-55792056D01*
X131925904Y-55792056D02*
X131973523Y-55887294D01*
X132687809Y-54363485D02*
X132687809Y-54934913D01*
X132687809Y-54649199D02*
X131687809Y-54649199D01*
X131687809Y-54649199D02*
X131830666Y-54744437D01*
X131830666Y-54744437D02*
X131925904Y-54839675D01*
X131925904Y-54839675D02*
X131973523Y-54934913D01*
X132116380Y-53792056D02*
X132068761Y-53887294D01*
X132068761Y-53887294D02*
X132021142Y-53934913D01*
X132021142Y-53934913D02*
X131925904Y-53982532D01*
X131925904Y-53982532D02*
X131878285Y-53982532D01*
X131878285Y-53982532D02*
X131783047Y-53934913D01*
X131783047Y-53934913D02*
X131735428Y-53887294D01*
X131735428Y-53887294D02*
X131687809Y-53792056D01*
X131687809Y-53792056D02*
X131687809Y-53601580D01*
X131687809Y-53601580D02*
X131735428Y-53506342D01*
X131735428Y-53506342D02*
X131783047Y-53458723D01*
X131783047Y-53458723D02*
X131878285Y-53411104D01*
X131878285Y-53411104D02*
X131925904Y-53411104D01*
X131925904Y-53411104D02*
X132021142Y-53458723D01*
X132021142Y-53458723D02*
X132068761Y-53506342D01*
X132068761Y-53506342D02*
X132116380Y-53601580D01*
X132116380Y-53601580D02*
X132116380Y-53792056D01*
X132116380Y-53792056D02*
X132163999Y-53887294D01*
X132163999Y-53887294D02*
X132211618Y-53934913D01*
X132211618Y-53934913D02*
X132306856Y-53982532D01*
X132306856Y-53982532D02*
X132497332Y-53982532D01*
X132497332Y-53982532D02*
X132592570Y-53934913D01*
X132592570Y-53934913D02*
X132640190Y-53887294D01*
X132640190Y-53887294D02*
X132687809Y-53792056D01*
X132687809Y-53792056D02*
X132687809Y-53601580D01*
X132687809Y-53601580D02*
X132640190Y-53506342D01*
X132640190Y-53506342D02*
X132592570Y-53458723D01*
X132592570Y-53458723D02*
X132497332Y-53411104D01*
X132497332Y-53411104D02*
X132306856Y-53411104D01*
X132306856Y-53411104D02*
X132211618Y-53458723D01*
X132211618Y-53458723D02*
X132163999Y-53506342D01*
X132163999Y-53506342D02*
X132116380Y-53601580D01*
X132306856Y-52982532D02*
X132306856Y-52220628D01*
X131783047Y-51792056D02*
X131735428Y-51744437D01*
X131735428Y-51744437D02*
X131687809Y-51649199D01*
X131687809Y-51649199D02*
X131687809Y-51411104D01*
X131687809Y-51411104D02*
X131735428Y-51315866D01*
X131735428Y-51315866D02*
X131783047Y-51268247D01*
X131783047Y-51268247D02*
X131878285Y-51220628D01*
X131878285Y-51220628D02*
X131973523Y-51220628D01*
X131973523Y-51220628D02*
X132116380Y-51268247D01*
X132116380Y-51268247D02*
X132687809Y-51839675D01*
X132687809Y-51839675D02*
X132687809Y-51220628D01*
X132687809Y-50268247D02*
X132687809Y-50839675D01*
X132687809Y-50553961D02*
X131687809Y-50553961D01*
X131687809Y-50553961D02*
X131830666Y-50649199D01*
X131830666Y-50649199D02*
X131925904Y-50744437D01*
X131925904Y-50744437D02*
X131973523Y-50839675D01*
X132306856Y-49839675D02*
X132306856Y-49077771D01*
X131783047Y-48649199D02*
X131735428Y-48601580D01*
X131735428Y-48601580D02*
X131687809Y-48506342D01*
X131687809Y-48506342D02*
X131687809Y-48268247D01*
X131687809Y-48268247D02*
X131735428Y-48173009D01*
X131735428Y-48173009D02*
X131783047Y-48125390D01*
X131783047Y-48125390D02*
X131878285Y-48077771D01*
X131878285Y-48077771D02*
X131973523Y-48077771D01*
X131973523Y-48077771D02*
X132116380Y-48125390D01*
X132116380Y-48125390D02*
X132687809Y-48696818D01*
X132687809Y-48696818D02*
X132687809Y-48077771D01*
X132306856Y-47649199D02*
X132306856Y-46887295D01*
X132163999Y-46077771D02*
X132211618Y-45934914D01*
X132211618Y-45934914D02*
X132259237Y-45887295D01*
X132259237Y-45887295D02*
X132354475Y-45839676D01*
X132354475Y-45839676D02*
X132497332Y-45839676D01*
X132497332Y-45839676D02*
X132592570Y-45887295D01*
X132592570Y-45887295D02*
X132640190Y-45934914D01*
X132640190Y-45934914D02*
X132687809Y-46030152D01*
X132687809Y-46030152D02*
X132687809Y-46411104D01*
X132687809Y-46411104D02*
X131687809Y-46411104D01*
X131687809Y-46411104D02*
X131687809Y-46077771D01*
X131687809Y-46077771D02*
X131735428Y-45982533D01*
X131735428Y-45982533D02*
X131783047Y-45934914D01*
X131783047Y-45934914D02*
X131878285Y-45887295D01*
X131878285Y-45887295D02*
X131973523Y-45887295D01*
X131973523Y-45887295D02*
X132068761Y-45934914D01*
X132068761Y-45934914D02*
X132116380Y-45982533D01*
X132116380Y-45982533D02*
X132163999Y-46077771D01*
X132163999Y-46077771D02*
X132163999Y-46411104D01*
D11*
X128660557Y-34949742D02*
X128660557Y-34235457D01*
X129089128Y-35092599D02*
X127589128Y-34592599D01*
X127589128Y-34592599D02*
X129089128Y-34092599D01*
D13*
X119007019Y-44813906D02*
X119007019Y-45385334D01*
X119007019Y-45099620D02*
X118007019Y-45099620D01*
X118007019Y-45099620D02*
X118149876Y-45194858D01*
X118149876Y-45194858D02*
X118245114Y-45290096D01*
X118245114Y-45290096D02*
X118292733Y-45385334D01*
D11*
X118800728Y-125138685D02*
X118800728Y-124210113D01*
X118800728Y-124210113D02*
X119372157Y-124710113D01*
X119372157Y-124710113D02*
X119372157Y-124495828D01*
X119372157Y-124495828D02*
X119443585Y-124352971D01*
X119443585Y-124352971D02*
X119515014Y-124281542D01*
X119515014Y-124281542D02*
X119657871Y-124210113D01*
X119657871Y-124210113D02*
X120015014Y-124210113D01*
X120015014Y-124210113D02*
X120157871Y-124281542D01*
X120157871Y-124281542D02*
X120229300Y-124352971D01*
X120229300Y-124352971D02*
X120300728Y-124495828D01*
X120300728Y-124495828D02*
X120300728Y-124924399D01*
X120300728Y-124924399D02*
X120229300Y-125067256D01*
X120229300Y-125067256D02*
X120157871Y-125138685D01*
X118943585Y-123638685D02*
X118872157Y-123567257D01*
X118872157Y-123567257D02*
X118800728Y-123424400D01*
X118800728Y-123424400D02*
X118800728Y-123067257D01*
X118800728Y-123067257D02*
X118872157Y-122924400D01*
X118872157Y-122924400D02*
X118943585Y-122852971D01*
X118943585Y-122852971D02*
X119086442Y-122781542D01*
X119086442Y-122781542D02*
X119229300Y-122781542D01*
X119229300Y-122781542D02*
X119443585Y-122852971D01*
X119443585Y-122852971D02*
X120300728Y-123710114D01*
X120300728Y-123710114D02*
X120300728Y-122781542D01*
X123946271Y-34128314D02*
X124017700Y-34199742D01*
X124017700Y-34199742D02*
X124089128Y-34414028D01*
X124089128Y-34414028D02*
X124089128Y-34556885D01*
X124089128Y-34556885D02*
X124017700Y-34771171D01*
X124017700Y-34771171D02*
X123874842Y-34914028D01*
X123874842Y-34914028D02*
X123731985Y-34985457D01*
X123731985Y-34985457D02*
X123446271Y-35056885D01*
X123446271Y-35056885D02*
X123231985Y-35056885D01*
X123231985Y-35056885D02*
X122946271Y-34985457D01*
X122946271Y-34985457D02*
X122803414Y-34914028D01*
X122803414Y-34914028D02*
X122660557Y-34771171D01*
X122660557Y-34771171D02*
X122589128Y-34556885D01*
X122589128Y-34556885D02*
X122589128Y-34414028D01*
X122589128Y-34414028D02*
X122660557Y-34199742D01*
X122660557Y-34199742D02*
X122731985Y-34128314D01*
X125803414Y-34485457D02*
X125874842Y-34271171D01*
X125874842Y-34271171D02*
X125946271Y-34199742D01*
X125946271Y-34199742D02*
X126089128Y-34128314D01*
X126089128Y-34128314D02*
X126303414Y-34128314D01*
X126303414Y-34128314D02*
X126446271Y-34199742D01*
X126446271Y-34199742D02*
X126517700Y-34271171D01*
X126517700Y-34271171D02*
X126589128Y-34414028D01*
X126589128Y-34414028D02*
X126589128Y-34985457D01*
X126589128Y-34985457D02*
X125089128Y-34985457D01*
X125089128Y-34985457D02*
X125089128Y-34485457D01*
X125089128Y-34485457D02*
X125160557Y-34342600D01*
X125160557Y-34342600D02*
X125231985Y-34271171D01*
X125231985Y-34271171D02*
X125374842Y-34199742D01*
X125374842Y-34199742D02*
X125517700Y-34199742D01*
X125517700Y-34199742D02*
X125660557Y-34271171D01*
X125660557Y-34271171D02*
X125731985Y-34342600D01*
X125731985Y-34342600D02*
X125803414Y-34485457D01*
X125803414Y-34485457D02*
X125803414Y-34985457D01*
D10*
X218809809Y-39734343D02*
X219524094Y-39734343D01*
X219524094Y-39734343D02*
X219666951Y-39781962D01*
X219666951Y-39781962D02*
X219762190Y-39877200D01*
X219762190Y-39877200D02*
X219809809Y-40020057D01*
X219809809Y-40020057D02*
X219809809Y-40115295D01*
X218809809Y-38781962D02*
X218809809Y-39258152D01*
X218809809Y-39258152D02*
X219285999Y-39305771D01*
X219285999Y-39305771D02*
X219238380Y-39258152D01*
X219238380Y-39258152D02*
X219190761Y-39162914D01*
X219190761Y-39162914D02*
X219190761Y-38924819D01*
X219190761Y-38924819D02*
X219238380Y-38829581D01*
X219238380Y-38829581D02*
X219285999Y-38781962D01*
X219285999Y-38781962D02*
X219381237Y-38734343D01*
X219381237Y-38734343D02*
X219619332Y-38734343D01*
X219619332Y-38734343D02*
X219714570Y-38781962D01*
X219714570Y-38781962D02*
X219762190Y-38829581D01*
X219762190Y-38829581D02*
X219809809Y-38924819D01*
X219809809Y-38924819D02*
X219809809Y-39162914D01*
X219809809Y-39162914D02*
X219762190Y-39258152D01*
X219762190Y-39258152D02*
X219714570Y-39305771D01*
X226064570Y-66268200D02*
X226112190Y-66315819D01*
X226112190Y-66315819D02*
X226159809Y-66458676D01*
X226159809Y-66458676D02*
X226159809Y-66553914D01*
X226159809Y-66553914D02*
X226112190Y-66696771D01*
X226112190Y-66696771D02*
X226016951Y-66792009D01*
X226016951Y-66792009D02*
X225921713Y-66839628D01*
X225921713Y-66839628D02*
X225731237Y-66887247D01*
X225731237Y-66887247D02*
X225588380Y-66887247D01*
X225588380Y-66887247D02*
X225397904Y-66839628D01*
X225397904Y-66839628D02*
X225302666Y-66792009D01*
X225302666Y-66792009D02*
X225207428Y-66696771D01*
X225207428Y-66696771D02*
X225159809Y-66553914D01*
X225159809Y-66553914D02*
X225159809Y-66458676D01*
X225159809Y-66458676D02*
X225207428Y-66315819D01*
X225207428Y-66315819D02*
X225255047Y-66268200D01*
X226159809Y-65839628D02*
X225159809Y-65839628D01*
X225635999Y-65839628D02*
X225635999Y-65268200D01*
X226159809Y-65268200D02*
X225159809Y-65268200D01*
X226159809Y-64792009D02*
X225159809Y-64792009D01*
X225159809Y-64792009D02*
X225159809Y-64220581D01*
X225159809Y-64220581D02*
X226159809Y-64220581D01*
X225159809Y-63268200D02*
X225159809Y-63744390D01*
X225159809Y-63744390D02*
X225635999Y-63792009D01*
X225635999Y-63792009D02*
X225588380Y-63744390D01*
X225588380Y-63744390D02*
X225540761Y-63649152D01*
X225540761Y-63649152D02*
X225540761Y-63411057D01*
X225540761Y-63411057D02*
X225588380Y-63315819D01*
X225588380Y-63315819D02*
X225635999Y-63268200D01*
X225635999Y-63268200D02*
X225731237Y-63220581D01*
X225731237Y-63220581D02*
X225969332Y-63220581D01*
X225969332Y-63220581D02*
X226064570Y-63268200D01*
X226064570Y-63268200D02*
X226112190Y-63315819D01*
X226112190Y-63315819D02*
X226159809Y-63411057D01*
X226159809Y-63411057D02*
X226159809Y-63649152D01*
X226159809Y-63649152D02*
X226112190Y-63744390D01*
X226112190Y-63744390D02*
X226064570Y-63792009D01*
X226159809Y-62744390D02*
X226159809Y-62553914D01*
X226159809Y-62553914D02*
X226112190Y-62458676D01*
X226112190Y-62458676D02*
X226064570Y-62411057D01*
X226064570Y-62411057D02*
X225921713Y-62315819D01*
X225921713Y-62315819D02*
X225731237Y-62268200D01*
X225731237Y-62268200D02*
X225350285Y-62268200D01*
X225350285Y-62268200D02*
X225255047Y-62315819D01*
X225255047Y-62315819D02*
X225207428Y-62363438D01*
X225207428Y-62363438D02*
X225159809Y-62458676D01*
X225159809Y-62458676D02*
X225159809Y-62649152D01*
X225159809Y-62649152D02*
X225207428Y-62744390D01*
X225207428Y-62744390D02*
X225255047Y-62792009D01*
X225255047Y-62792009D02*
X225350285Y-62839628D01*
X225350285Y-62839628D02*
X225588380Y-62839628D01*
X225588380Y-62839628D02*
X225683618Y-62792009D01*
X225683618Y-62792009D02*
X225731237Y-62744390D01*
X225731237Y-62744390D02*
X225778856Y-62649152D01*
X225778856Y-62649152D02*
X225778856Y-62458676D01*
X225778856Y-62458676D02*
X225731237Y-62363438D01*
X225731237Y-62363438D02*
X225683618Y-62315819D01*
X225683618Y-62315819D02*
X225588380Y-62268200D01*
X225778856Y-61839628D02*
X225778856Y-61077724D01*
X225159809Y-60172962D02*
X225159809Y-60363438D01*
X225159809Y-60363438D02*
X225207428Y-60458676D01*
X225207428Y-60458676D02*
X225255047Y-60506295D01*
X225255047Y-60506295D02*
X225397904Y-60601533D01*
X225397904Y-60601533D02*
X225588380Y-60649152D01*
X225588380Y-60649152D02*
X225969332Y-60649152D01*
X225969332Y-60649152D02*
X226064570Y-60601533D01*
X226064570Y-60601533D02*
X226112190Y-60553914D01*
X226112190Y-60553914D02*
X226159809Y-60458676D01*
X226159809Y-60458676D02*
X226159809Y-60268200D01*
X226159809Y-60268200D02*
X226112190Y-60172962D01*
X226112190Y-60172962D02*
X226064570Y-60125343D01*
X226064570Y-60125343D02*
X225969332Y-60077724D01*
X225969332Y-60077724D02*
X225731237Y-60077724D01*
X225731237Y-60077724D02*
X225635999Y-60125343D01*
X225635999Y-60125343D02*
X225588380Y-60172962D01*
X225588380Y-60172962D02*
X225540761Y-60268200D01*
X225540761Y-60268200D02*
X225540761Y-60458676D01*
X225540761Y-60458676D02*
X225588380Y-60553914D01*
X225588380Y-60553914D02*
X225635999Y-60601533D01*
X225635999Y-60601533D02*
X225731237Y-60649152D01*
X225493142Y-59220581D02*
X226159809Y-59220581D01*
X225112190Y-59458676D02*
X225826475Y-59696771D01*
X225826475Y-59696771D02*
X225826475Y-59077724D01*
X226159809Y-57887247D02*
X226159809Y-57696771D01*
X226159809Y-57696771D02*
X226112190Y-57601533D01*
X226112190Y-57601533D02*
X226064570Y-57553914D01*
X226064570Y-57553914D02*
X225921713Y-57458676D01*
X225921713Y-57458676D02*
X225731237Y-57411057D01*
X225731237Y-57411057D02*
X225350285Y-57411057D01*
X225350285Y-57411057D02*
X225255047Y-57458676D01*
X225255047Y-57458676D02*
X225207428Y-57506295D01*
X225207428Y-57506295D02*
X225159809Y-57601533D01*
X225159809Y-57601533D02*
X225159809Y-57792009D01*
X225159809Y-57792009D02*
X225207428Y-57887247D01*
X225207428Y-57887247D02*
X225255047Y-57934866D01*
X225255047Y-57934866D02*
X225350285Y-57982485D01*
X225350285Y-57982485D02*
X225588380Y-57982485D01*
X225588380Y-57982485D02*
X225683618Y-57934866D01*
X225683618Y-57934866D02*
X225731237Y-57887247D01*
X225731237Y-57887247D02*
X225778856Y-57792009D01*
X225778856Y-57792009D02*
X225778856Y-57601533D01*
X225778856Y-57601533D02*
X225731237Y-57506295D01*
X225731237Y-57506295D02*
X225683618Y-57458676D01*
X225683618Y-57458676D02*
X225588380Y-57411057D01*
X225493142Y-56553914D02*
X226159809Y-56553914D01*
X225112190Y-56792009D02*
X225826475Y-57030104D01*
X225826475Y-57030104D02*
X225826475Y-56411057D01*
X226159809Y-56125342D02*
X225493142Y-55601533D01*
X225493142Y-56125342D02*
X226159809Y-55601533D01*
X226159809Y-54696771D02*
X226159809Y-55268199D01*
X226159809Y-54982485D02*
X225159809Y-54982485D01*
X225159809Y-54982485D02*
X225302666Y-55077723D01*
X225302666Y-55077723D02*
X225397904Y-55172961D01*
X225397904Y-55172961D02*
X225445523Y-55268199D01*
X226159809Y-53744390D02*
X226159809Y-54315818D01*
X226159809Y-54030104D02*
X225159809Y-54030104D01*
X225159809Y-54030104D02*
X225302666Y-54125342D01*
X225302666Y-54125342D02*
X225397904Y-54220580D01*
X225397904Y-54220580D02*
X225445523Y-54315818D01*
X225588380Y-53172961D02*
X225540761Y-53268199D01*
X225540761Y-53268199D02*
X225493142Y-53315818D01*
X225493142Y-53315818D02*
X225397904Y-53363437D01*
X225397904Y-53363437D02*
X225350285Y-53363437D01*
X225350285Y-53363437D02*
X225255047Y-53315818D01*
X225255047Y-53315818D02*
X225207428Y-53268199D01*
X225207428Y-53268199D02*
X225159809Y-53172961D01*
X225159809Y-53172961D02*
X225159809Y-52982485D01*
X225159809Y-52982485D02*
X225207428Y-52887247D01*
X225207428Y-52887247D02*
X225255047Y-52839628D01*
X225255047Y-52839628D02*
X225350285Y-52792009D01*
X225350285Y-52792009D02*
X225397904Y-52792009D01*
X225397904Y-52792009D02*
X225493142Y-52839628D01*
X225493142Y-52839628D02*
X225540761Y-52887247D01*
X225540761Y-52887247D02*
X225588380Y-52982485D01*
X225588380Y-52982485D02*
X225588380Y-53172961D01*
X225588380Y-53172961D02*
X225635999Y-53268199D01*
X225635999Y-53268199D02*
X225683618Y-53315818D01*
X225683618Y-53315818D02*
X225778856Y-53363437D01*
X225778856Y-53363437D02*
X225969332Y-53363437D01*
X225969332Y-53363437D02*
X226064570Y-53315818D01*
X226064570Y-53315818D02*
X226112190Y-53268199D01*
X226112190Y-53268199D02*
X226159809Y-53172961D01*
X226159809Y-53172961D02*
X226159809Y-52982485D01*
X226159809Y-52982485D02*
X226112190Y-52887247D01*
X226112190Y-52887247D02*
X226064570Y-52839628D01*
X226064570Y-52839628D02*
X225969332Y-52792009D01*
X225969332Y-52792009D02*
X225778856Y-52792009D01*
X225778856Y-52792009D02*
X225683618Y-52839628D01*
X225683618Y-52839628D02*
X225635999Y-52887247D01*
X225635999Y-52887247D02*
X225588380Y-52982485D01*
X225255047Y-51649151D02*
X225207428Y-51601532D01*
X225207428Y-51601532D02*
X225159809Y-51506294D01*
X225159809Y-51506294D02*
X225159809Y-51268199D01*
X225159809Y-51268199D02*
X225207428Y-51172961D01*
X225207428Y-51172961D02*
X225255047Y-51125342D01*
X225255047Y-51125342D02*
X225350285Y-51077723D01*
X225350285Y-51077723D02*
X225445523Y-51077723D01*
X225445523Y-51077723D02*
X225588380Y-51125342D01*
X225588380Y-51125342D02*
X226159809Y-51696770D01*
X226159809Y-51696770D02*
X226159809Y-51077723D01*
X225159809Y-50744389D02*
X225159809Y-50125342D01*
X225159809Y-50125342D02*
X225540761Y-50458675D01*
X225540761Y-50458675D02*
X225540761Y-50315818D01*
X225540761Y-50315818D02*
X225588380Y-50220580D01*
X225588380Y-50220580D02*
X225635999Y-50172961D01*
X225635999Y-50172961D02*
X225731237Y-50125342D01*
X225731237Y-50125342D02*
X225969332Y-50125342D01*
X225969332Y-50125342D02*
X226064570Y-50172961D01*
X226064570Y-50172961D02*
X226112190Y-50220580D01*
X226112190Y-50220580D02*
X226159809Y-50315818D01*
X226159809Y-50315818D02*
X226159809Y-50601532D01*
X226159809Y-50601532D02*
X226112190Y-50696770D01*
X226112190Y-50696770D02*
X226064570Y-50744389D01*
X225778856Y-49696770D02*
X225778856Y-48934866D01*
X225255047Y-48506294D02*
X225207428Y-48458675D01*
X225207428Y-48458675D02*
X225159809Y-48363437D01*
X225159809Y-48363437D02*
X225159809Y-48125342D01*
X225159809Y-48125342D02*
X225207428Y-48030104D01*
X225207428Y-48030104D02*
X225255047Y-47982485D01*
X225255047Y-47982485D02*
X225350285Y-47934866D01*
X225350285Y-47934866D02*
X225445523Y-47934866D01*
X225445523Y-47934866D02*
X225588380Y-47982485D01*
X225588380Y-47982485D02*
X226159809Y-48553913D01*
X226159809Y-48553913D02*
X226159809Y-47934866D01*
X225778856Y-47506294D02*
X225778856Y-46744390D01*
X225635999Y-45934866D02*
X225683618Y-45792009D01*
X225683618Y-45792009D02*
X225731237Y-45744390D01*
X225731237Y-45744390D02*
X225826475Y-45696771D01*
X225826475Y-45696771D02*
X225969332Y-45696771D01*
X225969332Y-45696771D02*
X226064570Y-45744390D01*
X226064570Y-45744390D02*
X226112190Y-45792009D01*
X226112190Y-45792009D02*
X226159809Y-45887247D01*
X226159809Y-45887247D02*
X226159809Y-46268199D01*
X226159809Y-46268199D02*
X225159809Y-46268199D01*
X225159809Y-46268199D02*
X225159809Y-45934866D01*
X225159809Y-45934866D02*
X225207428Y-45839628D01*
X225207428Y-45839628D02*
X225255047Y-45792009D01*
X225255047Y-45792009D02*
X225350285Y-45744390D01*
X225350285Y-45744390D02*
X225445523Y-45744390D01*
X225445523Y-45744390D02*
X225540761Y-45792009D01*
X225540761Y-45792009D02*
X225588380Y-45839628D01*
X225588380Y-45839628D02*
X225635999Y-45934866D01*
X225635999Y-45934866D02*
X225635999Y-46268199D01*
D11*
X214387528Y-124689285D02*
X214387528Y-123760713D01*
X214387528Y-123760713D02*
X214958957Y-124260713D01*
X214958957Y-124260713D02*
X214958957Y-124046428D01*
X214958957Y-124046428D02*
X215030385Y-123903571D01*
X215030385Y-123903571D02*
X215101814Y-123832142D01*
X215101814Y-123832142D02*
X215244671Y-123760713D01*
X215244671Y-123760713D02*
X215601814Y-123760713D01*
X215601814Y-123760713D02*
X215744671Y-123832142D01*
X215744671Y-123832142D02*
X215816100Y-123903571D01*
X215816100Y-123903571D02*
X215887528Y-124046428D01*
X215887528Y-124046428D02*
X215887528Y-124474999D01*
X215887528Y-124474999D02*
X215816100Y-124617856D01*
X215816100Y-124617856D02*
X215744671Y-124689285D01*
X214530385Y-123189285D02*
X214458957Y-123117857D01*
X214458957Y-123117857D02*
X214387528Y-122975000D01*
X214387528Y-122975000D02*
X214387528Y-122617857D01*
X214387528Y-122617857D02*
X214458957Y-122475000D01*
X214458957Y-122475000D02*
X214530385Y-122403571D01*
X214530385Y-122403571D02*
X214673242Y-122332142D01*
X214673242Y-122332142D02*
X214816100Y-122332142D01*
X214816100Y-122332142D02*
X215030385Y-122403571D01*
X215030385Y-122403571D02*
X215887528Y-123260714D01*
X215887528Y-123260714D02*
X215887528Y-122332142D01*
D10*
X125335323Y-20583590D02*
X125287704Y-20631210D01*
X125287704Y-20631210D02*
X125144847Y-20678829D01*
X125144847Y-20678829D02*
X125049609Y-20678829D01*
X125049609Y-20678829D02*
X124906752Y-20631210D01*
X124906752Y-20631210D02*
X124811514Y-20535971D01*
X124811514Y-20535971D02*
X124763895Y-20440733D01*
X124763895Y-20440733D02*
X124716276Y-20250257D01*
X124716276Y-20250257D02*
X124716276Y-20107400D01*
X124716276Y-20107400D02*
X124763895Y-19916924D01*
X124763895Y-19916924D02*
X124811514Y-19821686D01*
X124811514Y-19821686D02*
X124906752Y-19726448D01*
X124906752Y-19726448D02*
X125049609Y-19678829D01*
X125049609Y-19678829D02*
X125144847Y-19678829D01*
X125144847Y-19678829D02*
X125287704Y-19726448D01*
X125287704Y-19726448D02*
X125335323Y-19774067D01*
X125716276Y-19774067D02*
X125763895Y-19726448D01*
X125763895Y-19726448D02*
X125859133Y-19678829D01*
X125859133Y-19678829D02*
X126097228Y-19678829D01*
X126097228Y-19678829D02*
X126192466Y-19726448D01*
X126192466Y-19726448D02*
X126240085Y-19774067D01*
X126240085Y-19774067D02*
X126287704Y-19869305D01*
X126287704Y-19869305D02*
X126287704Y-19964543D01*
X126287704Y-19964543D02*
X126240085Y-20107400D01*
X126240085Y-20107400D02*
X125668657Y-20678829D01*
X125668657Y-20678829D02*
X126287704Y-20678829D01*
X123732143Y-17051819D02*
X123827381Y-17051819D01*
X123827381Y-17051819D02*
X123922619Y-17099438D01*
X123922619Y-17099438D02*
X123970238Y-17147057D01*
X123970238Y-17147057D02*
X124017857Y-17242295D01*
X124017857Y-17242295D02*
X124065476Y-17432771D01*
X124065476Y-17432771D02*
X124065476Y-17670866D01*
X124065476Y-17670866D02*
X124017857Y-17861342D01*
X124017857Y-17861342D02*
X123970238Y-17956580D01*
X123970238Y-17956580D02*
X123922619Y-18004200D01*
X123922619Y-18004200D02*
X123827381Y-18051819D01*
X123827381Y-18051819D02*
X123732143Y-18051819D01*
X123732143Y-18051819D02*
X123636905Y-18004200D01*
X123636905Y-18004200D02*
X123589286Y-17956580D01*
X123589286Y-17956580D02*
X123541667Y-17861342D01*
X123541667Y-17861342D02*
X123494048Y-17670866D01*
X123494048Y-17670866D02*
X123494048Y-17432771D01*
X123494048Y-17432771D02*
X123541667Y-17242295D01*
X123541667Y-17242295D02*
X123589286Y-17147057D01*
X123589286Y-17147057D02*
X123636905Y-17099438D01*
X123636905Y-17099438D02*
X123732143Y-17051819D01*
X124494048Y-17956580D02*
X124541667Y-18004200D01*
X124541667Y-18004200D02*
X124494048Y-18051819D01*
X124494048Y-18051819D02*
X124446429Y-18004200D01*
X124446429Y-18004200D02*
X124494048Y-17956580D01*
X124494048Y-17956580D02*
X124494048Y-18051819D01*
X125494047Y-18051819D02*
X124922619Y-18051819D01*
X125208333Y-18051819D02*
X125208333Y-17051819D01*
X125208333Y-17051819D02*
X125113095Y-17194676D01*
X125113095Y-17194676D02*
X125017857Y-17289914D01*
X125017857Y-17289914D02*
X124922619Y-17337533D01*
X126351190Y-17385152D02*
X126351190Y-18051819D01*
X125922619Y-17385152D02*
X125922619Y-17908961D01*
X125922619Y-17908961D02*
X125970238Y-18004200D01*
X125970238Y-18004200D02*
X126065476Y-18051819D01*
X126065476Y-18051819D02*
X126208333Y-18051819D01*
X126208333Y-18051819D02*
X126303571Y-18004200D01*
X126303571Y-18004200D02*
X126351190Y-17956580D01*
X127160714Y-17528009D02*
X126827381Y-17528009D01*
X126827381Y-18051819D02*
X126827381Y-17051819D01*
X126827381Y-17051819D02*
X127303571Y-17051819D01*
X117675666Y-31025819D02*
X117675666Y-31740104D01*
X117675666Y-31740104D02*
X117628047Y-31882961D01*
X117628047Y-31882961D02*
X117532809Y-31978200D01*
X117532809Y-31978200D02*
X117389952Y-32025819D01*
X117389952Y-32025819D02*
X117294714Y-32025819D01*
X118199476Y-32025819D02*
X118389952Y-32025819D01*
X118389952Y-32025819D02*
X118485190Y-31978200D01*
X118485190Y-31978200D02*
X118532809Y-31930580D01*
X118532809Y-31930580D02*
X118628047Y-31787723D01*
X118628047Y-31787723D02*
X118675666Y-31597247D01*
X118675666Y-31597247D02*
X118675666Y-31216295D01*
X118675666Y-31216295D02*
X118628047Y-31121057D01*
X118628047Y-31121057D02*
X118580428Y-31073438D01*
X118580428Y-31073438D02*
X118485190Y-31025819D01*
X118485190Y-31025819D02*
X118294714Y-31025819D01*
X118294714Y-31025819D02*
X118199476Y-31073438D01*
X118199476Y-31073438D02*
X118151857Y-31121057D01*
X118151857Y-31121057D02*
X118104238Y-31216295D01*
X118104238Y-31216295D02*
X118104238Y-31454390D01*
X118104238Y-31454390D02*
X118151857Y-31549628D01*
X118151857Y-31549628D02*
X118199476Y-31597247D01*
X118199476Y-31597247D02*
X118294714Y-31644866D01*
X118294714Y-31644866D02*
X118485190Y-31644866D01*
X118485190Y-31644866D02*
X118580428Y-31597247D01*
X118580428Y-31597247D02*
X118628047Y-31549628D01*
X118628047Y-31549628D02*
X118675666Y-31454390D01*
X136192256Y-21914029D02*
X136192256Y-22628314D01*
X136192256Y-22628314D02*
X136144637Y-22771171D01*
X136144637Y-22771171D02*
X136049399Y-22866410D01*
X136049399Y-22866410D02*
X135906542Y-22914029D01*
X135906542Y-22914029D02*
X135811304Y-22914029D01*
X136811304Y-22342600D02*
X136716066Y-22294981D01*
X136716066Y-22294981D02*
X136668447Y-22247362D01*
X136668447Y-22247362D02*
X136620828Y-22152124D01*
X136620828Y-22152124D02*
X136620828Y-22104505D01*
X136620828Y-22104505D02*
X136668447Y-22009267D01*
X136668447Y-22009267D02*
X136716066Y-21961648D01*
X136716066Y-21961648D02*
X136811304Y-21914029D01*
X136811304Y-21914029D02*
X137001780Y-21914029D01*
X137001780Y-21914029D02*
X137097018Y-21961648D01*
X137097018Y-21961648D02*
X137144637Y-22009267D01*
X137144637Y-22009267D02*
X137192256Y-22104505D01*
X137192256Y-22104505D02*
X137192256Y-22152124D01*
X137192256Y-22152124D02*
X137144637Y-22247362D01*
X137144637Y-22247362D02*
X137097018Y-22294981D01*
X137097018Y-22294981D02*
X137001780Y-22342600D01*
X137001780Y-22342600D02*
X136811304Y-22342600D01*
X136811304Y-22342600D02*
X136716066Y-22390219D01*
X136716066Y-22390219D02*
X136668447Y-22437838D01*
X136668447Y-22437838D02*
X136620828Y-22533076D01*
X136620828Y-22533076D02*
X136620828Y-22723552D01*
X136620828Y-22723552D02*
X136668447Y-22818790D01*
X136668447Y-22818790D02*
X136716066Y-22866410D01*
X136716066Y-22866410D02*
X136811304Y-22914029D01*
X136811304Y-22914029D02*
X137001780Y-22914029D01*
X137001780Y-22914029D02*
X137097018Y-22866410D01*
X137097018Y-22866410D02*
X137144637Y-22818790D01*
X137144637Y-22818790D02*
X137192256Y-22723552D01*
X137192256Y-22723552D02*
X137192256Y-22533076D01*
X137192256Y-22533076D02*
X137144637Y-22437838D01*
X137144637Y-22437838D02*
X137097018Y-22390219D01*
X137097018Y-22390219D02*
X137001780Y-22342600D01*
D13*
X129641897Y-23916581D02*
X129677611Y-23809438D01*
X129677611Y-23809438D02*
X129713325Y-23773724D01*
X129713325Y-23773724D02*
X129784754Y-23738010D01*
X129784754Y-23738010D02*
X129891897Y-23738010D01*
X129891897Y-23738010D02*
X129963325Y-23773724D01*
X129963325Y-23773724D02*
X129999040Y-23809438D01*
X129999040Y-23809438D02*
X130034754Y-23880867D01*
X130034754Y-23880867D02*
X130034754Y-24166581D01*
X130034754Y-24166581D02*
X129284754Y-24166581D01*
X129284754Y-24166581D02*
X129284754Y-23916581D01*
X129284754Y-23916581D02*
X129320468Y-23845153D01*
X129320468Y-23845153D02*
X129356182Y-23809438D01*
X129356182Y-23809438D02*
X129427611Y-23773724D01*
X129427611Y-23773724D02*
X129499040Y-23773724D01*
X129499040Y-23773724D02*
X129570468Y-23809438D01*
X129570468Y-23809438D02*
X129606182Y-23845153D01*
X129606182Y-23845153D02*
X129641897Y-23916581D01*
X129641897Y-23916581D02*
X129641897Y-24166581D01*
X130034754Y-23095153D02*
X129641897Y-23095153D01*
X129641897Y-23095153D02*
X129570468Y-23130867D01*
X129570468Y-23130867D02*
X129534754Y-23202295D01*
X129534754Y-23202295D02*
X129534754Y-23345153D01*
X129534754Y-23345153D02*
X129570468Y-23416581D01*
X129999040Y-23095153D02*
X130034754Y-23166581D01*
X130034754Y-23166581D02*
X130034754Y-23345153D01*
X130034754Y-23345153D02*
X129999040Y-23416581D01*
X129999040Y-23416581D02*
X129927611Y-23452295D01*
X129927611Y-23452295D02*
X129856182Y-23452295D01*
X129856182Y-23452295D02*
X129784754Y-23416581D01*
X129784754Y-23416581D02*
X129749040Y-23345153D01*
X129749040Y-23345153D02*
X129749040Y-23166581D01*
X129749040Y-23166581D02*
X129713325Y-23095153D01*
X130034754Y-22738010D02*
X129534754Y-22738010D01*
X129677611Y-22738010D02*
X129606182Y-22702296D01*
X129606182Y-22702296D02*
X129570468Y-22666582D01*
X129570468Y-22666582D02*
X129534754Y-22595153D01*
X129534754Y-22595153D02*
X129534754Y-22523724D01*
X130034754Y-22273724D02*
X129534754Y-22273724D01*
X129677611Y-22273724D02*
X129606182Y-22238010D01*
X129606182Y-22238010D02*
X129570468Y-22202296D01*
X129570468Y-22202296D02*
X129534754Y-22130867D01*
X129534754Y-22130867D02*
X129534754Y-22059438D01*
X129999040Y-21523724D02*
X130034754Y-21595152D01*
X130034754Y-21595152D02*
X130034754Y-21738010D01*
X130034754Y-21738010D02*
X129999040Y-21809438D01*
X129999040Y-21809438D02*
X129927611Y-21845152D01*
X129927611Y-21845152D02*
X129641897Y-21845152D01*
X129641897Y-21845152D02*
X129570468Y-21809438D01*
X129570468Y-21809438D02*
X129534754Y-21738010D01*
X129534754Y-21738010D02*
X129534754Y-21595152D01*
X129534754Y-21595152D02*
X129570468Y-21523724D01*
X129570468Y-21523724D02*
X129641897Y-21488010D01*
X129641897Y-21488010D02*
X129713325Y-21488010D01*
X129713325Y-21488010D02*
X129784754Y-21845152D01*
X130034754Y-21059438D02*
X129999040Y-21130867D01*
X129999040Y-21130867D02*
X129927611Y-21166581D01*
X129927611Y-21166581D02*
X129284754Y-21166581D01*
X130106182Y-20952296D02*
X130106182Y-20380867D01*
X129284754Y-19988009D02*
X129820468Y-19988009D01*
X129820468Y-19988009D02*
X129927611Y-20023724D01*
X129927611Y-20023724D02*
X129999040Y-20095152D01*
X129999040Y-20095152D02*
X130034754Y-20202295D01*
X130034754Y-20202295D02*
X130034754Y-20273724D01*
X130034754Y-19309438D02*
X129641897Y-19309438D01*
X129641897Y-19309438D02*
X129570468Y-19345152D01*
X129570468Y-19345152D02*
X129534754Y-19416580D01*
X129534754Y-19416580D02*
X129534754Y-19559438D01*
X129534754Y-19559438D02*
X129570468Y-19630866D01*
X129999040Y-19309438D02*
X130034754Y-19380866D01*
X130034754Y-19380866D02*
X130034754Y-19559438D01*
X130034754Y-19559438D02*
X129999040Y-19630866D01*
X129999040Y-19630866D02*
X129927611Y-19666580D01*
X129927611Y-19666580D02*
X129856182Y-19666580D01*
X129856182Y-19666580D02*
X129784754Y-19630866D01*
X129784754Y-19630866D02*
X129749040Y-19559438D01*
X129749040Y-19559438D02*
X129749040Y-19380866D01*
X129749040Y-19380866D02*
X129713325Y-19309438D01*
X129999040Y-18630867D02*
X130034754Y-18702295D01*
X130034754Y-18702295D02*
X130034754Y-18845152D01*
X130034754Y-18845152D02*
X129999040Y-18916581D01*
X129999040Y-18916581D02*
X129963325Y-18952295D01*
X129963325Y-18952295D02*
X129891897Y-18988009D01*
X129891897Y-18988009D02*
X129677611Y-18988009D01*
X129677611Y-18988009D02*
X129606182Y-18952295D01*
X129606182Y-18952295D02*
X129570468Y-18916581D01*
X129570468Y-18916581D02*
X129534754Y-18845152D01*
X129534754Y-18845152D02*
X129534754Y-18702295D01*
X129534754Y-18702295D02*
X129570468Y-18630867D01*
X130034754Y-18309438D02*
X129284754Y-18309438D01*
X129749040Y-18238010D02*
X130034754Y-18023724D01*
X129534754Y-18023724D02*
X129820468Y-18309438D01*
D10*
X92952809Y-43163343D02*
X93667094Y-43163343D01*
X93667094Y-43163343D02*
X93809951Y-43210962D01*
X93809951Y-43210962D02*
X93905190Y-43306200D01*
X93905190Y-43306200D02*
X93952809Y-43449057D01*
X93952809Y-43449057D02*
X93952809Y-43544295D01*
X93952809Y-42163343D02*
X93952809Y-42734771D01*
X93952809Y-42449057D02*
X92952809Y-42449057D01*
X92952809Y-42449057D02*
X93095666Y-42544295D01*
X93095666Y-42544295D02*
X93190904Y-42639533D01*
X93190904Y-42639533D02*
X93238523Y-42734771D01*
X101344560Y-66395200D02*
X101392180Y-66442819D01*
X101392180Y-66442819D02*
X101439799Y-66585676D01*
X101439799Y-66585676D02*
X101439799Y-66680914D01*
X101439799Y-66680914D02*
X101392180Y-66823771D01*
X101392180Y-66823771D02*
X101296941Y-66919009D01*
X101296941Y-66919009D02*
X101201703Y-66966628D01*
X101201703Y-66966628D02*
X101011227Y-67014247D01*
X101011227Y-67014247D02*
X100868370Y-67014247D01*
X100868370Y-67014247D02*
X100677894Y-66966628D01*
X100677894Y-66966628D02*
X100582656Y-66919009D01*
X100582656Y-66919009D02*
X100487418Y-66823771D01*
X100487418Y-66823771D02*
X100439799Y-66680914D01*
X100439799Y-66680914D02*
X100439799Y-66585676D01*
X100439799Y-66585676D02*
X100487418Y-66442819D01*
X100487418Y-66442819D02*
X100535037Y-66395200D01*
X101439799Y-65966628D02*
X100439799Y-65966628D01*
X100915989Y-65966628D02*
X100915989Y-65395200D01*
X101439799Y-65395200D02*
X100439799Y-65395200D01*
X101439799Y-64919009D02*
X100439799Y-64919009D01*
X100439799Y-64919009D02*
X100439799Y-64347581D01*
X100439799Y-64347581D02*
X101439799Y-64347581D01*
X100439799Y-63395200D02*
X100439799Y-63871390D01*
X100439799Y-63871390D02*
X100915989Y-63919009D01*
X100915989Y-63919009D02*
X100868370Y-63871390D01*
X100868370Y-63871390D02*
X100820751Y-63776152D01*
X100820751Y-63776152D02*
X100820751Y-63538057D01*
X100820751Y-63538057D02*
X100868370Y-63442819D01*
X100868370Y-63442819D02*
X100915989Y-63395200D01*
X100915989Y-63395200D02*
X101011227Y-63347581D01*
X101011227Y-63347581D02*
X101249322Y-63347581D01*
X101249322Y-63347581D02*
X101344560Y-63395200D01*
X101344560Y-63395200D02*
X101392180Y-63442819D01*
X101392180Y-63442819D02*
X101439799Y-63538057D01*
X101439799Y-63538057D02*
X101439799Y-63776152D01*
X101439799Y-63776152D02*
X101392180Y-63871390D01*
X101392180Y-63871390D02*
X101344560Y-63919009D01*
X101439799Y-62871390D02*
X101439799Y-62680914D01*
X101439799Y-62680914D02*
X101392180Y-62585676D01*
X101392180Y-62585676D02*
X101344560Y-62538057D01*
X101344560Y-62538057D02*
X101201703Y-62442819D01*
X101201703Y-62442819D02*
X101011227Y-62395200D01*
X101011227Y-62395200D02*
X100630275Y-62395200D01*
X100630275Y-62395200D02*
X100535037Y-62442819D01*
X100535037Y-62442819D02*
X100487418Y-62490438D01*
X100487418Y-62490438D02*
X100439799Y-62585676D01*
X100439799Y-62585676D02*
X100439799Y-62776152D01*
X100439799Y-62776152D02*
X100487418Y-62871390D01*
X100487418Y-62871390D02*
X100535037Y-62919009D01*
X100535037Y-62919009D02*
X100630275Y-62966628D01*
X100630275Y-62966628D02*
X100868370Y-62966628D01*
X100868370Y-62966628D02*
X100963608Y-62919009D01*
X100963608Y-62919009D02*
X101011227Y-62871390D01*
X101011227Y-62871390D02*
X101058846Y-62776152D01*
X101058846Y-62776152D02*
X101058846Y-62585676D01*
X101058846Y-62585676D02*
X101011227Y-62490438D01*
X101011227Y-62490438D02*
X100963608Y-62442819D01*
X100963608Y-62442819D02*
X100868370Y-62395200D01*
X101058846Y-61966628D02*
X101058846Y-61204724D01*
X100439799Y-60299962D02*
X100439799Y-60490438D01*
X100439799Y-60490438D02*
X100487418Y-60585676D01*
X100487418Y-60585676D02*
X100535037Y-60633295D01*
X100535037Y-60633295D02*
X100677894Y-60728533D01*
X100677894Y-60728533D02*
X100868370Y-60776152D01*
X100868370Y-60776152D02*
X101249322Y-60776152D01*
X101249322Y-60776152D02*
X101344560Y-60728533D01*
X101344560Y-60728533D02*
X101392180Y-60680914D01*
X101392180Y-60680914D02*
X101439799Y-60585676D01*
X101439799Y-60585676D02*
X101439799Y-60395200D01*
X101439799Y-60395200D02*
X101392180Y-60299962D01*
X101392180Y-60299962D02*
X101344560Y-60252343D01*
X101344560Y-60252343D02*
X101249322Y-60204724D01*
X101249322Y-60204724D02*
X101011227Y-60204724D01*
X101011227Y-60204724D02*
X100915989Y-60252343D01*
X100915989Y-60252343D02*
X100868370Y-60299962D01*
X100868370Y-60299962D02*
X100820751Y-60395200D01*
X100820751Y-60395200D02*
X100820751Y-60585676D01*
X100820751Y-60585676D02*
X100868370Y-60680914D01*
X100868370Y-60680914D02*
X100915989Y-60728533D01*
X100915989Y-60728533D02*
X101011227Y-60776152D01*
X100773132Y-59347581D02*
X101439799Y-59347581D01*
X100392180Y-59585676D02*
X101106465Y-59823771D01*
X101106465Y-59823771D02*
X101106465Y-59204724D01*
X101439799Y-58014247D02*
X101439799Y-57823771D01*
X101439799Y-57823771D02*
X101392180Y-57728533D01*
X101392180Y-57728533D02*
X101344560Y-57680914D01*
X101344560Y-57680914D02*
X101201703Y-57585676D01*
X101201703Y-57585676D02*
X101011227Y-57538057D01*
X101011227Y-57538057D02*
X100630275Y-57538057D01*
X100630275Y-57538057D02*
X100535037Y-57585676D01*
X100535037Y-57585676D02*
X100487418Y-57633295D01*
X100487418Y-57633295D02*
X100439799Y-57728533D01*
X100439799Y-57728533D02*
X100439799Y-57919009D01*
X100439799Y-57919009D02*
X100487418Y-58014247D01*
X100487418Y-58014247D02*
X100535037Y-58061866D01*
X100535037Y-58061866D02*
X100630275Y-58109485D01*
X100630275Y-58109485D02*
X100868370Y-58109485D01*
X100868370Y-58109485D02*
X100963608Y-58061866D01*
X100963608Y-58061866D02*
X101011227Y-58014247D01*
X101011227Y-58014247D02*
X101058846Y-57919009D01*
X101058846Y-57919009D02*
X101058846Y-57728533D01*
X101058846Y-57728533D02*
X101011227Y-57633295D01*
X101011227Y-57633295D02*
X100963608Y-57585676D01*
X100963608Y-57585676D02*
X100868370Y-57538057D01*
X100773132Y-56680914D02*
X101439799Y-56680914D01*
X100392180Y-56919009D02*
X101106465Y-57157104D01*
X101106465Y-57157104D02*
X101106465Y-56538057D01*
X101439799Y-56252342D02*
X100773132Y-55728533D01*
X100773132Y-56252342D02*
X101439799Y-55728533D01*
X101439799Y-54823771D02*
X101439799Y-55395199D01*
X101439799Y-55109485D02*
X100439799Y-55109485D01*
X100439799Y-55109485D02*
X100582656Y-55204723D01*
X100582656Y-55204723D02*
X100677894Y-55299961D01*
X100677894Y-55299961D02*
X100725513Y-55395199D01*
X101439799Y-53871390D02*
X101439799Y-54442818D01*
X101439799Y-54157104D02*
X100439799Y-54157104D01*
X100439799Y-54157104D02*
X100582656Y-54252342D01*
X100582656Y-54252342D02*
X100677894Y-54347580D01*
X100677894Y-54347580D02*
X100725513Y-54442818D01*
X100868370Y-53299961D02*
X100820751Y-53395199D01*
X100820751Y-53395199D02*
X100773132Y-53442818D01*
X100773132Y-53442818D02*
X100677894Y-53490437D01*
X100677894Y-53490437D02*
X100630275Y-53490437D01*
X100630275Y-53490437D02*
X100535037Y-53442818D01*
X100535037Y-53442818D02*
X100487418Y-53395199D01*
X100487418Y-53395199D02*
X100439799Y-53299961D01*
X100439799Y-53299961D02*
X100439799Y-53109485D01*
X100439799Y-53109485D02*
X100487418Y-53014247D01*
X100487418Y-53014247D02*
X100535037Y-52966628D01*
X100535037Y-52966628D02*
X100630275Y-52919009D01*
X100630275Y-52919009D02*
X100677894Y-52919009D01*
X100677894Y-52919009D02*
X100773132Y-52966628D01*
X100773132Y-52966628D02*
X100820751Y-53014247D01*
X100820751Y-53014247D02*
X100868370Y-53109485D01*
X100868370Y-53109485D02*
X100868370Y-53299961D01*
X100868370Y-53299961D02*
X100915989Y-53395199D01*
X100915989Y-53395199D02*
X100963608Y-53442818D01*
X100963608Y-53442818D02*
X101058846Y-53490437D01*
X101058846Y-53490437D02*
X101249322Y-53490437D01*
X101249322Y-53490437D02*
X101344560Y-53442818D01*
X101344560Y-53442818D02*
X101392180Y-53395199D01*
X101392180Y-53395199D02*
X101439799Y-53299961D01*
X101439799Y-53299961D02*
X101439799Y-53109485D01*
X101439799Y-53109485D02*
X101392180Y-53014247D01*
X101392180Y-53014247D02*
X101344560Y-52966628D01*
X101344560Y-52966628D02*
X101249322Y-52919009D01*
X101249322Y-52919009D02*
X101058846Y-52919009D01*
X101058846Y-52919009D02*
X100963608Y-52966628D01*
X100963608Y-52966628D02*
X100915989Y-53014247D01*
X100915989Y-53014247D02*
X100868370Y-53109485D01*
X100535037Y-51776151D02*
X100487418Y-51728532D01*
X100487418Y-51728532D02*
X100439799Y-51633294D01*
X100439799Y-51633294D02*
X100439799Y-51395199D01*
X100439799Y-51395199D02*
X100487418Y-51299961D01*
X100487418Y-51299961D02*
X100535037Y-51252342D01*
X100535037Y-51252342D02*
X100630275Y-51204723D01*
X100630275Y-51204723D02*
X100725513Y-51204723D01*
X100725513Y-51204723D02*
X100868370Y-51252342D01*
X100868370Y-51252342D02*
X101439799Y-51823770D01*
X101439799Y-51823770D02*
X101439799Y-51204723D01*
X100439799Y-50585675D02*
X100439799Y-50490437D01*
X100439799Y-50490437D02*
X100487418Y-50395199D01*
X100487418Y-50395199D02*
X100535037Y-50347580D01*
X100535037Y-50347580D02*
X100630275Y-50299961D01*
X100630275Y-50299961D02*
X100820751Y-50252342D01*
X100820751Y-50252342D02*
X101058846Y-50252342D01*
X101058846Y-50252342D02*
X101249322Y-50299961D01*
X101249322Y-50299961D02*
X101344560Y-50347580D01*
X101344560Y-50347580D02*
X101392180Y-50395199D01*
X101392180Y-50395199D02*
X101439799Y-50490437D01*
X101439799Y-50490437D02*
X101439799Y-50585675D01*
X101439799Y-50585675D02*
X101392180Y-50680913D01*
X101392180Y-50680913D02*
X101344560Y-50728532D01*
X101344560Y-50728532D02*
X101249322Y-50776151D01*
X101249322Y-50776151D02*
X101058846Y-50823770D01*
X101058846Y-50823770D02*
X100820751Y-50823770D01*
X100820751Y-50823770D02*
X100630275Y-50776151D01*
X100630275Y-50776151D02*
X100535037Y-50728532D01*
X100535037Y-50728532D02*
X100487418Y-50680913D01*
X100487418Y-50680913D02*
X100439799Y-50585675D01*
X101058846Y-49823770D02*
X101058846Y-49061866D01*
X100535037Y-48633294D02*
X100487418Y-48585675D01*
X100487418Y-48585675D02*
X100439799Y-48490437D01*
X100439799Y-48490437D02*
X100439799Y-48252342D01*
X100439799Y-48252342D02*
X100487418Y-48157104D01*
X100487418Y-48157104D02*
X100535037Y-48109485D01*
X100535037Y-48109485D02*
X100630275Y-48061866D01*
X100630275Y-48061866D02*
X100725513Y-48061866D01*
X100725513Y-48061866D02*
X100868370Y-48109485D01*
X100868370Y-48109485D02*
X101439799Y-48680913D01*
X101439799Y-48680913D02*
X101439799Y-48061866D01*
X101058846Y-47633294D02*
X101058846Y-46871390D01*
X101439799Y-46395199D02*
X100439799Y-46395199D01*
X100439799Y-46395199D02*
X100439799Y-46014247D01*
X100439799Y-46014247D02*
X100487418Y-45919009D01*
X100487418Y-45919009D02*
X100535037Y-45871390D01*
X100535037Y-45871390D02*
X100630275Y-45823771D01*
X100630275Y-45823771D02*
X100773132Y-45823771D01*
X100773132Y-45823771D02*
X100868370Y-45871390D01*
X100868370Y-45871390D02*
X100915989Y-45919009D01*
X100915989Y-45919009D02*
X100963608Y-46014247D01*
X100963608Y-46014247D02*
X100963608Y-46395199D01*
X138638656Y-34029829D02*
X138638656Y-34744114D01*
X138638656Y-34744114D02*
X138591037Y-34886971D01*
X138591037Y-34886971D02*
X138495799Y-34982210D01*
X138495799Y-34982210D02*
X138352942Y-35029829D01*
X138352942Y-35029829D02*
X138257704Y-35029829D01*
X139114847Y-35029829D02*
X139114847Y-34029829D01*
X139114847Y-34029829D02*
X139495799Y-34029829D01*
X139495799Y-34029829D02*
X139591037Y-34077448D01*
X139591037Y-34077448D02*
X139638656Y-34125067D01*
X139638656Y-34125067D02*
X139686275Y-34220305D01*
X139686275Y-34220305D02*
X139686275Y-34363162D01*
X139686275Y-34363162D02*
X139638656Y-34458400D01*
X139638656Y-34458400D02*
X139591037Y-34506019D01*
X139591037Y-34506019D02*
X139495799Y-34553638D01*
X139495799Y-34553638D02*
X139114847Y-34553638D01*
X140638656Y-35029829D02*
X140067228Y-35029829D01*
X140352942Y-35029829D02*
X140352942Y-34029829D01*
X140352942Y-34029829D02*
X140257704Y-34172686D01*
X140257704Y-34172686D02*
X140162466Y-34267924D01*
X140162466Y-34267924D02*
X140067228Y-34315543D01*
X199378809Y-42909343D02*
X200093094Y-42909343D01*
X200093094Y-42909343D02*
X200235951Y-42956962D01*
X200235951Y-42956962D02*
X200331190Y-43052200D01*
X200331190Y-43052200D02*
X200378809Y-43195057D01*
X200378809Y-43195057D02*
X200378809Y-43290295D01*
X199378809Y-42528390D02*
X199378809Y-41861724D01*
X199378809Y-41861724D02*
X200378809Y-42290295D01*
X205950999Y-61521820D02*
X205950999Y-61188487D01*
X206474809Y-61045630D02*
X206474809Y-61521820D01*
X206474809Y-61521820D02*
X205474809Y-61521820D01*
X205474809Y-61521820D02*
X205474809Y-61045630D01*
X206474809Y-60617058D02*
X205474809Y-60617058D01*
X205474809Y-60617058D02*
X205474809Y-60378963D01*
X205474809Y-60378963D02*
X205522428Y-60236106D01*
X205522428Y-60236106D02*
X205617666Y-60140868D01*
X205617666Y-60140868D02*
X205712904Y-60093249D01*
X205712904Y-60093249D02*
X205903380Y-60045630D01*
X205903380Y-60045630D02*
X206046237Y-60045630D01*
X206046237Y-60045630D02*
X206236713Y-60093249D01*
X206236713Y-60093249D02*
X206331951Y-60140868D01*
X206331951Y-60140868D02*
X206427190Y-60236106D01*
X206427190Y-60236106D02*
X206474809Y-60378963D01*
X206474809Y-60378963D02*
X206474809Y-60617058D01*
X205522428Y-59093249D02*
X205474809Y-59188487D01*
X205474809Y-59188487D02*
X205474809Y-59331344D01*
X205474809Y-59331344D02*
X205522428Y-59474201D01*
X205522428Y-59474201D02*
X205617666Y-59569439D01*
X205617666Y-59569439D02*
X205712904Y-59617058D01*
X205712904Y-59617058D02*
X205903380Y-59664677D01*
X205903380Y-59664677D02*
X206046237Y-59664677D01*
X206046237Y-59664677D02*
X206236713Y-59617058D01*
X206236713Y-59617058D02*
X206331951Y-59569439D01*
X206331951Y-59569439D02*
X206427190Y-59474201D01*
X206427190Y-59474201D02*
X206474809Y-59331344D01*
X206474809Y-59331344D02*
X206474809Y-59236106D01*
X206474809Y-59236106D02*
X206427190Y-59093249D01*
X206427190Y-59093249D02*
X206379570Y-59045630D01*
X206379570Y-59045630D02*
X206046237Y-59045630D01*
X206046237Y-59045630D02*
X206046237Y-59236106D01*
X205950999Y-58617058D02*
X205950999Y-58283725D01*
X206474809Y-58140868D02*
X206474809Y-58617058D01*
X206474809Y-58617058D02*
X205474809Y-58617058D01*
X205474809Y-58617058D02*
X205474809Y-58140868D01*
X206379570Y-56378963D02*
X206427190Y-56426582D01*
X206427190Y-56426582D02*
X206474809Y-56569439D01*
X206474809Y-56569439D02*
X206474809Y-56664677D01*
X206474809Y-56664677D02*
X206427190Y-56807534D01*
X206427190Y-56807534D02*
X206331951Y-56902772D01*
X206331951Y-56902772D02*
X206236713Y-56950391D01*
X206236713Y-56950391D02*
X206046237Y-56998010D01*
X206046237Y-56998010D02*
X205903380Y-56998010D01*
X205903380Y-56998010D02*
X205712904Y-56950391D01*
X205712904Y-56950391D02*
X205617666Y-56902772D01*
X205617666Y-56902772D02*
X205522428Y-56807534D01*
X205522428Y-56807534D02*
X205474809Y-56664677D01*
X205474809Y-56664677D02*
X205474809Y-56569439D01*
X205474809Y-56569439D02*
X205522428Y-56426582D01*
X205522428Y-56426582D02*
X205570047Y-56378963D01*
X206474809Y-55807534D02*
X206427190Y-55902772D01*
X206427190Y-55902772D02*
X206379570Y-55950391D01*
X206379570Y-55950391D02*
X206284332Y-55998010D01*
X206284332Y-55998010D02*
X205998618Y-55998010D01*
X205998618Y-55998010D02*
X205903380Y-55950391D01*
X205903380Y-55950391D02*
X205855761Y-55902772D01*
X205855761Y-55902772D02*
X205808142Y-55807534D01*
X205808142Y-55807534D02*
X205808142Y-55664677D01*
X205808142Y-55664677D02*
X205855761Y-55569439D01*
X205855761Y-55569439D02*
X205903380Y-55521820D01*
X205903380Y-55521820D02*
X205998618Y-55474201D01*
X205998618Y-55474201D02*
X206284332Y-55474201D01*
X206284332Y-55474201D02*
X206379570Y-55521820D01*
X206379570Y-55521820D02*
X206427190Y-55569439D01*
X206427190Y-55569439D02*
X206474809Y-55664677D01*
X206474809Y-55664677D02*
X206474809Y-55807534D01*
X205808142Y-55045629D02*
X206474809Y-55045629D01*
X205903380Y-55045629D02*
X205855761Y-54998010D01*
X205855761Y-54998010D02*
X205808142Y-54902772D01*
X205808142Y-54902772D02*
X205808142Y-54759915D01*
X205808142Y-54759915D02*
X205855761Y-54664677D01*
X205855761Y-54664677D02*
X205950999Y-54617058D01*
X205950999Y-54617058D02*
X206474809Y-54617058D01*
X205808142Y-54140867D02*
X206474809Y-54140867D01*
X205903380Y-54140867D02*
X205855761Y-54093248D01*
X205855761Y-54093248D02*
X205808142Y-53998010D01*
X205808142Y-53998010D02*
X205808142Y-53855153D01*
X205808142Y-53855153D02*
X205855761Y-53759915D01*
X205855761Y-53759915D02*
X205950999Y-53712296D01*
X205950999Y-53712296D02*
X206474809Y-53712296D01*
X206427190Y-52855153D02*
X206474809Y-52950391D01*
X206474809Y-52950391D02*
X206474809Y-53140867D01*
X206474809Y-53140867D02*
X206427190Y-53236105D01*
X206427190Y-53236105D02*
X206331951Y-53283724D01*
X206331951Y-53283724D02*
X205950999Y-53283724D01*
X205950999Y-53283724D02*
X205855761Y-53236105D01*
X205855761Y-53236105D02*
X205808142Y-53140867D01*
X205808142Y-53140867D02*
X205808142Y-52950391D01*
X205808142Y-52950391D02*
X205855761Y-52855153D01*
X205855761Y-52855153D02*
X205950999Y-52807534D01*
X205950999Y-52807534D02*
X206046237Y-52807534D01*
X206046237Y-52807534D02*
X206141475Y-53283724D01*
X206427190Y-51950391D02*
X206474809Y-52045629D01*
X206474809Y-52045629D02*
X206474809Y-52236105D01*
X206474809Y-52236105D02*
X206427190Y-52331343D01*
X206427190Y-52331343D02*
X206379570Y-52378962D01*
X206379570Y-52378962D02*
X206284332Y-52426581D01*
X206284332Y-52426581D02*
X205998618Y-52426581D01*
X205998618Y-52426581D02*
X205903380Y-52378962D01*
X205903380Y-52378962D02*
X205855761Y-52331343D01*
X205855761Y-52331343D02*
X205808142Y-52236105D01*
X205808142Y-52236105D02*
X205808142Y-52045629D01*
X205808142Y-52045629D02*
X205855761Y-51950391D01*
X205808142Y-51664676D02*
X205808142Y-51283724D01*
X205474809Y-51521819D02*
X206331951Y-51521819D01*
X206331951Y-51521819D02*
X206427190Y-51474200D01*
X206427190Y-51474200D02*
X206474809Y-51378962D01*
X206474809Y-51378962D02*
X206474809Y-51283724D01*
X206474809Y-50807533D02*
X206427190Y-50902771D01*
X206427190Y-50902771D02*
X206379570Y-50950390D01*
X206379570Y-50950390D02*
X206284332Y-50998009D01*
X206284332Y-50998009D02*
X205998618Y-50998009D01*
X205998618Y-50998009D02*
X205903380Y-50950390D01*
X205903380Y-50950390D02*
X205855761Y-50902771D01*
X205855761Y-50902771D02*
X205808142Y-50807533D01*
X205808142Y-50807533D02*
X205808142Y-50664676D01*
X205808142Y-50664676D02*
X205855761Y-50569438D01*
X205855761Y-50569438D02*
X205903380Y-50521819D01*
X205903380Y-50521819D02*
X205998618Y-50474200D01*
X205998618Y-50474200D02*
X206284332Y-50474200D01*
X206284332Y-50474200D02*
X206379570Y-50521819D01*
X206379570Y-50521819D02*
X206427190Y-50569438D01*
X206427190Y-50569438D02*
X206474809Y-50664676D01*
X206474809Y-50664676D02*
X206474809Y-50807533D01*
X206474809Y-50045628D02*
X205808142Y-50045628D01*
X205998618Y-50045628D02*
X205903380Y-49998009D01*
X205903380Y-49998009D02*
X205855761Y-49950390D01*
X205855761Y-49950390D02*
X205808142Y-49855152D01*
X205808142Y-49855152D02*
X205808142Y-49759914D01*
X206427190Y-48712294D02*
X206474809Y-48569437D01*
X206474809Y-48569437D02*
X206474809Y-48331342D01*
X206474809Y-48331342D02*
X206427190Y-48236104D01*
X206427190Y-48236104D02*
X206379570Y-48188485D01*
X206379570Y-48188485D02*
X206284332Y-48140866D01*
X206284332Y-48140866D02*
X206189094Y-48140866D01*
X206189094Y-48140866D02*
X206093856Y-48188485D01*
X206093856Y-48188485D02*
X206046237Y-48236104D01*
X206046237Y-48236104D02*
X205998618Y-48331342D01*
X205998618Y-48331342D02*
X205950999Y-48521818D01*
X205950999Y-48521818D02*
X205903380Y-48617056D01*
X205903380Y-48617056D02*
X205855761Y-48664675D01*
X205855761Y-48664675D02*
X205760523Y-48712294D01*
X205760523Y-48712294D02*
X205665285Y-48712294D01*
X205665285Y-48712294D02*
X205570047Y-48664675D01*
X205570047Y-48664675D02*
X205522428Y-48617056D01*
X205522428Y-48617056D02*
X205474809Y-48521818D01*
X205474809Y-48521818D02*
X205474809Y-48283723D01*
X205474809Y-48283723D02*
X205522428Y-48140866D01*
X206474809Y-47236104D02*
X206474809Y-47712294D01*
X206474809Y-47712294D02*
X205474809Y-47712294D01*
X205474809Y-46426580D02*
X205474809Y-46902770D01*
X205474809Y-46902770D02*
X205950999Y-46950389D01*
X205950999Y-46950389D02*
X205903380Y-46902770D01*
X205903380Y-46902770D02*
X205855761Y-46807532D01*
X205855761Y-46807532D02*
X205855761Y-46569437D01*
X205855761Y-46569437D02*
X205903380Y-46474199D01*
X205903380Y-46474199D02*
X205950999Y-46426580D01*
X205950999Y-46426580D02*
X206046237Y-46378961D01*
X206046237Y-46378961D02*
X206284332Y-46378961D01*
X206284332Y-46378961D02*
X206379570Y-46426580D01*
X206379570Y-46426580D02*
X206427190Y-46474199D01*
X206427190Y-46474199D02*
X206474809Y-46569437D01*
X206474809Y-46569437D02*
X206474809Y-46807532D01*
X206474809Y-46807532D02*
X206427190Y-46902770D01*
X206427190Y-46902770D02*
X206379570Y-46950389D01*
X205474809Y-45521818D02*
X205474809Y-45712294D01*
X205474809Y-45712294D02*
X205522428Y-45807532D01*
X205522428Y-45807532D02*
X205570047Y-45855151D01*
X205570047Y-45855151D02*
X205712904Y-45950389D01*
X205712904Y-45950389D02*
X205903380Y-45998008D01*
X205903380Y-45998008D02*
X206284332Y-45998008D01*
X206284332Y-45998008D02*
X206379570Y-45950389D01*
X206379570Y-45950389D02*
X206427190Y-45902770D01*
X206427190Y-45902770D02*
X206474809Y-45807532D01*
X206474809Y-45807532D02*
X206474809Y-45617056D01*
X206474809Y-45617056D02*
X206427190Y-45521818D01*
X206427190Y-45521818D02*
X206379570Y-45474199D01*
X206379570Y-45474199D02*
X206284332Y-45426580D01*
X206284332Y-45426580D02*
X206046237Y-45426580D01*
X206046237Y-45426580D02*
X205950999Y-45474199D01*
X205950999Y-45474199D02*
X205903380Y-45521818D01*
X205903380Y-45521818D02*
X205855761Y-45617056D01*
X205855761Y-45617056D02*
X205855761Y-45807532D01*
X205855761Y-45807532D02*
X205903380Y-45902770D01*
X205903380Y-45902770D02*
X205950999Y-45950389D01*
X205950999Y-45950389D02*
X206046237Y-45998008D01*
X126478323Y-24647590D02*
X126430704Y-24695210D01*
X126430704Y-24695210D02*
X126287847Y-24742829D01*
X126287847Y-24742829D02*
X126192609Y-24742829D01*
X126192609Y-24742829D02*
X126049752Y-24695210D01*
X126049752Y-24695210D02*
X125954514Y-24599971D01*
X125954514Y-24599971D02*
X125906895Y-24504733D01*
X125906895Y-24504733D02*
X125859276Y-24314257D01*
X125859276Y-24314257D02*
X125859276Y-24171400D01*
X125859276Y-24171400D02*
X125906895Y-23980924D01*
X125906895Y-23980924D02*
X125954514Y-23885686D01*
X125954514Y-23885686D02*
X126049752Y-23790448D01*
X126049752Y-23790448D02*
X126192609Y-23742829D01*
X126192609Y-23742829D02*
X126287847Y-23742829D01*
X126287847Y-23742829D02*
X126430704Y-23790448D01*
X126430704Y-23790448D02*
X126478323Y-23838067D01*
X127430704Y-24742829D02*
X126859276Y-24742829D01*
X127144990Y-24742829D02*
X127144990Y-23742829D01*
X127144990Y-23742829D02*
X127049752Y-23885686D01*
X127049752Y-23885686D02*
X126954514Y-23980924D01*
X126954514Y-23980924D02*
X126859276Y-24028543D01*
X122097275Y-31981829D02*
X121525847Y-31981829D01*
X121811561Y-31981829D02*
X121811561Y-30981829D01*
X121811561Y-30981829D02*
X121716323Y-31124686D01*
X121716323Y-31124686D02*
X121621085Y-31219924D01*
X121621085Y-31219924D02*
X121525847Y-31267543D01*
X122716323Y-30981829D02*
X122811561Y-30981829D01*
X122811561Y-30981829D02*
X122906799Y-31029448D01*
X122906799Y-31029448D02*
X122954418Y-31077067D01*
X122954418Y-31077067D02*
X123002037Y-31172305D01*
X123002037Y-31172305D02*
X123049656Y-31362781D01*
X123049656Y-31362781D02*
X123049656Y-31600876D01*
X123049656Y-31600876D02*
X123002037Y-31791352D01*
X123002037Y-31791352D02*
X122954418Y-31886590D01*
X122954418Y-31886590D02*
X122906799Y-31934210D01*
X122906799Y-31934210D02*
X122811561Y-31981829D01*
X122811561Y-31981829D02*
X122716323Y-31981829D01*
X122716323Y-31981829D02*
X122621085Y-31934210D01*
X122621085Y-31934210D02*
X122573466Y-31886590D01*
X122573466Y-31886590D02*
X122525847Y-31791352D01*
X122525847Y-31791352D02*
X122478228Y-31600876D01*
X122478228Y-31600876D02*
X122478228Y-31362781D01*
X122478228Y-31362781D02*
X122525847Y-31172305D01*
X122525847Y-31172305D02*
X122573466Y-31077067D01*
X122573466Y-31077067D02*
X122621085Y-31029448D01*
X122621085Y-31029448D02*
X122716323Y-30981829D01*
X123668704Y-30981829D02*
X123763942Y-30981829D01*
X123763942Y-30981829D02*
X123859180Y-31029448D01*
X123859180Y-31029448D02*
X123906799Y-31077067D01*
X123906799Y-31077067D02*
X123954418Y-31172305D01*
X123954418Y-31172305D02*
X124002037Y-31362781D01*
X124002037Y-31362781D02*
X124002037Y-31600876D01*
X124002037Y-31600876D02*
X123954418Y-31791352D01*
X123954418Y-31791352D02*
X123906799Y-31886590D01*
X123906799Y-31886590D02*
X123859180Y-31934210D01*
X123859180Y-31934210D02*
X123763942Y-31981829D01*
X123763942Y-31981829D02*
X123668704Y-31981829D01*
X123668704Y-31981829D02*
X123573466Y-31934210D01*
X123573466Y-31934210D02*
X123525847Y-31886590D01*
X123525847Y-31886590D02*
X123478228Y-31791352D01*
X123478228Y-31791352D02*
X123430609Y-31600876D01*
X123430609Y-31600876D02*
X123430609Y-31362781D01*
X123430609Y-31362781D02*
X123478228Y-31172305D01*
X123478228Y-31172305D02*
X123525847Y-31077067D01*
X123525847Y-31077067D02*
X123573466Y-31029448D01*
X123573466Y-31029448D02*
X123668704Y-30981829D01*
X124621085Y-30981829D02*
X124716323Y-30981829D01*
X124716323Y-30981829D02*
X124811561Y-31029448D01*
X124811561Y-31029448D02*
X124859180Y-31077067D01*
X124859180Y-31077067D02*
X124906799Y-31172305D01*
X124906799Y-31172305D02*
X124954418Y-31362781D01*
X124954418Y-31362781D02*
X124954418Y-31600876D01*
X124954418Y-31600876D02*
X124906799Y-31791352D01*
X124906799Y-31791352D02*
X124859180Y-31886590D01*
X124859180Y-31886590D02*
X124811561Y-31934210D01*
X124811561Y-31934210D02*
X124716323Y-31981829D01*
X124716323Y-31981829D02*
X124621085Y-31981829D01*
X124621085Y-31981829D02*
X124525847Y-31934210D01*
X124525847Y-31934210D02*
X124478228Y-31886590D01*
X124478228Y-31886590D02*
X124430609Y-31791352D01*
X124430609Y-31791352D02*
X124382990Y-31600876D01*
X124382990Y-31600876D02*
X124382990Y-31362781D01*
X124382990Y-31362781D02*
X124430609Y-31172305D01*
X124430609Y-31172305D02*
X124478228Y-31077067D01*
X124478228Y-31077067D02*
X124525847Y-31029448D01*
X124525847Y-31029448D02*
X124621085Y-30981829D01*
X125811561Y-31315162D02*
X125811561Y-31981829D01*
X125382990Y-31315162D02*
X125382990Y-31838971D01*
X125382990Y-31838971D02*
X125430609Y-31934210D01*
X125430609Y-31934210D02*
X125525847Y-31981829D01*
X125525847Y-31981829D02*
X125668704Y-31981829D01*
X125668704Y-31981829D02*
X125763942Y-31934210D01*
X125763942Y-31934210D02*
X125811561Y-31886590D01*
X126621085Y-31458019D02*
X126287752Y-31458019D01*
X126287752Y-31981829D02*
X126287752Y-30981829D01*
X126287752Y-30981829D02*
X126763942Y-30981829D01*
X128430609Y-31981829D02*
X127859181Y-31981829D01*
X128144895Y-31981829D02*
X128144895Y-30981829D01*
X128144895Y-30981829D02*
X128049657Y-31124686D01*
X128049657Y-31124686D02*
X127954419Y-31219924D01*
X127954419Y-31219924D02*
X127859181Y-31267543D01*
X129049657Y-30981829D02*
X129144895Y-30981829D01*
X129144895Y-30981829D02*
X129240133Y-31029448D01*
X129240133Y-31029448D02*
X129287752Y-31077067D01*
X129287752Y-31077067D02*
X129335371Y-31172305D01*
X129335371Y-31172305D02*
X129382990Y-31362781D01*
X129382990Y-31362781D02*
X129382990Y-31600876D01*
X129382990Y-31600876D02*
X129335371Y-31791352D01*
X129335371Y-31791352D02*
X129287752Y-31886590D01*
X129287752Y-31886590D02*
X129240133Y-31934210D01*
X129240133Y-31934210D02*
X129144895Y-31981829D01*
X129144895Y-31981829D02*
X129049657Y-31981829D01*
X129049657Y-31981829D02*
X128954419Y-31934210D01*
X128954419Y-31934210D02*
X128906800Y-31886590D01*
X128906800Y-31886590D02*
X128859181Y-31791352D01*
X128859181Y-31791352D02*
X128811562Y-31600876D01*
X128811562Y-31600876D02*
X128811562Y-31362781D01*
X128811562Y-31362781D02*
X128859181Y-31172305D01*
X128859181Y-31172305D02*
X128906800Y-31077067D01*
X128906800Y-31077067D02*
X128954419Y-31029448D01*
X128954419Y-31029448D02*
X129049657Y-30981829D01*
X129668705Y-30981829D02*
X130002038Y-31981829D01*
X130002038Y-31981829D02*
X130335371Y-30981829D01*
X175088219Y-40437733D02*
X175802504Y-40437733D01*
X175802504Y-40437733D02*
X175945361Y-40485352D01*
X175945361Y-40485352D02*
X176040600Y-40580590D01*
X176040600Y-40580590D02*
X176088219Y-40723447D01*
X176088219Y-40723447D02*
X176088219Y-40818685D01*
X175421552Y-39532971D02*
X176088219Y-39532971D01*
X175040600Y-39771066D02*
X175754885Y-40009161D01*
X175754885Y-40009161D02*
X175754885Y-39390114D01*
X185678570Y-66760295D02*
X185726190Y-66807914D01*
X185726190Y-66807914D02*
X185773809Y-66950771D01*
X185773809Y-66950771D02*
X185773809Y-67046009D01*
X185773809Y-67046009D02*
X185726190Y-67188866D01*
X185726190Y-67188866D02*
X185630951Y-67284104D01*
X185630951Y-67284104D02*
X185535713Y-67331723D01*
X185535713Y-67331723D02*
X185345237Y-67379342D01*
X185345237Y-67379342D02*
X185202380Y-67379342D01*
X185202380Y-67379342D02*
X185011904Y-67331723D01*
X185011904Y-67331723D02*
X184916666Y-67284104D01*
X184916666Y-67284104D02*
X184821428Y-67188866D01*
X184821428Y-67188866D02*
X184773809Y-67046009D01*
X184773809Y-67046009D02*
X184773809Y-66950771D01*
X184773809Y-66950771D02*
X184821428Y-66807914D01*
X184821428Y-66807914D02*
X184869047Y-66760295D01*
X185773809Y-66331723D02*
X184773809Y-66331723D01*
X185249999Y-66331723D02*
X185249999Y-65760295D01*
X185773809Y-65760295D02*
X184773809Y-65760295D01*
X185773809Y-65284104D02*
X184773809Y-65284104D01*
X184773809Y-65284104D02*
X184773809Y-64712676D01*
X184773809Y-64712676D02*
X185773809Y-64712676D01*
X184773809Y-63760295D02*
X184773809Y-64236485D01*
X184773809Y-64236485D02*
X185249999Y-64284104D01*
X185249999Y-64284104D02*
X185202380Y-64236485D01*
X185202380Y-64236485D02*
X185154761Y-64141247D01*
X185154761Y-64141247D02*
X185154761Y-63903152D01*
X185154761Y-63903152D02*
X185202380Y-63807914D01*
X185202380Y-63807914D02*
X185249999Y-63760295D01*
X185249999Y-63760295D02*
X185345237Y-63712676D01*
X185345237Y-63712676D02*
X185583332Y-63712676D01*
X185583332Y-63712676D02*
X185678570Y-63760295D01*
X185678570Y-63760295D02*
X185726190Y-63807914D01*
X185726190Y-63807914D02*
X185773809Y-63903152D01*
X185773809Y-63903152D02*
X185773809Y-64141247D01*
X185773809Y-64141247D02*
X185726190Y-64236485D01*
X185726190Y-64236485D02*
X185678570Y-64284104D01*
X185773809Y-63236485D02*
X185773809Y-63046009D01*
X185773809Y-63046009D02*
X185726190Y-62950771D01*
X185726190Y-62950771D02*
X185678570Y-62903152D01*
X185678570Y-62903152D02*
X185535713Y-62807914D01*
X185535713Y-62807914D02*
X185345237Y-62760295D01*
X185345237Y-62760295D02*
X184964285Y-62760295D01*
X184964285Y-62760295D02*
X184869047Y-62807914D01*
X184869047Y-62807914D02*
X184821428Y-62855533D01*
X184821428Y-62855533D02*
X184773809Y-62950771D01*
X184773809Y-62950771D02*
X184773809Y-63141247D01*
X184773809Y-63141247D02*
X184821428Y-63236485D01*
X184821428Y-63236485D02*
X184869047Y-63284104D01*
X184869047Y-63284104D02*
X184964285Y-63331723D01*
X184964285Y-63331723D02*
X185202380Y-63331723D01*
X185202380Y-63331723D02*
X185297618Y-63284104D01*
X185297618Y-63284104D02*
X185345237Y-63236485D01*
X185345237Y-63236485D02*
X185392856Y-63141247D01*
X185392856Y-63141247D02*
X185392856Y-62950771D01*
X185392856Y-62950771D02*
X185345237Y-62855533D01*
X185345237Y-62855533D02*
X185297618Y-62807914D01*
X185297618Y-62807914D02*
X185202380Y-62760295D01*
X185392856Y-62331723D02*
X185392856Y-61569819D01*
X184773809Y-60665057D02*
X184773809Y-60855533D01*
X184773809Y-60855533D02*
X184821428Y-60950771D01*
X184821428Y-60950771D02*
X184869047Y-60998390D01*
X184869047Y-60998390D02*
X185011904Y-61093628D01*
X185011904Y-61093628D02*
X185202380Y-61141247D01*
X185202380Y-61141247D02*
X185583332Y-61141247D01*
X185583332Y-61141247D02*
X185678570Y-61093628D01*
X185678570Y-61093628D02*
X185726190Y-61046009D01*
X185726190Y-61046009D02*
X185773809Y-60950771D01*
X185773809Y-60950771D02*
X185773809Y-60760295D01*
X185773809Y-60760295D02*
X185726190Y-60665057D01*
X185726190Y-60665057D02*
X185678570Y-60617438D01*
X185678570Y-60617438D02*
X185583332Y-60569819D01*
X185583332Y-60569819D02*
X185345237Y-60569819D01*
X185345237Y-60569819D02*
X185249999Y-60617438D01*
X185249999Y-60617438D02*
X185202380Y-60665057D01*
X185202380Y-60665057D02*
X185154761Y-60760295D01*
X185154761Y-60760295D02*
X185154761Y-60950771D01*
X185154761Y-60950771D02*
X185202380Y-61046009D01*
X185202380Y-61046009D02*
X185249999Y-61093628D01*
X185249999Y-61093628D02*
X185345237Y-61141247D01*
X185107142Y-59712676D02*
X185773809Y-59712676D01*
X184726190Y-59950771D02*
X185440475Y-60188866D01*
X185440475Y-60188866D02*
X185440475Y-59569819D01*
X185773809Y-58379342D02*
X185773809Y-58188866D01*
X185773809Y-58188866D02*
X185726190Y-58093628D01*
X185726190Y-58093628D02*
X185678570Y-58046009D01*
X185678570Y-58046009D02*
X185535713Y-57950771D01*
X185535713Y-57950771D02*
X185345237Y-57903152D01*
X185345237Y-57903152D02*
X184964285Y-57903152D01*
X184964285Y-57903152D02*
X184869047Y-57950771D01*
X184869047Y-57950771D02*
X184821428Y-57998390D01*
X184821428Y-57998390D02*
X184773809Y-58093628D01*
X184773809Y-58093628D02*
X184773809Y-58284104D01*
X184773809Y-58284104D02*
X184821428Y-58379342D01*
X184821428Y-58379342D02*
X184869047Y-58426961D01*
X184869047Y-58426961D02*
X184964285Y-58474580D01*
X184964285Y-58474580D02*
X185202380Y-58474580D01*
X185202380Y-58474580D02*
X185297618Y-58426961D01*
X185297618Y-58426961D02*
X185345237Y-58379342D01*
X185345237Y-58379342D02*
X185392856Y-58284104D01*
X185392856Y-58284104D02*
X185392856Y-58093628D01*
X185392856Y-58093628D02*
X185345237Y-57998390D01*
X185345237Y-57998390D02*
X185297618Y-57950771D01*
X185297618Y-57950771D02*
X185202380Y-57903152D01*
X185107142Y-57046009D02*
X185773809Y-57046009D01*
X184726190Y-57284104D02*
X185440475Y-57522199D01*
X185440475Y-57522199D02*
X185440475Y-56903152D01*
X185773809Y-56617437D02*
X185107142Y-56093628D01*
X185107142Y-56617437D02*
X185773809Y-56093628D01*
X185773809Y-55188866D02*
X185773809Y-55760294D01*
X185773809Y-55474580D02*
X184773809Y-55474580D01*
X184773809Y-55474580D02*
X184916666Y-55569818D01*
X184916666Y-55569818D02*
X185011904Y-55665056D01*
X185011904Y-55665056D02*
X185059523Y-55760294D01*
X185773809Y-54236485D02*
X185773809Y-54807913D01*
X185773809Y-54522199D02*
X184773809Y-54522199D01*
X184773809Y-54522199D02*
X184916666Y-54617437D01*
X184916666Y-54617437D02*
X185011904Y-54712675D01*
X185011904Y-54712675D02*
X185059523Y-54807913D01*
X185202380Y-53665056D02*
X185154761Y-53760294D01*
X185154761Y-53760294D02*
X185107142Y-53807913D01*
X185107142Y-53807913D02*
X185011904Y-53855532D01*
X185011904Y-53855532D02*
X184964285Y-53855532D01*
X184964285Y-53855532D02*
X184869047Y-53807913D01*
X184869047Y-53807913D02*
X184821428Y-53760294D01*
X184821428Y-53760294D02*
X184773809Y-53665056D01*
X184773809Y-53665056D02*
X184773809Y-53474580D01*
X184773809Y-53474580D02*
X184821428Y-53379342D01*
X184821428Y-53379342D02*
X184869047Y-53331723D01*
X184869047Y-53331723D02*
X184964285Y-53284104D01*
X184964285Y-53284104D02*
X185011904Y-53284104D01*
X185011904Y-53284104D02*
X185107142Y-53331723D01*
X185107142Y-53331723D02*
X185154761Y-53379342D01*
X185154761Y-53379342D02*
X185202380Y-53474580D01*
X185202380Y-53474580D02*
X185202380Y-53665056D01*
X185202380Y-53665056D02*
X185249999Y-53760294D01*
X185249999Y-53760294D02*
X185297618Y-53807913D01*
X185297618Y-53807913D02*
X185392856Y-53855532D01*
X185392856Y-53855532D02*
X185583332Y-53855532D01*
X185583332Y-53855532D02*
X185678570Y-53807913D01*
X185678570Y-53807913D02*
X185726190Y-53760294D01*
X185726190Y-53760294D02*
X185773809Y-53665056D01*
X185773809Y-53665056D02*
X185773809Y-53474580D01*
X185773809Y-53474580D02*
X185726190Y-53379342D01*
X185726190Y-53379342D02*
X185678570Y-53331723D01*
X185678570Y-53331723D02*
X185583332Y-53284104D01*
X185583332Y-53284104D02*
X185392856Y-53284104D01*
X185392856Y-53284104D02*
X185297618Y-53331723D01*
X185297618Y-53331723D02*
X185249999Y-53379342D01*
X185249999Y-53379342D02*
X185202380Y-53474580D01*
X185392856Y-52855532D02*
X185392856Y-52093628D01*
X184869047Y-51665056D02*
X184821428Y-51617437D01*
X184821428Y-51617437D02*
X184773809Y-51522199D01*
X184773809Y-51522199D02*
X184773809Y-51284104D01*
X184773809Y-51284104D02*
X184821428Y-51188866D01*
X184821428Y-51188866D02*
X184869047Y-51141247D01*
X184869047Y-51141247D02*
X184964285Y-51093628D01*
X184964285Y-51093628D02*
X185059523Y-51093628D01*
X185059523Y-51093628D02*
X185202380Y-51141247D01*
X185202380Y-51141247D02*
X185773809Y-51712675D01*
X185773809Y-51712675D02*
X185773809Y-51093628D01*
X185773809Y-50141247D02*
X185773809Y-50712675D01*
X185773809Y-50426961D02*
X184773809Y-50426961D01*
X184773809Y-50426961D02*
X184916666Y-50522199D01*
X184916666Y-50522199D02*
X185011904Y-50617437D01*
X185011904Y-50617437D02*
X185059523Y-50712675D01*
X185392856Y-49712675D02*
X185392856Y-48950771D01*
X184869047Y-48522199D02*
X184821428Y-48474580D01*
X184821428Y-48474580D02*
X184773809Y-48379342D01*
X184773809Y-48379342D02*
X184773809Y-48141247D01*
X184773809Y-48141247D02*
X184821428Y-48046009D01*
X184821428Y-48046009D02*
X184869047Y-47998390D01*
X184869047Y-47998390D02*
X184964285Y-47950771D01*
X184964285Y-47950771D02*
X185059523Y-47950771D01*
X185059523Y-47950771D02*
X185202380Y-47998390D01*
X185202380Y-47998390D02*
X185773809Y-48569818D01*
X185773809Y-48569818D02*
X185773809Y-47950771D01*
X185392856Y-47522199D02*
X185392856Y-46760295D01*
X185249999Y-45950771D02*
X185297618Y-45807914D01*
X185297618Y-45807914D02*
X185345237Y-45760295D01*
X185345237Y-45760295D02*
X185440475Y-45712676D01*
X185440475Y-45712676D02*
X185583332Y-45712676D01*
X185583332Y-45712676D02*
X185678570Y-45760295D01*
X185678570Y-45760295D02*
X185726190Y-45807914D01*
X185726190Y-45807914D02*
X185773809Y-45903152D01*
X185773809Y-45903152D02*
X185773809Y-46284104D01*
X185773809Y-46284104D02*
X184773809Y-46284104D01*
X184773809Y-46284104D02*
X184773809Y-45950771D01*
X184773809Y-45950771D02*
X184821428Y-45855533D01*
X184821428Y-45855533D02*
X184869047Y-45807914D01*
X184869047Y-45807914D02*
X184964285Y-45760295D01*
X184964285Y-45760295D02*
X185059523Y-45760295D01*
X185059523Y-45760295D02*
X185154761Y-45807914D01*
X185154761Y-45807914D02*
X185202380Y-45855533D01*
X185202380Y-45855533D02*
X185249999Y-45950771D01*
X185249999Y-45950771D02*
X185249999Y-46284104D01*
D11*
X179203414Y-34485457D02*
X179274842Y-34271171D01*
X179274842Y-34271171D02*
X179346271Y-34199742D01*
X179346271Y-34199742D02*
X179489128Y-34128314D01*
X179489128Y-34128314D02*
X179703414Y-34128314D01*
X179703414Y-34128314D02*
X179846271Y-34199742D01*
X179846271Y-34199742D02*
X179917700Y-34271171D01*
X179917700Y-34271171D02*
X179989128Y-34414028D01*
X179989128Y-34414028D02*
X179989128Y-34985457D01*
X179989128Y-34985457D02*
X178489128Y-34985457D01*
X178489128Y-34985457D02*
X178489128Y-34485457D01*
X178489128Y-34485457D02*
X178560557Y-34342600D01*
X178560557Y-34342600D02*
X178631985Y-34271171D01*
X178631985Y-34271171D02*
X178774842Y-34199742D01*
X178774842Y-34199742D02*
X178917700Y-34199742D01*
X178917700Y-34199742D02*
X179060557Y-34271171D01*
X179060557Y-34271171D02*
X179131985Y-34342600D01*
X179131985Y-34342600D02*
X179203414Y-34485457D01*
X179203414Y-34485457D02*
X179203414Y-34985457D01*
X182060557Y-34949742D02*
X182060557Y-34235457D01*
X182489128Y-35092599D02*
X180989128Y-34592599D01*
X180989128Y-34592599D02*
X182489128Y-34092599D01*
D13*
X172407019Y-44813906D02*
X172407019Y-45385334D01*
X172407019Y-45099620D02*
X171407019Y-45099620D01*
X171407019Y-45099620D02*
X171549876Y-45194858D01*
X171549876Y-45194858D02*
X171645114Y-45290096D01*
X171645114Y-45290096D02*
X171692733Y-45385334D01*
D11*
X172200728Y-125138685D02*
X172200728Y-124210113D01*
X172200728Y-124210113D02*
X172772157Y-124710113D01*
X172772157Y-124710113D02*
X172772157Y-124495828D01*
X172772157Y-124495828D02*
X172843585Y-124352971D01*
X172843585Y-124352971D02*
X172915014Y-124281542D01*
X172915014Y-124281542D02*
X173057871Y-124210113D01*
X173057871Y-124210113D02*
X173415014Y-124210113D01*
X173415014Y-124210113D02*
X173557871Y-124281542D01*
X173557871Y-124281542D02*
X173629300Y-124352971D01*
X173629300Y-124352971D02*
X173700728Y-124495828D01*
X173700728Y-124495828D02*
X173700728Y-124924399D01*
X173700728Y-124924399D02*
X173629300Y-125067256D01*
X173629300Y-125067256D02*
X173557871Y-125138685D01*
X172343585Y-123638685D02*
X172272157Y-123567257D01*
X172272157Y-123567257D02*
X172200728Y-123424400D01*
X172200728Y-123424400D02*
X172200728Y-123067257D01*
X172200728Y-123067257D02*
X172272157Y-122924400D01*
X172272157Y-122924400D02*
X172343585Y-122852971D01*
X172343585Y-122852971D02*
X172486442Y-122781542D01*
X172486442Y-122781542D02*
X172629300Y-122781542D01*
X172629300Y-122781542D02*
X172843585Y-122852971D01*
X172843585Y-122852971D02*
X173700728Y-123710114D01*
X173700728Y-123710114D02*
X173700728Y-122781542D01*
X177346271Y-34128314D02*
X177417700Y-34199742D01*
X177417700Y-34199742D02*
X177489128Y-34414028D01*
X177489128Y-34414028D02*
X177489128Y-34556885D01*
X177489128Y-34556885D02*
X177417700Y-34771171D01*
X177417700Y-34771171D02*
X177274842Y-34914028D01*
X177274842Y-34914028D02*
X177131985Y-34985457D01*
X177131985Y-34985457D02*
X176846271Y-35056885D01*
X176846271Y-35056885D02*
X176631985Y-35056885D01*
X176631985Y-35056885D02*
X176346271Y-34985457D01*
X176346271Y-34985457D02*
X176203414Y-34914028D01*
X176203414Y-34914028D02*
X176060557Y-34771171D01*
X176060557Y-34771171D02*
X175989128Y-34556885D01*
X175989128Y-34556885D02*
X175989128Y-34414028D01*
X175989128Y-34414028D02*
X176060557Y-34199742D01*
X176060557Y-34199742D02*
X176131985Y-34128314D01*
D10*
X188105419Y-26155829D02*
X188772085Y-26155829D01*
X188772085Y-26155829D02*
X188105419Y-27155829D01*
X188105419Y-27155829D02*
X188772085Y-27155829D01*
X189057800Y-26155829D02*
X189724466Y-27155829D01*
X189724466Y-26155829D02*
X189057800Y-27155829D01*
X190105419Y-26774876D02*
X190867324Y-26774876D01*
X191676847Y-26632019D02*
X191819704Y-26679638D01*
X191819704Y-26679638D02*
X191867323Y-26727257D01*
X191867323Y-26727257D02*
X191914942Y-26822495D01*
X191914942Y-26822495D02*
X191914942Y-26965352D01*
X191914942Y-26965352D02*
X191867323Y-27060590D01*
X191867323Y-27060590D02*
X191819704Y-27108210D01*
X191819704Y-27108210D02*
X191724466Y-27155829D01*
X191724466Y-27155829D02*
X191343514Y-27155829D01*
X191343514Y-27155829D02*
X191343514Y-26155829D01*
X191343514Y-26155829D02*
X191676847Y-26155829D01*
X191676847Y-26155829D02*
X191772085Y-26203448D01*
X191772085Y-26203448D02*
X191819704Y-26251067D01*
X191819704Y-26251067D02*
X191867323Y-26346305D01*
X191867323Y-26346305D02*
X191867323Y-26441543D01*
X191867323Y-26441543D02*
X191819704Y-26536781D01*
X191819704Y-26536781D02*
X191772085Y-26584400D01*
X191772085Y-26584400D02*
X191676847Y-26632019D01*
X191676847Y-26632019D02*
X191343514Y-26632019D01*
X192343514Y-26155829D02*
X192343514Y-26965352D01*
X192343514Y-26965352D02*
X192391133Y-27060590D01*
X192391133Y-27060590D02*
X192438752Y-27108210D01*
X192438752Y-27108210D02*
X192533990Y-27155829D01*
X192533990Y-27155829D02*
X192724466Y-27155829D01*
X192724466Y-27155829D02*
X192819704Y-27108210D01*
X192819704Y-27108210D02*
X192867323Y-27060590D01*
X192867323Y-27060590D02*
X192914942Y-26965352D01*
X192914942Y-26965352D02*
X192914942Y-26155829D01*
X193343514Y-27108210D02*
X193486371Y-27155829D01*
X193486371Y-27155829D02*
X193724466Y-27155829D01*
X193724466Y-27155829D02*
X193819704Y-27108210D01*
X193819704Y-27108210D02*
X193867323Y-27060590D01*
X193867323Y-27060590D02*
X193914942Y-26965352D01*
X193914942Y-26965352D02*
X193914942Y-26870114D01*
X193914942Y-26870114D02*
X193867323Y-26774876D01*
X193867323Y-26774876D02*
X193819704Y-26727257D01*
X193819704Y-26727257D02*
X193724466Y-26679638D01*
X193724466Y-26679638D02*
X193533990Y-26632019D01*
X193533990Y-26632019D02*
X193438752Y-26584400D01*
X193438752Y-26584400D02*
X193391133Y-26536781D01*
X193391133Y-26536781D02*
X193343514Y-26441543D01*
X193343514Y-26441543D02*
X193343514Y-26346305D01*
X193343514Y-26346305D02*
X193391133Y-26251067D01*
X193391133Y-26251067D02*
X193438752Y-26203448D01*
X193438752Y-26203448D02*
X193533990Y-26155829D01*
X193533990Y-26155829D02*
X193772085Y-26155829D01*
X193772085Y-26155829D02*
X193914942Y-26203448D01*
D14*
%TO.C,J3*%
X147504000Y-36175000D02*
X157504000Y-36175000D01*
D13*
X147504000Y-134675000D02*
X147504000Y-36175000D01*
D14*
X157504000Y-134675000D02*
X147504000Y-134675000D01*
D13*
X157504000Y-134675000D02*
X157504000Y-36175000D01*
D15*
X146829138Y-44295400D02*
G75*
G02*
X146160862Y-44295400I-334138J0D01*
G01*
X146160862Y-44295400D02*
G75*
G02*
X146829138Y-44295400I334138J0D01*
G01*
D14*
%TO.C,J2*%
X120804000Y-36175000D02*
X130804000Y-36175000D01*
D13*
X120804000Y-134675000D02*
X120804000Y-36175000D01*
D14*
X130804000Y-134675000D02*
X120804000Y-134675000D01*
D13*
X130804000Y-134675000D02*
X130804000Y-36175000D01*
D15*
X120129138Y-44295400D02*
G75*
G02*
X119460862Y-44295400I-334138J0D01*
G01*
X119460862Y-44295400D02*
G75*
G02*
X120129138Y-44295400I334138J0D01*
G01*
D14*
%TO.C,J5*%
X215204000Y-35975000D02*
X228004000Y-35975000D01*
X228004000Y-35975000D02*
X228004000Y-134475000D01*
X228004000Y-134475000D02*
X215204000Y-134475000D01*
D15*
X215538138Y-43475000D02*
G75*
G02*
X214869862Y-43475000I-334138J0D01*
G01*
X214869862Y-43475000D02*
G75*
G02*
X215538138Y-43475000I334138J0D01*
G01*
D13*
%TO.C,M31*%
X214693864Y-129317010D02*
G75*
G02*
X208268116Y-129317010I-3212874J0D01*
G01*
X208268116Y-129317010D02*
G75*
G02*
X214693864Y-129317010I3212874J0D01*
G01*
D14*
%TO.C,C2*%
X122755000Y-19042000D02*
X122755000Y-18727000D01*
X122755000Y-21467000D02*
X122755000Y-21152000D01*
X127995000Y-18727000D02*
X122755000Y-18727000D01*
X127995000Y-19042000D02*
X127995000Y-18727000D01*
X127995000Y-21467000D02*
X122755000Y-21467000D01*
X127995000Y-21467000D02*
X127995000Y-21152000D01*
%TO.C,J9*%
X116679000Y-27971000D02*
X116679000Y-20291000D01*
X119339000Y-20291000D02*
X116679000Y-20291000D01*
X119339000Y-27971000D02*
X116679000Y-27971000D01*
X119339000Y-27971000D02*
X119339000Y-20291000D01*
X119339000Y-29241000D02*
X119339000Y-30571000D01*
X119339000Y-30571000D02*
X118009000Y-30571000D01*
%TO.C,J8*%
X131966000Y-17719000D02*
X141166000Y-17719000D01*
X131966000Y-20239000D02*
X131966000Y-17719000D01*
X131966000Y-26139000D02*
X131966000Y-24839000D01*
X133966000Y-26139000D02*
X131966000Y-26139000D01*
X139766000Y-26439000D02*
X141466000Y-26439000D01*
X141166000Y-17719000D02*
X141166000Y-26139000D01*
X141166000Y-26139000D02*
X139166000Y-26139000D01*
X141466000Y-26439000D02*
X141466000Y-25139000D01*
D13*
%TO.C,M31*%
X168719864Y-129317010D02*
G75*
G02*
X162294116Y-129317010I-3212874J0D01*
G01*
X162294116Y-129317010D02*
G75*
G02*
X168719864Y-129317010I3212874J0D01*
G01*
D14*
%TO.C,JP1*%
X132173000Y-30451000D02*
X139913000Y-30451000D01*
X132173000Y-33111000D02*
X132173000Y-30451000D01*
X132173000Y-33111000D02*
X139913000Y-33111000D01*
X139913000Y-33111000D02*
X139913000Y-30451000D01*
D13*
%TO.C,M31*%
X214693864Y-32797010D02*
G75*
G02*
X208268116Y-32797010I-3212874J0D01*
G01*
X208268116Y-32797010D02*
G75*
G02*
X214693864Y-32797010I3212874J0D01*
G01*
X168719864Y-32797010D02*
G75*
G02*
X162294116Y-32797010I-3212874J0D01*
G01*
X162294116Y-32797010D02*
G75*
G02*
X168719864Y-32797010I3212874J0D01*
G01*
D16*
%TO.C,J7*%
X195479000Y-44735000D02*
X195479000Y-116363000D01*
X195479000Y-116363000D02*
X204623000Y-116363000D01*
X204623000Y-44735000D02*
X195479000Y-44735000D01*
X204623000Y-116363000D02*
X204623000Y-44735000D01*
D14*
%TO.C,C1*%
X121341100Y-27107000D02*
X121341100Y-26041000D01*
X121381100Y-27342000D02*
X121381100Y-25806000D01*
X121421100Y-27522000D02*
X121421100Y-25626000D01*
X121461100Y-27672000D02*
X121461100Y-25476000D01*
X121501100Y-27803000D02*
X121501100Y-25345000D01*
X121541100Y-27920000D02*
X121541100Y-25228000D01*
X121581100Y-28027000D02*
X121581100Y-25121000D01*
X121621100Y-28126000D02*
X121621100Y-25022000D01*
X121661100Y-28219000D02*
X121661100Y-24929000D01*
X121701100Y-28305000D02*
X121701100Y-24843000D01*
X121741100Y-28387000D02*
X121741100Y-24761000D01*
X121781100Y-28464000D02*
X121781100Y-24684000D01*
X121821100Y-28538000D02*
X121821100Y-24610000D01*
X121861100Y-28608000D02*
X121861100Y-24540000D01*
X121901100Y-25534000D02*
X121901100Y-24472000D01*
X121901100Y-28676000D02*
X121901100Y-27614000D01*
X121941100Y-25534000D02*
X121941100Y-24408000D01*
X121941100Y-28740000D02*
X121941100Y-27614000D01*
X121981100Y-25534000D02*
X121981100Y-24346000D01*
X121981100Y-28802000D02*
X121981100Y-27614000D01*
X122021100Y-25534000D02*
X122021100Y-24287000D01*
X122021100Y-28861000D02*
X122021100Y-27614000D01*
X122061100Y-25534000D02*
X122061100Y-24229000D01*
X122061100Y-28919000D02*
X122061100Y-27614000D01*
X122101100Y-25534000D02*
X122101100Y-24174000D01*
X122101100Y-28974000D02*
X122101100Y-27614000D01*
X122141100Y-25534000D02*
X122141100Y-24120000D01*
X122141100Y-29028000D02*
X122141100Y-27614000D01*
X122181100Y-25534000D02*
X122181100Y-24069000D01*
X122181100Y-29079000D02*
X122181100Y-27614000D01*
X122221100Y-25534000D02*
X122221100Y-24018000D01*
X122221100Y-29130000D02*
X122221100Y-27614000D01*
X122261100Y-25534000D02*
X122261100Y-23970000D01*
X122261100Y-29178000D02*
X122261100Y-27614000D01*
X122301100Y-25534000D02*
X122301100Y-23923000D01*
X122301100Y-29225000D02*
X122301100Y-27614000D01*
X122341100Y-25534000D02*
X122341100Y-23877000D01*
X122341100Y-29271000D02*
X122341100Y-27614000D01*
X122381100Y-25534000D02*
X122381100Y-23833000D01*
X122381100Y-29315000D02*
X122381100Y-27614000D01*
X122421100Y-25534000D02*
X122421100Y-23790000D01*
X122421100Y-29358000D02*
X122421100Y-27614000D01*
X122461100Y-25534000D02*
X122461100Y-23748000D01*
X122461100Y-29400000D02*
X122461100Y-27614000D01*
X122501100Y-25534000D02*
X122501100Y-23707000D01*
X122501100Y-29441000D02*
X122501100Y-27614000D01*
X122541100Y-25534000D02*
X122541100Y-23667000D01*
X122541100Y-29481000D02*
X122541100Y-27614000D01*
X122581100Y-25534000D02*
X122581100Y-23629000D01*
X122581100Y-29519000D02*
X122581100Y-27614000D01*
X122621100Y-25534000D02*
X122621100Y-23591000D01*
X122621100Y-29557000D02*
X122621100Y-27614000D01*
X122661100Y-25534000D02*
X122661100Y-23555000D01*
X122661100Y-29593000D02*
X122661100Y-27614000D01*
X122701100Y-25534000D02*
X122701100Y-23519000D01*
X122701100Y-29629000D02*
X122701100Y-27614000D01*
X122741100Y-25534000D02*
X122741100Y-23484000D01*
X122741100Y-29664000D02*
X122741100Y-27614000D01*
X122781100Y-25534000D02*
X122781100Y-23450000D01*
X122781100Y-29698000D02*
X122781100Y-27614000D01*
X122821100Y-25534000D02*
X122821100Y-23418000D01*
X122821100Y-29730000D02*
X122821100Y-27614000D01*
X122861100Y-25534000D02*
X122861100Y-23385000D01*
X122861100Y-29763000D02*
X122861100Y-27614000D01*
X122901100Y-25534000D02*
X122901100Y-23354000D01*
X122901100Y-29794000D02*
X122901100Y-27614000D01*
X122941100Y-25534000D02*
X122941100Y-23324000D01*
X122941100Y-29824000D02*
X122941100Y-27614000D01*
X122981100Y-25534000D02*
X122981100Y-23294000D01*
X122981100Y-29854000D02*
X122981100Y-27614000D01*
X123021100Y-25534000D02*
X123021100Y-23265000D01*
X123021100Y-29883000D02*
X123021100Y-27614000D01*
X123061100Y-25534000D02*
X123061100Y-23236000D01*
X123061100Y-29912000D02*
X123061100Y-27614000D01*
X123101100Y-25534000D02*
X123101100Y-23209000D01*
X123101100Y-29939000D02*
X123101100Y-27614000D01*
X123141100Y-25534000D02*
X123141100Y-23182000D01*
X123141100Y-29966000D02*
X123141100Y-27614000D01*
X123181100Y-25534000D02*
X123181100Y-23156000D01*
X123181100Y-29992000D02*
X123181100Y-27614000D01*
X123221100Y-25534000D02*
X123221100Y-23130000D01*
X123221100Y-30018000D02*
X123221100Y-27614000D01*
X123261100Y-25534000D02*
X123261100Y-23105000D01*
X123261100Y-30043000D02*
X123261100Y-27614000D01*
X123301100Y-25534000D02*
X123301100Y-23081000D01*
X123301100Y-30067000D02*
X123301100Y-27614000D01*
X123341100Y-25534000D02*
X123341100Y-23057000D01*
X123341100Y-30091000D02*
X123341100Y-27614000D01*
X123381100Y-25534000D02*
X123381100Y-23034000D01*
X123381100Y-30114000D02*
X123381100Y-27614000D01*
X123421100Y-25534000D02*
X123421100Y-23012000D01*
X123421100Y-30136000D02*
X123421100Y-27614000D01*
X123461100Y-25534000D02*
X123461100Y-22990000D01*
X123461100Y-30158000D02*
X123461100Y-27614000D01*
X123501100Y-25534000D02*
X123501100Y-22968000D01*
X123501100Y-30180000D02*
X123501100Y-27614000D01*
X123541100Y-25534000D02*
X123541100Y-22947000D01*
X123541100Y-30201000D02*
X123541100Y-27614000D01*
X123581100Y-25534000D02*
X123581100Y-22927000D01*
X123581100Y-30221000D02*
X123581100Y-27614000D01*
X123621100Y-25534000D02*
X123621100Y-22908000D01*
X123621100Y-30240000D02*
X123621100Y-27614000D01*
X123661100Y-25534000D02*
X123661100Y-22888000D01*
X123661100Y-30260000D02*
X123661100Y-27614000D01*
X123701100Y-25534000D02*
X123701100Y-22870000D01*
X123701100Y-30278000D02*
X123701100Y-27614000D01*
X123741100Y-25534000D02*
X123741100Y-22852000D01*
X123741100Y-30296000D02*
X123741100Y-27614000D01*
X123781100Y-25534000D02*
X123781100Y-22834000D01*
X123781100Y-30314000D02*
X123781100Y-27614000D01*
X123821100Y-25534000D02*
X123821100Y-22817000D01*
X123821100Y-30331000D02*
X123821100Y-27614000D01*
X123861100Y-25534000D02*
X123861100Y-22800000D01*
X123861100Y-30348000D02*
X123861100Y-27614000D01*
X123901100Y-25534000D02*
X123901100Y-22784000D01*
X123901100Y-30364000D02*
X123901100Y-27614000D01*
X123941100Y-25534000D02*
X123941100Y-22769000D01*
X123941100Y-30379000D02*
X123941100Y-27614000D01*
X123981100Y-30395000D02*
X123981100Y-22753000D01*
X124021100Y-30409000D02*
X124021100Y-22739000D01*
X124061100Y-30424000D02*
X124061100Y-22724000D01*
X124101100Y-30437000D02*
X124101100Y-22711000D01*
X124141100Y-30451000D02*
X124141100Y-22697000D01*
X124181100Y-30463000D02*
X124181100Y-22685000D01*
X124221100Y-30476000D02*
X124221100Y-22672000D01*
X124261100Y-30488000D02*
X124261100Y-22660000D01*
X124301100Y-30499000D02*
X124301100Y-22649000D01*
X124341100Y-30510000D02*
X124341100Y-22638000D01*
X124381100Y-30521000D02*
X124381100Y-22627000D01*
X124421100Y-30531000D02*
X124421100Y-22617000D01*
X124461100Y-30541000D02*
X124461100Y-22607000D01*
X124501100Y-30550000D02*
X124501100Y-22598000D01*
X124541100Y-30559000D02*
X124541100Y-22589000D01*
X124581100Y-30568000D02*
X124581100Y-22580000D01*
X124621100Y-30576000D02*
X124621100Y-22572000D01*
X124661100Y-30584000D02*
X124661100Y-22564000D01*
X124701100Y-30591000D02*
X124701100Y-22557000D01*
X124742100Y-30598000D02*
X124742100Y-22550000D01*
X124782100Y-30604000D02*
X124782100Y-22544000D01*
X124822100Y-30611000D02*
X124822100Y-22537000D01*
X124862100Y-30616000D02*
X124862100Y-22532000D01*
X124902100Y-30622000D02*
X124902100Y-22526000D01*
X124942100Y-30626000D02*
X124942100Y-22522000D01*
X124982100Y-30631000D02*
X124982100Y-22517000D01*
X125022100Y-30635000D02*
X125022100Y-22513000D01*
X125062100Y-30639000D02*
X125062100Y-22509000D01*
X125102100Y-30642000D02*
X125102100Y-22506000D01*
X125142100Y-30645000D02*
X125142100Y-22503000D01*
X125182100Y-30648000D02*
X125182100Y-22500000D01*
X125222100Y-30650000D02*
X125222100Y-22498000D01*
X125262100Y-30651000D02*
X125262100Y-22497000D01*
X125302100Y-30653000D02*
X125302100Y-22495000D01*
X125342100Y-30654000D02*
X125342100Y-22494000D01*
X125382100Y-30654000D02*
X125382100Y-22494000D01*
X125422100Y-30654000D02*
X125422100Y-22494000D01*
X129431798Y-29289000D02*
X129431798Y-28489000D01*
X129831798Y-28889000D02*
X129031798Y-28889000D01*
X129542100Y-26574000D02*
G75*
G02*
X121302100Y-26574000I-4120000J0D01*
G01*
X121302100Y-26574000D02*
G75*
G02*
X129542100Y-26574000I4120000J0D01*
G01*
%TO.C,J4*%
X174204000Y-36175000D02*
X184204000Y-36175000D01*
D13*
X174204000Y-134675000D02*
X174204000Y-36175000D01*
D14*
X184204000Y-134675000D02*
X174204000Y-134675000D01*
D13*
X184204000Y-134675000D02*
X184204000Y-36175000D01*
D15*
X173529138Y-44295400D02*
G75*
G02*
X172860862Y-44295400I-334138J0D01*
G01*
X172860862Y-44295400D02*
G75*
G02*
X173529138Y-44295400I334138J0D01*
G01*
%TD*%
M02*
