%TF.GenerationSoftware,KiCad,Pcbnew,7.0.10*%
%TF.CreationDate,2026-02-25T18:36:38+03:00*%
%TF.ProjectId,deltas_backplane,64656c74-6173-45f6-9261-636b706c616e,rev?*%
%TF.SameCoordinates,Original*%
%TF.FileFunction,Drillmap*%
%TF.FilePolarity,Positive*%
%FSLAX45Y45*%
G04 Gerber Fmt 4.5, Leading zero omitted, Abs format (unit mm)*
G04 Created by KiCad (PCBNEW 7.0.10) date 2026-02-25 18:36:38*
%MOMM*%
%LPD*%
G01*
G04 APERTURE LIST*
%ADD10C,0.100000*%
%ADD11C,0.200000*%
%ADD12C,0.320000*%
G04 APERTURE END LIST*
D10*
X16571199Y-2564352D02*
X16571199Y-1624552D01*
X16774399Y-2564352D02*
X16571199Y-2564352D01*
X22818000Y-13500000D02*
X8519798Y-13500000D01*
X15401199Y-1624549D02*
G75*
G03*
X15301199Y-1724552I1J-100001D01*
G01*
X14239299Y-3017701D02*
X15301199Y-3017701D01*
X15301199Y-1724552D02*
X15301199Y-3017701D01*
X14239299Y-1656352D02*
X11500000Y-1656352D01*
X16571199Y-1624552D02*
X15401199Y-1624552D01*
X16774399Y-1624552D02*
X16774399Y-2564352D01*
X22818000Y-1624552D02*
X16774399Y-1624552D01*
X11500000Y-3630402D02*
X11500000Y-1656352D01*
X22818000Y-1624552D02*
X22818000Y-13500000D01*
X8519798Y-3630402D02*
X8519798Y-13500000D01*
X8519798Y-3630402D02*
X11500000Y-3630402D01*
X14239299Y-1656352D02*
X14239299Y-3017701D01*
D11*
D12*
X16390699Y-3119701D02*
X16710699Y-3439701D01*
X16710699Y-3119701D02*
X16390699Y-3439701D01*
X16390699Y-12771701D02*
X16710699Y-13091701D01*
X16710699Y-12771701D02*
X16390699Y-13091701D01*
X20988099Y-3119701D02*
X21308099Y-3439701D01*
X21308099Y-3119701D02*
X20988099Y-3439701D01*
X20988099Y-12771701D02*
X21308099Y-13091701D01*
X21308099Y-12771701D02*
X20988099Y-13091701D01*
D11*
X8775575Y-13816484D02*
X8775575Y-13616484D01*
X8775575Y-13616484D02*
X8823194Y-13616484D01*
X8823194Y-13616484D02*
X8851765Y-13626008D01*
X8851765Y-13626008D02*
X8870813Y-13645055D01*
X8870813Y-13645055D02*
X8880337Y-13664103D01*
X8880337Y-13664103D02*
X8889861Y-13702198D01*
X8889861Y-13702198D02*
X8889861Y-13730769D01*
X8889861Y-13730769D02*
X8880337Y-13768865D01*
X8880337Y-13768865D02*
X8870813Y-13787912D01*
X8870813Y-13787912D02*
X8851765Y-13806960D01*
X8851765Y-13806960D02*
X8823194Y-13816484D01*
X8823194Y-13816484D02*
X8775575Y-13816484D01*
X8975575Y-13816484D02*
X8975575Y-13683150D01*
X8975575Y-13721246D02*
X8985099Y-13702198D01*
X8985099Y-13702198D02*
X8994622Y-13692674D01*
X8994622Y-13692674D02*
X9013670Y-13683150D01*
X9013670Y-13683150D02*
X9032718Y-13683150D01*
X9099384Y-13816484D02*
X9099384Y-13683150D01*
X9099384Y-13616484D02*
X9089861Y-13626008D01*
X9089861Y-13626008D02*
X9099384Y-13635531D01*
X9099384Y-13635531D02*
X9108908Y-13626008D01*
X9108908Y-13626008D02*
X9099384Y-13616484D01*
X9099384Y-13616484D02*
X9099384Y-13635531D01*
X9223194Y-13816484D02*
X9204146Y-13806960D01*
X9204146Y-13806960D02*
X9194622Y-13787912D01*
X9194622Y-13787912D02*
X9194622Y-13616484D01*
X9327956Y-13816484D02*
X9308908Y-13806960D01*
X9308908Y-13806960D02*
X9299384Y-13787912D01*
X9299384Y-13787912D02*
X9299384Y-13616484D01*
X9556527Y-13816484D02*
X9556527Y-13616484D01*
X9556527Y-13616484D02*
X9623194Y-13759341D01*
X9623194Y-13759341D02*
X9689861Y-13616484D01*
X9689861Y-13616484D02*
X9689861Y-13816484D01*
X9870813Y-13816484D02*
X9870813Y-13711722D01*
X9870813Y-13711722D02*
X9861289Y-13692674D01*
X9861289Y-13692674D02*
X9842242Y-13683150D01*
X9842242Y-13683150D02*
X9804146Y-13683150D01*
X9804146Y-13683150D02*
X9785099Y-13692674D01*
X9870813Y-13806960D02*
X9851765Y-13816484D01*
X9851765Y-13816484D02*
X9804146Y-13816484D01*
X9804146Y-13816484D02*
X9785099Y-13806960D01*
X9785099Y-13806960D02*
X9775575Y-13787912D01*
X9775575Y-13787912D02*
X9775575Y-13768865D01*
X9775575Y-13768865D02*
X9785099Y-13749817D01*
X9785099Y-13749817D02*
X9804146Y-13740293D01*
X9804146Y-13740293D02*
X9851765Y-13740293D01*
X9851765Y-13740293D02*
X9870813Y-13730769D01*
X9966051Y-13683150D02*
X9966051Y-13883150D01*
X9966051Y-13692674D02*
X9985099Y-13683150D01*
X9985099Y-13683150D02*
X10023194Y-13683150D01*
X10023194Y-13683150D02*
X10042242Y-13692674D01*
X10042242Y-13692674D02*
X10051765Y-13702198D01*
X10051765Y-13702198D02*
X10061289Y-13721246D01*
X10061289Y-13721246D02*
X10061289Y-13778388D01*
X10061289Y-13778388D02*
X10051765Y-13797436D01*
X10051765Y-13797436D02*
X10042242Y-13806960D01*
X10042242Y-13806960D02*
X10023194Y-13816484D01*
X10023194Y-13816484D02*
X9985099Y-13816484D01*
X9985099Y-13816484D02*
X9966051Y-13806960D01*
X10147003Y-13797436D02*
X10156527Y-13806960D01*
X10156527Y-13806960D02*
X10147003Y-13816484D01*
X10147003Y-13816484D02*
X10137480Y-13806960D01*
X10137480Y-13806960D02*
X10147003Y-13797436D01*
X10147003Y-13797436D02*
X10147003Y-13816484D01*
X10147003Y-13692674D02*
X10156527Y-13702198D01*
X10156527Y-13702198D02*
X10147003Y-13711722D01*
X10147003Y-13711722D02*
X10137480Y-13702198D01*
X10137480Y-13702198D02*
X10147003Y-13692674D01*
X10147003Y-13692674D02*
X10147003Y-13711722D01*
X8314798Y-14045000D02*
X8514798Y-14245000D01*
X8514798Y-14045000D02*
X8314798Y-14245000D01*
X8756527Y-14036484D02*
X8880337Y-14036484D01*
X8880337Y-14036484D02*
X8813670Y-14112674D01*
X8813670Y-14112674D02*
X8842242Y-14112674D01*
X8842242Y-14112674D02*
X8861289Y-14122198D01*
X8861289Y-14122198D02*
X8870813Y-14131722D01*
X8870813Y-14131722D02*
X8880337Y-14150769D01*
X8880337Y-14150769D02*
X8880337Y-14198388D01*
X8880337Y-14198388D02*
X8870813Y-14217436D01*
X8870813Y-14217436D02*
X8861289Y-14226960D01*
X8861289Y-14226960D02*
X8842242Y-14236484D01*
X8842242Y-14236484D02*
X8785099Y-14236484D01*
X8785099Y-14236484D02*
X8766051Y-14226960D01*
X8766051Y-14226960D02*
X8756527Y-14217436D01*
X8966051Y-14217436D02*
X8975575Y-14226960D01*
X8975575Y-14226960D02*
X8966051Y-14236484D01*
X8966051Y-14236484D02*
X8956527Y-14226960D01*
X8956527Y-14226960D02*
X8966051Y-14217436D01*
X8966051Y-14217436D02*
X8966051Y-14236484D01*
X9051765Y-14055531D02*
X9061289Y-14046008D01*
X9061289Y-14046008D02*
X9080337Y-14036484D01*
X9080337Y-14036484D02*
X9127956Y-14036484D01*
X9127956Y-14036484D02*
X9147003Y-14046008D01*
X9147003Y-14046008D02*
X9156527Y-14055531D01*
X9156527Y-14055531D02*
X9166051Y-14074579D01*
X9166051Y-14074579D02*
X9166051Y-14093627D01*
X9166051Y-14093627D02*
X9156527Y-14122198D01*
X9156527Y-14122198D02*
X9042242Y-14236484D01*
X9042242Y-14236484D02*
X9166051Y-14236484D01*
X9289861Y-14036484D02*
X9308908Y-14036484D01*
X9308908Y-14036484D02*
X9327956Y-14046008D01*
X9327956Y-14046008D02*
X9337480Y-14055531D01*
X9337480Y-14055531D02*
X9347003Y-14074579D01*
X9347003Y-14074579D02*
X9356527Y-14112674D01*
X9356527Y-14112674D02*
X9356527Y-14160293D01*
X9356527Y-14160293D02*
X9347003Y-14198388D01*
X9347003Y-14198388D02*
X9337480Y-14217436D01*
X9337480Y-14217436D02*
X9327956Y-14226960D01*
X9327956Y-14226960D02*
X9308908Y-14236484D01*
X9308908Y-14236484D02*
X9289861Y-14236484D01*
X9289861Y-14236484D02*
X9270813Y-14226960D01*
X9270813Y-14226960D02*
X9261289Y-14217436D01*
X9261289Y-14217436D02*
X9251765Y-14198388D01*
X9251765Y-14198388D02*
X9242242Y-14160293D01*
X9242242Y-14160293D02*
X9242242Y-14112674D01*
X9242242Y-14112674D02*
X9251765Y-14074579D01*
X9251765Y-14074579D02*
X9261289Y-14055531D01*
X9261289Y-14055531D02*
X9270813Y-14046008D01*
X9270813Y-14046008D02*
X9289861Y-14036484D01*
X9480337Y-14036484D02*
X9499384Y-14036484D01*
X9499384Y-14036484D02*
X9518432Y-14046008D01*
X9518432Y-14046008D02*
X9527956Y-14055531D01*
X9527956Y-14055531D02*
X9537480Y-14074579D01*
X9537480Y-14074579D02*
X9547003Y-14112674D01*
X9547003Y-14112674D02*
X9547003Y-14160293D01*
X9547003Y-14160293D02*
X9537480Y-14198388D01*
X9537480Y-14198388D02*
X9527956Y-14217436D01*
X9527956Y-14217436D02*
X9518432Y-14226960D01*
X9518432Y-14226960D02*
X9499384Y-14236484D01*
X9499384Y-14236484D02*
X9480337Y-14236484D01*
X9480337Y-14236484D02*
X9461289Y-14226960D01*
X9461289Y-14226960D02*
X9451765Y-14217436D01*
X9451765Y-14217436D02*
X9442242Y-14198388D01*
X9442242Y-14198388D02*
X9432718Y-14160293D01*
X9432718Y-14160293D02*
X9432718Y-14112674D01*
X9432718Y-14112674D02*
X9442242Y-14074579D01*
X9442242Y-14074579D02*
X9451765Y-14055531D01*
X9451765Y-14055531D02*
X9461289Y-14046008D01*
X9461289Y-14046008D02*
X9480337Y-14036484D01*
X9632718Y-14236484D02*
X9632718Y-14103150D01*
X9632718Y-14122198D02*
X9642242Y-14112674D01*
X9642242Y-14112674D02*
X9661289Y-14103150D01*
X9661289Y-14103150D02*
X9689861Y-14103150D01*
X9689861Y-14103150D02*
X9708908Y-14112674D01*
X9708908Y-14112674D02*
X9718432Y-14131722D01*
X9718432Y-14131722D02*
X9718432Y-14236484D01*
X9718432Y-14131722D02*
X9727956Y-14112674D01*
X9727956Y-14112674D02*
X9747003Y-14103150D01*
X9747003Y-14103150D02*
X9775575Y-14103150D01*
X9775575Y-14103150D02*
X9794623Y-14112674D01*
X9794623Y-14112674D02*
X9804146Y-14131722D01*
X9804146Y-14131722D02*
X9804146Y-14236484D01*
X9899384Y-14236484D02*
X9899384Y-14103150D01*
X9899384Y-14122198D02*
X9908908Y-14112674D01*
X9908908Y-14112674D02*
X9927956Y-14103150D01*
X9927956Y-14103150D02*
X9956527Y-14103150D01*
X9956527Y-14103150D02*
X9975575Y-14112674D01*
X9975575Y-14112674D02*
X9985099Y-14131722D01*
X9985099Y-14131722D02*
X9985099Y-14236484D01*
X9985099Y-14131722D02*
X9994623Y-14112674D01*
X9994623Y-14112674D02*
X10013670Y-14103150D01*
X10013670Y-14103150D02*
X10042242Y-14103150D01*
X10042242Y-14103150D02*
X10061289Y-14112674D01*
X10061289Y-14112674D02*
X10070813Y-14131722D01*
X10070813Y-14131722D02*
X10070813Y-14236484D01*
X10461289Y-14026960D02*
X10289861Y-14284103D01*
X10718432Y-14036484D02*
X10737480Y-14036484D01*
X10737480Y-14036484D02*
X10756527Y-14046008D01*
X10756527Y-14046008D02*
X10766051Y-14055531D01*
X10766051Y-14055531D02*
X10775575Y-14074579D01*
X10775575Y-14074579D02*
X10785099Y-14112674D01*
X10785099Y-14112674D02*
X10785099Y-14160293D01*
X10785099Y-14160293D02*
X10775575Y-14198388D01*
X10775575Y-14198388D02*
X10766051Y-14217436D01*
X10766051Y-14217436D02*
X10756527Y-14226960D01*
X10756527Y-14226960D02*
X10737480Y-14236484D01*
X10737480Y-14236484D02*
X10718432Y-14236484D01*
X10718432Y-14236484D02*
X10699385Y-14226960D01*
X10699385Y-14226960D02*
X10689861Y-14217436D01*
X10689861Y-14217436D02*
X10680337Y-14198388D01*
X10680337Y-14198388D02*
X10670813Y-14160293D01*
X10670813Y-14160293D02*
X10670813Y-14112674D01*
X10670813Y-14112674D02*
X10680337Y-14074579D01*
X10680337Y-14074579D02*
X10689861Y-14055531D01*
X10689861Y-14055531D02*
X10699385Y-14046008D01*
X10699385Y-14046008D02*
X10718432Y-14036484D01*
X10870813Y-14217436D02*
X10880337Y-14226960D01*
X10880337Y-14226960D02*
X10870813Y-14236484D01*
X10870813Y-14236484D02*
X10861289Y-14226960D01*
X10861289Y-14226960D02*
X10870813Y-14217436D01*
X10870813Y-14217436D02*
X10870813Y-14236484D01*
X11070813Y-14236484D02*
X10956527Y-14236484D01*
X11013670Y-14236484D02*
X11013670Y-14036484D01*
X11013670Y-14036484D02*
X10994623Y-14065055D01*
X10994623Y-14065055D02*
X10975575Y-14084103D01*
X10975575Y-14084103D02*
X10956527Y-14093627D01*
X11147004Y-14055531D02*
X11156527Y-14046008D01*
X11156527Y-14046008D02*
X11175575Y-14036484D01*
X11175575Y-14036484D02*
X11223194Y-14036484D01*
X11223194Y-14036484D02*
X11242242Y-14046008D01*
X11242242Y-14046008D02*
X11251765Y-14055531D01*
X11251765Y-14055531D02*
X11261289Y-14074579D01*
X11261289Y-14074579D02*
X11261289Y-14093627D01*
X11261289Y-14093627D02*
X11251765Y-14122198D01*
X11251765Y-14122198D02*
X11137480Y-14236484D01*
X11137480Y-14236484D02*
X11261289Y-14236484D01*
X11432718Y-14036484D02*
X11394623Y-14036484D01*
X11394623Y-14036484D02*
X11375575Y-14046008D01*
X11375575Y-14046008D02*
X11366051Y-14055531D01*
X11366051Y-14055531D02*
X11347004Y-14084103D01*
X11347004Y-14084103D02*
X11337480Y-14122198D01*
X11337480Y-14122198D02*
X11337480Y-14198388D01*
X11337480Y-14198388D02*
X11347004Y-14217436D01*
X11347004Y-14217436D02*
X11356527Y-14226960D01*
X11356527Y-14226960D02*
X11375575Y-14236484D01*
X11375575Y-14236484D02*
X11413670Y-14236484D01*
X11413670Y-14236484D02*
X11432718Y-14226960D01*
X11432718Y-14226960D02*
X11442242Y-14217436D01*
X11442242Y-14217436D02*
X11451765Y-14198388D01*
X11451765Y-14198388D02*
X11451765Y-14150769D01*
X11451765Y-14150769D02*
X11442242Y-14131722D01*
X11442242Y-14131722D02*
X11432718Y-14122198D01*
X11432718Y-14122198D02*
X11413670Y-14112674D01*
X11413670Y-14112674D02*
X11375575Y-14112674D01*
X11375575Y-14112674D02*
X11356527Y-14122198D01*
X11356527Y-14122198D02*
X11347004Y-14131722D01*
X11347004Y-14131722D02*
X11337480Y-14150769D01*
X11575575Y-14036484D02*
X11594623Y-14036484D01*
X11594623Y-14036484D02*
X11613670Y-14046008D01*
X11613670Y-14046008D02*
X11623194Y-14055531D01*
X11623194Y-14055531D02*
X11632718Y-14074579D01*
X11632718Y-14074579D02*
X11642242Y-14112674D01*
X11642242Y-14112674D02*
X11642242Y-14160293D01*
X11642242Y-14160293D02*
X11632718Y-14198388D01*
X11632718Y-14198388D02*
X11623194Y-14217436D01*
X11623194Y-14217436D02*
X11613670Y-14226960D01*
X11613670Y-14226960D02*
X11594623Y-14236484D01*
X11594623Y-14236484D02*
X11575575Y-14236484D01*
X11575575Y-14236484D02*
X11556527Y-14226960D01*
X11556527Y-14226960D02*
X11547004Y-14217436D01*
X11547004Y-14217436D02*
X11537480Y-14198388D01*
X11537480Y-14198388D02*
X11527956Y-14160293D01*
X11527956Y-14160293D02*
X11527956Y-14112674D01*
X11527956Y-14112674D02*
X11537480Y-14074579D01*
X11537480Y-14074579D02*
X11547004Y-14055531D01*
X11547004Y-14055531D02*
X11556527Y-14046008D01*
X11556527Y-14046008D02*
X11575575Y-14036484D01*
X11718432Y-14036484D02*
X11718432Y-14074579D01*
X11794623Y-14036484D02*
X11794623Y-14074579D01*
X12089861Y-14312674D02*
X12080337Y-14303150D01*
X12080337Y-14303150D02*
X12061289Y-14274579D01*
X12061289Y-14274579D02*
X12051766Y-14255531D01*
X12051766Y-14255531D02*
X12042242Y-14226960D01*
X12042242Y-14226960D02*
X12032718Y-14179341D01*
X12032718Y-14179341D02*
X12032718Y-14141246D01*
X12032718Y-14141246D02*
X12042242Y-14093627D01*
X12042242Y-14093627D02*
X12051766Y-14065055D01*
X12051766Y-14065055D02*
X12061289Y-14046008D01*
X12061289Y-14046008D02*
X12080337Y-14017436D01*
X12080337Y-14017436D02*
X12089861Y-14007912D01*
X12251766Y-14103150D02*
X12251766Y-14236484D01*
X12204146Y-14026960D02*
X12156527Y-14169817D01*
X12156527Y-14169817D02*
X12280337Y-14169817D01*
X12508908Y-14236484D02*
X12508908Y-14036484D01*
X12594623Y-14236484D02*
X12594623Y-14131722D01*
X12594623Y-14131722D02*
X12585099Y-14112674D01*
X12585099Y-14112674D02*
X12566051Y-14103150D01*
X12566051Y-14103150D02*
X12537480Y-14103150D01*
X12537480Y-14103150D02*
X12518432Y-14112674D01*
X12518432Y-14112674D02*
X12508908Y-14122198D01*
X12718432Y-14236484D02*
X12699385Y-14226960D01*
X12699385Y-14226960D02*
X12689861Y-14217436D01*
X12689861Y-14217436D02*
X12680337Y-14198388D01*
X12680337Y-14198388D02*
X12680337Y-14141246D01*
X12680337Y-14141246D02*
X12689861Y-14122198D01*
X12689861Y-14122198D02*
X12699385Y-14112674D01*
X12699385Y-14112674D02*
X12718432Y-14103150D01*
X12718432Y-14103150D02*
X12747004Y-14103150D01*
X12747004Y-14103150D02*
X12766051Y-14112674D01*
X12766051Y-14112674D02*
X12775575Y-14122198D01*
X12775575Y-14122198D02*
X12785099Y-14141246D01*
X12785099Y-14141246D02*
X12785099Y-14198388D01*
X12785099Y-14198388D02*
X12775575Y-14217436D01*
X12775575Y-14217436D02*
X12766051Y-14226960D01*
X12766051Y-14226960D02*
X12747004Y-14236484D01*
X12747004Y-14236484D02*
X12718432Y-14236484D01*
X12899385Y-14236484D02*
X12880337Y-14226960D01*
X12880337Y-14226960D02*
X12870813Y-14207912D01*
X12870813Y-14207912D02*
X12870813Y-14036484D01*
X13051766Y-14226960D02*
X13032718Y-14236484D01*
X13032718Y-14236484D02*
X12994623Y-14236484D01*
X12994623Y-14236484D02*
X12975575Y-14226960D01*
X12975575Y-14226960D02*
X12966051Y-14207912D01*
X12966051Y-14207912D02*
X12966051Y-14131722D01*
X12966051Y-14131722D02*
X12975575Y-14112674D01*
X12975575Y-14112674D02*
X12994623Y-14103150D01*
X12994623Y-14103150D02*
X13032718Y-14103150D01*
X13032718Y-14103150D02*
X13051766Y-14112674D01*
X13051766Y-14112674D02*
X13061289Y-14131722D01*
X13061289Y-14131722D02*
X13061289Y-14150769D01*
X13061289Y-14150769D02*
X12966051Y-14169817D01*
X13137480Y-14226960D02*
X13156528Y-14236484D01*
X13156528Y-14236484D02*
X13194623Y-14236484D01*
X13194623Y-14236484D02*
X13213670Y-14226960D01*
X13213670Y-14226960D02*
X13223194Y-14207912D01*
X13223194Y-14207912D02*
X13223194Y-14198388D01*
X13223194Y-14198388D02*
X13213670Y-14179341D01*
X13213670Y-14179341D02*
X13194623Y-14169817D01*
X13194623Y-14169817D02*
X13166051Y-14169817D01*
X13166051Y-14169817D02*
X13147004Y-14160293D01*
X13147004Y-14160293D02*
X13137480Y-14141246D01*
X13137480Y-14141246D02*
X13137480Y-14131722D01*
X13137480Y-14131722D02*
X13147004Y-14112674D01*
X13147004Y-14112674D02*
X13166051Y-14103150D01*
X13166051Y-14103150D02*
X13194623Y-14103150D01*
X13194623Y-14103150D02*
X13213670Y-14112674D01*
X13289861Y-14312674D02*
X13299385Y-14303150D01*
X13299385Y-14303150D02*
X13318432Y-14274579D01*
X13318432Y-14274579D02*
X13327956Y-14255531D01*
X13327956Y-14255531D02*
X13337480Y-14226960D01*
X13337480Y-14226960D02*
X13347004Y-14179341D01*
X13347004Y-14179341D02*
X13347004Y-14141246D01*
X13347004Y-14141246D02*
X13337480Y-14093627D01*
X13337480Y-14093627D02*
X13327956Y-14065055D01*
X13327956Y-14065055D02*
X13318432Y-14046008D01*
X13318432Y-14046008D02*
X13299385Y-14017436D01*
X13299385Y-14017436D02*
X13289861Y-14007912D01*
X13651766Y-14312674D02*
X13642242Y-14303150D01*
X13642242Y-14303150D02*
X13623194Y-14274579D01*
X13623194Y-14274579D02*
X13613670Y-14255531D01*
X13613670Y-14255531D02*
X13604147Y-14226960D01*
X13604147Y-14226960D02*
X13594623Y-14179341D01*
X13594623Y-14179341D02*
X13594623Y-14141246D01*
X13594623Y-14141246D02*
X13604147Y-14093627D01*
X13604147Y-14093627D02*
X13613670Y-14065055D01*
X13613670Y-14065055D02*
X13623194Y-14046008D01*
X13623194Y-14046008D02*
X13642242Y-14017436D01*
X13642242Y-14017436D02*
X13651766Y-14007912D01*
X13727956Y-14103150D02*
X13727956Y-14236484D01*
X13727956Y-14122198D02*
X13737480Y-14112674D01*
X13737480Y-14112674D02*
X13756528Y-14103150D01*
X13756528Y-14103150D02*
X13785099Y-14103150D01*
X13785099Y-14103150D02*
X13804147Y-14112674D01*
X13804147Y-14112674D02*
X13813670Y-14131722D01*
X13813670Y-14131722D02*
X13813670Y-14236484D01*
X13937480Y-14236484D02*
X13918432Y-14226960D01*
X13918432Y-14226960D02*
X13908909Y-14217436D01*
X13908909Y-14217436D02*
X13899385Y-14198388D01*
X13899385Y-14198388D02*
X13899385Y-14141246D01*
X13899385Y-14141246D02*
X13908909Y-14122198D01*
X13908909Y-14122198D02*
X13918432Y-14112674D01*
X13918432Y-14112674D02*
X13937480Y-14103150D01*
X13937480Y-14103150D02*
X13966051Y-14103150D01*
X13966051Y-14103150D02*
X13985099Y-14112674D01*
X13985099Y-14112674D02*
X13994623Y-14122198D01*
X13994623Y-14122198D02*
X14004147Y-14141246D01*
X14004147Y-14141246D02*
X14004147Y-14198388D01*
X14004147Y-14198388D02*
X13994623Y-14217436D01*
X13994623Y-14217436D02*
X13985099Y-14226960D01*
X13985099Y-14226960D02*
X13966051Y-14236484D01*
X13966051Y-14236484D02*
X13937480Y-14236484D01*
X14061290Y-14103150D02*
X14137480Y-14103150D01*
X14089861Y-14036484D02*
X14089861Y-14207912D01*
X14089861Y-14207912D02*
X14099385Y-14226960D01*
X14099385Y-14226960D02*
X14118432Y-14236484D01*
X14118432Y-14236484D02*
X14137480Y-14236484D01*
X14356528Y-14103150D02*
X14356528Y-14303150D01*
X14356528Y-14112674D02*
X14375575Y-14103150D01*
X14375575Y-14103150D02*
X14413671Y-14103150D01*
X14413671Y-14103150D02*
X14432718Y-14112674D01*
X14432718Y-14112674D02*
X14442242Y-14122198D01*
X14442242Y-14122198D02*
X14451766Y-14141246D01*
X14451766Y-14141246D02*
X14451766Y-14198388D01*
X14451766Y-14198388D02*
X14442242Y-14217436D01*
X14442242Y-14217436D02*
X14432718Y-14226960D01*
X14432718Y-14226960D02*
X14413671Y-14236484D01*
X14413671Y-14236484D02*
X14375575Y-14236484D01*
X14375575Y-14236484D02*
X14356528Y-14226960D01*
X14566051Y-14236484D02*
X14547004Y-14226960D01*
X14547004Y-14226960D02*
X14537480Y-14207912D01*
X14537480Y-14207912D02*
X14537480Y-14036484D01*
X14727956Y-14236484D02*
X14727956Y-14131722D01*
X14727956Y-14131722D02*
X14718432Y-14112674D01*
X14718432Y-14112674D02*
X14699385Y-14103150D01*
X14699385Y-14103150D02*
X14661290Y-14103150D01*
X14661290Y-14103150D02*
X14642242Y-14112674D01*
X14727956Y-14226960D02*
X14708909Y-14236484D01*
X14708909Y-14236484D02*
X14661290Y-14236484D01*
X14661290Y-14236484D02*
X14642242Y-14226960D01*
X14642242Y-14226960D02*
X14632718Y-14207912D01*
X14632718Y-14207912D02*
X14632718Y-14188865D01*
X14632718Y-14188865D02*
X14642242Y-14169817D01*
X14642242Y-14169817D02*
X14661290Y-14160293D01*
X14661290Y-14160293D02*
X14708909Y-14160293D01*
X14708909Y-14160293D02*
X14727956Y-14150769D01*
X14794623Y-14103150D02*
X14870813Y-14103150D01*
X14823194Y-14036484D02*
X14823194Y-14207912D01*
X14823194Y-14207912D02*
X14832718Y-14226960D01*
X14832718Y-14226960D02*
X14851766Y-14236484D01*
X14851766Y-14236484D02*
X14870813Y-14236484D01*
X15013671Y-14226960D02*
X14994623Y-14236484D01*
X14994623Y-14236484D02*
X14956528Y-14236484D01*
X14956528Y-14236484D02*
X14937480Y-14226960D01*
X14937480Y-14226960D02*
X14927956Y-14207912D01*
X14927956Y-14207912D02*
X14927956Y-14131722D01*
X14927956Y-14131722D02*
X14937480Y-14112674D01*
X14937480Y-14112674D02*
X14956528Y-14103150D01*
X14956528Y-14103150D02*
X14994623Y-14103150D01*
X14994623Y-14103150D02*
X15013671Y-14112674D01*
X15013671Y-14112674D02*
X15023194Y-14131722D01*
X15023194Y-14131722D02*
X15023194Y-14150769D01*
X15023194Y-14150769D02*
X14927956Y-14169817D01*
X15194623Y-14236484D02*
X15194623Y-14036484D01*
X15194623Y-14226960D02*
X15175575Y-14236484D01*
X15175575Y-14236484D02*
X15137480Y-14236484D01*
X15137480Y-14236484D02*
X15118432Y-14226960D01*
X15118432Y-14226960D02*
X15108909Y-14217436D01*
X15108909Y-14217436D02*
X15099385Y-14198388D01*
X15099385Y-14198388D02*
X15099385Y-14141246D01*
X15099385Y-14141246D02*
X15108909Y-14122198D01*
X15108909Y-14122198D02*
X15118432Y-14112674D01*
X15118432Y-14112674D02*
X15137480Y-14103150D01*
X15137480Y-14103150D02*
X15175575Y-14103150D01*
X15175575Y-14103150D02*
X15194623Y-14112674D01*
X15270813Y-14312674D02*
X15280337Y-14303150D01*
X15280337Y-14303150D02*
X15299385Y-14274579D01*
X15299385Y-14274579D02*
X15308909Y-14255531D01*
X15308909Y-14255531D02*
X15318432Y-14226960D01*
X15318432Y-14226960D02*
X15327956Y-14179341D01*
X15327956Y-14179341D02*
X15327956Y-14141246D01*
X15327956Y-14141246D02*
X15318432Y-14093627D01*
X15318432Y-14093627D02*
X15308909Y-14065055D01*
X15308909Y-14065055D02*
X15299385Y-14046008D01*
X15299385Y-14046008D02*
X15280337Y-14017436D01*
X15280337Y-14017436D02*
X15270813Y-14007912D01*
M02*
