%TF.GenerationSoftware,KiCad,Pcbnew,7.0.10*%
%TF.CreationDate,2026-02-25T18:36:37+03:00*%
%TF.ProjectId,deltas_backplane,64656c74-6173-45f6-9261-636b706c616e,rev?*%
%TF.SameCoordinates,Original*%
%TF.FileFunction,Drillmap*%
%TF.FilePolarity,Positive*%
%FSLAX45Y45*%
G04 Gerber Fmt 4.5, Leading zero omitted, Abs format (unit mm)*
G04 Created by KiCad (PCBNEW 7.0.10) date 2026-02-25 18:36:38*
%MOMM*%
%LPD*%
G01*
G04 APERTURE LIST*
%ADD10C,0.100000*%
%ADD11C,0.200000*%
%ADD12C,0.101600*%
%ADD13C,0.280000*%
G04 APERTURE END LIST*
D10*
X16571199Y-2564352D02*
X16571199Y-1624552D01*
X16774399Y-2564352D02*
X16571199Y-2564352D01*
X22818000Y-13500000D02*
X8519798Y-13500000D01*
X15401199Y-1624549D02*
G75*
G03*
X15301199Y-1724552I1J-100001D01*
G01*
X14239299Y-3017701D02*
X15301199Y-3017701D01*
X15301199Y-1724552D02*
X15301199Y-3017701D01*
X14239299Y-1656352D02*
X11500000Y-1656352D01*
X16571199Y-1624552D02*
X15401199Y-1624552D01*
X16774399Y-1624552D02*
X16774399Y-2564352D01*
X22818000Y-1624552D02*
X16774399Y-1624552D01*
X11500000Y-3630402D02*
X11500000Y-1656352D01*
X22818000Y-1624552D02*
X22818000Y-13500000D01*
X8519798Y-3630402D02*
X8519798Y-13500000D01*
X8519798Y-3630402D02*
X11500000Y-3630402D01*
X14239299Y-1656352D02*
X14239299Y-3017701D01*
D11*
D10*
X10001241Y-4720201D02*
X10041241Y-4760201D01*
X10041241Y-4720201D02*
X10001241Y-4760201D01*
X10002899Y-4972500D02*
X10042899Y-5012500D01*
X10042899Y-4972500D02*
X10002899Y-5012500D01*
X10028299Y-6222500D02*
X10068299Y-6262500D01*
X10068299Y-6222500D02*
X10028299Y-6262500D01*
X10028299Y-6472500D02*
X10068299Y-6512500D01*
X10068299Y-6472500D02*
X10028299Y-6512500D01*
X10701399Y-4097901D02*
X10741399Y-4137901D01*
X10741399Y-4097901D02*
X10701399Y-4137901D01*
X10955399Y-13051401D02*
X10995399Y-13091401D01*
X10995399Y-13051401D02*
X10955399Y-13091401D01*
X13177899Y-7847500D02*
X13217899Y-7887500D01*
X13217899Y-7847500D02*
X13177899Y-7887500D01*
X13482699Y-5850501D02*
X13522699Y-5890501D01*
X13522699Y-5850501D02*
X13482699Y-5890501D01*
X13914499Y-13089501D02*
X13954499Y-13129501D01*
X13954499Y-13089501D02*
X13914499Y-13129501D01*
X14257399Y-4047101D02*
X14297399Y-4087101D01*
X14297399Y-4047101D02*
X14257399Y-4087101D01*
X14257399Y-5850501D02*
X14297399Y-5890501D01*
X14297399Y-5850501D02*
X14257399Y-5890501D01*
X14654620Y-10662180D02*
X14694620Y-10702180D01*
X14694620Y-10662180D02*
X14654620Y-10702180D01*
X15561600Y-2764401D02*
X15601600Y-2804401D01*
X15601600Y-2764401D02*
X15561600Y-2804401D01*
X15794099Y-7831701D02*
X15834099Y-7871701D01*
X15834099Y-7831701D02*
X15794099Y-7871701D01*
X15806799Y-2777101D02*
X15846799Y-2817101D01*
X15846799Y-2777101D02*
X15806799Y-2817101D01*
X15847810Y-9822040D02*
X15887810Y-9862040D01*
X15887810Y-9822040D02*
X15847810Y-9862040D01*
X15882999Y-5482201D02*
X15922999Y-5522201D01*
X15922999Y-5482201D02*
X15882999Y-5522201D01*
X15921099Y-10854301D02*
X15961099Y-10894301D01*
X15961099Y-10854301D02*
X15921099Y-10894301D01*
X16390999Y-5494901D02*
X16430999Y-5534901D01*
X16430999Y-5494901D02*
X16390999Y-5534901D01*
X16505299Y-4034401D02*
X16545299Y-4074401D01*
X16545299Y-4034401D02*
X16505299Y-4074401D01*
X16643270Y-5714690D02*
X16683270Y-5754690D01*
X16683270Y-5714690D02*
X16643270Y-5754690D01*
X16898999Y-2612001D02*
X16938999Y-2652001D01*
X16938999Y-2612001D02*
X16898999Y-2652001D01*
X16975199Y-6710480D02*
X17015199Y-6750480D01*
X17015199Y-6710480D02*
X16975199Y-6750480D01*
X16977000Y-3392202D02*
X17017000Y-3432202D01*
X17017000Y-3392202D02*
X16977000Y-3432202D01*
X17051399Y-5482201D02*
X17091399Y-5522201D01*
X17091399Y-5482201D02*
X17051399Y-5522201D01*
X17064099Y-3183040D02*
X17104099Y-3223040D01*
X17104099Y-3183040D02*
X17064099Y-3223040D01*
X17152999Y-2612001D02*
X17192999Y-2652001D01*
X17192999Y-2612001D02*
X17152999Y-2652001D01*
X17178399Y-8619101D02*
X17218399Y-8659101D01*
X17218399Y-8619101D02*
X17178399Y-8659101D01*
X17191099Y-9089001D02*
X17231099Y-9129001D01*
X17231099Y-9089001D02*
X17191099Y-9129001D01*
X17254599Y-2726301D02*
X17294599Y-2766301D01*
X17294599Y-2726301D02*
X17254599Y-2766301D01*
X17279999Y-6599801D02*
X17319999Y-6639801D01*
X17319999Y-6599801D02*
X17279999Y-6639801D01*
X17394299Y-6853801D02*
X17434299Y-6893801D01*
X17434299Y-6853801D02*
X17394299Y-6893801D01*
X17405130Y-10394420D02*
X17445130Y-10434420D01*
X17445130Y-10394420D02*
X17405130Y-10434420D01*
X17419699Y-2624701D02*
X17459699Y-2664701D01*
X17459699Y-2624701D02*
X17419699Y-2664701D01*
X17787999Y-3551801D02*
X17827999Y-3591801D01*
X17827999Y-3551801D02*
X17787999Y-3591801D01*
X18168999Y-2891401D02*
X18208999Y-2931401D01*
X18208999Y-2891401D02*
X18168999Y-2931401D01*
X18346799Y-4072501D02*
X18386799Y-4112501D01*
X18386799Y-4072501D02*
X18346799Y-4112501D01*
X18359499Y-3551801D02*
X18399499Y-3591801D01*
X18399499Y-3551801D02*
X18359499Y-3591801D01*
X18397599Y-10727301D02*
X18437599Y-10767301D01*
X18437599Y-10727301D02*
X18397599Y-10767301D01*
X18435699Y-7603101D02*
X18475699Y-7643101D01*
X18475699Y-7603101D02*
X18435699Y-7643101D01*
X18473799Y-8656430D02*
X18513799Y-8696430D01*
X18513799Y-8656430D02*
X18473799Y-8696430D01*
X18473799Y-9089001D02*
X18513799Y-9129001D01*
X18513799Y-9089001D02*
X18473799Y-9129001D01*
X18499199Y-11959201D02*
X18539199Y-11999201D01*
X18539199Y-11959201D02*
X18499199Y-11999201D01*
X18524599Y-6597500D02*
X18564599Y-6637500D01*
X18564599Y-6597500D02*
X18524599Y-6637500D01*
X18524599Y-10016101D02*
X18564599Y-10056101D01*
X18564599Y-10016101D02*
X18524599Y-10056101D01*
X18600799Y-12073501D02*
X18640799Y-12113501D01*
X18640799Y-12073501D02*
X18600799Y-12113501D01*
X18613499Y-6714101D02*
X18653499Y-6754101D01*
X18653499Y-6714101D02*
X18613499Y-6754101D01*
X18689699Y-9685900D02*
X18729699Y-9725900D01*
X18729699Y-9685900D02*
X18689699Y-9725900D01*
X18691500Y-2508600D02*
X18731500Y-2548600D01*
X18731500Y-2508600D02*
X18691500Y-2548600D01*
X18715099Y-6847500D02*
X18755099Y-6887500D01*
X18755099Y-6847500D02*
X18715099Y-6887500D01*
X18753199Y-7603101D02*
X18793199Y-7643101D01*
X18793199Y-7603101D02*
X18753199Y-7643101D01*
X18791299Y-7097500D02*
X18831299Y-7137500D01*
X18831299Y-7097500D02*
X18791299Y-7137500D01*
X18867499Y-2739001D02*
X18907499Y-2779001D01*
X18907499Y-2739001D02*
X18867499Y-2779001D01*
X18899249Y-3037451D02*
X18939249Y-3077451D01*
X18939249Y-3037451D02*
X18899249Y-3077451D01*
X18930999Y-7476101D02*
X18970999Y-7516101D01*
X18970999Y-7476101D02*
X18930999Y-7516101D01*
X18969099Y-6955401D02*
X19009099Y-6995401D01*
X19009099Y-6955401D02*
X18969099Y-6995401D01*
X19029650Y-2596390D02*
X19069650Y-2636390D01*
X19069650Y-2596390D02*
X19029650Y-2636390D01*
X19057999Y-2802501D02*
X19097999Y-2842501D01*
X19097999Y-2802501D02*
X19057999Y-2842501D01*
X19057999Y-7222101D02*
X19097999Y-7262101D01*
X19097999Y-7222101D02*
X19057999Y-7262101D01*
X19096099Y-3247001D02*
X19136099Y-3287001D01*
X19136099Y-3247001D02*
X19096099Y-3287001D01*
X19159599Y-8098401D02*
X19199599Y-8138401D01*
X19199599Y-8098401D02*
X19159599Y-8138401D01*
X19159599Y-11099560D02*
X19199599Y-11139560D01*
X19199599Y-11099560D02*
X19159599Y-11139560D01*
X19223099Y-13140301D02*
X19263099Y-13180301D01*
X19263099Y-13140301D02*
X19223099Y-13180301D01*
X19350099Y-7730101D02*
X19390099Y-7770101D01*
X19390099Y-7730101D02*
X19350099Y-7770101D01*
X19400899Y-10180930D02*
X19440899Y-10220930D01*
X19440899Y-10180930D02*
X19400899Y-10220930D01*
X19426299Y-8288901D02*
X19466299Y-8328901D01*
X19466299Y-8288901D02*
X19426299Y-8328901D01*
X19438999Y-2662801D02*
X19478999Y-2702801D01*
X19478999Y-2662801D02*
X19438999Y-2702801D01*
X19546949Y-2935851D02*
X19586949Y-2975851D01*
X19586949Y-2935851D02*
X19546949Y-2975851D01*
X19692999Y-2485001D02*
X19732999Y-2525001D01*
X19732999Y-2485001D02*
X19692999Y-2525001D01*
X19705699Y-3424801D02*
X19745699Y-3464801D01*
X19745699Y-3424801D02*
X19705699Y-3464801D01*
X19705699Y-4047101D02*
X19745699Y-4087101D01*
X19745699Y-4047101D02*
X19705699Y-4087101D01*
X19762849Y-2961251D02*
X19802849Y-3001251D01*
X19802849Y-2961251D02*
X19762849Y-3001251D01*
X19959699Y-8962001D02*
X19999699Y-9002001D01*
X19999699Y-8962001D02*
X19959699Y-9002001D01*
X19985099Y-9444601D02*
X20025099Y-9484601D01*
X20025099Y-9444601D02*
X19985099Y-9484601D01*
X20112099Y-2751701D02*
X20152099Y-2791701D01*
X20152099Y-2751701D02*
X20112099Y-2791701D01*
X20518499Y-10320901D02*
X20558499Y-10360901D01*
X20558499Y-10320901D02*
X20518499Y-10360901D01*
X20543899Y-2599301D02*
X20583899Y-2639301D01*
X20583899Y-2599301D02*
X20543899Y-2639301D01*
X20543899Y-11585010D02*
X20583899Y-11625010D01*
X20583899Y-11585010D02*
X20543899Y-11625010D01*
X20670899Y-9508101D02*
X20710899Y-9548101D01*
X20710899Y-9508101D02*
X20670899Y-9548101D01*
X20670899Y-9781460D02*
X20710899Y-9821460D01*
X20710899Y-9781460D02*
X20670899Y-9821460D01*
X20747099Y-2942201D02*
X20787099Y-2982201D01*
X20787099Y-2942201D02*
X20747099Y-2982201D01*
X20773020Y-7668210D02*
X20813020Y-7708210D01*
X20813020Y-7668210D02*
X20773020Y-7708210D01*
X20785199Y-3742301D02*
X20825199Y-3782301D01*
X20825199Y-3742301D02*
X20785199Y-3782301D01*
X20848699Y-9708960D02*
X20888699Y-9748960D01*
X20888699Y-9708960D02*
X20848699Y-9748960D01*
X21014520Y-2596070D02*
X21054520Y-2636070D01*
X21054520Y-2596070D02*
X21014520Y-2636070D01*
X21115200Y-2751701D02*
X21155200Y-2791701D01*
X21155200Y-2751701D02*
X21115200Y-2791701D01*
X21153499Y-8454001D02*
X21193499Y-8494001D01*
X21193499Y-8454001D02*
X21153499Y-8494001D01*
X21153499Y-8885801D02*
X21193499Y-8925801D01*
X21193499Y-8885801D02*
X21153499Y-8925801D01*
X21153499Y-9419201D02*
X21193499Y-9459201D01*
X21193499Y-9419201D02*
X21153499Y-9459201D01*
X21153499Y-9622540D02*
X21193499Y-9662540D01*
X21193499Y-9622540D02*
X21153499Y-9662540D01*
X21153499Y-9783190D02*
X21193499Y-9823190D01*
X21193499Y-9783190D02*
X21153499Y-9823190D01*
X21305899Y-9952601D02*
X21345899Y-9992601D01*
X21345899Y-9952601D02*
X21305899Y-9992601D01*
X21382099Y-11959201D02*
X21422099Y-11999201D01*
X21422099Y-11959201D02*
X21382099Y-11999201D01*
X21394799Y-5850501D02*
X21434799Y-5890501D01*
X21434799Y-5850501D02*
X21394799Y-5890501D01*
X21394799Y-6155301D02*
X21434799Y-6195301D01*
X21434799Y-6155301D02*
X21394799Y-6195301D01*
X21420199Y-2535801D02*
X21460199Y-2575801D01*
X21460199Y-2535801D02*
X21420199Y-2575801D01*
X21420199Y-7907901D02*
X21460199Y-7947901D01*
X21460199Y-7907901D02*
X21420199Y-7947901D01*
X21496399Y-10701901D02*
X21536399Y-10741901D01*
X21536399Y-10701901D02*
X21496399Y-10741901D01*
X21547199Y-10129620D02*
X21587199Y-10169620D01*
X21587199Y-10129620D02*
X21547199Y-10169620D01*
X21978999Y-3615301D02*
X22018999Y-3655301D01*
X22018999Y-3615301D02*
X21978999Y-3655301D01*
X22423499Y-5215501D02*
X22463499Y-5255501D01*
X22463499Y-5215501D02*
X22423499Y-5255501D01*
X22436199Y-5837801D02*
X22476199Y-5877801D01*
X22476199Y-5837801D02*
X22436199Y-5877801D01*
X22436199Y-7717401D02*
X22476199Y-7757401D01*
X22476199Y-7717401D02*
X22436199Y-7757401D01*
X22531449Y-10289151D02*
X22571449Y-10329151D01*
X22571449Y-10289151D02*
X22531449Y-10329151D01*
X22537799Y-10524101D02*
X22577799Y-10564101D01*
X22577799Y-10524101D02*
X22537799Y-10564101D01*
X22543799Y-10784101D02*
X22583799Y-10824101D01*
X22583799Y-10784101D02*
X22543799Y-10824101D01*
X22639399Y-11108301D02*
X22679399Y-11148301D01*
X22679399Y-11108301D02*
X22639399Y-11148301D01*
X12327500Y-2009700D02*
G75*
G03*
X12247500Y-2009700I-40000J0D01*
G01*
X12247500Y-2009700D02*
G75*
G03*
X12327500Y-2009700I40000J0D01*
G01*
X12332210Y-2657400D02*
G75*
G03*
X12252210Y-2657400I-40000J0D01*
G01*
X12252210Y-2657400D02*
G75*
G03*
X12332210Y-2657400I40000J0D01*
G01*
X12827500Y-2009700D02*
G75*
G03*
X12747500Y-2009700I-40000J0D01*
G01*
X12747500Y-2009700D02*
G75*
G03*
X12827500Y-2009700I40000J0D01*
G01*
X12832210Y-2657400D02*
G75*
G03*
X12752210Y-2657400I-40000J0D01*
G01*
X12752210Y-2657400D02*
G75*
G03*
X12832210Y-2657400I40000J0D01*
G01*
X16169699Y-4353442D02*
X16169699Y-4453442D01*
X16119699Y-4403442D02*
X16219699Y-4403442D01*
X21525090Y-5083900D02*
X21525090Y-5183900D01*
X21475090Y-5133900D02*
X21575090Y-5133900D01*
X21605299Y-4131401D02*
X21605299Y-4231401D01*
X21555299Y-4181401D02*
X21655299Y-4181401D01*
X11836256Y-2197456D02*
X11836256Y-2126744D01*
X11765544Y-2126744D01*
X11765544Y-2197456D01*
X11836256Y-2197456D01*
X11836256Y-2451456D02*
X11836256Y-2380744D01*
X11765544Y-2380744D01*
X11765544Y-2451456D01*
X11836256Y-2451456D01*
X11836256Y-2705456D02*
X11836256Y-2634744D01*
X11765544Y-2634744D01*
X11765544Y-2705456D01*
X11836256Y-2705456D01*
X11836256Y-2959456D02*
X11836256Y-2888744D01*
X11765544Y-2888744D01*
X11765544Y-2959456D01*
X11836256Y-2959456D01*
X12365756Y-4652856D02*
X12365756Y-4582144D01*
X12295044Y-4582144D01*
X12295044Y-4652856D01*
X12365756Y-4652856D01*
X12365756Y-4902856D02*
X12365756Y-4832144D01*
X12295044Y-4832144D01*
X12295044Y-4902856D01*
X12365756Y-4902856D01*
X12365756Y-5152856D02*
X12365756Y-5082144D01*
X12295044Y-5082144D01*
X12295044Y-5152856D01*
X12365756Y-5152856D01*
X12365756Y-5402856D02*
X12365756Y-5332144D01*
X12295044Y-5332144D01*
X12295044Y-5402856D01*
X12365756Y-5402856D01*
X12365756Y-5652856D02*
X12365756Y-5582144D01*
X12295044Y-5582144D01*
X12295044Y-5652856D01*
X12365756Y-5652856D01*
X12365756Y-5902856D02*
X12365756Y-5832144D01*
X12295044Y-5832144D01*
X12295044Y-5902856D01*
X12365756Y-5902856D01*
X12365756Y-6152856D02*
X12365756Y-6082144D01*
X12295044Y-6082144D01*
X12295044Y-6152856D01*
X12365756Y-6152856D01*
X12365756Y-6402856D02*
X12365756Y-6332144D01*
X12295044Y-6332144D01*
X12295044Y-6402856D01*
X12365756Y-6402856D01*
X12365756Y-6652856D02*
X12365756Y-6582144D01*
X12295044Y-6582144D01*
X12295044Y-6652856D01*
X12365756Y-6652856D01*
X12365756Y-6902856D02*
X12365756Y-6832144D01*
X12295044Y-6832144D01*
X12295044Y-6902856D01*
X12365756Y-6902856D01*
X12365756Y-7152856D02*
X12365756Y-7082144D01*
X12295044Y-7082144D01*
X12295044Y-7152856D01*
X12365756Y-7152856D01*
X12365756Y-7402856D02*
X12365756Y-7332144D01*
X12295044Y-7332144D01*
X12295044Y-7402856D01*
X12365756Y-7402856D01*
X12365756Y-7652856D02*
X12365756Y-7582144D01*
X12295044Y-7582144D01*
X12295044Y-7652856D01*
X12365756Y-7652856D01*
X12365756Y-7902856D02*
X12365756Y-7832144D01*
X12295044Y-7832144D01*
X12295044Y-7902856D01*
X12365756Y-7902856D01*
X12365756Y-8152856D02*
X12365756Y-8082144D01*
X12295044Y-8082144D01*
X12295044Y-8152856D01*
X12365756Y-8152856D01*
X12365756Y-8402856D02*
X12365756Y-8332144D01*
X12295044Y-8332144D01*
X12295044Y-8402856D01*
X12365756Y-8402856D01*
X12365756Y-8652856D02*
X12365756Y-8582144D01*
X12295044Y-8582144D01*
X12295044Y-8652856D01*
X12365756Y-8652856D01*
X12365756Y-8902856D02*
X12365756Y-8832144D01*
X12295044Y-8832144D01*
X12295044Y-8902856D01*
X12365756Y-8902856D01*
X12365756Y-9152856D02*
X12365756Y-9082144D01*
X12295044Y-9082144D01*
X12295044Y-9152856D01*
X12365756Y-9152856D01*
X12365756Y-9402856D02*
X12365756Y-9332144D01*
X12295044Y-9332144D01*
X12295044Y-9402856D01*
X12365756Y-9402856D01*
X12365756Y-9652856D02*
X12365756Y-9582144D01*
X12295044Y-9582144D01*
X12295044Y-9652856D01*
X12365756Y-9652856D01*
X12365756Y-9902856D02*
X12365756Y-9832144D01*
X12295044Y-9832144D01*
X12295044Y-9902856D01*
X12365756Y-9902856D01*
X12365756Y-10152856D02*
X12365756Y-10082144D01*
X12295044Y-10082144D01*
X12295044Y-10152856D01*
X12365756Y-10152856D01*
X12365756Y-10402856D02*
X12365756Y-10332144D01*
X12295044Y-10332144D01*
X12295044Y-10402856D01*
X12365756Y-10402856D01*
X12365756Y-10652856D02*
X12365756Y-10582144D01*
X12295044Y-10582144D01*
X12295044Y-10652856D01*
X12365756Y-10652856D01*
X12365756Y-10902856D02*
X12365756Y-10832144D01*
X12295044Y-10832144D01*
X12295044Y-10902856D01*
X12365756Y-10902856D01*
X12365756Y-11152856D02*
X12365756Y-11082144D01*
X12295044Y-11082144D01*
X12295044Y-11152856D01*
X12365756Y-11152856D01*
X12365756Y-11402856D02*
X12365756Y-11332144D01*
X12295044Y-11332144D01*
X12295044Y-11402856D01*
X12365756Y-11402856D01*
X12365756Y-11652856D02*
X12365756Y-11582144D01*
X12295044Y-11582144D01*
X12295044Y-11652856D01*
X12365756Y-11652856D01*
X12365756Y-11902856D02*
X12365756Y-11832144D01*
X12295044Y-11832144D01*
X12295044Y-11902856D01*
X12365756Y-11902856D01*
X12365756Y-12152856D02*
X12365756Y-12082144D01*
X12295044Y-12082144D01*
X12295044Y-12152856D01*
X12365756Y-12152856D01*
X12365756Y-12402856D02*
X12365756Y-12332144D01*
X12295044Y-12332144D01*
X12295044Y-12402856D01*
X12365756Y-12402856D01*
X12615756Y-4652856D02*
X12615756Y-4582144D01*
X12545044Y-4582144D01*
X12545044Y-4652856D01*
X12615756Y-4652856D01*
X12615756Y-4902856D02*
X12615756Y-4832144D01*
X12545044Y-4832144D01*
X12545044Y-4902856D01*
X12615756Y-4902856D01*
X12615756Y-5152856D02*
X12615756Y-5082144D01*
X12545044Y-5082144D01*
X12545044Y-5152856D01*
X12615756Y-5152856D01*
X12615756Y-5402856D02*
X12615756Y-5332144D01*
X12545044Y-5332144D01*
X12545044Y-5402856D01*
X12615756Y-5402856D01*
X12615756Y-5652856D02*
X12615756Y-5582144D01*
X12545044Y-5582144D01*
X12545044Y-5652856D01*
X12615756Y-5652856D01*
X12615756Y-5902856D02*
X12615756Y-5832144D01*
X12545044Y-5832144D01*
X12545044Y-5902856D01*
X12615756Y-5902856D01*
X12615756Y-6152856D02*
X12615756Y-6082144D01*
X12545044Y-6082144D01*
X12545044Y-6152856D01*
X12615756Y-6152856D01*
X12615756Y-6402856D02*
X12615756Y-6332144D01*
X12545044Y-6332144D01*
X12545044Y-6402856D01*
X12615756Y-6402856D01*
X12615756Y-6652856D02*
X12615756Y-6582144D01*
X12545044Y-6582144D01*
X12545044Y-6652856D01*
X12615756Y-6652856D01*
X12615756Y-6902856D02*
X12615756Y-6832144D01*
X12545044Y-6832144D01*
X12545044Y-6902856D01*
X12615756Y-6902856D01*
X12615756Y-7152856D02*
X12615756Y-7082144D01*
X12545044Y-7082144D01*
X12545044Y-7152856D01*
X12615756Y-7152856D01*
X12615756Y-7402856D02*
X12615756Y-7332144D01*
X12545044Y-7332144D01*
X12545044Y-7402856D01*
X12615756Y-7402856D01*
X12615756Y-7652856D02*
X12615756Y-7582144D01*
X12545044Y-7582144D01*
X12545044Y-7652856D01*
X12615756Y-7652856D01*
X12615756Y-7902856D02*
X12615756Y-7832144D01*
X12545044Y-7832144D01*
X12545044Y-7902856D01*
X12615756Y-7902856D01*
X12615756Y-8152856D02*
X12615756Y-8082144D01*
X12545044Y-8082144D01*
X12545044Y-8152856D01*
X12615756Y-8152856D01*
X12615756Y-8402856D02*
X12615756Y-8332144D01*
X12545044Y-8332144D01*
X12545044Y-8402856D01*
X12615756Y-8402856D01*
X12615756Y-8652856D02*
X12615756Y-8582144D01*
X12545044Y-8582144D01*
X12545044Y-8652856D01*
X12615756Y-8652856D01*
X12615756Y-8902856D02*
X12615756Y-8832144D01*
X12545044Y-8832144D01*
X12545044Y-8902856D01*
X12615756Y-8902856D01*
X12615756Y-9152856D02*
X12615756Y-9082144D01*
X12545044Y-9082144D01*
X12545044Y-9152856D01*
X12615756Y-9152856D01*
X12615756Y-9402856D02*
X12615756Y-9332144D01*
X12545044Y-9332144D01*
X12545044Y-9402856D01*
X12615756Y-9402856D01*
X12615756Y-9652856D02*
X12615756Y-9582144D01*
X12545044Y-9582144D01*
X12545044Y-9652856D01*
X12615756Y-9652856D01*
X12615756Y-9902856D02*
X12615756Y-9832144D01*
X12545044Y-9832144D01*
X12545044Y-9902856D01*
X12615756Y-9902856D01*
X12615756Y-10152856D02*
X12615756Y-10082144D01*
X12545044Y-10082144D01*
X12545044Y-10152856D01*
X12615756Y-10152856D01*
X12615756Y-10402856D02*
X12615756Y-10332144D01*
X12545044Y-10332144D01*
X12545044Y-10402856D01*
X12615756Y-10402856D01*
X12615756Y-10652856D02*
X12615756Y-10582144D01*
X12545044Y-10582144D01*
X12545044Y-10652856D01*
X12615756Y-10652856D01*
X12615756Y-10902856D02*
X12615756Y-10832144D01*
X12545044Y-10832144D01*
X12545044Y-10902856D01*
X12615756Y-10902856D01*
X12615756Y-11152856D02*
X12615756Y-11082144D01*
X12545044Y-11082144D01*
X12545044Y-11152856D01*
X12615756Y-11152856D01*
X12615756Y-11402856D02*
X12615756Y-11332144D01*
X12545044Y-11332144D01*
X12545044Y-11402856D01*
X12615756Y-11402856D01*
X12615756Y-11652856D02*
X12615756Y-11582144D01*
X12545044Y-11582144D01*
X12545044Y-11652856D01*
X12615756Y-11652856D01*
X12615756Y-11902856D02*
X12615756Y-11832144D01*
X12545044Y-11832144D01*
X12545044Y-11902856D01*
X12615756Y-11902856D01*
X12615756Y-12152856D02*
X12615756Y-12082144D01*
X12545044Y-12082144D01*
X12545044Y-12152856D01*
X12615756Y-12152856D01*
X12615756Y-12402856D02*
X12615756Y-12332144D01*
X12545044Y-12332144D01*
X12545044Y-12402856D01*
X12615756Y-12402856D01*
X12865756Y-4652856D02*
X12865756Y-4582144D01*
X12795044Y-4582144D01*
X12795044Y-4652856D01*
X12865756Y-4652856D01*
X12865756Y-4902856D02*
X12865756Y-4832144D01*
X12795044Y-4832144D01*
X12795044Y-4902856D01*
X12865756Y-4902856D01*
X12865756Y-5152856D02*
X12865756Y-5082144D01*
X12795044Y-5082144D01*
X12795044Y-5152856D01*
X12865756Y-5152856D01*
X12865756Y-5402856D02*
X12865756Y-5332144D01*
X12795044Y-5332144D01*
X12795044Y-5402856D01*
X12865756Y-5402856D01*
X12865756Y-5652856D02*
X12865756Y-5582144D01*
X12795044Y-5582144D01*
X12795044Y-5652856D01*
X12865756Y-5652856D01*
X12865756Y-5902856D02*
X12865756Y-5832144D01*
X12795044Y-5832144D01*
X12795044Y-5902856D01*
X12865756Y-5902856D01*
X12865756Y-6152856D02*
X12865756Y-6082144D01*
X12795044Y-6082144D01*
X12795044Y-6152856D01*
X12865756Y-6152856D01*
X12865756Y-6402856D02*
X12865756Y-6332144D01*
X12795044Y-6332144D01*
X12795044Y-6402856D01*
X12865756Y-6402856D01*
X12865756Y-6652856D02*
X12865756Y-6582144D01*
X12795044Y-6582144D01*
X12795044Y-6652856D01*
X12865756Y-6652856D01*
X12865756Y-6902856D02*
X12865756Y-6832144D01*
X12795044Y-6832144D01*
X12795044Y-6902856D01*
X12865756Y-6902856D01*
X12865756Y-7152856D02*
X12865756Y-7082144D01*
X12795044Y-7082144D01*
X12795044Y-7152856D01*
X12865756Y-7152856D01*
X12865756Y-7402856D02*
X12865756Y-7332144D01*
X12795044Y-7332144D01*
X12795044Y-7402856D01*
X12865756Y-7402856D01*
X12865756Y-7652856D02*
X12865756Y-7582144D01*
X12795044Y-7582144D01*
X12795044Y-7652856D01*
X12865756Y-7652856D01*
X12865756Y-7902856D02*
X12865756Y-7832144D01*
X12795044Y-7832144D01*
X12795044Y-7902856D01*
X12865756Y-7902856D01*
X12865756Y-8152856D02*
X12865756Y-8082144D01*
X12795044Y-8082144D01*
X12795044Y-8152856D01*
X12865756Y-8152856D01*
X12865756Y-8402856D02*
X12865756Y-8332144D01*
X12795044Y-8332144D01*
X12795044Y-8402856D01*
X12865756Y-8402856D01*
X12865756Y-8652856D02*
X12865756Y-8582144D01*
X12795044Y-8582144D01*
X12795044Y-8652856D01*
X12865756Y-8652856D01*
X12865756Y-8902856D02*
X12865756Y-8832144D01*
X12795044Y-8832144D01*
X12795044Y-8902856D01*
X12865756Y-8902856D01*
X12865756Y-9152856D02*
X12865756Y-9082144D01*
X12795044Y-9082144D01*
X12795044Y-9152856D01*
X12865756Y-9152856D01*
X12865756Y-9402856D02*
X12865756Y-9332144D01*
X12795044Y-9332144D01*
X12795044Y-9402856D01*
X12865756Y-9402856D01*
X12865756Y-9652856D02*
X12865756Y-9582144D01*
X12795044Y-9582144D01*
X12795044Y-9652856D01*
X12865756Y-9652856D01*
X12865756Y-9902856D02*
X12865756Y-9832144D01*
X12795044Y-9832144D01*
X12795044Y-9902856D01*
X12865756Y-9902856D01*
X12865756Y-10152856D02*
X12865756Y-10082144D01*
X12795044Y-10082144D01*
X12795044Y-10152856D01*
X12865756Y-10152856D01*
X12865756Y-10402856D02*
X12865756Y-10332144D01*
X12795044Y-10332144D01*
X12795044Y-10402856D01*
X12865756Y-10402856D01*
X12865756Y-10652856D02*
X12865756Y-10582144D01*
X12795044Y-10582144D01*
X12795044Y-10652856D01*
X12865756Y-10652856D01*
X12865756Y-10902856D02*
X12865756Y-10832144D01*
X12795044Y-10832144D01*
X12795044Y-10902856D01*
X12865756Y-10902856D01*
X12865756Y-11152856D02*
X12865756Y-11082144D01*
X12795044Y-11082144D01*
X12795044Y-11152856D01*
X12865756Y-11152856D01*
X12865756Y-11402856D02*
X12865756Y-11332144D01*
X12795044Y-11332144D01*
X12795044Y-11402856D01*
X12865756Y-11402856D01*
X12865756Y-11652856D02*
X12865756Y-11582144D01*
X12795044Y-11582144D01*
X12795044Y-11652856D01*
X12865756Y-11652856D01*
X12865756Y-11902856D02*
X12865756Y-11832144D01*
X12795044Y-11832144D01*
X12795044Y-11902856D01*
X12865756Y-11902856D01*
X12865756Y-12152856D02*
X12865756Y-12082144D01*
X12795044Y-12082144D01*
X12795044Y-12152856D01*
X12865756Y-12152856D01*
X12865756Y-12402856D02*
X12865756Y-12332144D01*
X12795044Y-12332144D01*
X12795044Y-12402856D01*
X12865756Y-12402856D01*
X13211956Y-2289256D02*
X13211956Y-2218544D01*
X13141244Y-2218544D01*
X13141244Y-2289256D01*
X13211956Y-2289256D01*
X13226600Y-2363900D02*
X13226600Y-2143900D01*
X13226600Y-2143900D02*
G75*
G03*
X13126600Y-2143900I-50000J0D01*
G01*
X13126600Y-2143900D02*
X13126600Y-2363900D01*
X13126600Y-2363900D02*
G75*
G03*
X13226600Y-2363900I50000J0D01*
G01*
X13385656Y-3213456D02*
X13385656Y-3142744D01*
X13314944Y-3142744D01*
X13314944Y-3213456D01*
X13385656Y-3213456D01*
X13639656Y-3213456D02*
X13639656Y-3142744D01*
X13568944Y-3142744D01*
X13568944Y-3213456D01*
X13639656Y-3213456D01*
X13691956Y-1949256D02*
X13691956Y-1878544D01*
X13621244Y-1878544D01*
X13621244Y-1949256D01*
X13691956Y-1949256D01*
X13766600Y-1863900D02*
X13546600Y-1863900D01*
X13546600Y-1863900D02*
G75*
G03*
X13546600Y-1963900I0J-50000D01*
G01*
X13546600Y-1963900D02*
X13766600Y-1963900D01*
X13766600Y-1963900D02*
G75*
G03*
X13766600Y-1863900I0J50000D01*
G01*
X13691956Y-2579256D02*
X13691956Y-2508544D01*
X13621244Y-2508544D01*
X13621244Y-2579256D01*
X13691956Y-2579256D01*
X13786600Y-2493900D02*
X13526600Y-2493900D01*
X13526600Y-2493900D02*
G75*
G03*
X13526600Y-2593900I0J-50000D01*
G01*
X13526600Y-2593900D02*
X13786600Y-2593900D01*
X13786600Y-2593900D02*
G75*
G03*
X13786600Y-2493900I0J50000D01*
G01*
X13893656Y-3213456D02*
X13893656Y-3142744D01*
X13822944Y-3142744D01*
X13822944Y-3213456D01*
X13893656Y-3213456D01*
X15035756Y-4652856D02*
X15035756Y-4582144D01*
X14965044Y-4582144D01*
X14965044Y-4652856D01*
X15035756Y-4652856D01*
X15035756Y-4902856D02*
X15035756Y-4832144D01*
X14965044Y-4832144D01*
X14965044Y-4902856D01*
X15035756Y-4902856D01*
X15035756Y-5152856D02*
X15035756Y-5082144D01*
X14965044Y-5082144D01*
X14965044Y-5152856D01*
X15035756Y-5152856D01*
X15035756Y-5402856D02*
X15035756Y-5332144D01*
X14965044Y-5332144D01*
X14965044Y-5402856D01*
X15035756Y-5402856D01*
X15035756Y-5652856D02*
X15035756Y-5582144D01*
X14965044Y-5582144D01*
X14965044Y-5652856D01*
X15035756Y-5652856D01*
X15035756Y-5902856D02*
X15035756Y-5832144D01*
X14965044Y-5832144D01*
X14965044Y-5902856D01*
X15035756Y-5902856D01*
X15035756Y-6152856D02*
X15035756Y-6082144D01*
X14965044Y-6082144D01*
X14965044Y-6152856D01*
X15035756Y-6152856D01*
X15035756Y-6402856D02*
X15035756Y-6332144D01*
X14965044Y-6332144D01*
X14965044Y-6402856D01*
X15035756Y-6402856D01*
X15035756Y-6652856D02*
X15035756Y-6582144D01*
X14965044Y-6582144D01*
X14965044Y-6652856D01*
X15035756Y-6652856D01*
X15035756Y-6902856D02*
X15035756Y-6832144D01*
X14965044Y-6832144D01*
X14965044Y-6902856D01*
X15035756Y-6902856D01*
X15035756Y-7152856D02*
X15035756Y-7082144D01*
X14965044Y-7082144D01*
X14965044Y-7152856D01*
X15035756Y-7152856D01*
X15035756Y-7402856D02*
X15035756Y-7332144D01*
X14965044Y-7332144D01*
X14965044Y-7402856D01*
X15035756Y-7402856D01*
X15035756Y-7652856D02*
X15035756Y-7582144D01*
X14965044Y-7582144D01*
X14965044Y-7652856D01*
X15035756Y-7652856D01*
X15035756Y-7902856D02*
X15035756Y-7832144D01*
X14965044Y-7832144D01*
X14965044Y-7902856D01*
X15035756Y-7902856D01*
X15035756Y-8152856D02*
X15035756Y-8082144D01*
X14965044Y-8082144D01*
X14965044Y-8152856D01*
X15035756Y-8152856D01*
X15035756Y-8402856D02*
X15035756Y-8332144D01*
X14965044Y-8332144D01*
X14965044Y-8402856D01*
X15035756Y-8402856D01*
X15035756Y-8652856D02*
X15035756Y-8582144D01*
X14965044Y-8582144D01*
X14965044Y-8652856D01*
X15035756Y-8652856D01*
X15035756Y-8902856D02*
X15035756Y-8832144D01*
X14965044Y-8832144D01*
X14965044Y-8902856D01*
X15035756Y-8902856D01*
X15035756Y-9152856D02*
X15035756Y-9082144D01*
X14965044Y-9082144D01*
X14965044Y-9152856D01*
X15035756Y-9152856D01*
X15035756Y-9402856D02*
X15035756Y-9332144D01*
X14965044Y-9332144D01*
X14965044Y-9402856D01*
X15035756Y-9402856D01*
X15035756Y-9652856D02*
X15035756Y-9582144D01*
X14965044Y-9582144D01*
X14965044Y-9652856D01*
X15035756Y-9652856D01*
X15035756Y-9902856D02*
X15035756Y-9832144D01*
X14965044Y-9832144D01*
X14965044Y-9902856D01*
X15035756Y-9902856D01*
X15035756Y-10152856D02*
X15035756Y-10082144D01*
X14965044Y-10082144D01*
X14965044Y-10152856D01*
X15035756Y-10152856D01*
X15035756Y-10402856D02*
X15035756Y-10332144D01*
X14965044Y-10332144D01*
X14965044Y-10402856D01*
X15035756Y-10402856D01*
X15035756Y-10652856D02*
X15035756Y-10582144D01*
X14965044Y-10582144D01*
X14965044Y-10652856D01*
X15035756Y-10652856D01*
X15035756Y-10902856D02*
X15035756Y-10832144D01*
X14965044Y-10832144D01*
X14965044Y-10902856D01*
X15035756Y-10902856D01*
X15035756Y-11152856D02*
X15035756Y-11082144D01*
X14965044Y-11082144D01*
X14965044Y-11152856D01*
X15035756Y-11152856D01*
X15035756Y-11402856D02*
X15035756Y-11332144D01*
X14965044Y-11332144D01*
X14965044Y-11402856D01*
X15035756Y-11402856D01*
X15035756Y-11652856D02*
X15035756Y-11582144D01*
X14965044Y-11582144D01*
X14965044Y-11652856D01*
X15035756Y-11652856D01*
X15035756Y-11902856D02*
X15035756Y-11832144D01*
X14965044Y-11832144D01*
X14965044Y-11902856D01*
X15035756Y-11902856D01*
X15035756Y-12152856D02*
X15035756Y-12082144D01*
X14965044Y-12082144D01*
X14965044Y-12152856D01*
X15035756Y-12152856D01*
X15035756Y-12402856D02*
X15035756Y-12332144D01*
X14965044Y-12332144D01*
X14965044Y-12402856D01*
X15035756Y-12402856D01*
X15285756Y-4652856D02*
X15285756Y-4582144D01*
X15215044Y-4582144D01*
X15215044Y-4652856D01*
X15285756Y-4652856D01*
X15285756Y-4902856D02*
X15285756Y-4832144D01*
X15215044Y-4832144D01*
X15215044Y-4902856D01*
X15285756Y-4902856D01*
X15285756Y-5152856D02*
X15285756Y-5082144D01*
X15215044Y-5082144D01*
X15215044Y-5152856D01*
X15285756Y-5152856D01*
X15285756Y-5402856D02*
X15285756Y-5332144D01*
X15215044Y-5332144D01*
X15215044Y-5402856D01*
X15285756Y-5402856D01*
X15285756Y-5652856D02*
X15285756Y-5582144D01*
X15215044Y-5582144D01*
X15215044Y-5652856D01*
X15285756Y-5652856D01*
X15285756Y-5902856D02*
X15285756Y-5832144D01*
X15215044Y-5832144D01*
X15215044Y-5902856D01*
X15285756Y-5902856D01*
X15285756Y-6152856D02*
X15285756Y-6082144D01*
X15215044Y-6082144D01*
X15215044Y-6152856D01*
X15285756Y-6152856D01*
X15285756Y-6402856D02*
X15285756Y-6332144D01*
X15215044Y-6332144D01*
X15215044Y-6402856D01*
X15285756Y-6402856D01*
X15285756Y-6652856D02*
X15285756Y-6582144D01*
X15215044Y-6582144D01*
X15215044Y-6652856D01*
X15285756Y-6652856D01*
X15285756Y-6902856D02*
X15285756Y-6832144D01*
X15215044Y-6832144D01*
X15215044Y-6902856D01*
X15285756Y-6902856D01*
X15285756Y-7152856D02*
X15285756Y-7082144D01*
X15215044Y-7082144D01*
X15215044Y-7152856D01*
X15285756Y-7152856D01*
X15285756Y-7402856D02*
X15285756Y-7332144D01*
X15215044Y-7332144D01*
X15215044Y-7402856D01*
X15285756Y-7402856D01*
X15285756Y-7652856D02*
X15285756Y-7582144D01*
X15215044Y-7582144D01*
X15215044Y-7652856D01*
X15285756Y-7652856D01*
X15285756Y-7902856D02*
X15285756Y-7832144D01*
X15215044Y-7832144D01*
X15215044Y-7902856D01*
X15285756Y-7902856D01*
X15285756Y-8152856D02*
X15285756Y-8082144D01*
X15215044Y-8082144D01*
X15215044Y-8152856D01*
X15285756Y-8152856D01*
X15285756Y-8402856D02*
X15285756Y-8332144D01*
X15215044Y-8332144D01*
X15215044Y-8402856D01*
X15285756Y-8402856D01*
X15285756Y-8652856D02*
X15285756Y-8582144D01*
X15215044Y-8582144D01*
X15215044Y-8652856D01*
X15285756Y-8652856D01*
X15285756Y-8902856D02*
X15285756Y-8832144D01*
X15215044Y-8832144D01*
X15215044Y-8902856D01*
X15285756Y-8902856D01*
X15285756Y-9152856D02*
X15285756Y-9082144D01*
X15215044Y-9082144D01*
X15215044Y-9152856D01*
X15285756Y-9152856D01*
X15285756Y-9402856D02*
X15285756Y-9332144D01*
X15215044Y-9332144D01*
X15215044Y-9402856D01*
X15285756Y-9402856D01*
X15285756Y-9652856D02*
X15285756Y-9582144D01*
X15215044Y-9582144D01*
X15215044Y-9652856D01*
X15285756Y-9652856D01*
X15285756Y-9902856D02*
X15285756Y-9832144D01*
X15215044Y-9832144D01*
X15215044Y-9902856D01*
X15285756Y-9902856D01*
X15285756Y-10152856D02*
X15285756Y-10082144D01*
X15215044Y-10082144D01*
X15215044Y-10152856D01*
X15285756Y-10152856D01*
X15285756Y-10402856D02*
X15285756Y-10332144D01*
X15215044Y-10332144D01*
X15215044Y-10402856D01*
X15285756Y-10402856D01*
X15285756Y-10652856D02*
X15285756Y-10582144D01*
X15215044Y-10582144D01*
X15215044Y-10652856D01*
X15285756Y-10652856D01*
X15285756Y-10902856D02*
X15285756Y-10832144D01*
X15215044Y-10832144D01*
X15215044Y-10902856D01*
X15285756Y-10902856D01*
X15285756Y-11152856D02*
X15285756Y-11082144D01*
X15215044Y-11082144D01*
X15215044Y-11152856D01*
X15285756Y-11152856D01*
X15285756Y-11402856D02*
X15285756Y-11332144D01*
X15215044Y-11332144D01*
X15215044Y-11402856D01*
X15285756Y-11402856D01*
X15285756Y-11652856D02*
X15285756Y-11582144D01*
X15215044Y-11582144D01*
X15215044Y-11652856D01*
X15285756Y-11652856D01*
X15285756Y-11902856D02*
X15285756Y-11832144D01*
X15215044Y-11832144D01*
X15215044Y-11902856D01*
X15285756Y-11902856D01*
X15285756Y-12152856D02*
X15285756Y-12082144D01*
X15215044Y-12082144D01*
X15215044Y-12152856D01*
X15285756Y-12152856D01*
X15285756Y-12402856D02*
X15285756Y-12332144D01*
X15215044Y-12332144D01*
X15215044Y-12402856D01*
X15285756Y-12402856D01*
X15535756Y-4652856D02*
X15535756Y-4582144D01*
X15465044Y-4582144D01*
X15465044Y-4652856D01*
X15535756Y-4652856D01*
X15535756Y-4902856D02*
X15535756Y-4832144D01*
X15465044Y-4832144D01*
X15465044Y-4902856D01*
X15535756Y-4902856D01*
X15535756Y-5152856D02*
X15535756Y-5082144D01*
X15465044Y-5082144D01*
X15465044Y-5152856D01*
X15535756Y-5152856D01*
X15535756Y-5402856D02*
X15535756Y-5332144D01*
X15465044Y-5332144D01*
X15465044Y-5402856D01*
X15535756Y-5402856D01*
X15535756Y-5652856D02*
X15535756Y-5582144D01*
X15465044Y-5582144D01*
X15465044Y-5652856D01*
X15535756Y-5652856D01*
X15535756Y-5902856D02*
X15535756Y-5832144D01*
X15465044Y-5832144D01*
X15465044Y-5902856D01*
X15535756Y-5902856D01*
X15535756Y-6152856D02*
X15535756Y-6082144D01*
X15465044Y-6082144D01*
X15465044Y-6152856D01*
X15535756Y-6152856D01*
X15535756Y-6402856D02*
X15535756Y-6332144D01*
X15465044Y-6332144D01*
X15465044Y-6402856D01*
X15535756Y-6402856D01*
X15535756Y-6652856D02*
X15535756Y-6582144D01*
X15465044Y-6582144D01*
X15465044Y-6652856D01*
X15535756Y-6652856D01*
X15535756Y-6902856D02*
X15535756Y-6832144D01*
X15465044Y-6832144D01*
X15465044Y-6902856D01*
X15535756Y-6902856D01*
X15535756Y-7152856D02*
X15535756Y-7082144D01*
X15465044Y-7082144D01*
X15465044Y-7152856D01*
X15535756Y-7152856D01*
X15535756Y-7402856D02*
X15535756Y-7332144D01*
X15465044Y-7332144D01*
X15465044Y-7402856D01*
X15535756Y-7402856D01*
X15535756Y-7652856D02*
X15535756Y-7582144D01*
X15465044Y-7582144D01*
X15465044Y-7652856D01*
X15535756Y-7652856D01*
X15535756Y-7902856D02*
X15535756Y-7832144D01*
X15465044Y-7832144D01*
X15465044Y-7902856D01*
X15535756Y-7902856D01*
X15535756Y-8152856D02*
X15535756Y-8082144D01*
X15465044Y-8082144D01*
X15465044Y-8152856D01*
X15535756Y-8152856D01*
X15535756Y-8402856D02*
X15535756Y-8332144D01*
X15465044Y-8332144D01*
X15465044Y-8402856D01*
X15535756Y-8402856D01*
X15535756Y-8652856D02*
X15535756Y-8582144D01*
X15465044Y-8582144D01*
X15465044Y-8652856D01*
X15535756Y-8652856D01*
X15535756Y-8902856D02*
X15535756Y-8832144D01*
X15465044Y-8832144D01*
X15465044Y-8902856D01*
X15535756Y-8902856D01*
X15535756Y-9152856D02*
X15535756Y-9082144D01*
X15465044Y-9082144D01*
X15465044Y-9152856D01*
X15535756Y-9152856D01*
X15535756Y-9402856D02*
X15535756Y-9332144D01*
X15465044Y-9332144D01*
X15465044Y-9402856D01*
X15535756Y-9402856D01*
X15535756Y-9652856D02*
X15535756Y-9582144D01*
X15465044Y-9582144D01*
X15465044Y-9652856D01*
X15535756Y-9652856D01*
X15535756Y-9902856D02*
X15535756Y-9832144D01*
X15465044Y-9832144D01*
X15465044Y-9902856D01*
X15535756Y-9902856D01*
X15535756Y-10152856D02*
X15535756Y-10082144D01*
X15465044Y-10082144D01*
X15465044Y-10152856D01*
X15535756Y-10152856D01*
X15535756Y-10402856D02*
X15535756Y-10332144D01*
X15465044Y-10332144D01*
X15465044Y-10402856D01*
X15535756Y-10402856D01*
X15535756Y-10652856D02*
X15535756Y-10582144D01*
X15465044Y-10582144D01*
X15465044Y-10652856D01*
X15535756Y-10652856D01*
X15535756Y-10902856D02*
X15535756Y-10832144D01*
X15465044Y-10832144D01*
X15465044Y-10902856D01*
X15535756Y-10902856D01*
X15535756Y-11152856D02*
X15535756Y-11082144D01*
X15465044Y-11082144D01*
X15465044Y-11152856D01*
X15535756Y-11152856D01*
X15535756Y-11402856D02*
X15535756Y-11332144D01*
X15465044Y-11332144D01*
X15465044Y-11402856D01*
X15535756Y-11402856D01*
X15535756Y-11652856D02*
X15535756Y-11582144D01*
X15465044Y-11582144D01*
X15465044Y-11652856D01*
X15535756Y-11652856D01*
X15535756Y-11902856D02*
X15535756Y-11832144D01*
X15465044Y-11832144D01*
X15465044Y-11902856D01*
X15535756Y-11902856D01*
X15535756Y-12152856D02*
X15535756Y-12082144D01*
X15465044Y-12082144D01*
X15465044Y-12152856D01*
X15535756Y-12152856D01*
X15535756Y-12402856D02*
X15535756Y-12332144D01*
X15465044Y-12332144D01*
X15465044Y-12402856D01*
X15535756Y-12402856D01*
X17705756Y-4652856D02*
X17705756Y-4582144D01*
X17635044Y-4582144D01*
X17635044Y-4652856D01*
X17705756Y-4652856D01*
X17705756Y-4902856D02*
X17705756Y-4832144D01*
X17635044Y-4832144D01*
X17635044Y-4902856D01*
X17705756Y-4902856D01*
X17705756Y-5152856D02*
X17705756Y-5082144D01*
X17635044Y-5082144D01*
X17635044Y-5152856D01*
X17705756Y-5152856D01*
X17705756Y-5402856D02*
X17705756Y-5332144D01*
X17635044Y-5332144D01*
X17635044Y-5402856D01*
X17705756Y-5402856D01*
X17705756Y-5652856D02*
X17705756Y-5582144D01*
X17635044Y-5582144D01*
X17635044Y-5652856D01*
X17705756Y-5652856D01*
X17705756Y-5902856D02*
X17705756Y-5832144D01*
X17635044Y-5832144D01*
X17635044Y-5902856D01*
X17705756Y-5902856D01*
X17705756Y-6152856D02*
X17705756Y-6082144D01*
X17635044Y-6082144D01*
X17635044Y-6152856D01*
X17705756Y-6152856D01*
X17705756Y-6402856D02*
X17705756Y-6332144D01*
X17635044Y-6332144D01*
X17635044Y-6402856D01*
X17705756Y-6402856D01*
X17705756Y-6652856D02*
X17705756Y-6582144D01*
X17635044Y-6582144D01*
X17635044Y-6652856D01*
X17705756Y-6652856D01*
X17705756Y-6902856D02*
X17705756Y-6832144D01*
X17635044Y-6832144D01*
X17635044Y-6902856D01*
X17705756Y-6902856D01*
X17705756Y-7152856D02*
X17705756Y-7082144D01*
X17635044Y-7082144D01*
X17635044Y-7152856D01*
X17705756Y-7152856D01*
X17705756Y-7402856D02*
X17705756Y-7332144D01*
X17635044Y-7332144D01*
X17635044Y-7402856D01*
X17705756Y-7402856D01*
X17705756Y-7652856D02*
X17705756Y-7582144D01*
X17635044Y-7582144D01*
X17635044Y-7652856D01*
X17705756Y-7652856D01*
X17705756Y-7902856D02*
X17705756Y-7832144D01*
X17635044Y-7832144D01*
X17635044Y-7902856D01*
X17705756Y-7902856D01*
X17705756Y-8152856D02*
X17705756Y-8082144D01*
X17635044Y-8082144D01*
X17635044Y-8152856D01*
X17705756Y-8152856D01*
X17705756Y-8402856D02*
X17705756Y-8332144D01*
X17635044Y-8332144D01*
X17635044Y-8402856D01*
X17705756Y-8402856D01*
X17705756Y-8652856D02*
X17705756Y-8582144D01*
X17635044Y-8582144D01*
X17635044Y-8652856D01*
X17705756Y-8652856D01*
X17705756Y-8902856D02*
X17705756Y-8832144D01*
X17635044Y-8832144D01*
X17635044Y-8902856D01*
X17705756Y-8902856D01*
X17705756Y-9152856D02*
X17705756Y-9082144D01*
X17635044Y-9082144D01*
X17635044Y-9152856D01*
X17705756Y-9152856D01*
X17705756Y-9402856D02*
X17705756Y-9332144D01*
X17635044Y-9332144D01*
X17635044Y-9402856D01*
X17705756Y-9402856D01*
X17705756Y-9652856D02*
X17705756Y-9582144D01*
X17635044Y-9582144D01*
X17635044Y-9652856D01*
X17705756Y-9652856D01*
X17705756Y-9902856D02*
X17705756Y-9832144D01*
X17635044Y-9832144D01*
X17635044Y-9902856D01*
X17705756Y-9902856D01*
X17705756Y-10152856D02*
X17705756Y-10082144D01*
X17635044Y-10082144D01*
X17635044Y-10152856D01*
X17705756Y-10152856D01*
X17705756Y-10402856D02*
X17705756Y-10332144D01*
X17635044Y-10332144D01*
X17635044Y-10402856D01*
X17705756Y-10402856D01*
X17705756Y-10652856D02*
X17705756Y-10582144D01*
X17635044Y-10582144D01*
X17635044Y-10652856D01*
X17705756Y-10652856D01*
X17705756Y-10902856D02*
X17705756Y-10832144D01*
X17635044Y-10832144D01*
X17635044Y-10902856D01*
X17705756Y-10902856D01*
X17705756Y-11152856D02*
X17705756Y-11082144D01*
X17635044Y-11082144D01*
X17635044Y-11152856D01*
X17705756Y-11152856D01*
X17705756Y-11402856D02*
X17705756Y-11332144D01*
X17635044Y-11332144D01*
X17635044Y-11402856D01*
X17705756Y-11402856D01*
X17705756Y-11652856D02*
X17705756Y-11582144D01*
X17635044Y-11582144D01*
X17635044Y-11652856D01*
X17705756Y-11652856D01*
X17705756Y-11902856D02*
X17705756Y-11832144D01*
X17635044Y-11832144D01*
X17635044Y-11902856D01*
X17705756Y-11902856D01*
X17705756Y-12152856D02*
X17705756Y-12082144D01*
X17635044Y-12082144D01*
X17635044Y-12152856D01*
X17705756Y-12152856D01*
X17705756Y-12402856D02*
X17705756Y-12332144D01*
X17635044Y-12332144D01*
X17635044Y-12402856D01*
X17705756Y-12402856D01*
X17955756Y-4652856D02*
X17955756Y-4582144D01*
X17885044Y-4582144D01*
X17885044Y-4652856D01*
X17955756Y-4652856D01*
X17955756Y-4902856D02*
X17955756Y-4832144D01*
X17885044Y-4832144D01*
X17885044Y-4902856D01*
X17955756Y-4902856D01*
X17955756Y-5152856D02*
X17955756Y-5082144D01*
X17885044Y-5082144D01*
X17885044Y-5152856D01*
X17955756Y-5152856D01*
X17955756Y-5402856D02*
X17955756Y-5332144D01*
X17885044Y-5332144D01*
X17885044Y-5402856D01*
X17955756Y-5402856D01*
X17955756Y-5652856D02*
X17955756Y-5582144D01*
X17885044Y-5582144D01*
X17885044Y-5652856D01*
X17955756Y-5652856D01*
X17955756Y-5902856D02*
X17955756Y-5832144D01*
X17885044Y-5832144D01*
X17885044Y-5902856D01*
X17955756Y-5902856D01*
X17955756Y-6152856D02*
X17955756Y-6082144D01*
X17885044Y-6082144D01*
X17885044Y-6152856D01*
X17955756Y-6152856D01*
X17955756Y-6402856D02*
X17955756Y-6332144D01*
X17885044Y-6332144D01*
X17885044Y-6402856D01*
X17955756Y-6402856D01*
X17955756Y-6652856D02*
X17955756Y-6582144D01*
X17885044Y-6582144D01*
X17885044Y-6652856D01*
X17955756Y-6652856D01*
X17955756Y-6902856D02*
X17955756Y-6832144D01*
X17885044Y-6832144D01*
X17885044Y-6902856D01*
X17955756Y-6902856D01*
X17955756Y-7152856D02*
X17955756Y-7082144D01*
X17885044Y-7082144D01*
X17885044Y-7152856D01*
X17955756Y-7152856D01*
X17955756Y-7402856D02*
X17955756Y-7332144D01*
X17885044Y-7332144D01*
X17885044Y-7402856D01*
X17955756Y-7402856D01*
X17955756Y-7652856D02*
X17955756Y-7582144D01*
X17885044Y-7582144D01*
X17885044Y-7652856D01*
X17955756Y-7652856D01*
X17955756Y-7902856D02*
X17955756Y-7832144D01*
X17885044Y-7832144D01*
X17885044Y-7902856D01*
X17955756Y-7902856D01*
X17955756Y-8152856D02*
X17955756Y-8082144D01*
X17885044Y-8082144D01*
X17885044Y-8152856D01*
X17955756Y-8152856D01*
X17955756Y-8402856D02*
X17955756Y-8332144D01*
X17885044Y-8332144D01*
X17885044Y-8402856D01*
X17955756Y-8402856D01*
X17955756Y-8652856D02*
X17955756Y-8582144D01*
X17885044Y-8582144D01*
X17885044Y-8652856D01*
X17955756Y-8652856D01*
X17955756Y-8902856D02*
X17955756Y-8832144D01*
X17885044Y-8832144D01*
X17885044Y-8902856D01*
X17955756Y-8902856D01*
X17955756Y-9152856D02*
X17955756Y-9082144D01*
X17885044Y-9082144D01*
X17885044Y-9152856D01*
X17955756Y-9152856D01*
X17955756Y-9402856D02*
X17955756Y-9332144D01*
X17885044Y-9332144D01*
X17885044Y-9402856D01*
X17955756Y-9402856D01*
X17955756Y-9652856D02*
X17955756Y-9582144D01*
X17885044Y-9582144D01*
X17885044Y-9652856D01*
X17955756Y-9652856D01*
X17955756Y-9902856D02*
X17955756Y-9832144D01*
X17885044Y-9832144D01*
X17885044Y-9902856D01*
X17955756Y-9902856D01*
X17955756Y-10152856D02*
X17955756Y-10082144D01*
X17885044Y-10082144D01*
X17885044Y-10152856D01*
X17955756Y-10152856D01*
X17955756Y-10402856D02*
X17955756Y-10332144D01*
X17885044Y-10332144D01*
X17885044Y-10402856D01*
X17955756Y-10402856D01*
X17955756Y-10652856D02*
X17955756Y-10582144D01*
X17885044Y-10582144D01*
X17885044Y-10652856D01*
X17955756Y-10652856D01*
X17955756Y-10902856D02*
X17955756Y-10832144D01*
X17885044Y-10832144D01*
X17885044Y-10902856D01*
X17955756Y-10902856D01*
X17955756Y-11152856D02*
X17955756Y-11082144D01*
X17885044Y-11082144D01*
X17885044Y-11152856D01*
X17955756Y-11152856D01*
X17955756Y-11402856D02*
X17955756Y-11332144D01*
X17885044Y-11332144D01*
X17885044Y-11402856D01*
X17955756Y-11402856D01*
X17955756Y-11652856D02*
X17955756Y-11582144D01*
X17885044Y-11582144D01*
X17885044Y-11652856D01*
X17955756Y-11652856D01*
X17955756Y-11902856D02*
X17955756Y-11832144D01*
X17885044Y-11832144D01*
X17885044Y-11902856D01*
X17955756Y-11902856D01*
X17955756Y-12152856D02*
X17955756Y-12082144D01*
X17885044Y-12082144D01*
X17885044Y-12152856D01*
X17955756Y-12152856D01*
X17955756Y-12402856D02*
X17955756Y-12332144D01*
X17885044Y-12332144D01*
X17885044Y-12402856D01*
X17955756Y-12402856D01*
X18205756Y-4652856D02*
X18205756Y-4582144D01*
X18135044Y-4582144D01*
X18135044Y-4652856D01*
X18205756Y-4652856D01*
X18205756Y-4902856D02*
X18205756Y-4832144D01*
X18135044Y-4832144D01*
X18135044Y-4902856D01*
X18205756Y-4902856D01*
X18205756Y-5152856D02*
X18205756Y-5082144D01*
X18135044Y-5082144D01*
X18135044Y-5152856D01*
X18205756Y-5152856D01*
X18205756Y-5402856D02*
X18205756Y-5332144D01*
X18135044Y-5332144D01*
X18135044Y-5402856D01*
X18205756Y-5402856D01*
X18205756Y-5652856D02*
X18205756Y-5582144D01*
X18135044Y-5582144D01*
X18135044Y-5652856D01*
X18205756Y-5652856D01*
X18205756Y-5902856D02*
X18205756Y-5832144D01*
X18135044Y-5832144D01*
X18135044Y-5902856D01*
X18205756Y-5902856D01*
X18205756Y-6152856D02*
X18205756Y-6082144D01*
X18135044Y-6082144D01*
X18135044Y-6152856D01*
X18205756Y-6152856D01*
X18205756Y-6402856D02*
X18205756Y-6332144D01*
X18135044Y-6332144D01*
X18135044Y-6402856D01*
X18205756Y-6402856D01*
X18205756Y-6652856D02*
X18205756Y-6582144D01*
X18135044Y-6582144D01*
X18135044Y-6652856D01*
X18205756Y-6652856D01*
X18205756Y-6902856D02*
X18205756Y-6832144D01*
X18135044Y-6832144D01*
X18135044Y-6902856D01*
X18205756Y-6902856D01*
X18205756Y-7152856D02*
X18205756Y-7082144D01*
X18135044Y-7082144D01*
X18135044Y-7152856D01*
X18205756Y-7152856D01*
X18205756Y-7402856D02*
X18205756Y-7332144D01*
X18135044Y-7332144D01*
X18135044Y-7402856D01*
X18205756Y-7402856D01*
X18205756Y-7652856D02*
X18205756Y-7582144D01*
X18135044Y-7582144D01*
X18135044Y-7652856D01*
X18205756Y-7652856D01*
X18205756Y-7902856D02*
X18205756Y-7832144D01*
X18135044Y-7832144D01*
X18135044Y-7902856D01*
X18205756Y-7902856D01*
X18205756Y-8152856D02*
X18205756Y-8082144D01*
X18135044Y-8082144D01*
X18135044Y-8152856D01*
X18205756Y-8152856D01*
X18205756Y-8402856D02*
X18205756Y-8332144D01*
X18135044Y-8332144D01*
X18135044Y-8402856D01*
X18205756Y-8402856D01*
X18205756Y-8652856D02*
X18205756Y-8582144D01*
X18135044Y-8582144D01*
X18135044Y-8652856D01*
X18205756Y-8652856D01*
X18205756Y-8902856D02*
X18205756Y-8832144D01*
X18135044Y-8832144D01*
X18135044Y-8902856D01*
X18205756Y-8902856D01*
X18205756Y-9152856D02*
X18205756Y-9082144D01*
X18135044Y-9082144D01*
X18135044Y-9152856D01*
X18205756Y-9152856D01*
X18205756Y-9402856D02*
X18205756Y-9332144D01*
X18135044Y-9332144D01*
X18135044Y-9402856D01*
X18205756Y-9402856D01*
X18205756Y-9652856D02*
X18205756Y-9582144D01*
X18135044Y-9582144D01*
X18135044Y-9652856D01*
X18205756Y-9652856D01*
X18205756Y-9902856D02*
X18205756Y-9832144D01*
X18135044Y-9832144D01*
X18135044Y-9902856D01*
X18205756Y-9902856D01*
X18205756Y-10152856D02*
X18205756Y-10082144D01*
X18135044Y-10082144D01*
X18135044Y-10152856D01*
X18205756Y-10152856D01*
X18205756Y-10402856D02*
X18205756Y-10332144D01*
X18135044Y-10332144D01*
X18135044Y-10402856D01*
X18205756Y-10402856D01*
X18205756Y-10652856D02*
X18205756Y-10582144D01*
X18135044Y-10582144D01*
X18135044Y-10652856D01*
X18205756Y-10652856D01*
X18205756Y-10902856D02*
X18205756Y-10832144D01*
X18135044Y-10832144D01*
X18135044Y-10902856D01*
X18205756Y-10902856D01*
X18205756Y-11152856D02*
X18205756Y-11082144D01*
X18135044Y-11082144D01*
X18135044Y-11152856D01*
X18205756Y-11152856D01*
X18205756Y-11402856D02*
X18205756Y-11332144D01*
X18135044Y-11332144D01*
X18135044Y-11402856D01*
X18205756Y-11402856D01*
X18205756Y-11652856D02*
X18205756Y-11582144D01*
X18135044Y-11582144D01*
X18135044Y-11652856D01*
X18205756Y-11652856D01*
X18205756Y-11902856D02*
X18205756Y-11832144D01*
X18135044Y-11832144D01*
X18135044Y-11902856D01*
X18205756Y-11902856D01*
X18205756Y-12152856D02*
X18205756Y-12082144D01*
X18135044Y-12082144D01*
X18135044Y-12152856D01*
X18205756Y-12152856D01*
X18205756Y-12402856D02*
X18205756Y-12332144D01*
X18135044Y-12332144D01*
X18135044Y-12402856D01*
X18205756Y-12402856D01*
X21805756Y-4632856D02*
X21805756Y-4562144D01*
X21735044Y-4562144D01*
X21735044Y-4632856D01*
X21805756Y-4632856D01*
X21805756Y-4882856D02*
X21805756Y-4812144D01*
X21735044Y-4812144D01*
X21735044Y-4882856D01*
X21805756Y-4882856D01*
X21805756Y-5132856D02*
X21805756Y-5062144D01*
X21735044Y-5062144D01*
X21735044Y-5132856D01*
X21805756Y-5132856D01*
X21805756Y-5382856D02*
X21805756Y-5312144D01*
X21735044Y-5312144D01*
X21735044Y-5382856D01*
X21805756Y-5382856D01*
X21805756Y-5632856D02*
X21805756Y-5562144D01*
X21735044Y-5562144D01*
X21735044Y-5632856D01*
X21805756Y-5632856D01*
X21805756Y-5882856D02*
X21805756Y-5812144D01*
X21735044Y-5812144D01*
X21735044Y-5882856D01*
X21805756Y-5882856D01*
X21805756Y-6132856D02*
X21805756Y-6062144D01*
X21735044Y-6062144D01*
X21735044Y-6132856D01*
X21805756Y-6132856D01*
X21805756Y-6382856D02*
X21805756Y-6312144D01*
X21735044Y-6312144D01*
X21735044Y-6382856D01*
X21805756Y-6382856D01*
X21805756Y-6632856D02*
X21805756Y-6562144D01*
X21735044Y-6562144D01*
X21735044Y-6632856D01*
X21805756Y-6632856D01*
X21805756Y-6882856D02*
X21805756Y-6812144D01*
X21735044Y-6812144D01*
X21735044Y-6882856D01*
X21805756Y-6882856D01*
X21805756Y-7132856D02*
X21805756Y-7062144D01*
X21735044Y-7062144D01*
X21735044Y-7132856D01*
X21805756Y-7132856D01*
X21805756Y-7382856D02*
X21805756Y-7312144D01*
X21735044Y-7312144D01*
X21735044Y-7382856D01*
X21805756Y-7382856D01*
X21805756Y-7632856D02*
X21805756Y-7562144D01*
X21735044Y-7562144D01*
X21735044Y-7632856D01*
X21805756Y-7632856D01*
X21805756Y-7882856D02*
X21805756Y-7812144D01*
X21735044Y-7812144D01*
X21735044Y-7882856D01*
X21805756Y-7882856D01*
X21805756Y-8132856D02*
X21805756Y-8062144D01*
X21735044Y-8062144D01*
X21735044Y-8132856D01*
X21805756Y-8132856D01*
X21805756Y-8382856D02*
X21805756Y-8312144D01*
X21735044Y-8312144D01*
X21735044Y-8382856D01*
X21805756Y-8382856D01*
X21805756Y-8632856D02*
X21805756Y-8562144D01*
X21735044Y-8562144D01*
X21735044Y-8632856D01*
X21805756Y-8632856D01*
X21805756Y-8882856D02*
X21805756Y-8812144D01*
X21735044Y-8812144D01*
X21735044Y-8882856D01*
X21805756Y-8882856D01*
X21805756Y-9132856D02*
X21805756Y-9062144D01*
X21735044Y-9062144D01*
X21735044Y-9132856D01*
X21805756Y-9132856D01*
X21805756Y-9382856D02*
X21805756Y-9312144D01*
X21735044Y-9312144D01*
X21735044Y-9382856D01*
X21805756Y-9382856D01*
X21805756Y-9632856D02*
X21805756Y-9562144D01*
X21735044Y-9562144D01*
X21735044Y-9632856D01*
X21805756Y-9632856D01*
X21805756Y-9882856D02*
X21805756Y-9812144D01*
X21735044Y-9812144D01*
X21735044Y-9882856D01*
X21805756Y-9882856D01*
X21805756Y-10132856D02*
X21805756Y-10062144D01*
X21735044Y-10062144D01*
X21735044Y-10132856D01*
X21805756Y-10132856D01*
X21805756Y-10382856D02*
X21805756Y-10312144D01*
X21735044Y-10312144D01*
X21735044Y-10382856D01*
X21805756Y-10382856D01*
X21805756Y-10632856D02*
X21805756Y-10562144D01*
X21735044Y-10562144D01*
X21735044Y-10632856D01*
X21805756Y-10632856D01*
X21805756Y-10882856D02*
X21805756Y-10812144D01*
X21735044Y-10812144D01*
X21735044Y-10882856D01*
X21805756Y-10882856D01*
X21805756Y-11132856D02*
X21805756Y-11062144D01*
X21735044Y-11062144D01*
X21735044Y-11132856D01*
X21805756Y-11132856D01*
X21805756Y-11382856D02*
X21805756Y-11312144D01*
X21735044Y-11312144D01*
X21735044Y-11382856D01*
X21805756Y-11382856D01*
X21805756Y-11632856D02*
X21805756Y-11562144D01*
X21735044Y-11562144D01*
X21735044Y-11632856D01*
X21805756Y-11632856D01*
X21805756Y-11882856D02*
X21805756Y-11812144D01*
X21735044Y-11812144D01*
X21735044Y-11882856D01*
X21805756Y-11882856D01*
X21805756Y-12132856D02*
X21805756Y-12062144D01*
X21735044Y-12062144D01*
X21735044Y-12132856D01*
X21805756Y-12132856D01*
X21805756Y-12382856D02*
X21805756Y-12312144D01*
X21735044Y-12312144D01*
X21735044Y-12382856D01*
X21805756Y-12382856D01*
X22055756Y-4632856D02*
X22055756Y-4562144D01*
X21985044Y-4562144D01*
X21985044Y-4632856D01*
X22055756Y-4632856D01*
X22055756Y-4882856D02*
X22055756Y-4812144D01*
X21985044Y-4812144D01*
X21985044Y-4882856D01*
X22055756Y-4882856D01*
X22055756Y-5132856D02*
X22055756Y-5062144D01*
X21985044Y-5062144D01*
X21985044Y-5132856D01*
X22055756Y-5132856D01*
X22055756Y-5382856D02*
X22055756Y-5312144D01*
X21985044Y-5312144D01*
X21985044Y-5382856D01*
X22055756Y-5382856D01*
X22055756Y-5632856D02*
X22055756Y-5562144D01*
X21985044Y-5562144D01*
X21985044Y-5632856D01*
X22055756Y-5632856D01*
X22055756Y-5882856D02*
X22055756Y-5812144D01*
X21985044Y-5812144D01*
X21985044Y-5882856D01*
X22055756Y-5882856D01*
X22055756Y-6132856D02*
X22055756Y-6062144D01*
X21985044Y-6062144D01*
X21985044Y-6132856D01*
X22055756Y-6132856D01*
X22055756Y-6382856D02*
X22055756Y-6312144D01*
X21985044Y-6312144D01*
X21985044Y-6382856D01*
X22055756Y-6382856D01*
X22055756Y-6632856D02*
X22055756Y-6562144D01*
X21985044Y-6562144D01*
X21985044Y-6632856D01*
X22055756Y-6632856D01*
X22055756Y-6882856D02*
X22055756Y-6812144D01*
X21985044Y-6812144D01*
X21985044Y-6882856D01*
X22055756Y-6882856D01*
X22055756Y-7132856D02*
X22055756Y-7062144D01*
X21985044Y-7062144D01*
X21985044Y-7132856D01*
X22055756Y-7132856D01*
X22055756Y-7382856D02*
X22055756Y-7312144D01*
X21985044Y-7312144D01*
X21985044Y-7382856D01*
X22055756Y-7382856D01*
X22055756Y-7632856D02*
X22055756Y-7562144D01*
X21985044Y-7562144D01*
X21985044Y-7632856D01*
X22055756Y-7632856D01*
X22055756Y-7882856D02*
X22055756Y-7812144D01*
X21985044Y-7812144D01*
X21985044Y-7882856D01*
X22055756Y-7882856D01*
X22055756Y-8132856D02*
X22055756Y-8062144D01*
X21985044Y-8062144D01*
X21985044Y-8132856D01*
X22055756Y-8132856D01*
X22055756Y-8382856D02*
X22055756Y-8312144D01*
X21985044Y-8312144D01*
X21985044Y-8382856D01*
X22055756Y-8382856D01*
X22055756Y-8632856D02*
X22055756Y-8562144D01*
X21985044Y-8562144D01*
X21985044Y-8632856D01*
X22055756Y-8632856D01*
X22055756Y-8882856D02*
X22055756Y-8812144D01*
X21985044Y-8812144D01*
X21985044Y-8882856D01*
X22055756Y-8882856D01*
X22055756Y-9132856D02*
X22055756Y-9062144D01*
X21985044Y-9062144D01*
X21985044Y-9132856D01*
X22055756Y-9132856D01*
X22055756Y-9382856D02*
X22055756Y-9312144D01*
X21985044Y-9312144D01*
X21985044Y-9382856D01*
X22055756Y-9382856D01*
X22055756Y-9632856D02*
X22055756Y-9562144D01*
X21985044Y-9562144D01*
X21985044Y-9632856D01*
X22055756Y-9632856D01*
X22055756Y-9882856D02*
X22055756Y-9812144D01*
X21985044Y-9812144D01*
X21985044Y-9882856D01*
X22055756Y-9882856D01*
X22055756Y-10132856D02*
X22055756Y-10062144D01*
X21985044Y-10062144D01*
X21985044Y-10132856D01*
X22055756Y-10132856D01*
X22055756Y-10382856D02*
X22055756Y-10312144D01*
X21985044Y-10312144D01*
X21985044Y-10382856D01*
X22055756Y-10382856D01*
X22055756Y-10632856D02*
X22055756Y-10562144D01*
X21985044Y-10562144D01*
X21985044Y-10632856D01*
X22055756Y-10632856D01*
X22055756Y-10882856D02*
X22055756Y-10812144D01*
X21985044Y-10812144D01*
X21985044Y-10882856D01*
X22055756Y-10882856D01*
X22055756Y-11132856D02*
X22055756Y-11062144D01*
X21985044Y-11062144D01*
X21985044Y-11132856D01*
X22055756Y-11132856D01*
X22055756Y-11382856D02*
X22055756Y-11312144D01*
X21985044Y-11312144D01*
X21985044Y-11382856D01*
X22055756Y-11382856D01*
X22055756Y-11632856D02*
X22055756Y-11562144D01*
X21985044Y-11562144D01*
X21985044Y-11632856D01*
X22055756Y-11632856D01*
X22055756Y-11882856D02*
X22055756Y-11812144D01*
X21985044Y-11812144D01*
X21985044Y-11882856D01*
X22055756Y-11882856D01*
X22055756Y-12132856D02*
X22055756Y-12062144D01*
X21985044Y-12062144D01*
X21985044Y-12132856D01*
X22055756Y-12132856D01*
X22055756Y-12382856D02*
X22055756Y-12312144D01*
X21985044Y-12312144D01*
X21985044Y-12382856D01*
X22055756Y-12382856D01*
X22305756Y-4632856D02*
X22305756Y-4562144D01*
X22235044Y-4562144D01*
X22235044Y-4632856D01*
X22305756Y-4632856D01*
X22305756Y-4882856D02*
X22305756Y-4812144D01*
X22235044Y-4812144D01*
X22235044Y-4882856D01*
X22305756Y-4882856D01*
X22305756Y-5132856D02*
X22305756Y-5062144D01*
X22235044Y-5062144D01*
X22235044Y-5132856D01*
X22305756Y-5132856D01*
X22305756Y-5382856D02*
X22305756Y-5312144D01*
X22235044Y-5312144D01*
X22235044Y-5382856D01*
X22305756Y-5382856D01*
X22305756Y-5632856D02*
X22305756Y-5562144D01*
X22235044Y-5562144D01*
X22235044Y-5632856D01*
X22305756Y-5632856D01*
X22305756Y-5882856D02*
X22305756Y-5812144D01*
X22235044Y-5812144D01*
X22235044Y-5882856D01*
X22305756Y-5882856D01*
X22305756Y-6132856D02*
X22305756Y-6062144D01*
X22235044Y-6062144D01*
X22235044Y-6132856D01*
X22305756Y-6132856D01*
X22305756Y-6382856D02*
X22305756Y-6312144D01*
X22235044Y-6312144D01*
X22235044Y-6382856D01*
X22305756Y-6382856D01*
X22305756Y-6632856D02*
X22305756Y-6562144D01*
X22235044Y-6562144D01*
X22235044Y-6632856D01*
X22305756Y-6632856D01*
X22305756Y-6882856D02*
X22305756Y-6812144D01*
X22235044Y-6812144D01*
X22235044Y-6882856D01*
X22305756Y-6882856D01*
X22305756Y-7132856D02*
X22305756Y-7062144D01*
X22235044Y-7062144D01*
X22235044Y-7132856D01*
X22305756Y-7132856D01*
X22305756Y-7382856D02*
X22305756Y-7312144D01*
X22235044Y-7312144D01*
X22235044Y-7382856D01*
X22305756Y-7382856D01*
X22305756Y-7632856D02*
X22305756Y-7562144D01*
X22235044Y-7562144D01*
X22235044Y-7632856D01*
X22305756Y-7632856D01*
X22305756Y-7882856D02*
X22305756Y-7812144D01*
X22235044Y-7812144D01*
X22235044Y-7882856D01*
X22305756Y-7882856D01*
X22305756Y-8132856D02*
X22305756Y-8062144D01*
X22235044Y-8062144D01*
X22235044Y-8132856D01*
X22305756Y-8132856D01*
X22305756Y-8382856D02*
X22305756Y-8312144D01*
X22235044Y-8312144D01*
X22235044Y-8382856D01*
X22305756Y-8382856D01*
X22305756Y-8632856D02*
X22305756Y-8562144D01*
X22235044Y-8562144D01*
X22235044Y-8632856D01*
X22305756Y-8632856D01*
X22305756Y-8882856D02*
X22305756Y-8812144D01*
X22235044Y-8812144D01*
X22235044Y-8882856D01*
X22305756Y-8882856D01*
X22305756Y-9132856D02*
X22305756Y-9062144D01*
X22235044Y-9062144D01*
X22235044Y-9132856D01*
X22305756Y-9132856D01*
X22305756Y-9382856D02*
X22305756Y-9312144D01*
X22235044Y-9312144D01*
X22235044Y-9382856D01*
X22305756Y-9382856D01*
X22305756Y-9632856D02*
X22305756Y-9562144D01*
X22235044Y-9562144D01*
X22235044Y-9632856D01*
X22305756Y-9632856D01*
X22305756Y-9882856D02*
X22305756Y-9812144D01*
X22235044Y-9812144D01*
X22235044Y-9882856D01*
X22305756Y-9882856D01*
X22305756Y-10132856D02*
X22305756Y-10062144D01*
X22235044Y-10062144D01*
X22235044Y-10132856D01*
X22305756Y-10132856D01*
X22305756Y-10382856D02*
X22305756Y-10312144D01*
X22235044Y-10312144D01*
X22235044Y-10382856D01*
X22305756Y-10382856D01*
X22305756Y-10632856D02*
X22305756Y-10562144D01*
X22235044Y-10562144D01*
X22235044Y-10632856D01*
X22305756Y-10632856D01*
X22305756Y-10882856D02*
X22305756Y-10812144D01*
X22235044Y-10812144D01*
X22235044Y-10882856D01*
X22305756Y-10882856D01*
X22305756Y-11132856D02*
X22305756Y-11062144D01*
X22235044Y-11062144D01*
X22235044Y-11132856D01*
X22305756Y-11132856D01*
X22305756Y-11382856D02*
X22305756Y-11312144D01*
X22235044Y-11312144D01*
X22235044Y-11382856D01*
X22305756Y-11382856D01*
X22305756Y-11632856D02*
X22305756Y-11562144D01*
X22235044Y-11562144D01*
X22235044Y-11632856D01*
X22305756Y-11632856D01*
X22305756Y-11882856D02*
X22305756Y-11812144D01*
X22235044Y-11812144D01*
X22235044Y-11882856D01*
X22305756Y-11882856D01*
X22305756Y-12132856D02*
X22305756Y-12062144D01*
X22235044Y-12062144D01*
X22235044Y-12132856D01*
X22305756Y-12132856D01*
X22305756Y-12382856D02*
X22305756Y-12312144D01*
X22235044Y-12312144D01*
X22235044Y-12382856D01*
X22305756Y-12382856D01*
D12*
X19751100Y-4676700D02*
X19801900Y-4625900D01*
X19751100Y-4575100D01*
X19700300Y-4625900D01*
X19751100Y-4676700D01*
X19751100Y-4930700D02*
X19801900Y-4879900D01*
X19751100Y-4829100D01*
X19700300Y-4879900D01*
X19751100Y-4930700D01*
X19751100Y-5184700D02*
X19801900Y-5133900D01*
X19751100Y-5083100D01*
X19700300Y-5133900D01*
X19751100Y-5184700D01*
X19751100Y-5438700D02*
X19801900Y-5387900D01*
X19751100Y-5337100D01*
X19700300Y-5387900D01*
X19751100Y-5438700D01*
X19751100Y-5946700D02*
X19801900Y-5895900D01*
X19751100Y-5845100D01*
X19700300Y-5895900D01*
X19751100Y-5946700D01*
X19751100Y-6200700D02*
X19801900Y-6149900D01*
X19751100Y-6099100D01*
X19700300Y-6149900D01*
X19751100Y-6200700D01*
X19751100Y-6454700D02*
X19801900Y-6403900D01*
X19751100Y-6353100D01*
X19700300Y-6403900D01*
X19751100Y-6454700D01*
X19751100Y-6708700D02*
X19801900Y-6657900D01*
X19751100Y-6607100D01*
X19700300Y-6657900D01*
X19751100Y-6708700D01*
X19751100Y-6962700D02*
X19801900Y-6911900D01*
X19751100Y-6861100D01*
X19700300Y-6911900D01*
X19751100Y-6962700D01*
X19751100Y-7216700D02*
X19801900Y-7165900D01*
X19751100Y-7115100D01*
X19700300Y-7165900D01*
X19751100Y-7216700D01*
X19751100Y-7470700D02*
X19801900Y-7419900D01*
X19751100Y-7369100D01*
X19700300Y-7419900D01*
X19751100Y-7470700D01*
X19751100Y-7724700D02*
X19801900Y-7673900D01*
X19751100Y-7623100D01*
X19700300Y-7673900D01*
X19751100Y-7724700D01*
X19751100Y-7978700D02*
X19801900Y-7927900D01*
X19751100Y-7877100D01*
X19700300Y-7927900D01*
X19751100Y-7978700D01*
X19751100Y-8232700D02*
X19801900Y-8181900D01*
X19751100Y-8131100D01*
X19700300Y-8181900D01*
X19751100Y-8232700D01*
X19751100Y-8486700D02*
X19801900Y-8435900D01*
X19751100Y-8385100D01*
X19700300Y-8435900D01*
X19751100Y-8486700D01*
X19751100Y-8740700D02*
X19801900Y-8689900D01*
X19751100Y-8639100D01*
X19700300Y-8689900D01*
X19751100Y-8740700D01*
X19751100Y-8994700D02*
X19801900Y-8943900D01*
X19751100Y-8893100D01*
X19700300Y-8943900D01*
X19751100Y-8994700D01*
X19751100Y-9248700D02*
X19801900Y-9197900D01*
X19751100Y-9147100D01*
X19700300Y-9197900D01*
X19751100Y-9248700D01*
X19751100Y-9502700D02*
X19801900Y-9451900D01*
X19751100Y-9401100D01*
X19700300Y-9451900D01*
X19751100Y-9502700D01*
X19751100Y-9756700D02*
X19801900Y-9705900D01*
X19751100Y-9655100D01*
X19700300Y-9705900D01*
X19751100Y-9756700D01*
X19751100Y-10010700D02*
X19801900Y-9959900D01*
X19751100Y-9909100D01*
X19700300Y-9959900D01*
X19751100Y-10010700D01*
X19751100Y-10264700D02*
X19801900Y-10213900D01*
X19751100Y-10163100D01*
X19700300Y-10213900D01*
X19751100Y-10264700D01*
X19751100Y-10518700D02*
X19801900Y-10467900D01*
X19751100Y-10417100D01*
X19700300Y-10467900D01*
X19751100Y-10518700D01*
X19751100Y-10772700D02*
X19801900Y-10721900D01*
X19751100Y-10671100D01*
X19700300Y-10721900D01*
X19751100Y-10772700D01*
X19751100Y-11026700D02*
X19801900Y-10975900D01*
X19751100Y-10925100D01*
X19700300Y-10975900D01*
X19751100Y-11026700D01*
X19751100Y-11280700D02*
X19801900Y-11229900D01*
X19751100Y-11179100D01*
X19700300Y-11229900D01*
X19751100Y-11280700D01*
X19751100Y-11534700D02*
X19801900Y-11483900D01*
X19751100Y-11433100D01*
X19700300Y-11483900D01*
X19751100Y-11534700D01*
X20259100Y-4676700D02*
X20309900Y-4625900D01*
X20259100Y-4575100D01*
X20208300Y-4625900D01*
X20259100Y-4676700D01*
X20259100Y-4930700D02*
X20309900Y-4879900D01*
X20259100Y-4829100D01*
X20208300Y-4879900D01*
X20259100Y-4930700D01*
X20259100Y-5184700D02*
X20309900Y-5133900D01*
X20259100Y-5083100D01*
X20208300Y-5133900D01*
X20259100Y-5184700D01*
X20259100Y-5438700D02*
X20309900Y-5387900D01*
X20259100Y-5337100D01*
X20208300Y-5387900D01*
X20259100Y-5438700D01*
X20259100Y-5946700D02*
X20309900Y-5895900D01*
X20259100Y-5845100D01*
X20208300Y-5895900D01*
X20259100Y-5946700D01*
X20259100Y-6200700D02*
X20309900Y-6149900D01*
X20259100Y-6099100D01*
X20208300Y-6149900D01*
X20259100Y-6200700D01*
X20259100Y-6454700D02*
X20309900Y-6403900D01*
X20259100Y-6353100D01*
X20208300Y-6403900D01*
X20259100Y-6454700D01*
X20259100Y-6708700D02*
X20309900Y-6657900D01*
X20259100Y-6607100D01*
X20208300Y-6657900D01*
X20259100Y-6708700D01*
X20259100Y-6962700D02*
X20309900Y-6911900D01*
X20259100Y-6861100D01*
X20208300Y-6911900D01*
X20259100Y-6962700D01*
X20259100Y-7216700D02*
X20309900Y-7165900D01*
X20259100Y-7115100D01*
X20208300Y-7165900D01*
X20259100Y-7216700D01*
X20259100Y-7470700D02*
X20309900Y-7419900D01*
X20259100Y-7369100D01*
X20208300Y-7419900D01*
X20259100Y-7470700D01*
X20259100Y-7724700D02*
X20309900Y-7673900D01*
X20259100Y-7623100D01*
X20208300Y-7673900D01*
X20259100Y-7724700D01*
X20259100Y-7978700D02*
X20309900Y-7927900D01*
X20259100Y-7877100D01*
X20208300Y-7927900D01*
X20259100Y-7978700D01*
X20259100Y-8232700D02*
X20309900Y-8181900D01*
X20259100Y-8131100D01*
X20208300Y-8181900D01*
X20259100Y-8232700D01*
X20259100Y-8486700D02*
X20309900Y-8435900D01*
X20259100Y-8385100D01*
X20208300Y-8435900D01*
X20259100Y-8486700D01*
X20259100Y-8740700D02*
X20309900Y-8689900D01*
X20259100Y-8639100D01*
X20208300Y-8689900D01*
X20259100Y-8740700D01*
X20259100Y-8994700D02*
X20309900Y-8943900D01*
X20259100Y-8893100D01*
X20208300Y-8943900D01*
X20259100Y-8994700D01*
X20259100Y-9248700D02*
X20309900Y-9197900D01*
X20259100Y-9147100D01*
X20208300Y-9197900D01*
X20259100Y-9248700D01*
X20259100Y-9502700D02*
X20309900Y-9451900D01*
X20259100Y-9401100D01*
X20208300Y-9451900D01*
X20259100Y-9502700D01*
X20259100Y-9756700D02*
X20309900Y-9705900D01*
X20259100Y-9655100D01*
X20208300Y-9705900D01*
X20259100Y-9756700D01*
X20259100Y-10010700D02*
X20309900Y-9959900D01*
X20259100Y-9909100D01*
X20208300Y-9959900D01*
X20259100Y-10010700D01*
X20259100Y-10264700D02*
X20309900Y-10213900D01*
X20259100Y-10163100D01*
X20208300Y-10213900D01*
X20259100Y-10264700D01*
X20259100Y-10518700D02*
X20309900Y-10467900D01*
X20259100Y-10417100D01*
X20208300Y-10467900D01*
X20259100Y-10518700D01*
X20259100Y-10772700D02*
X20309900Y-10721900D01*
X20259100Y-10671100D01*
X20208300Y-10721900D01*
X20259100Y-10772700D01*
X20259100Y-11026700D02*
X20309900Y-10975900D01*
X20259100Y-10925100D01*
X20208300Y-10975900D01*
X20259100Y-11026700D01*
X20259100Y-11280700D02*
X20309900Y-11229900D01*
X20259100Y-11179100D01*
X20208300Y-11229900D01*
X20259100Y-11280700D01*
X20259100Y-11534700D02*
X20309900Y-11483900D01*
X20259100Y-11433100D01*
X20208300Y-11483900D01*
X20259100Y-11534700D01*
D13*
X12440400Y-3977500D02*
X12720400Y-4257500D01*
X12720400Y-3977500D02*
X12440400Y-4257500D01*
X12720400Y-4117500D02*
G75*
G03*
X12440400Y-4117500I-140000J0D01*
G01*
X12440400Y-4117500D02*
G75*
G03*
X12720400Y-4117500I140000J0D01*
G01*
X12440400Y-12977500D02*
X12720400Y-13257500D01*
X12720400Y-12977500D02*
X12440400Y-13257500D01*
X12720400Y-13117500D02*
G75*
G03*
X12440400Y-13117500I-140000J0D01*
G01*
X12440400Y-13117500D02*
G75*
G03*
X12720400Y-13117500I140000J0D01*
G01*
X15110400Y-3977500D02*
X15390400Y-4257500D01*
X15390400Y-3977500D02*
X15110400Y-4257500D01*
X15390400Y-4117500D02*
G75*
G03*
X15110400Y-4117500I-140000J0D01*
G01*
X15110400Y-4117500D02*
G75*
G03*
X15390400Y-4117500I140000J0D01*
G01*
X15110400Y-12977500D02*
X15390400Y-13257500D01*
X15390400Y-12977500D02*
X15110400Y-13257500D01*
X15390400Y-13117500D02*
G75*
G03*
X15110400Y-13117500I-140000J0D01*
G01*
X15110400Y-13117500D02*
G75*
G03*
X15390400Y-13117500I140000J0D01*
G01*
X17780400Y-3977500D02*
X18060400Y-4257500D01*
X18060400Y-3977500D02*
X17780400Y-4257500D01*
X18060400Y-4117500D02*
G75*
G03*
X17780400Y-4117500I-140000J0D01*
G01*
X17780400Y-4117500D02*
G75*
G03*
X18060400Y-4117500I140000J0D01*
G01*
X17780400Y-12977500D02*
X18060400Y-13257500D01*
X18060400Y-12977500D02*
X17780400Y-13257500D01*
X18060400Y-13117500D02*
G75*
G03*
X17780400Y-13117500I-140000J0D01*
G01*
X17780400Y-13117500D02*
G75*
G03*
X18060400Y-13117500I140000J0D01*
G01*
X22380400Y-3957500D02*
X22660400Y-4237500D01*
X22660400Y-3957500D02*
X22380400Y-4237500D01*
X22660400Y-4097500D02*
G75*
G03*
X22380400Y-4097500I-140000J0D01*
G01*
X22380400Y-4097500D02*
G75*
G03*
X22660400Y-4097500I140000J0D01*
G01*
X22380400Y-12707500D02*
X22660400Y-12987500D01*
X22660400Y-12707500D02*
X22380400Y-12987500D01*
X22660400Y-12847500D02*
G75*
G03*
X22380400Y-12847500I-140000J0D01*
G01*
X22380400Y-12847500D02*
G75*
G03*
X22660400Y-12847500I140000J0D01*
G01*
D11*
X8775575Y-13816484D02*
X8775575Y-13616484D01*
X8775575Y-13616484D02*
X8823194Y-13616484D01*
X8823194Y-13616484D02*
X8851765Y-13626008D01*
X8851765Y-13626008D02*
X8870813Y-13645055D01*
X8870813Y-13645055D02*
X8880337Y-13664103D01*
X8880337Y-13664103D02*
X8889861Y-13702198D01*
X8889861Y-13702198D02*
X8889861Y-13730769D01*
X8889861Y-13730769D02*
X8880337Y-13768865D01*
X8880337Y-13768865D02*
X8870813Y-13787912D01*
X8870813Y-13787912D02*
X8851765Y-13806960D01*
X8851765Y-13806960D02*
X8823194Y-13816484D01*
X8823194Y-13816484D02*
X8775575Y-13816484D01*
X8975575Y-13816484D02*
X8975575Y-13683150D01*
X8975575Y-13721246D02*
X8985099Y-13702198D01*
X8985099Y-13702198D02*
X8994622Y-13692674D01*
X8994622Y-13692674D02*
X9013670Y-13683150D01*
X9013670Y-13683150D02*
X9032718Y-13683150D01*
X9099384Y-13816484D02*
X9099384Y-13683150D01*
X9099384Y-13616484D02*
X9089861Y-13626008D01*
X9089861Y-13626008D02*
X9099384Y-13635531D01*
X9099384Y-13635531D02*
X9108908Y-13626008D01*
X9108908Y-13626008D02*
X9099384Y-13616484D01*
X9099384Y-13616484D02*
X9099384Y-13635531D01*
X9223194Y-13816484D02*
X9204146Y-13806960D01*
X9204146Y-13806960D02*
X9194622Y-13787912D01*
X9194622Y-13787912D02*
X9194622Y-13616484D01*
X9327956Y-13816484D02*
X9308908Y-13806960D01*
X9308908Y-13806960D02*
X9299384Y-13787912D01*
X9299384Y-13787912D02*
X9299384Y-13616484D01*
X9556527Y-13816484D02*
X9556527Y-13616484D01*
X9556527Y-13616484D02*
X9623194Y-13759341D01*
X9623194Y-13759341D02*
X9689861Y-13616484D01*
X9689861Y-13616484D02*
X9689861Y-13816484D01*
X9870813Y-13816484D02*
X9870813Y-13711722D01*
X9870813Y-13711722D02*
X9861289Y-13692674D01*
X9861289Y-13692674D02*
X9842242Y-13683150D01*
X9842242Y-13683150D02*
X9804146Y-13683150D01*
X9804146Y-13683150D02*
X9785099Y-13692674D01*
X9870813Y-13806960D02*
X9851765Y-13816484D01*
X9851765Y-13816484D02*
X9804146Y-13816484D01*
X9804146Y-13816484D02*
X9785099Y-13806960D01*
X9785099Y-13806960D02*
X9775575Y-13787912D01*
X9775575Y-13787912D02*
X9775575Y-13768865D01*
X9775575Y-13768865D02*
X9785099Y-13749817D01*
X9785099Y-13749817D02*
X9804146Y-13740293D01*
X9804146Y-13740293D02*
X9851765Y-13740293D01*
X9851765Y-13740293D02*
X9870813Y-13730769D01*
X9966051Y-13683150D02*
X9966051Y-13883150D01*
X9966051Y-13692674D02*
X9985099Y-13683150D01*
X9985099Y-13683150D02*
X10023194Y-13683150D01*
X10023194Y-13683150D02*
X10042242Y-13692674D01*
X10042242Y-13692674D02*
X10051765Y-13702198D01*
X10051765Y-13702198D02*
X10061289Y-13721246D01*
X10061289Y-13721246D02*
X10061289Y-13778388D01*
X10061289Y-13778388D02*
X10051765Y-13797436D01*
X10051765Y-13797436D02*
X10042242Y-13806960D01*
X10042242Y-13806960D02*
X10023194Y-13816484D01*
X10023194Y-13816484D02*
X9985099Y-13816484D01*
X9985099Y-13816484D02*
X9966051Y-13806960D01*
X10147003Y-13797436D02*
X10156527Y-13806960D01*
X10156527Y-13806960D02*
X10147003Y-13816484D01*
X10147003Y-13816484D02*
X10137480Y-13806960D01*
X10137480Y-13806960D02*
X10147003Y-13797436D01*
X10147003Y-13797436D02*
X10147003Y-13816484D01*
X10147003Y-13692674D02*
X10156527Y-13702198D01*
X10156527Y-13702198D02*
X10147003Y-13711722D01*
X10147003Y-13711722D02*
X10137480Y-13702198D01*
X10137480Y-13702198D02*
X10147003Y-13692674D01*
X10147003Y-13692674D02*
X10147003Y-13711722D01*
D10*
X8474798Y-14125000D02*
X8514798Y-14165000D01*
X8514798Y-14125000D02*
X8474798Y-14165000D01*
D11*
X8813670Y-14036484D02*
X8832718Y-14036484D01*
X8832718Y-14036484D02*
X8851765Y-14046008D01*
X8851765Y-14046008D02*
X8861289Y-14055531D01*
X8861289Y-14055531D02*
X8870813Y-14074579D01*
X8870813Y-14074579D02*
X8880337Y-14112674D01*
X8880337Y-14112674D02*
X8880337Y-14160293D01*
X8880337Y-14160293D02*
X8870813Y-14198388D01*
X8870813Y-14198388D02*
X8861289Y-14217436D01*
X8861289Y-14217436D02*
X8851765Y-14226960D01*
X8851765Y-14226960D02*
X8832718Y-14236484D01*
X8832718Y-14236484D02*
X8813670Y-14236484D01*
X8813670Y-14236484D02*
X8794622Y-14226960D01*
X8794622Y-14226960D02*
X8785099Y-14217436D01*
X8785099Y-14217436D02*
X8775575Y-14198388D01*
X8775575Y-14198388D02*
X8766051Y-14160293D01*
X8766051Y-14160293D02*
X8766051Y-14112674D01*
X8766051Y-14112674D02*
X8775575Y-14074579D01*
X8775575Y-14074579D02*
X8785099Y-14055531D01*
X8785099Y-14055531D02*
X8794622Y-14046008D01*
X8794622Y-14046008D02*
X8813670Y-14036484D01*
X8966051Y-14217436D02*
X8975575Y-14226960D01*
X8975575Y-14226960D02*
X8966051Y-14236484D01*
X8966051Y-14236484D02*
X8956527Y-14226960D01*
X8956527Y-14226960D02*
X8966051Y-14217436D01*
X8966051Y-14217436D02*
X8966051Y-14236484D01*
X9147003Y-14103150D02*
X9147003Y-14236484D01*
X9099384Y-14026960D02*
X9051765Y-14169817D01*
X9051765Y-14169817D02*
X9175575Y-14169817D01*
X9289861Y-14036484D02*
X9308908Y-14036484D01*
X9308908Y-14036484D02*
X9327956Y-14046008D01*
X9327956Y-14046008D02*
X9337480Y-14055531D01*
X9337480Y-14055531D02*
X9347003Y-14074579D01*
X9347003Y-14074579D02*
X9356527Y-14112674D01*
X9356527Y-14112674D02*
X9356527Y-14160293D01*
X9356527Y-14160293D02*
X9347003Y-14198388D01*
X9347003Y-14198388D02*
X9337480Y-14217436D01*
X9337480Y-14217436D02*
X9327956Y-14226960D01*
X9327956Y-14226960D02*
X9308908Y-14236484D01*
X9308908Y-14236484D02*
X9289861Y-14236484D01*
X9289861Y-14236484D02*
X9270813Y-14226960D01*
X9270813Y-14226960D02*
X9261289Y-14217436D01*
X9261289Y-14217436D02*
X9251765Y-14198388D01*
X9251765Y-14198388D02*
X9242242Y-14160293D01*
X9242242Y-14160293D02*
X9242242Y-14112674D01*
X9242242Y-14112674D02*
X9251765Y-14074579D01*
X9251765Y-14074579D02*
X9261289Y-14055531D01*
X9261289Y-14055531D02*
X9270813Y-14046008D01*
X9270813Y-14046008D02*
X9289861Y-14036484D01*
X9480337Y-14036484D02*
X9499384Y-14036484D01*
X9499384Y-14036484D02*
X9518432Y-14046008D01*
X9518432Y-14046008D02*
X9527956Y-14055531D01*
X9527956Y-14055531D02*
X9537480Y-14074579D01*
X9537480Y-14074579D02*
X9547003Y-14112674D01*
X9547003Y-14112674D02*
X9547003Y-14160293D01*
X9547003Y-14160293D02*
X9537480Y-14198388D01*
X9537480Y-14198388D02*
X9527956Y-14217436D01*
X9527956Y-14217436D02*
X9518432Y-14226960D01*
X9518432Y-14226960D02*
X9499384Y-14236484D01*
X9499384Y-14236484D02*
X9480337Y-14236484D01*
X9480337Y-14236484D02*
X9461289Y-14226960D01*
X9461289Y-14226960D02*
X9451765Y-14217436D01*
X9451765Y-14217436D02*
X9442242Y-14198388D01*
X9442242Y-14198388D02*
X9432718Y-14160293D01*
X9432718Y-14160293D02*
X9432718Y-14112674D01*
X9432718Y-14112674D02*
X9442242Y-14074579D01*
X9442242Y-14074579D02*
X9451765Y-14055531D01*
X9451765Y-14055531D02*
X9461289Y-14046008D01*
X9461289Y-14046008D02*
X9480337Y-14036484D01*
X9632718Y-14236484D02*
X9632718Y-14103150D01*
X9632718Y-14122198D02*
X9642242Y-14112674D01*
X9642242Y-14112674D02*
X9661289Y-14103150D01*
X9661289Y-14103150D02*
X9689861Y-14103150D01*
X9689861Y-14103150D02*
X9708908Y-14112674D01*
X9708908Y-14112674D02*
X9718432Y-14131722D01*
X9718432Y-14131722D02*
X9718432Y-14236484D01*
X9718432Y-14131722D02*
X9727956Y-14112674D01*
X9727956Y-14112674D02*
X9747003Y-14103150D01*
X9747003Y-14103150D02*
X9775575Y-14103150D01*
X9775575Y-14103150D02*
X9794623Y-14112674D01*
X9794623Y-14112674D02*
X9804146Y-14131722D01*
X9804146Y-14131722D02*
X9804146Y-14236484D01*
X9899384Y-14236484D02*
X9899384Y-14103150D01*
X9899384Y-14122198D02*
X9908908Y-14112674D01*
X9908908Y-14112674D02*
X9927956Y-14103150D01*
X9927956Y-14103150D02*
X9956527Y-14103150D01*
X9956527Y-14103150D02*
X9975575Y-14112674D01*
X9975575Y-14112674D02*
X9985099Y-14131722D01*
X9985099Y-14131722D02*
X9985099Y-14236484D01*
X9985099Y-14131722D02*
X9994623Y-14112674D01*
X9994623Y-14112674D02*
X10013670Y-14103150D01*
X10013670Y-14103150D02*
X10042242Y-14103150D01*
X10042242Y-14103150D02*
X10061289Y-14112674D01*
X10061289Y-14112674D02*
X10070813Y-14131722D01*
X10070813Y-14131722D02*
X10070813Y-14236484D01*
X10461289Y-14026960D02*
X10289861Y-14284103D01*
X10718432Y-14036484D02*
X10737480Y-14036484D01*
X10737480Y-14036484D02*
X10756527Y-14046008D01*
X10756527Y-14046008D02*
X10766051Y-14055531D01*
X10766051Y-14055531D02*
X10775575Y-14074579D01*
X10775575Y-14074579D02*
X10785099Y-14112674D01*
X10785099Y-14112674D02*
X10785099Y-14160293D01*
X10785099Y-14160293D02*
X10775575Y-14198388D01*
X10775575Y-14198388D02*
X10766051Y-14217436D01*
X10766051Y-14217436D02*
X10756527Y-14226960D01*
X10756527Y-14226960D02*
X10737480Y-14236484D01*
X10737480Y-14236484D02*
X10718432Y-14236484D01*
X10718432Y-14236484D02*
X10699385Y-14226960D01*
X10699385Y-14226960D02*
X10689861Y-14217436D01*
X10689861Y-14217436D02*
X10680337Y-14198388D01*
X10680337Y-14198388D02*
X10670813Y-14160293D01*
X10670813Y-14160293D02*
X10670813Y-14112674D01*
X10670813Y-14112674D02*
X10680337Y-14074579D01*
X10680337Y-14074579D02*
X10689861Y-14055531D01*
X10689861Y-14055531D02*
X10699385Y-14046008D01*
X10699385Y-14046008D02*
X10718432Y-14036484D01*
X10870813Y-14217436D02*
X10880337Y-14226960D01*
X10880337Y-14226960D02*
X10870813Y-14236484D01*
X10870813Y-14236484D02*
X10861289Y-14226960D01*
X10861289Y-14226960D02*
X10870813Y-14217436D01*
X10870813Y-14217436D02*
X10870813Y-14236484D01*
X11004146Y-14036484D02*
X11023194Y-14036484D01*
X11023194Y-14036484D02*
X11042242Y-14046008D01*
X11042242Y-14046008D02*
X11051766Y-14055531D01*
X11051766Y-14055531D02*
X11061289Y-14074579D01*
X11061289Y-14074579D02*
X11070813Y-14112674D01*
X11070813Y-14112674D02*
X11070813Y-14160293D01*
X11070813Y-14160293D02*
X11061289Y-14198388D01*
X11061289Y-14198388D02*
X11051766Y-14217436D01*
X11051766Y-14217436D02*
X11042242Y-14226960D01*
X11042242Y-14226960D02*
X11023194Y-14236484D01*
X11023194Y-14236484D02*
X11004146Y-14236484D01*
X11004146Y-14236484D02*
X10985099Y-14226960D01*
X10985099Y-14226960D02*
X10975575Y-14217436D01*
X10975575Y-14217436D02*
X10966051Y-14198388D01*
X10966051Y-14198388D02*
X10956527Y-14160293D01*
X10956527Y-14160293D02*
X10956527Y-14112674D01*
X10956527Y-14112674D02*
X10966051Y-14074579D01*
X10966051Y-14074579D02*
X10975575Y-14055531D01*
X10975575Y-14055531D02*
X10985099Y-14046008D01*
X10985099Y-14046008D02*
X11004146Y-14036484D01*
X11261289Y-14236484D02*
X11147004Y-14236484D01*
X11204146Y-14236484D02*
X11204146Y-14036484D01*
X11204146Y-14036484D02*
X11185099Y-14065055D01*
X11185099Y-14065055D02*
X11166051Y-14084103D01*
X11166051Y-14084103D02*
X11147004Y-14093627D01*
X11442242Y-14036484D02*
X11347004Y-14036484D01*
X11347004Y-14036484D02*
X11337480Y-14131722D01*
X11337480Y-14131722D02*
X11347004Y-14122198D01*
X11347004Y-14122198D02*
X11366051Y-14112674D01*
X11366051Y-14112674D02*
X11413670Y-14112674D01*
X11413670Y-14112674D02*
X11432718Y-14122198D01*
X11432718Y-14122198D02*
X11442242Y-14131722D01*
X11442242Y-14131722D02*
X11451765Y-14150769D01*
X11451765Y-14150769D02*
X11451765Y-14198388D01*
X11451765Y-14198388D02*
X11442242Y-14217436D01*
X11442242Y-14217436D02*
X11432718Y-14226960D01*
X11432718Y-14226960D02*
X11413670Y-14236484D01*
X11413670Y-14236484D02*
X11366051Y-14236484D01*
X11366051Y-14236484D02*
X11347004Y-14226960D01*
X11347004Y-14226960D02*
X11337480Y-14217436D01*
X11518432Y-14036484D02*
X11651765Y-14036484D01*
X11651765Y-14036484D02*
X11566051Y-14236484D01*
X11718432Y-14036484D02*
X11718432Y-14074579D01*
X11794623Y-14036484D02*
X11794623Y-14074579D01*
X12089861Y-14312674D02*
X12080337Y-14303150D01*
X12080337Y-14303150D02*
X12061289Y-14274579D01*
X12061289Y-14274579D02*
X12051766Y-14255531D01*
X12051766Y-14255531D02*
X12042242Y-14226960D01*
X12042242Y-14226960D02*
X12032718Y-14179341D01*
X12032718Y-14179341D02*
X12032718Y-14141246D01*
X12032718Y-14141246D02*
X12042242Y-14093627D01*
X12042242Y-14093627D02*
X12051766Y-14065055D01*
X12051766Y-14065055D02*
X12061289Y-14046008D01*
X12061289Y-14046008D02*
X12080337Y-14017436D01*
X12080337Y-14017436D02*
X12089861Y-14007912D01*
X12270813Y-14236484D02*
X12156527Y-14236484D01*
X12213670Y-14236484D02*
X12213670Y-14036484D01*
X12213670Y-14036484D02*
X12194623Y-14065055D01*
X12194623Y-14065055D02*
X12175575Y-14084103D01*
X12175575Y-14084103D02*
X12156527Y-14093627D01*
X12394623Y-14036484D02*
X12413670Y-14036484D01*
X12413670Y-14036484D02*
X12432718Y-14046008D01*
X12432718Y-14046008D02*
X12442242Y-14055531D01*
X12442242Y-14055531D02*
X12451766Y-14074579D01*
X12451766Y-14074579D02*
X12461289Y-14112674D01*
X12461289Y-14112674D02*
X12461289Y-14160293D01*
X12461289Y-14160293D02*
X12451766Y-14198388D01*
X12451766Y-14198388D02*
X12442242Y-14217436D01*
X12442242Y-14217436D02*
X12432718Y-14226960D01*
X12432718Y-14226960D02*
X12413670Y-14236484D01*
X12413670Y-14236484D02*
X12394623Y-14236484D01*
X12394623Y-14236484D02*
X12375575Y-14226960D01*
X12375575Y-14226960D02*
X12366051Y-14217436D01*
X12366051Y-14217436D02*
X12356527Y-14198388D01*
X12356527Y-14198388D02*
X12347004Y-14160293D01*
X12347004Y-14160293D02*
X12347004Y-14112674D01*
X12347004Y-14112674D02*
X12356527Y-14074579D01*
X12356527Y-14074579D02*
X12366051Y-14055531D01*
X12366051Y-14055531D02*
X12375575Y-14046008D01*
X12375575Y-14046008D02*
X12394623Y-14036484D01*
X12527956Y-14036484D02*
X12661289Y-14036484D01*
X12661289Y-14036484D02*
X12575575Y-14236484D01*
X12889861Y-14236484D02*
X12889861Y-14036484D01*
X12975575Y-14236484D02*
X12975575Y-14131722D01*
X12975575Y-14131722D02*
X12966051Y-14112674D01*
X12966051Y-14112674D02*
X12947004Y-14103150D01*
X12947004Y-14103150D02*
X12918432Y-14103150D01*
X12918432Y-14103150D02*
X12899385Y-14112674D01*
X12899385Y-14112674D02*
X12889861Y-14122198D01*
X13099385Y-14236484D02*
X13080337Y-14226960D01*
X13080337Y-14226960D02*
X13070813Y-14217436D01*
X13070813Y-14217436D02*
X13061289Y-14198388D01*
X13061289Y-14198388D02*
X13061289Y-14141246D01*
X13061289Y-14141246D02*
X13070813Y-14122198D01*
X13070813Y-14122198D02*
X13080337Y-14112674D01*
X13080337Y-14112674D02*
X13099385Y-14103150D01*
X13099385Y-14103150D02*
X13127956Y-14103150D01*
X13127956Y-14103150D02*
X13147004Y-14112674D01*
X13147004Y-14112674D02*
X13156528Y-14122198D01*
X13156528Y-14122198D02*
X13166051Y-14141246D01*
X13166051Y-14141246D02*
X13166051Y-14198388D01*
X13166051Y-14198388D02*
X13156528Y-14217436D01*
X13156528Y-14217436D02*
X13147004Y-14226960D01*
X13147004Y-14226960D02*
X13127956Y-14236484D01*
X13127956Y-14236484D02*
X13099385Y-14236484D01*
X13280337Y-14236484D02*
X13261289Y-14226960D01*
X13261289Y-14226960D02*
X13251766Y-14207912D01*
X13251766Y-14207912D02*
X13251766Y-14036484D01*
X13432718Y-14226960D02*
X13413670Y-14236484D01*
X13413670Y-14236484D02*
X13375575Y-14236484D01*
X13375575Y-14236484D02*
X13356528Y-14226960D01*
X13356528Y-14226960D02*
X13347004Y-14207912D01*
X13347004Y-14207912D02*
X13347004Y-14131722D01*
X13347004Y-14131722D02*
X13356528Y-14112674D01*
X13356528Y-14112674D02*
X13375575Y-14103150D01*
X13375575Y-14103150D02*
X13413670Y-14103150D01*
X13413670Y-14103150D02*
X13432718Y-14112674D01*
X13432718Y-14112674D02*
X13442242Y-14131722D01*
X13442242Y-14131722D02*
X13442242Y-14150769D01*
X13442242Y-14150769D02*
X13347004Y-14169817D01*
X13518432Y-14226960D02*
X13537480Y-14236484D01*
X13537480Y-14236484D02*
X13575575Y-14236484D01*
X13575575Y-14236484D02*
X13594623Y-14226960D01*
X13594623Y-14226960D02*
X13604147Y-14207912D01*
X13604147Y-14207912D02*
X13604147Y-14198388D01*
X13604147Y-14198388D02*
X13594623Y-14179341D01*
X13594623Y-14179341D02*
X13575575Y-14169817D01*
X13575575Y-14169817D02*
X13547004Y-14169817D01*
X13547004Y-14169817D02*
X13527956Y-14160293D01*
X13527956Y-14160293D02*
X13518432Y-14141246D01*
X13518432Y-14141246D02*
X13518432Y-14131722D01*
X13518432Y-14131722D02*
X13527956Y-14112674D01*
X13527956Y-14112674D02*
X13547004Y-14103150D01*
X13547004Y-14103150D02*
X13575575Y-14103150D01*
X13575575Y-14103150D02*
X13594623Y-14112674D01*
X13670813Y-14312674D02*
X13680337Y-14303150D01*
X13680337Y-14303150D02*
X13699385Y-14274579D01*
X13699385Y-14274579D02*
X13708909Y-14255531D01*
X13708909Y-14255531D02*
X13718432Y-14226960D01*
X13718432Y-14226960D02*
X13727956Y-14179341D01*
X13727956Y-14179341D02*
X13727956Y-14141246D01*
X13727956Y-14141246D02*
X13718432Y-14093627D01*
X13718432Y-14093627D02*
X13708909Y-14065055D01*
X13708909Y-14065055D02*
X13699385Y-14046008D01*
X13699385Y-14046008D02*
X13680337Y-14017436D01*
X13680337Y-14017436D02*
X13670813Y-14007912D01*
D10*
X8514798Y-14409000D02*
G75*
G03*
X8434798Y-14409000I-40000J0D01*
G01*
X8434798Y-14409000D02*
G75*
G03*
X8514798Y-14409000I40000J0D01*
G01*
D11*
X8813670Y-14300484D02*
X8832718Y-14300484D01*
X8832718Y-14300484D02*
X8851765Y-14310008D01*
X8851765Y-14310008D02*
X8861289Y-14319531D01*
X8861289Y-14319531D02*
X8870813Y-14338579D01*
X8870813Y-14338579D02*
X8880337Y-14376674D01*
X8880337Y-14376674D02*
X8880337Y-14424293D01*
X8880337Y-14424293D02*
X8870813Y-14462388D01*
X8870813Y-14462388D02*
X8861289Y-14481436D01*
X8861289Y-14481436D02*
X8851765Y-14490960D01*
X8851765Y-14490960D02*
X8832718Y-14500484D01*
X8832718Y-14500484D02*
X8813670Y-14500484D01*
X8813670Y-14500484D02*
X8794622Y-14490960D01*
X8794622Y-14490960D02*
X8785099Y-14481436D01*
X8785099Y-14481436D02*
X8775575Y-14462388D01*
X8775575Y-14462388D02*
X8766051Y-14424293D01*
X8766051Y-14424293D02*
X8766051Y-14376674D01*
X8766051Y-14376674D02*
X8775575Y-14338579D01*
X8775575Y-14338579D02*
X8785099Y-14319531D01*
X8785099Y-14319531D02*
X8794622Y-14310008D01*
X8794622Y-14310008D02*
X8813670Y-14300484D01*
X8966051Y-14481436D02*
X8975575Y-14490960D01*
X8975575Y-14490960D02*
X8966051Y-14500484D01*
X8966051Y-14500484D02*
X8956527Y-14490960D01*
X8956527Y-14490960D02*
X8966051Y-14481436D01*
X8966051Y-14481436D02*
X8966051Y-14500484D01*
X9089861Y-14386198D02*
X9070813Y-14376674D01*
X9070813Y-14376674D02*
X9061289Y-14367150D01*
X9061289Y-14367150D02*
X9051765Y-14348103D01*
X9051765Y-14348103D02*
X9051765Y-14338579D01*
X9051765Y-14338579D02*
X9061289Y-14319531D01*
X9061289Y-14319531D02*
X9070813Y-14310008D01*
X9070813Y-14310008D02*
X9089861Y-14300484D01*
X9089861Y-14300484D02*
X9127956Y-14300484D01*
X9127956Y-14300484D02*
X9147003Y-14310008D01*
X9147003Y-14310008D02*
X9156527Y-14319531D01*
X9156527Y-14319531D02*
X9166051Y-14338579D01*
X9166051Y-14338579D02*
X9166051Y-14348103D01*
X9166051Y-14348103D02*
X9156527Y-14367150D01*
X9156527Y-14367150D02*
X9147003Y-14376674D01*
X9147003Y-14376674D02*
X9127956Y-14386198D01*
X9127956Y-14386198D02*
X9089861Y-14386198D01*
X9089861Y-14386198D02*
X9070813Y-14395722D01*
X9070813Y-14395722D02*
X9061289Y-14405246D01*
X9061289Y-14405246D02*
X9051765Y-14424293D01*
X9051765Y-14424293D02*
X9051765Y-14462388D01*
X9051765Y-14462388D02*
X9061289Y-14481436D01*
X9061289Y-14481436D02*
X9070813Y-14490960D01*
X9070813Y-14490960D02*
X9089861Y-14500484D01*
X9089861Y-14500484D02*
X9127956Y-14500484D01*
X9127956Y-14500484D02*
X9147003Y-14490960D01*
X9147003Y-14490960D02*
X9156527Y-14481436D01*
X9156527Y-14481436D02*
X9166051Y-14462388D01*
X9166051Y-14462388D02*
X9166051Y-14424293D01*
X9166051Y-14424293D02*
X9156527Y-14405246D01*
X9156527Y-14405246D02*
X9147003Y-14395722D01*
X9147003Y-14395722D02*
X9127956Y-14386198D01*
X9289861Y-14300484D02*
X9308908Y-14300484D01*
X9308908Y-14300484D02*
X9327956Y-14310008D01*
X9327956Y-14310008D02*
X9337480Y-14319531D01*
X9337480Y-14319531D02*
X9347003Y-14338579D01*
X9347003Y-14338579D02*
X9356527Y-14376674D01*
X9356527Y-14376674D02*
X9356527Y-14424293D01*
X9356527Y-14424293D02*
X9347003Y-14462388D01*
X9347003Y-14462388D02*
X9337480Y-14481436D01*
X9337480Y-14481436D02*
X9327956Y-14490960D01*
X9327956Y-14490960D02*
X9308908Y-14500484D01*
X9308908Y-14500484D02*
X9289861Y-14500484D01*
X9289861Y-14500484D02*
X9270813Y-14490960D01*
X9270813Y-14490960D02*
X9261289Y-14481436D01*
X9261289Y-14481436D02*
X9251765Y-14462388D01*
X9251765Y-14462388D02*
X9242242Y-14424293D01*
X9242242Y-14424293D02*
X9242242Y-14376674D01*
X9242242Y-14376674D02*
X9251765Y-14338579D01*
X9251765Y-14338579D02*
X9261289Y-14319531D01*
X9261289Y-14319531D02*
X9270813Y-14310008D01*
X9270813Y-14310008D02*
X9289861Y-14300484D01*
X9480337Y-14300484D02*
X9499384Y-14300484D01*
X9499384Y-14300484D02*
X9518432Y-14310008D01*
X9518432Y-14310008D02*
X9527956Y-14319531D01*
X9527956Y-14319531D02*
X9537480Y-14338579D01*
X9537480Y-14338579D02*
X9547003Y-14376674D01*
X9547003Y-14376674D02*
X9547003Y-14424293D01*
X9547003Y-14424293D02*
X9537480Y-14462388D01*
X9537480Y-14462388D02*
X9527956Y-14481436D01*
X9527956Y-14481436D02*
X9518432Y-14490960D01*
X9518432Y-14490960D02*
X9499384Y-14500484D01*
X9499384Y-14500484D02*
X9480337Y-14500484D01*
X9480337Y-14500484D02*
X9461289Y-14490960D01*
X9461289Y-14490960D02*
X9451765Y-14481436D01*
X9451765Y-14481436D02*
X9442242Y-14462388D01*
X9442242Y-14462388D02*
X9432718Y-14424293D01*
X9432718Y-14424293D02*
X9432718Y-14376674D01*
X9432718Y-14376674D02*
X9442242Y-14338579D01*
X9442242Y-14338579D02*
X9451765Y-14319531D01*
X9451765Y-14319531D02*
X9461289Y-14310008D01*
X9461289Y-14310008D02*
X9480337Y-14300484D01*
X9632718Y-14500484D02*
X9632718Y-14367150D01*
X9632718Y-14386198D02*
X9642242Y-14376674D01*
X9642242Y-14376674D02*
X9661289Y-14367150D01*
X9661289Y-14367150D02*
X9689861Y-14367150D01*
X9689861Y-14367150D02*
X9708908Y-14376674D01*
X9708908Y-14376674D02*
X9718432Y-14395722D01*
X9718432Y-14395722D02*
X9718432Y-14500484D01*
X9718432Y-14395722D02*
X9727956Y-14376674D01*
X9727956Y-14376674D02*
X9747003Y-14367150D01*
X9747003Y-14367150D02*
X9775575Y-14367150D01*
X9775575Y-14367150D02*
X9794623Y-14376674D01*
X9794623Y-14376674D02*
X9804146Y-14395722D01*
X9804146Y-14395722D02*
X9804146Y-14500484D01*
X9899384Y-14500484D02*
X9899384Y-14367150D01*
X9899384Y-14386198D02*
X9908908Y-14376674D01*
X9908908Y-14376674D02*
X9927956Y-14367150D01*
X9927956Y-14367150D02*
X9956527Y-14367150D01*
X9956527Y-14367150D02*
X9975575Y-14376674D01*
X9975575Y-14376674D02*
X9985099Y-14395722D01*
X9985099Y-14395722D02*
X9985099Y-14500484D01*
X9985099Y-14395722D02*
X9994623Y-14376674D01*
X9994623Y-14376674D02*
X10013670Y-14367150D01*
X10013670Y-14367150D02*
X10042242Y-14367150D01*
X10042242Y-14367150D02*
X10061289Y-14376674D01*
X10061289Y-14376674D02*
X10070813Y-14395722D01*
X10070813Y-14395722D02*
X10070813Y-14500484D01*
X10461289Y-14290960D02*
X10289861Y-14548103D01*
X10718432Y-14300484D02*
X10737480Y-14300484D01*
X10737480Y-14300484D02*
X10756527Y-14310008D01*
X10756527Y-14310008D02*
X10766051Y-14319531D01*
X10766051Y-14319531D02*
X10775575Y-14338579D01*
X10775575Y-14338579D02*
X10785099Y-14376674D01*
X10785099Y-14376674D02*
X10785099Y-14424293D01*
X10785099Y-14424293D02*
X10775575Y-14462388D01*
X10775575Y-14462388D02*
X10766051Y-14481436D01*
X10766051Y-14481436D02*
X10756527Y-14490960D01*
X10756527Y-14490960D02*
X10737480Y-14500484D01*
X10737480Y-14500484D02*
X10718432Y-14500484D01*
X10718432Y-14500484D02*
X10699385Y-14490960D01*
X10699385Y-14490960D02*
X10689861Y-14481436D01*
X10689861Y-14481436D02*
X10680337Y-14462388D01*
X10680337Y-14462388D02*
X10670813Y-14424293D01*
X10670813Y-14424293D02*
X10670813Y-14376674D01*
X10670813Y-14376674D02*
X10680337Y-14338579D01*
X10680337Y-14338579D02*
X10689861Y-14319531D01*
X10689861Y-14319531D02*
X10699385Y-14310008D01*
X10699385Y-14310008D02*
X10718432Y-14300484D01*
X10870813Y-14481436D02*
X10880337Y-14490960D01*
X10880337Y-14490960D02*
X10870813Y-14500484D01*
X10870813Y-14500484D02*
X10861289Y-14490960D01*
X10861289Y-14490960D02*
X10870813Y-14481436D01*
X10870813Y-14481436D02*
X10870813Y-14500484D01*
X11004146Y-14300484D02*
X11023194Y-14300484D01*
X11023194Y-14300484D02*
X11042242Y-14310008D01*
X11042242Y-14310008D02*
X11051766Y-14319531D01*
X11051766Y-14319531D02*
X11061289Y-14338579D01*
X11061289Y-14338579D02*
X11070813Y-14376674D01*
X11070813Y-14376674D02*
X11070813Y-14424293D01*
X11070813Y-14424293D02*
X11061289Y-14462388D01*
X11061289Y-14462388D02*
X11051766Y-14481436D01*
X11051766Y-14481436D02*
X11042242Y-14490960D01*
X11042242Y-14490960D02*
X11023194Y-14500484D01*
X11023194Y-14500484D02*
X11004146Y-14500484D01*
X11004146Y-14500484D02*
X10985099Y-14490960D01*
X10985099Y-14490960D02*
X10975575Y-14481436D01*
X10975575Y-14481436D02*
X10966051Y-14462388D01*
X10966051Y-14462388D02*
X10956527Y-14424293D01*
X10956527Y-14424293D02*
X10956527Y-14376674D01*
X10956527Y-14376674D02*
X10966051Y-14338579D01*
X10966051Y-14338579D02*
X10975575Y-14319531D01*
X10975575Y-14319531D02*
X10985099Y-14310008D01*
X10985099Y-14310008D02*
X11004146Y-14300484D01*
X11137480Y-14300484D02*
X11261289Y-14300484D01*
X11261289Y-14300484D02*
X11194623Y-14376674D01*
X11194623Y-14376674D02*
X11223194Y-14376674D01*
X11223194Y-14376674D02*
X11242242Y-14386198D01*
X11242242Y-14386198D02*
X11251765Y-14395722D01*
X11251765Y-14395722D02*
X11261289Y-14414769D01*
X11261289Y-14414769D02*
X11261289Y-14462388D01*
X11261289Y-14462388D02*
X11251765Y-14481436D01*
X11251765Y-14481436D02*
X11242242Y-14490960D01*
X11242242Y-14490960D02*
X11223194Y-14500484D01*
X11223194Y-14500484D02*
X11166051Y-14500484D01*
X11166051Y-14500484D02*
X11147004Y-14490960D01*
X11147004Y-14490960D02*
X11137480Y-14481436D01*
X11451765Y-14500484D02*
X11337480Y-14500484D01*
X11394623Y-14500484D02*
X11394623Y-14300484D01*
X11394623Y-14300484D02*
X11375575Y-14329055D01*
X11375575Y-14329055D02*
X11356527Y-14348103D01*
X11356527Y-14348103D02*
X11337480Y-14357627D01*
X11632718Y-14300484D02*
X11537480Y-14300484D01*
X11537480Y-14300484D02*
X11527956Y-14395722D01*
X11527956Y-14395722D02*
X11537480Y-14386198D01*
X11537480Y-14386198D02*
X11556527Y-14376674D01*
X11556527Y-14376674D02*
X11604146Y-14376674D01*
X11604146Y-14376674D02*
X11623194Y-14386198D01*
X11623194Y-14386198D02*
X11632718Y-14395722D01*
X11632718Y-14395722D02*
X11642242Y-14414769D01*
X11642242Y-14414769D02*
X11642242Y-14462388D01*
X11642242Y-14462388D02*
X11632718Y-14481436D01*
X11632718Y-14481436D02*
X11623194Y-14490960D01*
X11623194Y-14490960D02*
X11604146Y-14500484D01*
X11604146Y-14500484D02*
X11556527Y-14500484D01*
X11556527Y-14500484D02*
X11537480Y-14490960D01*
X11537480Y-14490960D02*
X11527956Y-14481436D01*
X11718432Y-14300484D02*
X11718432Y-14338579D01*
X11794623Y-14300484D02*
X11794623Y-14338579D01*
X12089861Y-14576674D02*
X12080337Y-14567150D01*
X12080337Y-14567150D02*
X12061289Y-14538579D01*
X12061289Y-14538579D02*
X12051766Y-14519531D01*
X12051766Y-14519531D02*
X12042242Y-14490960D01*
X12042242Y-14490960D02*
X12032718Y-14443341D01*
X12032718Y-14443341D02*
X12032718Y-14405246D01*
X12032718Y-14405246D02*
X12042242Y-14357627D01*
X12042242Y-14357627D02*
X12051766Y-14329055D01*
X12051766Y-14329055D02*
X12061289Y-14310008D01*
X12061289Y-14310008D02*
X12080337Y-14281436D01*
X12080337Y-14281436D02*
X12089861Y-14271912D01*
X12251766Y-14367150D02*
X12251766Y-14500484D01*
X12204146Y-14290960D02*
X12156527Y-14433817D01*
X12156527Y-14433817D02*
X12280337Y-14433817D01*
X12508908Y-14500484D02*
X12508908Y-14300484D01*
X12594623Y-14500484D02*
X12594623Y-14395722D01*
X12594623Y-14395722D02*
X12585099Y-14376674D01*
X12585099Y-14376674D02*
X12566051Y-14367150D01*
X12566051Y-14367150D02*
X12537480Y-14367150D01*
X12537480Y-14367150D02*
X12518432Y-14376674D01*
X12518432Y-14376674D02*
X12508908Y-14386198D01*
X12718432Y-14500484D02*
X12699385Y-14490960D01*
X12699385Y-14490960D02*
X12689861Y-14481436D01*
X12689861Y-14481436D02*
X12680337Y-14462388D01*
X12680337Y-14462388D02*
X12680337Y-14405246D01*
X12680337Y-14405246D02*
X12689861Y-14386198D01*
X12689861Y-14386198D02*
X12699385Y-14376674D01*
X12699385Y-14376674D02*
X12718432Y-14367150D01*
X12718432Y-14367150D02*
X12747004Y-14367150D01*
X12747004Y-14367150D02*
X12766051Y-14376674D01*
X12766051Y-14376674D02*
X12775575Y-14386198D01*
X12775575Y-14386198D02*
X12785099Y-14405246D01*
X12785099Y-14405246D02*
X12785099Y-14462388D01*
X12785099Y-14462388D02*
X12775575Y-14481436D01*
X12775575Y-14481436D02*
X12766051Y-14490960D01*
X12766051Y-14490960D02*
X12747004Y-14500484D01*
X12747004Y-14500484D02*
X12718432Y-14500484D01*
X12899385Y-14500484D02*
X12880337Y-14490960D01*
X12880337Y-14490960D02*
X12870813Y-14471912D01*
X12870813Y-14471912D02*
X12870813Y-14300484D01*
X13051766Y-14490960D02*
X13032718Y-14500484D01*
X13032718Y-14500484D02*
X12994623Y-14500484D01*
X12994623Y-14500484D02*
X12975575Y-14490960D01*
X12975575Y-14490960D02*
X12966051Y-14471912D01*
X12966051Y-14471912D02*
X12966051Y-14395722D01*
X12966051Y-14395722D02*
X12975575Y-14376674D01*
X12975575Y-14376674D02*
X12994623Y-14367150D01*
X12994623Y-14367150D02*
X13032718Y-14367150D01*
X13032718Y-14367150D02*
X13051766Y-14376674D01*
X13051766Y-14376674D02*
X13061289Y-14395722D01*
X13061289Y-14395722D02*
X13061289Y-14414769D01*
X13061289Y-14414769D02*
X12966051Y-14433817D01*
X13137480Y-14490960D02*
X13156528Y-14500484D01*
X13156528Y-14500484D02*
X13194623Y-14500484D01*
X13194623Y-14500484D02*
X13213670Y-14490960D01*
X13213670Y-14490960D02*
X13223194Y-14471912D01*
X13223194Y-14471912D02*
X13223194Y-14462388D01*
X13223194Y-14462388D02*
X13213670Y-14443341D01*
X13213670Y-14443341D02*
X13194623Y-14433817D01*
X13194623Y-14433817D02*
X13166051Y-14433817D01*
X13166051Y-14433817D02*
X13147004Y-14424293D01*
X13147004Y-14424293D02*
X13137480Y-14405246D01*
X13137480Y-14405246D02*
X13137480Y-14395722D01*
X13137480Y-14395722D02*
X13147004Y-14376674D01*
X13147004Y-14376674D02*
X13166051Y-14367150D01*
X13166051Y-14367150D02*
X13194623Y-14367150D01*
X13194623Y-14367150D02*
X13213670Y-14376674D01*
X13289861Y-14576674D02*
X13299385Y-14567150D01*
X13299385Y-14567150D02*
X13318432Y-14538579D01*
X13318432Y-14538579D02*
X13327956Y-14519531D01*
X13327956Y-14519531D02*
X13337480Y-14490960D01*
X13337480Y-14490960D02*
X13347004Y-14443341D01*
X13347004Y-14443341D02*
X13347004Y-14405246D01*
X13347004Y-14405246D02*
X13337480Y-14357627D01*
X13337480Y-14357627D02*
X13327956Y-14329055D01*
X13327956Y-14329055D02*
X13318432Y-14310008D01*
X13318432Y-14310008D02*
X13299385Y-14281436D01*
X13299385Y-14281436D02*
X13289861Y-14271912D01*
D10*
X8464798Y-14623000D02*
X8464798Y-14723000D01*
X8414798Y-14673000D02*
X8514798Y-14673000D01*
D11*
X8880337Y-14764484D02*
X8766051Y-14764484D01*
X8823194Y-14764484D02*
X8823194Y-14564484D01*
X8823194Y-14564484D02*
X8804146Y-14593055D01*
X8804146Y-14593055D02*
X8785099Y-14612103D01*
X8785099Y-14612103D02*
X8766051Y-14621627D01*
X8966051Y-14745436D02*
X8975575Y-14754960D01*
X8975575Y-14754960D02*
X8966051Y-14764484D01*
X8966051Y-14764484D02*
X8956527Y-14754960D01*
X8956527Y-14754960D02*
X8966051Y-14745436D01*
X8966051Y-14745436D02*
X8966051Y-14764484D01*
X9099384Y-14564484D02*
X9118432Y-14564484D01*
X9118432Y-14564484D02*
X9137480Y-14574008D01*
X9137480Y-14574008D02*
X9147003Y-14583531D01*
X9147003Y-14583531D02*
X9156527Y-14602579D01*
X9156527Y-14602579D02*
X9166051Y-14640674D01*
X9166051Y-14640674D02*
X9166051Y-14688293D01*
X9166051Y-14688293D02*
X9156527Y-14726388D01*
X9156527Y-14726388D02*
X9147003Y-14745436D01*
X9147003Y-14745436D02*
X9137480Y-14754960D01*
X9137480Y-14754960D02*
X9118432Y-14764484D01*
X9118432Y-14764484D02*
X9099384Y-14764484D01*
X9099384Y-14764484D02*
X9080337Y-14754960D01*
X9080337Y-14754960D02*
X9070813Y-14745436D01*
X9070813Y-14745436D02*
X9061289Y-14726388D01*
X9061289Y-14726388D02*
X9051765Y-14688293D01*
X9051765Y-14688293D02*
X9051765Y-14640674D01*
X9051765Y-14640674D02*
X9061289Y-14602579D01*
X9061289Y-14602579D02*
X9070813Y-14583531D01*
X9070813Y-14583531D02*
X9080337Y-14574008D01*
X9080337Y-14574008D02*
X9099384Y-14564484D01*
X9289861Y-14564484D02*
X9308908Y-14564484D01*
X9308908Y-14564484D02*
X9327956Y-14574008D01*
X9327956Y-14574008D02*
X9337480Y-14583531D01*
X9337480Y-14583531D02*
X9347003Y-14602579D01*
X9347003Y-14602579D02*
X9356527Y-14640674D01*
X9356527Y-14640674D02*
X9356527Y-14688293D01*
X9356527Y-14688293D02*
X9347003Y-14726388D01*
X9347003Y-14726388D02*
X9337480Y-14745436D01*
X9337480Y-14745436D02*
X9327956Y-14754960D01*
X9327956Y-14754960D02*
X9308908Y-14764484D01*
X9308908Y-14764484D02*
X9289861Y-14764484D01*
X9289861Y-14764484D02*
X9270813Y-14754960D01*
X9270813Y-14754960D02*
X9261289Y-14745436D01*
X9261289Y-14745436D02*
X9251765Y-14726388D01*
X9251765Y-14726388D02*
X9242242Y-14688293D01*
X9242242Y-14688293D02*
X9242242Y-14640674D01*
X9242242Y-14640674D02*
X9251765Y-14602579D01*
X9251765Y-14602579D02*
X9261289Y-14583531D01*
X9261289Y-14583531D02*
X9270813Y-14574008D01*
X9270813Y-14574008D02*
X9289861Y-14564484D01*
X9480337Y-14564484D02*
X9499384Y-14564484D01*
X9499384Y-14564484D02*
X9518432Y-14574008D01*
X9518432Y-14574008D02*
X9527956Y-14583531D01*
X9527956Y-14583531D02*
X9537480Y-14602579D01*
X9537480Y-14602579D02*
X9547003Y-14640674D01*
X9547003Y-14640674D02*
X9547003Y-14688293D01*
X9547003Y-14688293D02*
X9537480Y-14726388D01*
X9537480Y-14726388D02*
X9527956Y-14745436D01*
X9527956Y-14745436D02*
X9518432Y-14754960D01*
X9518432Y-14754960D02*
X9499384Y-14764484D01*
X9499384Y-14764484D02*
X9480337Y-14764484D01*
X9480337Y-14764484D02*
X9461289Y-14754960D01*
X9461289Y-14754960D02*
X9451765Y-14745436D01*
X9451765Y-14745436D02*
X9442242Y-14726388D01*
X9442242Y-14726388D02*
X9432718Y-14688293D01*
X9432718Y-14688293D02*
X9432718Y-14640674D01*
X9432718Y-14640674D02*
X9442242Y-14602579D01*
X9442242Y-14602579D02*
X9451765Y-14583531D01*
X9451765Y-14583531D02*
X9461289Y-14574008D01*
X9461289Y-14574008D02*
X9480337Y-14564484D01*
X9632718Y-14764484D02*
X9632718Y-14631150D01*
X9632718Y-14650198D02*
X9642242Y-14640674D01*
X9642242Y-14640674D02*
X9661289Y-14631150D01*
X9661289Y-14631150D02*
X9689861Y-14631150D01*
X9689861Y-14631150D02*
X9708908Y-14640674D01*
X9708908Y-14640674D02*
X9718432Y-14659722D01*
X9718432Y-14659722D02*
X9718432Y-14764484D01*
X9718432Y-14659722D02*
X9727956Y-14640674D01*
X9727956Y-14640674D02*
X9747003Y-14631150D01*
X9747003Y-14631150D02*
X9775575Y-14631150D01*
X9775575Y-14631150D02*
X9794623Y-14640674D01*
X9794623Y-14640674D02*
X9804146Y-14659722D01*
X9804146Y-14659722D02*
X9804146Y-14764484D01*
X9899384Y-14764484D02*
X9899384Y-14631150D01*
X9899384Y-14650198D02*
X9908908Y-14640674D01*
X9908908Y-14640674D02*
X9927956Y-14631150D01*
X9927956Y-14631150D02*
X9956527Y-14631150D01*
X9956527Y-14631150D02*
X9975575Y-14640674D01*
X9975575Y-14640674D02*
X9985099Y-14659722D01*
X9985099Y-14659722D02*
X9985099Y-14764484D01*
X9985099Y-14659722D02*
X9994623Y-14640674D01*
X9994623Y-14640674D02*
X10013670Y-14631150D01*
X10013670Y-14631150D02*
X10042242Y-14631150D01*
X10042242Y-14631150D02*
X10061289Y-14640674D01*
X10061289Y-14640674D02*
X10070813Y-14659722D01*
X10070813Y-14659722D02*
X10070813Y-14764484D01*
X10461289Y-14554960D02*
X10289861Y-14812103D01*
X10718432Y-14564484D02*
X10737480Y-14564484D01*
X10737480Y-14564484D02*
X10756527Y-14574008D01*
X10756527Y-14574008D02*
X10766051Y-14583531D01*
X10766051Y-14583531D02*
X10775575Y-14602579D01*
X10775575Y-14602579D02*
X10785099Y-14640674D01*
X10785099Y-14640674D02*
X10785099Y-14688293D01*
X10785099Y-14688293D02*
X10775575Y-14726388D01*
X10775575Y-14726388D02*
X10766051Y-14745436D01*
X10766051Y-14745436D02*
X10756527Y-14754960D01*
X10756527Y-14754960D02*
X10737480Y-14764484D01*
X10737480Y-14764484D02*
X10718432Y-14764484D01*
X10718432Y-14764484D02*
X10699385Y-14754960D01*
X10699385Y-14754960D02*
X10689861Y-14745436D01*
X10689861Y-14745436D02*
X10680337Y-14726388D01*
X10680337Y-14726388D02*
X10670813Y-14688293D01*
X10670813Y-14688293D02*
X10670813Y-14640674D01*
X10670813Y-14640674D02*
X10680337Y-14602579D01*
X10680337Y-14602579D02*
X10689861Y-14583531D01*
X10689861Y-14583531D02*
X10699385Y-14574008D01*
X10699385Y-14574008D02*
X10718432Y-14564484D01*
X10870813Y-14745436D02*
X10880337Y-14754960D01*
X10880337Y-14754960D02*
X10870813Y-14764484D01*
X10870813Y-14764484D02*
X10861289Y-14754960D01*
X10861289Y-14754960D02*
X10870813Y-14745436D01*
X10870813Y-14745436D02*
X10870813Y-14764484D01*
X11004146Y-14564484D02*
X11023194Y-14564484D01*
X11023194Y-14564484D02*
X11042242Y-14574008D01*
X11042242Y-14574008D02*
X11051766Y-14583531D01*
X11051766Y-14583531D02*
X11061289Y-14602579D01*
X11061289Y-14602579D02*
X11070813Y-14640674D01*
X11070813Y-14640674D02*
X11070813Y-14688293D01*
X11070813Y-14688293D02*
X11061289Y-14726388D01*
X11061289Y-14726388D02*
X11051766Y-14745436D01*
X11051766Y-14745436D02*
X11042242Y-14754960D01*
X11042242Y-14754960D02*
X11023194Y-14764484D01*
X11023194Y-14764484D02*
X11004146Y-14764484D01*
X11004146Y-14764484D02*
X10985099Y-14754960D01*
X10985099Y-14754960D02*
X10975575Y-14745436D01*
X10975575Y-14745436D02*
X10966051Y-14726388D01*
X10966051Y-14726388D02*
X10956527Y-14688293D01*
X10956527Y-14688293D02*
X10956527Y-14640674D01*
X10956527Y-14640674D02*
X10966051Y-14602579D01*
X10966051Y-14602579D02*
X10975575Y-14583531D01*
X10975575Y-14583531D02*
X10985099Y-14574008D01*
X10985099Y-14574008D02*
X11004146Y-14564484D01*
X11137480Y-14564484D02*
X11261289Y-14564484D01*
X11261289Y-14564484D02*
X11194623Y-14640674D01*
X11194623Y-14640674D02*
X11223194Y-14640674D01*
X11223194Y-14640674D02*
X11242242Y-14650198D01*
X11242242Y-14650198D02*
X11251765Y-14659722D01*
X11251765Y-14659722D02*
X11261289Y-14678769D01*
X11261289Y-14678769D02*
X11261289Y-14726388D01*
X11261289Y-14726388D02*
X11251765Y-14745436D01*
X11251765Y-14745436D02*
X11242242Y-14754960D01*
X11242242Y-14754960D02*
X11223194Y-14764484D01*
X11223194Y-14764484D02*
X11166051Y-14764484D01*
X11166051Y-14764484D02*
X11147004Y-14754960D01*
X11147004Y-14754960D02*
X11137480Y-14745436D01*
X11356527Y-14764484D02*
X11394623Y-14764484D01*
X11394623Y-14764484D02*
X11413670Y-14754960D01*
X11413670Y-14754960D02*
X11423194Y-14745436D01*
X11423194Y-14745436D02*
X11442242Y-14716865D01*
X11442242Y-14716865D02*
X11451765Y-14678769D01*
X11451765Y-14678769D02*
X11451765Y-14602579D01*
X11451765Y-14602579D02*
X11442242Y-14583531D01*
X11442242Y-14583531D02*
X11432718Y-14574008D01*
X11432718Y-14574008D02*
X11413670Y-14564484D01*
X11413670Y-14564484D02*
X11375575Y-14564484D01*
X11375575Y-14564484D02*
X11356527Y-14574008D01*
X11356527Y-14574008D02*
X11347004Y-14583531D01*
X11347004Y-14583531D02*
X11337480Y-14602579D01*
X11337480Y-14602579D02*
X11337480Y-14650198D01*
X11337480Y-14650198D02*
X11347004Y-14669246D01*
X11347004Y-14669246D02*
X11356527Y-14678769D01*
X11356527Y-14678769D02*
X11375575Y-14688293D01*
X11375575Y-14688293D02*
X11413670Y-14688293D01*
X11413670Y-14688293D02*
X11432718Y-14678769D01*
X11432718Y-14678769D02*
X11442242Y-14669246D01*
X11442242Y-14669246D02*
X11451765Y-14650198D01*
X11623194Y-14631150D02*
X11623194Y-14764484D01*
X11575575Y-14554960D02*
X11527956Y-14697817D01*
X11527956Y-14697817D02*
X11651765Y-14697817D01*
X11718432Y-14564484D02*
X11718432Y-14602579D01*
X11794623Y-14564484D02*
X11794623Y-14602579D01*
X12089861Y-14840674D02*
X12080337Y-14831150D01*
X12080337Y-14831150D02*
X12061289Y-14802579D01*
X12061289Y-14802579D02*
X12051766Y-14783531D01*
X12051766Y-14783531D02*
X12042242Y-14754960D01*
X12042242Y-14754960D02*
X12032718Y-14707341D01*
X12032718Y-14707341D02*
X12032718Y-14669246D01*
X12032718Y-14669246D02*
X12042242Y-14621627D01*
X12042242Y-14621627D02*
X12051766Y-14593055D01*
X12051766Y-14593055D02*
X12061289Y-14574008D01*
X12061289Y-14574008D02*
X12080337Y-14545436D01*
X12080337Y-14545436D02*
X12089861Y-14535912D01*
X12147004Y-14564484D02*
X12270813Y-14564484D01*
X12270813Y-14564484D02*
X12204146Y-14640674D01*
X12204146Y-14640674D02*
X12232718Y-14640674D01*
X12232718Y-14640674D02*
X12251766Y-14650198D01*
X12251766Y-14650198D02*
X12261289Y-14659722D01*
X12261289Y-14659722D02*
X12270813Y-14678769D01*
X12270813Y-14678769D02*
X12270813Y-14726388D01*
X12270813Y-14726388D02*
X12261289Y-14745436D01*
X12261289Y-14745436D02*
X12251766Y-14754960D01*
X12251766Y-14754960D02*
X12232718Y-14764484D01*
X12232718Y-14764484D02*
X12175575Y-14764484D01*
X12175575Y-14764484D02*
X12156527Y-14754960D01*
X12156527Y-14754960D02*
X12147004Y-14745436D01*
X12508908Y-14764484D02*
X12508908Y-14564484D01*
X12594623Y-14764484D02*
X12594623Y-14659722D01*
X12594623Y-14659722D02*
X12585099Y-14640674D01*
X12585099Y-14640674D02*
X12566051Y-14631150D01*
X12566051Y-14631150D02*
X12537480Y-14631150D01*
X12537480Y-14631150D02*
X12518432Y-14640674D01*
X12518432Y-14640674D02*
X12508908Y-14650198D01*
X12718432Y-14764484D02*
X12699385Y-14754960D01*
X12699385Y-14754960D02*
X12689861Y-14745436D01*
X12689861Y-14745436D02*
X12680337Y-14726388D01*
X12680337Y-14726388D02*
X12680337Y-14669246D01*
X12680337Y-14669246D02*
X12689861Y-14650198D01*
X12689861Y-14650198D02*
X12699385Y-14640674D01*
X12699385Y-14640674D02*
X12718432Y-14631150D01*
X12718432Y-14631150D02*
X12747004Y-14631150D01*
X12747004Y-14631150D02*
X12766051Y-14640674D01*
X12766051Y-14640674D02*
X12775575Y-14650198D01*
X12775575Y-14650198D02*
X12785099Y-14669246D01*
X12785099Y-14669246D02*
X12785099Y-14726388D01*
X12785099Y-14726388D02*
X12775575Y-14745436D01*
X12775575Y-14745436D02*
X12766051Y-14754960D01*
X12766051Y-14754960D02*
X12747004Y-14764484D01*
X12747004Y-14764484D02*
X12718432Y-14764484D01*
X12899385Y-14764484D02*
X12880337Y-14754960D01*
X12880337Y-14754960D02*
X12870813Y-14735912D01*
X12870813Y-14735912D02*
X12870813Y-14564484D01*
X13051766Y-14754960D02*
X13032718Y-14764484D01*
X13032718Y-14764484D02*
X12994623Y-14764484D01*
X12994623Y-14764484D02*
X12975575Y-14754960D01*
X12975575Y-14754960D02*
X12966051Y-14735912D01*
X12966051Y-14735912D02*
X12966051Y-14659722D01*
X12966051Y-14659722D02*
X12975575Y-14640674D01*
X12975575Y-14640674D02*
X12994623Y-14631150D01*
X12994623Y-14631150D02*
X13032718Y-14631150D01*
X13032718Y-14631150D02*
X13051766Y-14640674D01*
X13051766Y-14640674D02*
X13061289Y-14659722D01*
X13061289Y-14659722D02*
X13061289Y-14678769D01*
X13061289Y-14678769D02*
X12966051Y-14697817D01*
X13137480Y-14754960D02*
X13156528Y-14764484D01*
X13156528Y-14764484D02*
X13194623Y-14764484D01*
X13194623Y-14764484D02*
X13213670Y-14754960D01*
X13213670Y-14754960D02*
X13223194Y-14735912D01*
X13223194Y-14735912D02*
X13223194Y-14726388D01*
X13223194Y-14726388D02*
X13213670Y-14707341D01*
X13213670Y-14707341D02*
X13194623Y-14697817D01*
X13194623Y-14697817D02*
X13166051Y-14697817D01*
X13166051Y-14697817D02*
X13147004Y-14688293D01*
X13147004Y-14688293D02*
X13137480Y-14669246D01*
X13137480Y-14669246D02*
X13137480Y-14659722D01*
X13137480Y-14659722D02*
X13147004Y-14640674D01*
X13147004Y-14640674D02*
X13166051Y-14631150D01*
X13166051Y-14631150D02*
X13194623Y-14631150D01*
X13194623Y-14631150D02*
X13213670Y-14640674D01*
X13289861Y-14840674D02*
X13299385Y-14831150D01*
X13299385Y-14831150D02*
X13318432Y-14802579D01*
X13318432Y-14802579D02*
X13327956Y-14783531D01*
X13327956Y-14783531D02*
X13337480Y-14754960D01*
X13337480Y-14754960D02*
X13347004Y-14707341D01*
X13347004Y-14707341D02*
X13347004Y-14669246D01*
X13347004Y-14669246D02*
X13337480Y-14621627D01*
X13337480Y-14621627D02*
X13327956Y-14593055D01*
X13327956Y-14593055D02*
X13318432Y-14574008D01*
X13318432Y-14574008D02*
X13299385Y-14545436D01*
X13299385Y-14545436D02*
X13289861Y-14535912D01*
D10*
X8500154Y-14972356D02*
X8500154Y-14901644D01*
X8429442Y-14901644D01*
X8429442Y-14972356D01*
X8500154Y-14972356D01*
D11*
X8880337Y-15028484D02*
X8766051Y-15028484D01*
X8823194Y-15028484D02*
X8823194Y-14828484D01*
X8823194Y-14828484D02*
X8804146Y-14857055D01*
X8804146Y-14857055D02*
X8785099Y-14876103D01*
X8785099Y-14876103D02*
X8766051Y-14885627D01*
X8966051Y-15009436D02*
X8975575Y-15018960D01*
X8975575Y-15018960D02*
X8966051Y-15028484D01*
X8966051Y-15028484D02*
X8956527Y-15018960D01*
X8956527Y-15018960D02*
X8966051Y-15009436D01*
X8966051Y-15009436D02*
X8966051Y-15028484D01*
X9099384Y-14828484D02*
X9118432Y-14828484D01*
X9118432Y-14828484D02*
X9137480Y-14838008D01*
X9137480Y-14838008D02*
X9147003Y-14847531D01*
X9147003Y-14847531D02*
X9156527Y-14866579D01*
X9156527Y-14866579D02*
X9166051Y-14904674D01*
X9166051Y-14904674D02*
X9166051Y-14952293D01*
X9166051Y-14952293D02*
X9156527Y-14990388D01*
X9156527Y-14990388D02*
X9147003Y-15009436D01*
X9147003Y-15009436D02*
X9137480Y-15018960D01*
X9137480Y-15018960D02*
X9118432Y-15028484D01*
X9118432Y-15028484D02*
X9099384Y-15028484D01*
X9099384Y-15028484D02*
X9080337Y-15018960D01*
X9080337Y-15018960D02*
X9070813Y-15009436D01*
X9070813Y-15009436D02*
X9061289Y-14990388D01*
X9061289Y-14990388D02*
X9051765Y-14952293D01*
X9051765Y-14952293D02*
X9051765Y-14904674D01*
X9051765Y-14904674D02*
X9061289Y-14866579D01*
X9061289Y-14866579D02*
X9070813Y-14847531D01*
X9070813Y-14847531D02*
X9080337Y-14838008D01*
X9080337Y-14838008D02*
X9099384Y-14828484D01*
X9289861Y-14828484D02*
X9308908Y-14828484D01*
X9308908Y-14828484D02*
X9327956Y-14838008D01*
X9327956Y-14838008D02*
X9337480Y-14847531D01*
X9337480Y-14847531D02*
X9347003Y-14866579D01*
X9347003Y-14866579D02*
X9356527Y-14904674D01*
X9356527Y-14904674D02*
X9356527Y-14952293D01*
X9356527Y-14952293D02*
X9347003Y-14990388D01*
X9347003Y-14990388D02*
X9337480Y-15009436D01*
X9337480Y-15009436D02*
X9327956Y-15018960D01*
X9327956Y-15018960D02*
X9308908Y-15028484D01*
X9308908Y-15028484D02*
X9289861Y-15028484D01*
X9289861Y-15028484D02*
X9270813Y-15018960D01*
X9270813Y-15018960D02*
X9261289Y-15009436D01*
X9261289Y-15009436D02*
X9251765Y-14990388D01*
X9251765Y-14990388D02*
X9242242Y-14952293D01*
X9242242Y-14952293D02*
X9242242Y-14904674D01*
X9242242Y-14904674D02*
X9251765Y-14866579D01*
X9251765Y-14866579D02*
X9261289Y-14847531D01*
X9261289Y-14847531D02*
X9270813Y-14838008D01*
X9270813Y-14838008D02*
X9289861Y-14828484D01*
X9480337Y-14828484D02*
X9499384Y-14828484D01*
X9499384Y-14828484D02*
X9518432Y-14838008D01*
X9518432Y-14838008D02*
X9527956Y-14847531D01*
X9527956Y-14847531D02*
X9537480Y-14866579D01*
X9537480Y-14866579D02*
X9547003Y-14904674D01*
X9547003Y-14904674D02*
X9547003Y-14952293D01*
X9547003Y-14952293D02*
X9537480Y-14990388D01*
X9537480Y-14990388D02*
X9527956Y-15009436D01*
X9527956Y-15009436D02*
X9518432Y-15018960D01*
X9518432Y-15018960D02*
X9499384Y-15028484D01*
X9499384Y-15028484D02*
X9480337Y-15028484D01*
X9480337Y-15028484D02*
X9461289Y-15018960D01*
X9461289Y-15018960D02*
X9451765Y-15009436D01*
X9451765Y-15009436D02*
X9442242Y-14990388D01*
X9442242Y-14990388D02*
X9432718Y-14952293D01*
X9432718Y-14952293D02*
X9432718Y-14904674D01*
X9432718Y-14904674D02*
X9442242Y-14866579D01*
X9442242Y-14866579D02*
X9451765Y-14847531D01*
X9451765Y-14847531D02*
X9461289Y-14838008D01*
X9461289Y-14838008D02*
X9480337Y-14828484D01*
X9632718Y-15028484D02*
X9632718Y-14895150D01*
X9632718Y-14914198D02*
X9642242Y-14904674D01*
X9642242Y-14904674D02*
X9661289Y-14895150D01*
X9661289Y-14895150D02*
X9689861Y-14895150D01*
X9689861Y-14895150D02*
X9708908Y-14904674D01*
X9708908Y-14904674D02*
X9718432Y-14923722D01*
X9718432Y-14923722D02*
X9718432Y-15028484D01*
X9718432Y-14923722D02*
X9727956Y-14904674D01*
X9727956Y-14904674D02*
X9747003Y-14895150D01*
X9747003Y-14895150D02*
X9775575Y-14895150D01*
X9775575Y-14895150D02*
X9794623Y-14904674D01*
X9794623Y-14904674D02*
X9804146Y-14923722D01*
X9804146Y-14923722D02*
X9804146Y-15028484D01*
X9899384Y-15028484D02*
X9899384Y-14895150D01*
X9899384Y-14914198D02*
X9908908Y-14904674D01*
X9908908Y-14904674D02*
X9927956Y-14895150D01*
X9927956Y-14895150D02*
X9956527Y-14895150D01*
X9956527Y-14895150D02*
X9975575Y-14904674D01*
X9975575Y-14904674D02*
X9985099Y-14923722D01*
X9985099Y-14923722D02*
X9985099Y-15028484D01*
X9985099Y-14923722D02*
X9994623Y-14904674D01*
X9994623Y-14904674D02*
X10013670Y-14895150D01*
X10013670Y-14895150D02*
X10042242Y-14895150D01*
X10042242Y-14895150D02*
X10061289Y-14904674D01*
X10061289Y-14904674D02*
X10070813Y-14923722D01*
X10070813Y-14923722D02*
X10070813Y-15028484D01*
X10461289Y-14818960D02*
X10289861Y-15076103D01*
X10718432Y-14828484D02*
X10737480Y-14828484D01*
X10737480Y-14828484D02*
X10756527Y-14838008D01*
X10756527Y-14838008D02*
X10766051Y-14847531D01*
X10766051Y-14847531D02*
X10775575Y-14866579D01*
X10775575Y-14866579D02*
X10785099Y-14904674D01*
X10785099Y-14904674D02*
X10785099Y-14952293D01*
X10785099Y-14952293D02*
X10775575Y-14990388D01*
X10775575Y-14990388D02*
X10766051Y-15009436D01*
X10766051Y-15009436D02*
X10756527Y-15018960D01*
X10756527Y-15018960D02*
X10737480Y-15028484D01*
X10737480Y-15028484D02*
X10718432Y-15028484D01*
X10718432Y-15028484D02*
X10699385Y-15018960D01*
X10699385Y-15018960D02*
X10689861Y-15009436D01*
X10689861Y-15009436D02*
X10680337Y-14990388D01*
X10680337Y-14990388D02*
X10670813Y-14952293D01*
X10670813Y-14952293D02*
X10670813Y-14904674D01*
X10670813Y-14904674D02*
X10680337Y-14866579D01*
X10680337Y-14866579D02*
X10689861Y-14847531D01*
X10689861Y-14847531D02*
X10699385Y-14838008D01*
X10699385Y-14838008D02*
X10718432Y-14828484D01*
X10870813Y-15009436D02*
X10880337Y-15018960D01*
X10880337Y-15018960D02*
X10870813Y-15028484D01*
X10870813Y-15028484D02*
X10861289Y-15018960D01*
X10861289Y-15018960D02*
X10870813Y-15009436D01*
X10870813Y-15009436D02*
X10870813Y-15028484D01*
X11004146Y-14828484D02*
X11023194Y-14828484D01*
X11023194Y-14828484D02*
X11042242Y-14838008D01*
X11042242Y-14838008D02*
X11051766Y-14847531D01*
X11051766Y-14847531D02*
X11061289Y-14866579D01*
X11061289Y-14866579D02*
X11070813Y-14904674D01*
X11070813Y-14904674D02*
X11070813Y-14952293D01*
X11070813Y-14952293D02*
X11061289Y-14990388D01*
X11061289Y-14990388D02*
X11051766Y-15009436D01*
X11051766Y-15009436D02*
X11042242Y-15018960D01*
X11042242Y-15018960D02*
X11023194Y-15028484D01*
X11023194Y-15028484D02*
X11004146Y-15028484D01*
X11004146Y-15028484D02*
X10985099Y-15018960D01*
X10985099Y-15018960D02*
X10975575Y-15009436D01*
X10975575Y-15009436D02*
X10966051Y-14990388D01*
X10966051Y-14990388D02*
X10956527Y-14952293D01*
X10956527Y-14952293D02*
X10956527Y-14904674D01*
X10956527Y-14904674D02*
X10966051Y-14866579D01*
X10966051Y-14866579D02*
X10975575Y-14847531D01*
X10975575Y-14847531D02*
X10985099Y-14838008D01*
X10985099Y-14838008D02*
X11004146Y-14828484D01*
X11137480Y-14828484D02*
X11261289Y-14828484D01*
X11261289Y-14828484D02*
X11194623Y-14904674D01*
X11194623Y-14904674D02*
X11223194Y-14904674D01*
X11223194Y-14904674D02*
X11242242Y-14914198D01*
X11242242Y-14914198D02*
X11251765Y-14923722D01*
X11251765Y-14923722D02*
X11261289Y-14942769D01*
X11261289Y-14942769D02*
X11261289Y-14990388D01*
X11261289Y-14990388D02*
X11251765Y-15009436D01*
X11251765Y-15009436D02*
X11242242Y-15018960D01*
X11242242Y-15018960D02*
X11223194Y-15028484D01*
X11223194Y-15028484D02*
X11166051Y-15028484D01*
X11166051Y-15028484D02*
X11147004Y-15018960D01*
X11147004Y-15018960D02*
X11137480Y-15009436D01*
X11356527Y-15028484D02*
X11394623Y-15028484D01*
X11394623Y-15028484D02*
X11413670Y-15018960D01*
X11413670Y-15018960D02*
X11423194Y-15009436D01*
X11423194Y-15009436D02*
X11442242Y-14980865D01*
X11442242Y-14980865D02*
X11451765Y-14942769D01*
X11451765Y-14942769D02*
X11451765Y-14866579D01*
X11451765Y-14866579D02*
X11442242Y-14847531D01*
X11442242Y-14847531D02*
X11432718Y-14838008D01*
X11432718Y-14838008D02*
X11413670Y-14828484D01*
X11413670Y-14828484D02*
X11375575Y-14828484D01*
X11375575Y-14828484D02*
X11356527Y-14838008D01*
X11356527Y-14838008D02*
X11347004Y-14847531D01*
X11347004Y-14847531D02*
X11337480Y-14866579D01*
X11337480Y-14866579D02*
X11337480Y-14914198D01*
X11337480Y-14914198D02*
X11347004Y-14933246D01*
X11347004Y-14933246D02*
X11356527Y-14942769D01*
X11356527Y-14942769D02*
X11375575Y-14952293D01*
X11375575Y-14952293D02*
X11413670Y-14952293D01*
X11413670Y-14952293D02*
X11432718Y-14942769D01*
X11432718Y-14942769D02*
X11442242Y-14933246D01*
X11442242Y-14933246D02*
X11451765Y-14914198D01*
X11623194Y-14895150D02*
X11623194Y-15028484D01*
X11575575Y-14818960D02*
X11527956Y-14961817D01*
X11527956Y-14961817D02*
X11651765Y-14961817D01*
X11718432Y-14828484D02*
X11718432Y-14866579D01*
X11794623Y-14828484D02*
X11794623Y-14866579D01*
X12089861Y-15104674D02*
X12080337Y-15095150D01*
X12080337Y-15095150D02*
X12061289Y-15066579D01*
X12061289Y-15066579D02*
X12051766Y-15047531D01*
X12051766Y-15047531D02*
X12042242Y-15018960D01*
X12042242Y-15018960D02*
X12032718Y-14971341D01*
X12032718Y-14971341D02*
X12032718Y-14933246D01*
X12032718Y-14933246D02*
X12042242Y-14885627D01*
X12042242Y-14885627D02*
X12051766Y-14857055D01*
X12051766Y-14857055D02*
X12061289Y-14838008D01*
X12061289Y-14838008D02*
X12080337Y-14809436D01*
X12080337Y-14809436D02*
X12089861Y-14799912D01*
X12147004Y-14828484D02*
X12270813Y-14828484D01*
X12270813Y-14828484D02*
X12204146Y-14904674D01*
X12204146Y-14904674D02*
X12232718Y-14904674D01*
X12232718Y-14904674D02*
X12251766Y-14914198D01*
X12251766Y-14914198D02*
X12261289Y-14923722D01*
X12261289Y-14923722D02*
X12270813Y-14942769D01*
X12270813Y-14942769D02*
X12270813Y-14990388D01*
X12270813Y-14990388D02*
X12261289Y-15009436D01*
X12261289Y-15009436D02*
X12251766Y-15018960D01*
X12251766Y-15018960D02*
X12232718Y-15028484D01*
X12232718Y-15028484D02*
X12175575Y-15028484D01*
X12175575Y-15028484D02*
X12156527Y-15018960D01*
X12156527Y-15018960D02*
X12147004Y-15009436D01*
X12366051Y-15028484D02*
X12404146Y-15028484D01*
X12404146Y-15028484D02*
X12423194Y-15018960D01*
X12423194Y-15018960D02*
X12432718Y-15009436D01*
X12432718Y-15009436D02*
X12451766Y-14980865D01*
X12451766Y-14980865D02*
X12461289Y-14942769D01*
X12461289Y-14942769D02*
X12461289Y-14866579D01*
X12461289Y-14866579D02*
X12451766Y-14847531D01*
X12451766Y-14847531D02*
X12442242Y-14838008D01*
X12442242Y-14838008D02*
X12423194Y-14828484D01*
X12423194Y-14828484D02*
X12385099Y-14828484D01*
X12385099Y-14828484D02*
X12366051Y-14838008D01*
X12366051Y-14838008D02*
X12356527Y-14847531D01*
X12356527Y-14847531D02*
X12347004Y-14866579D01*
X12347004Y-14866579D02*
X12347004Y-14914198D01*
X12347004Y-14914198D02*
X12356527Y-14933246D01*
X12356527Y-14933246D02*
X12366051Y-14942769D01*
X12366051Y-14942769D02*
X12385099Y-14952293D01*
X12385099Y-14952293D02*
X12423194Y-14952293D01*
X12423194Y-14952293D02*
X12442242Y-14942769D01*
X12442242Y-14942769D02*
X12451766Y-14933246D01*
X12451766Y-14933246D02*
X12461289Y-14914198D01*
X12651766Y-15028484D02*
X12537480Y-15028484D01*
X12594623Y-15028484D02*
X12594623Y-14828484D01*
X12594623Y-14828484D02*
X12575575Y-14857055D01*
X12575575Y-14857055D02*
X12556527Y-14876103D01*
X12556527Y-14876103D02*
X12537480Y-14885627D01*
X12889861Y-15028484D02*
X12889861Y-14828484D01*
X12975575Y-15028484D02*
X12975575Y-14923722D01*
X12975575Y-14923722D02*
X12966051Y-14904674D01*
X12966051Y-14904674D02*
X12947004Y-14895150D01*
X12947004Y-14895150D02*
X12918432Y-14895150D01*
X12918432Y-14895150D02*
X12899385Y-14904674D01*
X12899385Y-14904674D02*
X12889861Y-14914198D01*
X13099385Y-15028484D02*
X13080337Y-15018960D01*
X13080337Y-15018960D02*
X13070813Y-15009436D01*
X13070813Y-15009436D02*
X13061289Y-14990388D01*
X13061289Y-14990388D02*
X13061289Y-14933246D01*
X13061289Y-14933246D02*
X13070813Y-14914198D01*
X13070813Y-14914198D02*
X13080337Y-14904674D01*
X13080337Y-14904674D02*
X13099385Y-14895150D01*
X13099385Y-14895150D02*
X13127956Y-14895150D01*
X13127956Y-14895150D02*
X13147004Y-14904674D01*
X13147004Y-14904674D02*
X13156528Y-14914198D01*
X13156528Y-14914198D02*
X13166051Y-14933246D01*
X13166051Y-14933246D02*
X13166051Y-14990388D01*
X13166051Y-14990388D02*
X13156528Y-15009436D01*
X13156528Y-15009436D02*
X13147004Y-15018960D01*
X13147004Y-15018960D02*
X13127956Y-15028484D01*
X13127956Y-15028484D02*
X13099385Y-15028484D01*
X13280337Y-15028484D02*
X13261289Y-15018960D01*
X13261289Y-15018960D02*
X13251766Y-14999912D01*
X13251766Y-14999912D02*
X13251766Y-14828484D01*
X13432718Y-15018960D02*
X13413670Y-15028484D01*
X13413670Y-15028484D02*
X13375575Y-15028484D01*
X13375575Y-15028484D02*
X13356528Y-15018960D01*
X13356528Y-15018960D02*
X13347004Y-14999912D01*
X13347004Y-14999912D02*
X13347004Y-14923722D01*
X13347004Y-14923722D02*
X13356528Y-14904674D01*
X13356528Y-14904674D02*
X13375575Y-14895150D01*
X13375575Y-14895150D02*
X13413670Y-14895150D01*
X13413670Y-14895150D02*
X13432718Y-14904674D01*
X13432718Y-14904674D02*
X13442242Y-14923722D01*
X13442242Y-14923722D02*
X13442242Y-14942769D01*
X13442242Y-14942769D02*
X13347004Y-14961817D01*
X13518432Y-15018960D02*
X13537480Y-15028484D01*
X13537480Y-15028484D02*
X13575575Y-15028484D01*
X13575575Y-15028484D02*
X13594623Y-15018960D01*
X13594623Y-15018960D02*
X13604147Y-14999912D01*
X13604147Y-14999912D02*
X13604147Y-14990388D01*
X13604147Y-14990388D02*
X13594623Y-14971341D01*
X13594623Y-14971341D02*
X13575575Y-14961817D01*
X13575575Y-14961817D02*
X13547004Y-14961817D01*
X13547004Y-14961817D02*
X13527956Y-14952293D01*
X13527956Y-14952293D02*
X13518432Y-14933246D01*
X13518432Y-14933246D02*
X13518432Y-14923722D01*
X13518432Y-14923722D02*
X13527956Y-14904674D01*
X13527956Y-14904674D02*
X13547004Y-14895150D01*
X13547004Y-14895150D02*
X13575575Y-14895150D01*
X13575575Y-14895150D02*
X13594623Y-14904674D01*
X13842242Y-14952293D02*
X13994623Y-14952293D01*
X13918432Y-15028484D02*
X13918432Y-14876103D01*
X14223194Y-14828484D02*
X14347004Y-14828484D01*
X14347004Y-14828484D02*
X14280337Y-14904674D01*
X14280337Y-14904674D02*
X14308909Y-14904674D01*
X14308909Y-14904674D02*
X14327956Y-14914198D01*
X14327956Y-14914198D02*
X14337480Y-14923722D01*
X14337480Y-14923722D02*
X14347004Y-14942769D01*
X14347004Y-14942769D02*
X14347004Y-14990388D01*
X14347004Y-14990388D02*
X14337480Y-15009436D01*
X14337480Y-15009436D02*
X14327956Y-15018960D01*
X14327956Y-15018960D02*
X14308909Y-15028484D01*
X14308909Y-15028484D02*
X14251766Y-15028484D01*
X14251766Y-15028484D02*
X14232718Y-15018960D01*
X14232718Y-15018960D02*
X14223194Y-15009436D01*
X14575575Y-15018960D02*
X14594623Y-15028484D01*
X14594623Y-15028484D02*
X14632718Y-15028484D01*
X14632718Y-15028484D02*
X14651766Y-15018960D01*
X14651766Y-15018960D02*
X14661290Y-14999912D01*
X14661290Y-14999912D02*
X14661290Y-14990388D01*
X14661290Y-14990388D02*
X14651766Y-14971341D01*
X14651766Y-14971341D02*
X14632718Y-14961817D01*
X14632718Y-14961817D02*
X14604147Y-14961817D01*
X14604147Y-14961817D02*
X14585099Y-14952293D01*
X14585099Y-14952293D02*
X14575575Y-14933246D01*
X14575575Y-14933246D02*
X14575575Y-14923722D01*
X14575575Y-14923722D02*
X14585099Y-14904674D01*
X14585099Y-14904674D02*
X14604147Y-14895150D01*
X14604147Y-14895150D02*
X14632718Y-14895150D01*
X14632718Y-14895150D02*
X14651766Y-14904674D01*
X14775575Y-15028484D02*
X14756528Y-15018960D01*
X14756528Y-15018960D02*
X14747004Y-14999912D01*
X14747004Y-14999912D02*
X14747004Y-14828484D01*
X14880337Y-15028484D02*
X14861290Y-15018960D01*
X14861290Y-15018960D02*
X14851766Y-15009436D01*
X14851766Y-15009436D02*
X14842242Y-14990388D01*
X14842242Y-14990388D02*
X14842242Y-14933246D01*
X14842242Y-14933246D02*
X14851766Y-14914198D01*
X14851766Y-14914198D02*
X14861290Y-14904674D01*
X14861290Y-14904674D02*
X14880337Y-14895150D01*
X14880337Y-14895150D02*
X14908909Y-14895150D01*
X14908909Y-14895150D02*
X14927956Y-14904674D01*
X14927956Y-14904674D02*
X14937480Y-14914198D01*
X14937480Y-14914198D02*
X14947004Y-14933246D01*
X14947004Y-14933246D02*
X14947004Y-14990388D01*
X14947004Y-14990388D02*
X14937480Y-15009436D01*
X14937480Y-15009436D02*
X14927956Y-15018960D01*
X14927956Y-15018960D02*
X14908909Y-15028484D01*
X14908909Y-15028484D02*
X14880337Y-15028484D01*
X15004147Y-14895150D02*
X15080337Y-14895150D01*
X15032718Y-14828484D02*
X15032718Y-14999912D01*
X15032718Y-14999912D02*
X15042242Y-15018960D01*
X15042242Y-15018960D02*
X15061290Y-15028484D01*
X15061290Y-15028484D02*
X15080337Y-15028484D01*
X15137480Y-15018960D02*
X15156528Y-15028484D01*
X15156528Y-15028484D02*
X15194623Y-15028484D01*
X15194623Y-15028484D02*
X15213671Y-15018960D01*
X15213671Y-15018960D02*
X15223194Y-14999912D01*
X15223194Y-14999912D02*
X15223194Y-14990388D01*
X15223194Y-14990388D02*
X15213671Y-14971341D01*
X15213671Y-14971341D02*
X15194623Y-14961817D01*
X15194623Y-14961817D02*
X15166052Y-14961817D01*
X15166052Y-14961817D02*
X15147004Y-14952293D01*
X15147004Y-14952293D02*
X15137480Y-14933246D01*
X15137480Y-14933246D02*
X15137480Y-14923722D01*
X15137480Y-14923722D02*
X15147004Y-14904674D01*
X15147004Y-14904674D02*
X15166052Y-14895150D01*
X15166052Y-14895150D02*
X15194623Y-14895150D01*
X15194623Y-14895150D02*
X15213671Y-14904674D01*
X15289861Y-15104674D02*
X15299385Y-15095150D01*
X15299385Y-15095150D02*
X15318433Y-15066579D01*
X15318433Y-15066579D02*
X15327956Y-15047531D01*
X15327956Y-15047531D02*
X15337480Y-15018960D01*
X15337480Y-15018960D02*
X15347004Y-14971341D01*
X15347004Y-14971341D02*
X15347004Y-14933246D01*
X15347004Y-14933246D02*
X15337480Y-14885627D01*
X15337480Y-14885627D02*
X15327956Y-14857055D01*
X15327956Y-14857055D02*
X15318433Y-14838008D01*
X15318433Y-14838008D02*
X15299385Y-14809436D01*
X15299385Y-14809436D02*
X15289861Y-14799912D01*
D12*
X8463998Y-15251800D02*
X8514798Y-15201000D01*
X8463998Y-15150200D01*
X8413198Y-15201000D01*
X8463998Y-15251800D01*
D11*
X8880337Y-15292484D02*
X8766051Y-15292484D01*
X8823194Y-15292484D02*
X8823194Y-15092484D01*
X8823194Y-15092484D02*
X8804146Y-15121055D01*
X8804146Y-15121055D02*
X8785099Y-15140103D01*
X8785099Y-15140103D02*
X8766051Y-15149627D01*
X8966051Y-15273436D02*
X8975575Y-15282960D01*
X8975575Y-15282960D02*
X8966051Y-15292484D01*
X8966051Y-15292484D02*
X8956527Y-15282960D01*
X8956527Y-15282960D02*
X8966051Y-15273436D01*
X8966051Y-15273436D02*
X8966051Y-15292484D01*
X9099384Y-15092484D02*
X9118432Y-15092484D01*
X9118432Y-15092484D02*
X9137480Y-15102008D01*
X9137480Y-15102008D02*
X9147003Y-15111531D01*
X9147003Y-15111531D02*
X9156527Y-15130579D01*
X9156527Y-15130579D02*
X9166051Y-15168674D01*
X9166051Y-15168674D02*
X9166051Y-15216293D01*
X9166051Y-15216293D02*
X9156527Y-15254388D01*
X9156527Y-15254388D02*
X9147003Y-15273436D01*
X9147003Y-15273436D02*
X9137480Y-15282960D01*
X9137480Y-15282960D02*
X9118432Y-15292484D01*
X9118432Y-15292484D02*
X9099384Y-15292484D01*
X9099384Y-15292484D02*
X9080337Y-15282960D01*
X9080337Y-15282960D02*
X9070813Y-15273436D01*
X9070813Y-15273436D02*
X9061289Y-15254388D01*
X9061289Y-15254388D02*
X9051765Y-15216293D01*
X9051765Y-15216293D02*
X9051765Y-15168674D01*
X9051765Y-15168674D02*
X9061289Y-15130579D01*
X9061289Y-15130579D02*
X9070813Y-15111531D01*
X9070813Y-15111531D02*
X9080337Y-15102008D01*
X9080337Y-15102008D02*
X9099384Y-15092484D01*
X9356527Y-15292484D02*
X9242242Y-15292484D01*
X9299384Y-15292484D02*
X9299384Y-15092484D01*
X9299384Y-15092484D02*
X9280337Y-15121055D01*
X9280337Y-15121055D02*
X9261289Y-15140103D01*
X9261289Y-15140103D02*
X9242242Y-15149627D01*
X9527956Y-15092484D02*
X9489861Y-15092484D01*
X9489861Y-15092484D02*
X9470813Y-15102008D01*
X9470813Y-15102008D02*
X9461289Y-15111531D01*
X9461289Y-15111531D02*
X9442242Y-15140103D01*
X9442242Y-15140103D02*
X9432718Y-15178198D01*
X9432718Y-15178198D02*
X9432718Y-15254388D01*
X9432718Y-15254388D02*
X9442242Y-15273436D01*
X9442242Y-15273436D02*
X9451765Y-15282960D01*
X9451765Y-15282960D02*
X9470813Y-15292484D01*
X9470813Y-15292484D02*
X9508908Y-15292484D01*
X9508908Y-15292484D02*
X9527956Y-15282960D01*
X9527956Y-15282960D02*
X9537480Y-15273436D01*
X9537480Y-15273436D02*
X9547003Y-15254388D01*
X9547003Y-15254388D02*
X9547003Y-15206769D01*
X9547003Y-15206769D02*
X9537480Y-15187722D01*
X9537480Y-15187722D02*
X9527956Y-15178198D01*
X9527956Y-15178198D02*
X9508908Y-15168674D01*
X9508908Y-15168674D02*
X9470813Y-15168674D01*
X9470813Y-15168674D02*
X9451765Y-15178198D01*
X9451765Y-15178198D02*
X9442242Y-15187722D01*
X9442242Y-15187722D02*
X9432718Y-15206769D01*
X9632718Y-15292484D02*
X9632718Y-15159150D01*
X9632718Y-15178198D02*
X9642242Y-15168674D01*
X9642242Y-15168674D02*
X9661289Y-15159150D01*
X9661289Y-15159150D02*
X9689861Y-15159150D01*
X9689861Y-15159150D02*
X9708908Y-15168674D01*
X9708908Y-15168674D02*
X9718432Y-15187722D01*
X9718432Y-15187722D02*
X9718432Y-15292484D01*
X9718432Y-15187722D02*
X9727956Y-15168674D01*
X9727956Y-15168674D02*
X9747003Y-15159150D01*
X9747003Y-15159150D02*
X9775575Y-15159150D01*
X9775575Y-15159150D02*
X9794623Y-15168674D01*
X9794623Y-15168674D02*
X9804146Y-15187722D01*
X9804146Y-15187722D02*
X9804146Y-15292484D01*
X9899384Y-15292484D02*
X9899384Y-15159150D01*
X9899384Y-15178198D02*
X9908908Y-15168674D01*
X9908908Y-15168674D02*
X9927956Y-15159150D01*
X9927956Y-15159150D02*
X9956527Y-15159150D01*
X9956527Y-15159150D02*
X9975575Y-15168674D01*
X9975575Y-15168674D02*
X9985099Y-15187722D01*
X9985099Y-15187722D02*
X9985099Y-15292484D01*
X9985099Y-15187722D02*
X9994623Y-15168674D01*
X9994623Y-15168674D02*
X10013670Y-15159150D01*
X10013670Y-15159150D02*
X10042242Y-15159150D01*
X10042242Y-15159150D02*
X10061289Y-15168674D01*
X10061289Y-15168674D02*
X10070813Y-15187722D01*
X10070813Y-15187722D02*
X10070813Y-15292484D01*
X10461289Y-15082960D02*
X10289861Y-15340103D01*
X10718432Y-15092484D02*
X10737480Y-15092484D01*
X10737480Y-15092484D02*
X10756527Y-15102008D01*
X10756527Y-15102008D02*
X10766051Y-15111531D01*
X10766051Y-15111531D02*
X10775575Y-15130579D01*
X10775575Y-15130579D02*
X10785099Y-15168674D01*
X10785099Y-15168674D02*
X10785099Y-15216293D01*
X10785099Y-15216293D02*
X10775575Y-15254388D01*
X10775575Y-15254388D02*
X10766051Y-15273436D01*
X10766051Y-15273436D02*
X10756527Y-15282960D01*
X10756527Y-15282960D02*
X10737480Y-15292484D01*
X10737480Y-15292484D02*
X10718432Y-15292484D01*
X10718432Y-15292484D02*
X10699385Y-15282960D01*
X10699385Y-15282960D02*
X10689861Y-15273436D01*
X10689861Y-15273436D02*
X10680337Y-15254388D01*
X10680337Y-15254388D02*
X10670813Y-15216293D01*
X10670813Y-15216293D02*
X10670813Y-15168674D01*
X10670813Y-15168674D02*
X10680337Y-15130579D01*
X10680337Y-15130579D02*
X10689861Y-15111531D01*
X10689861Y-15111531D02*
X10699385Y-15102008D01*
X10699385Y-15102008D02*
X10718432Y-15092484D01*
X10870813Y-15273436D02*
X10880337Y-15282960D01*
X10880337Y-15282960D02*
X10870813Y-15292484D01*
X10870813Y-15292484D02*
X10861289Y-15282960D01*
X10861289Y-15282960D02*
X10870813Y-15273436D01*
X10870813Y-15273436D02*
X10870813Y-15292484D01*
X11004146Y-15092484D02*
X11023194Y-15092484D01*
X11023194Y-15092484D02*
X11042242Y-15102008D01*
X11042242Y-15102008D02*
X11051766Y-15111531D01*
X11051766Y-15111531D02*
X11061289Y-15130579D01*
X11061289Y-15130579D02*
X11070813Y-15168674D01*
X11070813Y-15168674D02*
X11070813Y-15216293D01*
X11070813Y-15216293D02*
X11061289Y-15254388D01*
X11061289Y-15254388D02*
X11051766Y-15273436D01*
X11051766Y-15273436D02*
X11042242Y-15282960D01*
X11042242Y-15282960D02*
X11023194Y-15292484D01*
X11023194Y-15292484D02*
X11004146Y-15292484D01*
X11004146Y-15292484D02*
X10985099Y-15282960D01*
X10985099Y-15282960D02*
X10975575Y-15273436D01*
X10975575Y-15273436D02*
X10966051Y-15254388D01*
X10966051Y-15254388D02*
X10956527Y-15216293D01*
X10956527Y-15216293D02*
X10956527Y-15168674D01*
X10956527Y-15168674D02*
X10966051Y-15130579D01*
X10966051Y-15130579D02*
X10975575Y-15111531D01*
X10975575Y-15111531D02*
X10985099Y-15102008D01*
X10985099Y-15102008D02*
X11004146Y-15092484D01*
X11242242Y-15159150D02*
X11242242Y-15292484D01*
X11194623Y-15082960D02*
X11147004Y-15225817D01*
X11147004Y-15225817D02*
X11270813Y-15225817D01*
X11385099Y-15092484D02*
X11404146Y-15092484D01*
X11404146Y-15092484D02*
X11423194Y-15102008D01*
X11423194Y-15102008D02*
X11432718Y-15111531D01*
X11432718Y-15111531D02*
X11442242Y-15130579D01*
X11442242Y-15130579D02*
X11451765Y-15168674D01*
X11451765Y-15168674D02*
X11451765Y-15216293D01*
X11451765Y-15216293D02*
X11442242Y-15254388D01*
X11442242Y-15254388D02*
X11432718Y-15273436D01*
X11432718Y-15273436D02*
X11423194Y-15282960D01*
X11423194Y-15282960D02*
X11404146Y-15292484D01*
X11404146Y-15292484D02*
X11385099Y-15292484D01*
X11385099Y-15292484D02*
X11366051Y-15282960D01*
X11366051Y-15282960D02*
X11356527Y-15273436D01*
X11356527Y-15273436D02*
X11347004Y-15254388D01*
X11347004Y-15254388D02*
X11337480Y-15216293D01*
X11337480Y-15216293D02*
X11337480Y-15168674D01*
X11337480Y-15168674D02*
X11347004Y-15130579D01*
X11347004Y-15130579D02*
X11356527Y-15111531D01*
X11356527Y-15111531D02*
X11366051Y-15102008D01*
X11366051Y-15102008D02*
X11385099Y-15092484D01*
X11575575Y-15092484D02*
X11594623Y-15092484D01*
X11594623Y-15092484D02*
X11613670Y-15102008D01*
X11613670Y-15102008D02*
X11623194Y-15111531D01*
X11623194Y-15111531D02*
X11632718Y-15130579D01*
X11632718Y-15130579D02*
X11642242Y-15168674D01*
X11642242Y-15168674D02*
X11642242Y-15216293D01*
X11642242Y-15216293D02*
X11632718Y-15254388D01*
X11632718Y-15254388D02*
X11623194Y-15273436D01*
X11623194Y-15273436D02*
X11613670Y-15282960D01*
X11613670Y-15282960D02*
X11594623Y-15292484D01*
X11594623Y-15292484D02*
X11575575Y-15292484D01*
X11575575Y-15292484D02*
X11556527Y-15282960D01*
X11556527Y-15282960D02*
X11547004Y-15273436D01*
X11547004Y-15273436D02*
X11537480Y-15254388D01*
X11537480Y-15254388D02*
X11527956Y-15216293D01*
X11527956Y-15216293D02*
X11527956Y-15168674D01*
X11527956Y-15168674D02*
X11537480Y-15130579D01*
X11537480Y-15130579D02*
X11547004Y-15111531D01*
X11547004Y-15111531D02*
X11556527Y-15102008D01*
X11556527Y-15102008D02*
X11575575Y-15092484D01*
X11718432Y-15092484D02*
X11718432Y-15130579D01*
X11794623Y-15092484D02*
X11794623Y-15130579D01*
X12089861Y-15368674D02*
X12080337Y-15359150D01*
X12080337Y-15359150D02*
X12061289Y-15330579D01*
X12061289Y-15330579D02*
X12051766Y-15311531D01*
X12051766Y-15311531D02*
X12042242Y-15282960D01*
X12042242Y-15282960D02*
X12032718Y-15235341D01*
X12032718Y-15235341D02*
X12032718Y-15197246D01*
X12032718Y-15197246D02*
X12042242Y-15149627D01*
X12042242Y-15149627D02*
X12051766Y-15121055D01*
X12051766Y-15121055D02*
X12061289Y-15102008D01*
X12061289Y-15102008D02*
X12080337Y-15073436D01*
X12080337Y-15073436D02*
X12089861Y-15063912D01*
X12261289Y-15092484D02*
X12166051Y-15092484D01*
X12166051Y-15092484D02*
X12156527Y-15187722D01*
X12156527Y-15187722D02*
X12166051Y-15178198D01*
X12166051Y-15178198D02*
X12185099Y-15168674D01*
X12185099Y-15168674D02*
X12232718Y-15168674D01*
X12232718Y-15168674D02*
X12251766Y-15178198D01*
X12251766Y-15178198D02*
X12261289Y-15187722D01*
X12261289Y-15187722D02*
X12270813Y-15206769D01*
X12270813Y-15206769D02*
X12270813Y-15254388D01*
X12270813Y-15254388D02*
X12261289Y-15273436D01*
X12261289Y-15273436D02*
X12251766Y-15282960D01*
X12251766Y-15282960D02*
X12232718Y-15292484D01*
X12232718Y-15292484D02*
X12185099Y-15292484D01*
X12185099Y-15292484D02*
X12166051Y-15282960D01*
X12166051Y-15282960D02*
X12156527Y-15273436D01*
X12442242Y-15159150D02*
X12442242Y-15292484D01*
X12394623Y-15082960D02*
X12347004Y-15225817D01*
X12347004Y-15225817D02*
X12470813Y-15225817D01*
X12699385Y-15292484D02*
X12699385Y-15092484D01*
X12785099Y-15292484D02*
X12785099Y-15187722D01*
X12785099Y-15187722D02*
X12775575Y-15168674D01*
X12775575Y-15168674D02*
X12756528Y-15159150D01*
X12756528Y-15159150D02*
X12727956Y-15159150D01*
X12727956Y-15159150D02*
X12708908Y-15168674D01*
X12708908Y-15168674D02*
X12699385Y-15178198D01*
X12908908Y-15292484D02*
X12889861Y-15282960D01*
X12889861Y-15282960D02*
X12880337Y-15273436D01*
X12880337Y-15273436D02*
X12870813Y-15254388D01*
X12870813Y-15254388D02*
X12870813Y-15197246D01*
X12870813Y-15197246D02*
X12880337Y-15178198D01*
X12880337Y-15178198D02*
X12889861Y-15168674D01*
X12889861Y-15168674D02*
X12908908Y-15159150D01*
X12908908Y-15159150D02*
X12937480Y-15159150D01*
X12937480Y-15159150D02*
X12956528Y-15168674D01*
X12956528Y-15168674D02*
X12966051Y-15178198D01*
X12966051Y-15178198D02*
X12975575Y-15197246D01*
X12975575Y-15197246D02*
X12975575Y-15254388D01*
X12975575Y-15254388D02*
X12966051Y-15273436D01*
X12966051Y-15273436D02*
X12956528Y-15282960D01*
X12956528Y-15282960D02*
X12937480Y-15292484D01*
X12937480Y-15292484D02*
X12908908Y-15292484D01*
X13089861Y-15292484D02*
X13070813Y-15282960D01*
X13070813Y-15282960D02*
X13061289Y-15263912D01*
X13061289Y-15263912D02*
X13061289Y-15092484D01*
X13242242Y-15282960D02*
X13223194Y-15292484D01*
X13223194Y-15292484D02*
X13185099Y-15292484D01*
X13185099Y-15292484D02*
X13166051Y-15282960D01*
X13166051Y-15282960D02*
X13156528Y-15263912D01*
X13156528Y-15263912D02*
X13156528Y-15187722D01*
X13156528Y-15187722D02*
X13166051Y-15168674D01*
X13166051Y-15168674D02*
X13185099Y-15159150D01*
X13185099Y-15159150D02*
X13223194Y-15159150D01*
X13223194Y-15159150D02*
X13242242Y-15168674D01*
X13242242Y-15168674D02*
X13251766Y-15187722D01*
X13251766Y-15187722D02*
X13251766Y-15206769D01*
X13251766Y-15206769D02*
X13156528Y-15225817D01*
X13327956Y-15282960D02*
X13347004Y-15292484D01*
X13347004Y-15292484D02*
X13385099Y-15292484D01*
X13385099Y-15292484D02*
X13404147Y-15282960D01*
X13404147Y-15282960D02*
X13413670Y-15263912D01*
X13413670Y-15263912D02*
X13413670Y-15254388D01*
X13413670Y-15254388D02*
X13404147Y-15235341D01*
X13404147Y-15235341D02*
X13385099Y-15225817D01*
X13385099Y-15225817D02*
X13356528Y-15225817D01*
X13356528Y-15225817D02*
X13337480Y-15216293D01*
X13337480Y-15216293D02*
X13327956Y-15197246D01*
X13327956Y-15197246D02*
X13327956Y-15187722D01*
X13327956Y-15187722D02*
X13337480Y-15168674D01*
X13337480Y-15168674D02*
X13356528Y-15159150D01*
X13356528Y-15159150D02*
X13385099Y-15159150D01*
X13385099Y-15159150D02*
X13404147Y-15168674D01*
X13480337Y-15368674D02*
X13489861Y-15359150D01*
X13489861Y-15359150D02*
X13508909Y-15330579D01*
X13508909Y-15330579D02*
X13518432Y-15311531D01*
X13518432Y-15311531D02*
X13527956Y-15282960D01*
X13527956Y-15282960D02*
X13537480Y-15235341D01*
X13537480Y-15235341D02*
X13537480Y-15197246D01*
X13537480Y-15197246D02*
X13527956Y-15149627D01*
X13527956Y-15149627D02*
X13518432Y-15121055D01*
X13518432Y-15121055D02*
X13508909Y-15102008D01*
X13508909Y-15102008D02*
X13489861Y-15073436D01*
X13489861Y-15073436D02*
X13480337Y-15063912D01*
X8314798Y-15365000D02*
X8514798Y-15565000D01*
X8514798Y-15365000D02*
X8314798Y-15565000D01*
X8514798Y-15465000D02*
G75*
G03*
X8314798Y-15465000I-100000J0D01*
G01*
X8314798Y-15465000D02*
G75*
G03*
X8514798Y-15465000I100000J0D01*
G01*
X8766051Y-15375531D02*
X8775575Y-15366008D01*
X8775575Y-15366008D02*
X8794622Y-15356484D01*
X8794622Y-15356484D02*
X8842242Y-15356484D01*
X8842242Y-15356484D02*
X8861289Y-15366008D01*
X8861289Y-15366008D02*
X8870813Y-15375531D01*
X8870813Y-15375531D02*
X8880337Y-15394579D01*
X8880337Y-15394579D02*
X8880337Y-15413627D01*
X8880337Y-15413627D02*
X8870813Y-15442198D01*
X8870813Y-15442198D02*
X8756527Y-15556484D01*
X8756527Y-15556484D02*
X8880337Y-15556484D01*
X8966051Y-15537436D02*
X8975575Y-15546960D01*
X8975575Y-15546960D02*
X8966051Y-15556484D01*
X8966051Y-15556484D02*
X8956527Y-15546960D01*
X8956527Y-15546960D02*
X8966051Y-15537436D01*
X8966051Y-15537436D02*
X8966051Y-15556484D01*
X9089861Y-15442198D02*
X9070813Y-15432674D01*
X9070813Y-15432674D02*
X9061289Y-15423150D01*
X9061289Y-15423150D02*
X9051765Y-15404103D01*
X9051765Y-15404103D02*
X9051765Y-15394579D01*
X9051765Y-15394579D02*
X9061289Y-15375531D01*
X9061289Y-15375531D02*
X9070813Y-15366008D01*
X9070813Y-15366008D02*
X9089861Y-15356484D01*
X9089861Y-15356484D02*
X9127956Y-15356484D01*
X9127956Y-15356484D02*
X9147003Y-15366008D01*
X9147003Y-15366008D02*
X9156527Y-15375531D01*
X9156527Y-15375531D02*
X9166051Y-15394579D01*
X9166051Y-15394579D02*
X9166051Y-15404103D01*
X9166051Y-15404103D02*
X9156527Y-15423150D01*
X9156527Y-15423150D02*
X9147003Y-15432674D01*
X9147003Y-15432674D02*
X9127956Y-15442198D01*
X9127956Y-15442198D02*
X9089861Y-15442198D01*
X9089861Y-15442198D02*
X9070813Y-15451722D01*
X9070813Y-15451722D02*
X9061289Y-15461246D01*
X9061289Y-15461246D02*
X9051765Y-15480293D01*
X9051765Y-15480293D02*
X9051765Y-15518388D01*
X9051765Y-15518388D02*
X9061289Y-15537436D01*
X9061289Y-15537436D02*
X9070813Y-15546960D01*
X9070813Y-15546960D02*
X9089861Y-15556484D01*
X9089861Y-15556484D02*
X9127956Y-15556484D01*
X9127956Y-15556484D02*
X9147003Y-15546960D01*
X9147003Y-15546960D02*
X9156527Y-15537436D01*
X9156527Y-15537436D02*
X9166051Y-15518388D01*
X9166051Y-15518388D02*
X9166051Y-15480293D01*
X9166051Y-15480293D02*
X9156527Y-15461246D01*
X9156527Y-15461246D02*
X9147003Y-15451722D01*
X9147003Y-15451722D02*
X9127956Y-15442198D01*
X9289861Y-15356484D02*
X9308908Y-15356484D01*
X9308908Y-15356484D02*
X9327956Y-15366008D01*
X9327956Y-15366008D02*
X9337480Y-15375531D01*
X9337480Y-15375531D02*
X9347003Y-15394579D01*
X9347003Y-15394579D02*
X9356527Y-15432674D01*
X9356527Y-15432674D02*
X9356527Y-15480293D01*
X9356527Y-15480293D02*
X9347003Y-15518388D01*
X9347003Y-15518388D02*
X9337480Y-15537436D01*
X9337480Y-15537436D02*
X9327956Y-15546960D01*
X9327956Y-15546960D02*
X9308908Y-15556484D01*
X9308908Y-15556484D02*
X9289861Y-15556484D01*
X9289861Y-15556484D02*
X9270813Y-15546960D01*
X9270813Y-15546960D02*
X9261289Y-15537436D01*
X9261289Y-15537436D02*
X9251765Y-15518388D01*
X9251765Y-15518388D02*
X9242242Y-15480293D01*
X9242242Y-15480293D02*
X9242242Y-15432674D01*
X9242242Y-15432674D02*
X9251765Y-15394579D01*
X9251765Y-15394579D02*
X9261289Y-15375531D01*
X9261289Y-15375531D02*
X9270813Y-15366008D01*
X9270813Y-15366008D02*
X9289861Y-15356484D01*
X9480337Y-15356484D02*
X9499384Y-15356484D01*
X9499384Y-15356484D02*
X9518432Y-15366008D01*
X9518432Y-15366008D02*
X9527956Y-15375531D01*
X9527956Y-15375531D02*
X9537480Y-15394579D01*
X9537480Y-15394579D02*
X9547003Y-15432674D01*
X9547003Y-15432674D02*
X9547003Y-15480293D01*
X9547003Y-15480293D02*
X9537480Y-15518388D01*
X9537480Y-15518388D02*
X9527956Y-15537436D01*
X9527956Y-15537436D02*
X9518432Y-15546960D01*
X9518432Y-15546960D02*
X9499384Y-15556484D01*
X9499384Y-15556484D02*
X9480337Y-15556484D01*
X9480337Y-15556484D02*
X9461289Y-15546960D01*
X9461289Y-15546960D02*
X9451765Y-15537436D01*
X9451765Y-15537436D02*
X9442242Y-15518388D01*
X9442242Y-15518388D02*
X9432718Y-15480293D01*
X9432718Y-15480293D02*
X9432718Y-15432674D01*
X9432718Y-15432674D02*
X9442242Y-15394579D01*
X9442242Y-15394579D02*
X9451765Y-15375531D01*
X9451765Y-15375531D02*
X9461289Y-15366008D01*
X9461289Y-15366008D02*
X9480337Y-15356484D01*
X9632718Y-15556484D02*
X9632718Y-15423150D01*
X9632718Y-15442198D02*
X9642242Y-15432674D01*
X9642242Y-15432674D02*
X9661289Y-15423150D01*
X9661289Y-15423150D02*
X9689861Y-15423150D01*
X9689861Y-15423150D02*
X9708908Y-15432674D01*
X9708908Y-15432674D02*
X9718432Y-15451722D01*
X9718432Y-15451722D02*
X9718432Y-15556484D01*
X9718432Y-15451722D02*
X9727956Y-15432674D01*
X9727956Y-15432674D02*
X9747003Y-15423150D01*
X9747003Y-15423150D02*
X9775575Y-15423150D01*
X9775575Y-15423150D02*
X9794623Y-15432674D01*
X9794623Y-15432674D02*
X9804146Y-15451722D01*
X9804146Y-15451722D02*
X9804146Y-15556484D01*
X9899384Y-15556484D02*
X9899384Y-15423150D01*
X9899384Y-15442198D02*
X9908908Y-15432674D01*
X9908908Y-15432674D02*
X9927956Y-15423150D01*
X9927956Y-15423150D02*
X9956527Y-15423150D01*
X9956527Y-15423150D02*
X9975575Y-15432674D01*
X9975575Y-15432674D02*
X9985099Y-15451722D01*
X9985099Y-15451722D02*
X9985099Y-15556484D01*
X9985099Y-15451722D02*
X9994623Y-15432674D01*
X9994623Y-15432674D02*
X10013670Y-15423150D01*
X10013670Y-15423150D02*
X10042242Y-15423150D01*
X10042242Y-15423150D02*
X10061289Y-15432674D01*
X10061289Y-15432674D02*
X10070813Y-15451722D01*
X10070813Y-15451722D02*
X10070813Y-15556484D01*
X10461289Y-15346960D02*
X10289861Y-15604103D01*
X10718432Y-15356484D02*
X10737480Y-15356484D01*
X10737480Y-15356484D02*
X10756527Y-15366008D01*
X10756527Y-15366008D02*
X10766051Y-15375531D01*
X10766051Y-15375531D02*
X10775575Y-15394579D01*
X10775575Y-15394579D02*
X10785099Y-15432674D01*
X10785099Y-15432674D02*
X10785099Y-15480293D01*
X10785099Y-15480293D02*
X10775575Y-15518388D01*
X10775575Y-15518388D02*
X10766051Y-15537436D01*
X10766051Y-15537436D02*
X10756527Y-15546960D01*
X10756527Y-15546960D02*
X10737480Y-15556484D01*
X10737480Y-15556484D02*
X10718432Y-15556484D01*
X10718432Y-15556484D02*
X10699385Y-15546960D01*
X10699385Y-15546960D02*
X10689861Y-15537436D01*
X10689861Y-15537436D02*
X10680337Y-15518388D01*
X10680337Y-15518388D02*
X10670813Y-15480293D01*
X10670813Y-15480293D02*
X10670813Y-15432674D01*
X10670813Y-15432674D02*
X10680337Y-15394579D01*
X10680337Y-15394579D02*
X10689861Y-15375531D01*
X10689861Y-15375531D02*
X10699385Y-15366008D01*
X10699385Y-15366008D02*
X10718432Y-15356484D01*
X10870813Y-15537436D02*
X10880337Y-15546960D01*
X10880337Y-15546960D02*
X10870813Y-15556484D01*
X10870813Y-15556484D02*
X10861289Y-15546960D01*
X10861289Y-15546960D02*
X10870813Y-15537436D01*
X10870813Y-15537436D02*
X10870813Y-15556484D01*
X11070813Y-15556484D02*
X10956527Y-15556484D01*
X11013670Y-15556484D02*
X11013670Y-15356484D01*
X11013670Y-15356484D02*
X10994623Y-15385055D01*
X10994623Y-15385055D02*
X10975575Y-15404103D01*
X10975575Y-15404103D02*
X10956527Y-15413627D01*
X11261289Y-15556484D02*
X11147004Y-15556484D01*
X11204146Y-15556484D02*
X11204146Y-15356484D01*
X11204146Y-15356484D02*
X11185099Y-15385055D01*
X11185099Y-15385055D02*
X11166051Y-15404103D01*
X11166051Y-15404103D02*
X11147004Y-15413627D01*
X11385099Y-15356484D02*
X11404146Y-15356484D01*
X11404146Y-15356484D02*
X11423194Y-15366008D01*
X11423194Y-15366008D02*
X11432718Y-15375531D01*
X11432718Y-15375531D02*
X11442242Y-15394579D01*
X11442242Y-15394579D02*
X11451765Y-15432674D01*
X11451765Y-15432674D02*
X11451765Y-15480293D01*
X11451765Y-15480293D02*
X11442242Y-15518388D01*
X11442242Y-15518388D02*
X11432718Y-15537436D01*
X11432718Y-15537436D02*
X11423194Y-15546960D01*
X11423194Y-15546960D02*
X11404146Y-15556484D01*
X11404146Y-15556484D02*
X11385099Y-15556484D01*
X11385099Y-15556484D02*
X11366051Y-15546960D01*
X11366051Y-15546960D02*
X11356527Y-15537436D01*
X11356527Y-15537436D02*
X11347004Y-15518388D01*
X11347004Y-15518388D02*
X11337480Y-15480293D01*
X11337480Y-15480293D02*
X11337480Y-15432674D01*
X11337480Y-15432674D02*
X11347004Y-15394579D01*
X11347004Y-15394579D02*
X11356527Y-15375531D01*
X11356527Y-15375531D02*
X11366051Y-15366008D01*
X11366051Y-15366008D02*
X11385099Y-15356484D01*
X11527956Y-15375531D02*
X11537480Y-15366008D01*
X11537480Y-15366008D02*
X11556527Y-15356484D01*
X11556527Y-15356484D02*
X11604146Y-15356484D01*
X11604146Y-15356484D02*
X11623194Y-15366008D01*
X11623194Y-15366008D02*
X11632718Y-15375531D01*
X11632718Y-15375531D02*
X11642242Y-15394579D01*
X11642242Y-15394579D02*
X11642242Y-15413627D01*
X11642242Y-15413627D02*
X11632718Y-15442198D01*
X11632718Y-15442198D02*
X11518432Y-15556484D01*
X11518432Y-15556484D02*
X11642242Y-15556484D01*
X11718432Y-15356484D02*
X11718432Y-15394579D01*
X11794623Y-15356484D02*
X11794623Y-15394579D01*
X12089861Y-15632674D02*
X12080337Y-15623150D01*
X12080337Y-15623150D02*
X12061289Y-15594579D01*
X12061289Y-15594579D02*
X12051766Y-15575531D01*
X12051766Y-15575531D02*
X12042242Y-15546960D01*
X12042242Y-15546960D02*
X12032718Y-15499341D01*
X12032718Y-15499341D02*
X12032718Y-15461246D01*
X12032718Y-15461246D02*
X12042242Y-15413627D01*
X12042242Y-15413627D02*
X12051766Y-15385055D01*
X12051766Y-15385055D02*
X12061289Y-15366008D01*
X12061289Y-15366008D02*
X12080337Y-15337436D01*
X12080337Y-15337436D02*
X12089861Y-15327912D01*
X12194623Y-15442198D02*
X12175575Y-15432674D01*
X12175575Y-15432674D02*
X12166051Y-15423150D01*
X12166051Y-15423150D02*
X12156527Y-15404103D01*
X12156527Y-15404103D02*
X12156527Y-15394579D01*
X12156527Y-15394579D02*
X12166051Y-15375531D01*
X12166051Y-15375531D02*
X12175575Y-15366008D01*
X12175575Y-15366008D02*
X12194623Y-15356484D01*
X12194623Y-15356484D02*
X12232718Y-15356484D01*
X12232718Y-15356484D02*
X12251766Y-15366008D01*
X12251766Y-15366008D02*
X12261289Y-15375531D01*
X12261289Y-15375531D02*
X12270813Y-15394579D01*
X12270813Y-15394579D02*
X12270813Y-15404103D01*
X12270813Y-15404103D02*
X12261289Y-15423150D01*
X12261289Y-15423150D02*
X12251766Y-15432674D01*
X12251766Y-15432674D02*
X12232718Y-15442198D01*
X12232718Y-15442198D02*
X12194623Y-15442198D01*
X12194623Y-15442198D02*
X12175575Y-15451722D01*
X12175575Y-15451722D02*
X12166051Y-15461246D01*
X12166051Y-15461246D02*
X12156527Y-15480293D01*
X12156527Y-15480293D02*
X12156527Y-15518388D01*
X12156527Y-15518388D02*
X12166051Y-15537436D01*
X12166051Y-15537436D02*
X12175575Y-15546960D01*
X12175575Y-15546960D02*
X12194623Y-15556484D01*
X12194623Y-15556484D02*
X12232718Y-15556484D01*
X12232718Y-15556484D02*
X12251766Y-15546960D01*
X12251766Y-15546960D02*
X12261289Y-15537436D01*
X12261289Y-15537436D02*
X12270813Y-15518388D01*
X12270813Y-15518388D02*
X12270813Y-15480293D01*
X12270813Y-15480293D02*
X12261289Y-15461246D01*
X12261289Y-15461246D02*
X12251766Y-15451722D01*
X12251766Y-15451722D02*
X12232718Y-15442198D01*
X12508908Y-15556484D02*
X12508908Y-15356484D01*
X12594623Y-15556484D02*
X12594623Y-15451722D01*
X12594623Y-15451722D02*
X12585099Y-15432674D01*
X12585099Y-15432674D02*
X12566051Y-15423150D01*
X12566051Y-15423150D02*
X12537480Y-15423150D01*
X12537480Y-15423150D02*
X12518432Y-15432674D01*
X12518432Y-15432674D02*
X12508908Y-15442198D01*
X12718432Y-15556484D02*
X12699385Y-15546960D01*
X12699385Y-15546960D02*
X12689861Y-15537436D01*
X12689861Y-15537436D02*
X12680337Y-15518388D01*
X12680337Y-15518388D02*
X12680337Y-15461246D01*
X12680337Y-15461246D02*
X12689861Y-15442198D01*
X12689861Y-15442198D02*
X12699385Y-15432674D01*
X12699385Y-15432674D02*
X12718432Y-15423150D01*
X12718432Y-15423150D02*
X12747004Y-15423150D01*
X12747004Y-15423150D02*
X12766051Y-15432674D01*
X12766051Y-15432674D02*
X12775575Y-15442198D01*
X12775575Y-15442198D02*
X12785099Y-15461246D01*
X12785099Y-15461246D02*
X12785099Y-15518388D01*
X12785099Y-15518388D02*
X12775575Y-15537436D01*
X12775575Y-15537436D02*
X12766051Y-15546960D01*
X12766051Y-15546960D02*
X12747004Y-15556484D01*
X12747004Y-15556484D02*
X12718432Y-15556484D01*
X12899385Y-15556484D02*
X12880337Y-15546960D01*
X12880337Y-15546960D02*
X12870813Y-15527912D01*
X12870813Y-15527912D02*
X12870813Y-15356484D01*
X13051766Y-15546960D02*
X13032718Y-15556484D01*
X13032718Y-15556484D02*
X12994623Y-15556484D01*
X12994623Y-15556484D02*
X12975575Y-15546960D01*
X12975575Y-15546960D02*
X12966051Y-15527912D01*
X12966051Y-15527912D02*
X12966051Y-15451722D01*
X12966051Y-15451722D02*
X12975575Y-15432674D01*
X12975575Y-15432674D02*
X12994623Y-15423150D01*
X12994623Y-15423150D02*
X13032718Y-15423150D01*
X13032718Y-15423150D02*
X13051766Y-15432674D01*
X13051766Y-15432674D02*
X13061289Y-15451722D01*
X13061289Y-15451722D02*
X13061289Y-15470769D01*
X13061289Y-15470769D02*
X12966051Y-15489817D01*
X13137480Y-15546960D02*
X13156528Y-15556484D01*
X13156528Y-15556484D02*
X13194623Y-15556484D01*
X13194623Y-15556484D02*
X13213670Y-15546960D01*
X13213670Y-15546960D02*
X13223194Y-15527912D01*
X13223194Y-15527912D02*
X13223194Y-15518388D01*
X13223194Y-15518388D02*
X13213670Y-15499341D01*
X13213670Y-15499341D02*
X13194623Y-15489817D01*
X13194623Y-15489817D02*
X13166051Y-15489817D01*
X13166051Y-15489817D02*
X13147004Y-15480293D01*
X13147004Y-15480293D02*
X13137480Y-15461246D01*
X13137480Y-15461246D02*
X13137480Y-15451722D01*
X13137480Y-15451722D02*
X13147004Y-15432674D01*
X13147004Y-15432674D02*
X13166051Y-15423150D01*
X13166051Y-15423150D02*
X13194623Y-15423150D01*
X13194623Y-15423150D02*
X13213670Y-15432674D01*
X13289861Y-15632674D02*
X13299385Y-15623150D01*
X13299385Y-15623150D02*
X13318432Y-15594579D01*
X13318432Y-15594579D02*
X13327956Y-15575531D01*
X13327956Y-15575531D02*
X13337480Y-15546960D01*
X13337480Y-15546960D02*
X13347004Y-15499341D01*
X13347004Y-15499341D02*
X13347004Y-15461246D01*
X13347004Y-15461246D02*
X13337480Y-15413627D01*
X13337480Y-15413627D02*
X13327956Y-15385055D01*
X13327956Y-15385055D02*
X13318432Y-15366008D01*
X13318432Y-15366008D02*
X13299385Y-15337436D01*
X13299385Y-15337436D02*
X13289861Y-15327912D01*
M02*
